<?xml version="1.0" standalone="no"?>
<!DOCTYPE svg PUBLIC "-//W3C//DTD SVG 20010904//EN"
 "http://www.w3.org/TR/2001/REC-SVG-20010904/DTD/svg10.dtd">
<svg version="1.0" xmlns="http://www.w3.org/2000/svg"
 width="260.000000pt" height="260.000000pt" viewBox="0 0 260.000000 260.000000"
 preserveAspectRatio="xMidYMid meet">
<metadata>
Created by potrace 1.11, written by Peter Selinger 2001-2013
</metadata>
<g transform="translate(0.000000,260.000000) scale(0.100000,-0.100000)"
fill="#000000" stroke="none">
<path d="M1165 2584 c-285 -44 -570 -195 -775 -410 -188 -197 -311 -428 -366
-689 -24 -117 -26 -344 -3 -465 47 -242 149 -458 313 -660 70 -87 220 -238
268 -270 l33 -23 -27 27 c-160 155 -302 426 -342 651 -63 351 31 721 263 1030
205 273 490 462 811 539 142 34 341 39 480 11 14 -2 39 -7 55 -11 164 -32 459
-178 575 -284 78 -72 84 -74 40 -20 -134 169 -360 351 -557 449 -238 118 -517
164 -768 125z"/>
<path d="M1570 2004 c-282 -35 -492 -139 -692 -341 -106 -106 -160 -180 -218
-298 -143 -288 -152 -587 -25 -854 161 -338 442 -513 813 -506 486 9 838 223
1037 630 87 179 110 284 108 495 -1 161 -24 280 -76 391 -169 362 -512 537
-947 483z m187 -349 c62 -26 101 -90 129 -216 9 -41 11 -240 3 -334 -11 -123
-19 -197 -24 -215 -2 -8 -6 -33 -10 -55 -42 -283 -213 -502 -382 -488 -90 7
-148 65 -182 182 -30 101 -33 124 -36 291 -3 123 1 177 16 260 24 125 68 261
115 350 95 182 249 275 371 225z"/>
</g>
</svg>
