<?xml version="1.0" standalone="no"?>
<!DOCTYPE svg PUBLIC "-//W3C//DTD SVG 20010904//EN"
 "http://www.w3.org/TR/2001/REC-SVG-20010904/DTD/svg10.dtd">
<svg version="1.0" xmlns="http://www.w3.org/2000/svg"
 width="700.000000pt" height="700.000000pt" viewBox="0 0 700.000000 700.000000"
 preserveAspectRatio="xMidYMid meet">
<metadata>
Created by potrace 1.14, written by Peter Selinger 2001-2017
</metadata>
<g transform="translate(0.000000,700.000000) scale(0.100000,-0.100000)"
fill="#000000" stroke="none">
<path d="M3299 6996 c-2 -2 -47 -6 -99 -10 -52 -3 -106 -8 -120 -10 -14 -2
-46 -7 -71 -10 -63 -9 -144 -23 -239 -42 -239 -48 -537 -150 -785 -269 -573
-276 -1063 -705 -1410 -1235 -106 -161 -131 -206 -214 -375 -158 -320 -258
-631 -316 -982 -3 -18 -8 -48 -11 -65 -5 -32 -8 -57 -22 -208 -9 -97 -8 -493
1 -590 4 -41 9 -102 13 -135 3 -33 8 -67 11 -75 4 -8 5 -19 4 -24 -7 -29 80
-395 129 -546 77 -236 208 -522 330 -725 30 -49 57 -92 60 -95 3 -3 26 -36 51
-75 152 -231 422 -527 660 -722 89 -74 304 -233 313 -233 3 0 32 -18 65 -40
33 -22 63 -40 67 -40 4 0 15 -6 23 -14 9 -8 82 -48 163 -89 208 -107 458 -204
683 -267 115 -32 378 -83 495 -95 30 -4 69 -8 85 -11 56 -8 529 -11 610 -4
147 14 209 21 215 25 3 2 32 6 65 9 76 8 259 49 395 87 305 87 551 193 850
366 77 44 250 164 345 238 669 521 1127 1263 1289 2090 50 252 61 388 60 710
-1 234 -4 278 -40 540 -10 69 -64 306 -96 415 -132 451 -369 891 -677 1260
-108 129 -317 338 -431 430 -30 25 -57 48 -60 51 -3 3 -50 40 -106 81 -196
145 -445 291 -654 383 -47 20 -103 45 -125 55 -157 70 -532 173 -750 206 -27
4 -57 9 -65 10 -8 2 -44 6 -80 10 -36 3 -78 8 -95 11 -36 5 -510 14 -516 9z"/>
</g>
</svg>
