<svg>
<g onkeypress="pick_color_tape(evt)" >
<g onmouseup="pick_lacher(evt)" onmousemove="pick_bouger(evt)" onmousedown="pick_choisir(evt)">

<!--rect x="0" y="15" width="180" height="210" style="fill:#CCCCCC;stroke-width:0"/-->
<rect id="test" x="15" y="20" width="120" height="30" style="fill:#808080;fill-opacity:1.0; stroke:black"/>
<!--text id="couleur" x="125" y="215" style="display=none">#808080</text -->
<rect x="10" y="70" width="130" height="7" style="fill:red; stroke:gray"/>
<rect x="10" y="100" width="130" height="7" style="fill:green; stroke:gray"/>
<rect x="10" y="130" width="130" height="7" style="fill:blue; stroke:gray"/>
<!--rect x="230" y="0" width="16" height="16" style="fill:white;stroke:black"/-->
<!--path d="M233 3l10 10 M233 13l10 -10" style="stroke:black;stroke-width:3"/-->
<!--rect onclick="close_pick_color(false)" x="235" y="0" width="15" height="15" style="fill:white;fill-opacity:0"/ -->
<g  style="stroke:#131516;stroke-width:1;stroke-linejoin:round">
<rect id="rouge" x="75" y="65" width="3" height="16" style="fill:gray"/>
<rect id="vert" x="75" y="95" width="3" height="16" style="fill:gray"/>
<rect id="bleu" x="75" y="125" width="3" height="16" style="fill:gray"/>
</g>
</g>
<rect x="15" y="145" width="50" height="20" style="fill:blue;stroke:pink;stroke-width:1;fill-opacity:0.5;stroke-opacity:0.9"/>
<text x="28" y="160" style="font-size:10pt;fill:white">OK</text>
<rect onclick="close_pick_color(true)" x="15" y="145" width="50" height="20" style="fill:green;fill-opacity:0"/>

<rect x="85" y="145" width="50" height="20" style="fill:blue;stroke:pink;stroke-width:1;fill-opacity:0.5;stroke-opacity:0.9"/>
<text x="90" y="160" style="font-size:10pt;fill:white">Cancel</text>
<rect onclick="close_pick_color(false)" x="85" y="145" width="50" height="20" style="fill:green;fill-opacity:0"/>


</g>
</svg>