<?xml version="1.0" encoding="iso-8859-1"?>
<!-- Generator: Adobe Illustrator 10.0, SVG Export Plug-In . SVG Version: 3.0.0 Build 76)  -->
<!DOCTYPE svg PUBLIC "-//W3C//DTD SVG 1.0//EN"    "http://www.w3.org/TR/2001/REC-SVG-20010904/DTD/svg10.dtd" [
	<!ENTITY ns_flows "http://ns.adobe.com/Flows/1.0/">
	<!ENTITY ns_svg "http://www.w3.org/2000/svg">
	<!ENTITY ns_xlink "http://www.w3.org/1999/xlink">
]>
<svg  xmlns="&ns_svg;" xmlns:xlink="&ns_xlink;" xmlns:a="http://ns.adobe.com/AdobeSVGViewerExtensions/3.0/"
	 width="123.549" height="114.554" viewBox="0 0 123.549 114.554" overflow="visible" enable-background="new 0 0 123.549 114.554"
	 xml:space="preserve">
	<g id="other">
	</g>
	<g id="opennms">
	</g>
	<g id="unspecified">
	</g>
	<g id="infrastructure">
		<g>
			<path fill="#003399" d="M60.535,17.288c-0.015-0.053-0.012-0.054,0.005-0.001l12.415,37.355c0.017,0.052-0.009,0.075-0.059,0.05
				l-10.782-5.355c-0.05-0.024-0.076-0.001-0.059,0.051l7.761,23.783c0.018,0.052-0.009,0.074-0.057,0.048l-11.239-5.988
				c-0.048-0.026-0.08-0.002-0.07,0.052l5.984,33.115c0.01,0.054,0.008,0.055-0.004,0.001l-7.808-34.884
				c-0.012-0.054,0.02-0.079,0.069-0.056l10.329,4.724c0.05,0.023,0.075-0.001,0.057-0.053l-8.539-23.806
				c-0.019-0.052,0.007-0.077,0.058-0.055l11.109,4.75c0.051,0.021,0.08-0.004,0.065-0.058L60.535,17.288z"/>
		</g>
		<g>
			<path fill="#003399" d="M56.433,12.727c0.016-0.053,0.018-0.052,0.005,0.001l-8.781,36.42c-0.013,0.053-0.046,0.058-0.072,0.01
				l-5.817-10.337c-0.026-0.048-0.06-0.044-0.073,0.01l-5.699,23.104c-0.014,0.054-0.046,0.057-0.071,0.009l-5.862-11.093
				c-0.025-0.048-0.063-0.046-0.084,0.004l-11.729,29.43c-0.021,0.051-0.022,0.05-0.004-0.001l11.174-31.857
				c0.019-0.052,0.057-0.056,0.085-0.009L35.275,58c0.028,0.047,0.062,0.042,0.073-0.012l5.103-23.563
				c0.012-0.054,0.046-0.06,0.075-0.013l6.373,10.043c0.029,0.046,0.066,0.042,0.082-0.011L56.433,12.727z"/>
		</g>
		<g>
			<path fill="#003399" d="M61.851,18.116c-0.044-0.033-0.043-0.035,0.003-0.004l30.298,20.521c0.046,0.031,0.038,0.061-0.017,0.067
				l-11.97,1.278c-0.055,0.006-0.063,0.036-0.018,0.067l19.167,13.129c0.045,0.031,0.037,0.061-0.018,0.065l-12.691,1.046
				c-0.055,0.004-0.066,0.039-0.025,0.076l22.602,20.541c0.041,0.037,0.04,0.039-0.003,0.003L84.095,53.969
				c-0.043-0.035-0.032-0.07,0.022-0.077l11.25-1.511c0.055-0.007,0.062-0.038,0.016-0.067L75.546,39.532
				c-0.046-0.03-0.039-0.061,0.015-0.07l11.926-1.858c0.054-0.008,0.063-0.042,0.019-0.076L61.851,18.116z"/>
		</g>
		<g>
			<path fill="#003399" d="M83.286,7.861c0.021,2.75-2.212,5.017-4.962,5.039l-31.169,0.238c-2.75,0.021-5.018-2.211-5.038-4.961
				l-0.022-2.899c-0.021-2.75,2.212-5.017,4.962-5.038L78.226,0c2.75-0.021,5.018,2.212,5.038,4.962L83.286,7.861z"/>
		</g>
		<g>
			
				<linearGradient id="XMLID_1_" gradientUnits="userSpaceOnUse" x1="168.4873" y1="-41.333" x2="188.4962" y2="-61.3419" gradientTransform="matrix(2.7143 -0.0208 0.0028 0.3636 -421.5774 28.7983)">
				<stop  offset="0" style="stop-color:#FFFFFF"/>
				<stop  offset="0.2767" style="stop-color:#BCCAE4"/>
				<stop  offset="0.916" style="stop-color:#1645A2"/>
				<stop  offset="1" style="stop-color:#003399"/>
				<a:midPointStop  offset="0" style="stop-color:#FFFFFF"/>
				<a:midPointStop  offset="0.5141" style="stop-color:#FFFFFF"/>
				<a:midPointStop  offset="1" style="stop-color:#003399"/>
			</linearGradient>
			<path fill="url(#XMLID_1_)" d="M82.408,6.582c0.021,2.75-2.212,5.017-4.962,5.039l-29.295,0.225
				c-2.75,0.021-5.018-2.212-5.039-4.962l-0.004-0.625c-0.021-2.75,2.211-5.017,4.961-5.039l29.296-0.225
				c2.75-0.021,5.018,2.211,5.038,4.961L82.408,6.582z"/>
		</g>
		<g>
			<path fill="#003399" d="M30.977,91.056c0,2.75-2.25,5-5,5H5c-2.75,0-5-2.25-5-5v-21.09c0-2.75,2.25-5,5-5h20.977
				c2.75,0,5,2.25,5,5V91.056z"/>
		</g>
		<g>
			<linearGradient id="XMLID_2_" gradientUnits="userSpaceOnUse" x1="2.6895" y1="92.5024" x2="27.447" y2="67.7449">
				<stop  offset="0" style="stop-color:#FFFFFF"/>
				<stop  offset="0.2767" style="stop-color:#BCCAE4"/>
				<stop  offset="0.916" style="stop-color:#1645A2"/>
				<stop  offset="1" style="stop-color:#003399"/>
				<a:midPointStop  offset="0" style="stop-color:#FFFFFF"/>
				<a:midPointStop  offset="0.5141" style="stop-color:#FFFFFF"/>
				<a:midPointStop  offset="1" style="stop-color:#003399"/>
			</linearGradient>
			<path fill="url(#XMLID_2_)" d="M28.815,89.07c0,2.75-2.25,5-5,5H6.32c-2.75,0-5-2.25-5-5V71.175c0-2.75,2.25-5,5-5h17.495
				c2.75,0,5,2.25,5,5V89.07z"/>
		</g>
		<g>
			<path fill="#003399" d="M84.084,22.802c0.021,2.75-2.212,5.017-4.962,5.039l-31.169,0.238c-2.75,0.021-5.018-2.211-5.038-4.961
				l-0.022-2.899c-0.021-2.75,2.212-5.017,4.962-5.038l31.169-0.239c2.75-0.021,5.018,2.212,5.038,4.962L84.084,22.802z"/>
		</g>
		<g>
			
				<linearGradient id="XMLID_3_" gradientUnits="userSpaceOnUse" x1="168.9932" y1="-1.3037" x2="189.0254" y2="-21.3359" gradientTransform="matrix(2.7487 -0.0211 0.0028 0.3635 -428.7048 29.2561)">
				<stop  offset="0" style="stop-color:#FFFFFF"/>
				<stop  offset="0.2767" style="stop-color:#BCCAE4"/>
				<stop  offset="0.916" style="stop-color:#1645A2"/>
				<stop  offset="1" style="stop-color:#003399"/>
				<a:midPointStop  offset="0" style="stop-color:#FFFFFF"/>
				<a:midPointStop  offset="0.5141" style="stop-color:#FFFFFF"/>
				<a:midPointStop  offset="1" style="stop-color:#003399"/>
			</linearGradient>
			<path fill="url(#XMLID_3_)" d="M83.206,21.523c0.021,2.75-2.212,5.017-4.962,5.038L48.451,26.79
				c-2.75,0.021-5.018-2.211-5.039-4.961l-0.004-0.624c-0.021-2.75,2.211-5.017,4.961-5.039l29.794-0.229
				c2.75-0.021,5.018,2.211,5.038,4.961L83.206,21.523z"/>
		</g>
		<g>
			<path fill="#003399" d="M25.992,87.969c0,1.1-0.9,2-2,2h-3.007c-1.1,0-2-0.9-2-2V75.386c0-1.1,0.9-2,2-2h3.007c1.1,0,2,0.9,2,2
				V87.969z"/>
		</g>
		<g>
			<path fill="#003399" d="M53.898,22.967c0,1.1-0.9,2-2,2h-3.007c-1.1,0-2-0.9-2-2v-3.25c0-1.1,0.9-2,2-2h3.007c1.1,0,2,0.9,2,2
				V22.967z"/>
		</g>
		<g>
			<path fill="#003399" d="M52.898,7.967c0,1.1-0.9,2-2,2h-3.007c-1.1,0-2-0.9-2-2v-3.25c0-1.1,0.9-2,2-2h3.007c1.1,0,2,0.9,2,2
				V7.967z"/>
		</g>
		<g>
			<path fill="#003399" d="M74.549,109.554c0,2.75-2.25,5-5,5H48.572c-2.75,0-5-2.25-5-5v-21.09c0-2.75,2.25-5,5-5h20.977
				c2.75,0,5,2.25,5,5V109.554z"/>
		</g>
		<g>
			<linearGradient id="XMLID_4_" gradientUnits="userSpaceOnUse" x1="46.2617" y1="111" x2="71.0193" y2="86.2424">
				<stop  offset="0" style="stop-color:#FFFFFF"/>
				<stop  offset="0.2767" style="stop-color:#BCCAE4"/>
				<stop  offset="0.916" style="stop-color:#1645A2"/>
				<stop  offset="1" style="stop-color:#003399"/>
				<a:midPointStop  offset="0" style="stop-color:#FFFFFF"/>
				<a:midPointStop  offset="0.5141" style="stop-color:#FFFFFF"/>
				<a:midPointStop  offset="1" style="stop-color:#003399"/>
			</linearGradient>
			<path fill="url(#XMLID_4_)" d="M72.388,107.568c0,2.75-2.25,5-5,5H49.893c-2.75,0-5-2.25-5-5V89.673c0-2.75,2.25-5,5-5h17.495
				c2.75,0,5,2.25,5,5V107.568z"/>
		</g>
		<g>
			<path fill="#003399" d="M69.564,106.467c0,1.1-0.9,2-2,2h-3.007c-1.1,0-2-0.9-2-2V93.884c0-1.1,0.9-2,2-2h3.007c1.1,0,2,0.9,2,2
				V106.467z"/>
		</g>
		<g>
			<path fill="#003399" d="M123.549,91.554c0,2.75-2.25,5-5,5H97.572c-2.75,0-5-2.25-5-5v-21.09c0-2.75,2.25-5,5-5h20.977
				c2.75,0,5,2.25,5,5V91.554z"/>
		</g>
		<g>
			<linearGradient id="XMLID_5_" gradientUnits="userSpaceOnUse" x1="95.2617" y1="93" x2="120.0193" y2="68.2424">
				<stop  offset="0" style="stop-color:#FFFFFF"/>
				<stop  offset="0.2767" style="stop-color:#BCCAE4"/>
				<stop  offset="0.916" style="stop-color:#1645A2"/>
				<stop  offset="1" style="stop-color:#003399"/>
				<a:midPointStop  offset="0" style="stop-color:#FFFFFF"/>
				<a:midPointStop  offset="0.5141" style="stop-color:#FFFFFF"/>
				<a:midPointStop  offset="1" style="stop-color:#003399"/>
			</linearGradient>
			<path fill="url(#XMLID_5_)" d="M121.388,89.568c0,2.75-2.25,5-5,5H98.893c-2.75,0-5-2.25-5-5V71.673c0-2.75,2.25-5,5-5h17.495
				c2.75,0,5,2.25,5,5V89.568z"/>
		</g>
		<g>
			<path fill="#003399" d="M118.564,88.467c0,1.1-0.9,2-2,2h-3.007c-1.1,0-2-0.9-2-2V75.884c0-1.1,0.9-2,2-2h3.007c1.1,0,2,0.9,2,2
				V88.467z"/>
		</g>
	</g>
	<g id="printer">
	</g>
	<g id="server">
	</g>
	<g id="telephony">
	</g>
	<g id="workstation">
	</g>
	<g id="laptop">
	</g>
</svg>
