<?xml version="1.0" encoding="iso-8859-1"?>
<!DOCTYPE svg PUBLIC "-//W3C//DTD SVG 20000303 Stylable//EN"
"http://www.w3.org/TR/2000/03/WD-SVG-20000303/DTD/svg-20000303-stylable.dtd">

<svg width="1.9896in" height="3.1770in" viewBox="0 0 625 998">

<path style="fill:#b7b79d" d="M11,83 l0,904 533,0 0,-904 -533,0z" />
<path style="fill:#b7b79d;stroke:#494936;stroke-width:2" d="M11,83 l0,904 533,0 0,-904 -533,0z" />
<path style="fill:#c9c9b6" d="M11,83 l72,-72 533,0 -72,72 -533,0z" />
<path style="fill:#c9c9b6;stroke:#494936;stroke-width:2" d="M11,83 l72,-72 533,0 -72,72 -533,0z" />
<rect style="fill:#c9c9b6;stroke:#626248;stroke-width:2" x="44" y="136" width="234" height="109" />
<line style="fill:none;stroke:#edede7;stroke-width:2" x1="-73" y1="196" x2="400" y2="196" />
<path style="fill:#7a7a5a" d="M544,987 l72,-72 0,-904 -72,72 0,904z" />
<path style="fill:#7a7a5a;stroke:#494936;stroke-width:2" d="M544,987 l72,-72 0,-904 -72,72 0,904z" />
<line style="fill:none;stroke:#edede7;stroke-width:2" x1="-487" y1="927" x2="1050" y2="927" />
<line style="fill:none;stroke:#edede7;stroke-width:2" x1="-487" y1="447" x2="1050" y2="447" />
<line style="fill:none;stroke:#494936;stroke-width:2" x1="-500" y1="922" x2="1056" y2="922" />
<line style="fill:none;stroke:#494936;stroke-width:2" x1="-500" y1="440" x2="1056" y2="440" />
<path style="fill:none;stroke:#edede7;stroke-width:2" d="M44,248 l0,-112 237,0" />

</svg>
