<?xml version="1.0" encoding="iso-8859-1"?>
<!DOCTYPE svg PUBLIC "-//W3C//DTD SVG 20000303 Stylable//EN"
"http://www.w3.org/TR/2000/03/WD-SVG-20000303/DTD/svg-20000303-stylable.dtd">

<svg width="1.4152in" height="3.1771in" viewBox="0 0 445 999">

<path style="fill:#700" d="M253,174 l176,-170 0,806 -176,170 0,-806z" />
<path style="fill:#700;stroke:#aaa;stroke-width:2" d="M258,179 l175,-171 0,805 -175,170 0,-804z" />
<line style="fill:none;stroke:#aaa;stroke-width:2" x1="82" y1="486" x2="609" y2="-24" />
<line style="fill:none;stroke:#aaa;stroke-width:2" x1="82" y1="614" x2="609" y2="104" />
<line style="fill:none;stroke:#aaa;stroke-width:2" x1="82" y1="743" x2="609" y2="232" />
<line style="fill:none;stroke:#aaa;stroke-width:2" x1="82" y1="871" x2="609" y2="361" />
<line style="fill:none;stroke:#aaa;stroke-width:2" x1="82" y1="1016" x2="609" y2="507" />
<line style="fill:none;stroke:#aaa;stroke-width:2" x1="317" y1="1" x2="317" y2="386" />
<line style="fill:none;stroke:#aaa;stroke-width:2" x1="365" y1="83" x2="365" y2="468" />
<line style="fill:none;stroke:#aaa;stroke-width:2" x1="323" y1="274" x2="323" y2="622" />
<line style="fill:none;stroke:#aaa;stroke-width:2" x1="368" y1="365" x2="368" y2="701" />
<line style="fill:none;stroke:#aaa;stroke-width:2" x1="326" y1="519" x2="326" y2="904" />
<line style="fill:none;stroke:#aaa;stroke-width:2" x1="374" y1="607" x2="374" y2="992" />
<path style="fill:#a00" d="M4,174 l0,133 249,0 0,-133 -249,0z" />
<path style="fill:#a00;stroke:#c7c7c7;stroke-width:2" d="M8,179 l0,132 250,0 0,-132 -250,0z" />
<path style="fill:#a00" d="M4,307 l0,133 249,0 0,-133 -249,0z" />
<path style="fill:#a00;stroke:#c7c7c7;stroke-width:2" d="M8,311 l0,133 250,0 0,-133 -250,0z" />
<path style="fill:#a00" d="M4,440 l0,133 249,0 0,-133 -249,0z" />
<path style="fill:#a00;stroke:#c7c7c7;stroke-width:2" d="M8,444 l0,133 250,0 0,-133 -250,0z" />
<path style="fill:#a00" d="M4,573 l0,137 249,0 0,-137 -249,0z" />
<path style="fill:#a00;stroke:#c7c7c7;stroke-width:2" d="M8,577 l0,137 250,0 0,-137 -250,0z" />
<path style="fill:#a00" d="M4,710 l0,133 249,0 0,-133 -249,0z" />
<path style="fill:#a00;stroke:#c7c7c7;stroke-width:2" d="M8,714 l0,133 250,0 0,-133 -250,0z" />
<path style="fill:#a00" d="M4,843 l0,133 249,0 0,-133 -249,0z" />
<path style="fill:#a00;stroke:#c7c7c7;stroke-width:2" d="M8,847 l0,133 250,0 0,-133 -250,0z" />
<line style="fill:none;stroke:#c7c7c7;stroke-width:2" x1="91" y1="59" x2="91" y2="432" />
<line style="fill:none;stroke:#c7c7c7;stroke-width:2" x1="172" y1="195" x2="172" y2="556" />
<line style="fill:none;stroke:#c7c7c7;stroke-width:2" x1="91" y1="332" x2="91" y2="692" />
<line style="fill:none;stroke:#c7c7c7;stroke-width:2" x1="172" y1="456" x2="172" y2="831" />
<line style="fill:none;stroke:#c7c7c7;stroke-width:2" x1="91" y1="595" x2="91" y2="967" />
<line style="fill:none;stroke:#c7c7c7;stroke-width:2" x1="172" y1="731" x2="172" y2="1092" />
<path style="fill:#ff555d" d="M4,174 l181,-170 244,0 -180,170 -245,0z" />
<path style="fill:#ff555d;stroke:#e3e3e3;stroke-width:2" d="M8,179 l180,-171 245,0 -180,171 -245,0z" />
<line style="fill:none;stroke:#e3e3e3;stroke-width:2" x1="490" y1="129" x2="-24" y2="129" />
<line style="fill:none;stroke:#e3e3e3;stroke-width:2" x1="-85" y1="353" x2="442" y2="-156" />
<line style="fill:none;stroke:#e3e3e3;stroke-width:2" x1="34" y1="80" x2="278" y2="80" />

</svg>
