<?xml version="1.0" encoding="iso-8859-1"?>
<!DOCTYPE svg PUBLIC "-//W3C//DTD SVG 20000303 Stylable//EN"
"http://www.w3.org/TR/2000/03/WD-SVG-20000303/DTD/svg-20000303-stylable.dtd">

<svg width="4.7500in" height="3.1667in" viewBox="0 0 999 666">

<path style="fill:#7a7a5a" d="M201,593 l0,-320 -68,69 0,318 68,-67z" />
<path style="fill:#7a7a5a;stroke:#494936;stroke-width:2" d="M201,593 l0,-320 -68,69 0,318 68,-67z" />
<path style="fill:#7a7a5a" d="M269,526 l0,-320 -68,67 0,320 68,-67z" />
<path style="fill:#7a7a5a;stroke:#494936;stroke-width:2" d="M269,526 l0,-320 -68,67 0,320 68,-67z" />
<path style="fill:#fff" d="M338,457 l0,-318 -69,67 0,320 69,-69z" />
<path style="fill:#fff;stroke:#000;stroke-width:2" d="M338,457 l0,-318 -69,67 0,320 69,-69z" />
<path style="fill:#7a7a5a" d="M406,390 l0,-320 -68,69 0,318 68,-67z" />
<path style="fill:#7a7a5a;stroke:#494936;stroke-width:2" d="M406,390 l0,-320 -68,69 0,318 68,-67z" />
<path style="fill:#7a7a5a" d="M474,322 l0,-319 -68,67 0,320 68,-68z" />
<path style="fill:#7a7a5a;stroke:#494936;stroke-width:2" d="M474,322 l0,-319 -68,67 0,320 68,-68z" />
<path style="fill:#b7b79d" d="M3,660 l0,-318 130,0 0,318 -130,0z" />
<path style="fill:#b7b79d;stroke:#494936;stroke-width:2" d="M3,660 l0,-318 130,0 0,318 -130,0z" />
<path style="fill:#b7b79d" d="M269,526 l0,-320 131,0 0,320 -131,0z" />
<path style="fill:#b7b79d;stroke:#494936;stroke-width:2" d="M269,526 l0,-320 131,0 0,320 -131,0z" />
<path style="fill:#b7b79d" d="M400,526 l0,-320 130,0 0,320 -130,0z" />
<path style="fill:#b7b79d;stroke:#494936;stroke-width:2" d="M400,526 l0,-320 130,0 0,320 -130,0z" />
<path style="fill:#b7b79d" d="M530,526 l0,-320 130,0 0,320 -130,0z" />
<path style="fill:#b7b79d;stroke:#494936;stroke-width:2" d="M530,526 l0,-320 130,0 0,320 -130,0z" />
<path style="fill:#c9c9b6" d="M71,273 l-68,69 130,0 68,-69 -130,0z" />
<path style="fill:#c9c9b6;stroke:#494936;stroke-width:2" d="M71,273 l-68,69 130,0 68,-69 -130,0z" />
<path style="fill:#c9c9b6" d="M139,206 l-68,67 130,0 68,-67 -130,0z" />
<path style="fill:#c9c9b6;stroke:#494936;stroke-width:2" d="M139,206 l-68,67 130,0 68,-67 -130,0z" />
<path style="fill:#c9c9b6" d="M208,139 l-69,67 261,0 68,-67 -260,0z" />
<path style="fill:#c9c9b6;stroke:#494936;stroke-width:2" d="M208,139 l-69,67 261,0 68,-67 -260,0z" />
<path style="fill:#c9c9b6" d="M275,70 l-67,69 130,0 68,-69 -131,0z" />
<path style="fill:#c9c9b6;stroke:#494936;stroke-width:2" d="M275,70 l-67,69 130,0 68,-69 -131,0z" />
<path style="fill:#c9c9b6" d="M344,3 l-69,67 131,0 68,-67 -130,0z" />
<path style="fill:#c9c9b6;stroke:#494936;stroke-width:2" d="M344,3 l-69,67 131,0 68,-67 -130,0z" />
<path style="fill:#c9c9b6" d="M468,139 l-68,67 130,0 69,-67 -131,0z" />
<path style="fill:#c9c9b6;stroke:#494936;stroke-width:2" d="M468,139 l-68,67 130,0 69,-67 -131,0z" />
<path style="fill:#93936c" d="M24,436 l0,-73 88,0 0,73 -88,0z" />
<path style="fill:#93936c;stroke:#494936;stroke-width:2" d="M24,436 l0,-73 88,0 0,73 -88,0z" />
<path style="fill:#b7b79d" d="M524,660 l0,-318 131,0 0,318 -131,0z" />
<path style="fill:#b7b79d;stroke:#494936;stroke-width:2" d="M524,660 l0,-318 131,0 0,318 -131,0z" />
<path style="fill:#7a7a5a" d="M723,593 l0,-320 -68,69 0,318 68,-67z" />
<path style="fill:#7a7a5a;stroke:#494936;stroke-width:2" d="M723,593 l0,-320 -68,69 0,318 68,-67z" />
<path style="fill:#7a7a5a" d="M792,526 l0,-320 -69,67 0,320 69,-67z" />
<path style="fill:#7a7a5a;stroke:#494936;stroke-width:2" d="M792,526 l0,-320 -69,67 0,320 69,-67z" />
<path style="fill:#7a7a5a" d="M859,457 l0,-318 -67,67 0,320 67,-69z" />
<path style="fill:#7a7a5a;stroke:#494936;stroke-width:2" d="M859,457 l0,-318 -67,67 0,320 67,-69z" />
<path style="fill:#7a7a5a" d="M928,390 l0,-320 -69,69 0,318 69,-67z" />
<path style="fill:#7a7a5a;stroke:#494936;stroke-width:2" d="M928,390 l0,-320 -69,69 0,318 69,-67z" />
<path style="fill:#7a7a5a" d="M995,322 l0,-319 -67,67 0,320 67,-68z" />
<path style="fill:#7a7a5a;stroke:#494936;stroke-width:2" d="M995,322 l0,-319 -67,67 0,320 67,-68z" />
<path style="fill:#c9c9b6" d="M599,139 l-69,67 262,0 67,-67 -260,0z" />
<path style="fill:#c9c9b6;stroke:#494936;stroke-width:2" d="M599,139 l-69,67 262,0 67,-67 -260,0z" />
<path style="fill:#c9c9b6" d="M798,70 l-69,69 130,0 69,-69 -130,0z" />
<path style="fill:#c9c9b6;stroke:#494936;stroke-width:2" d="M798,70 l-69,69 130,0 69,-69 -130,0z" />
<path style="fill:#c9c9b6" d="M865,3 l-67,67 130,0 67,-67 -130,0z" />
<path style="fill:#c9c9b6;stroke:#494936;stroke-width:2" d="M865,3 l-67,67 130,0 67,-67 -130,0z" />
<path style="fill:#c9c9b6" d="M593,273 l-69,69 131,0 68,-69 -130,0z" />
<path style="fill:#c9c9b6;stroke:#494936;stroke-width:2" d="M593,273 l-69,69 131,0 68,-69 -130,0z" />
<path style="fill:#c9c9b6" d="M660,206 l-67,67 130,0 69,-67 -132,0z" />
<path style="fill:#c9c9b6;stroke:#494936;stroke-width:2" d="M660,206 l-67,67 130,0 69,-67 -132,0z" />
<path style="fill:#93936c" d="M546,436 l0,-73 87,0 0,73 -87,0z" />
<path style="fill:#93936c;stroke:#494936;stroke-width:2" d="M546,436 l0,-73 87,0 0,73 -87,0z" />

</svg>
