<?xml version="1.0" encoding="iso-8859-1"?>
<!DOCTYPE svg PUBLIC "-//W3C//DTD SVG 20000303 Stylable//EN"
"http://www.w3.org/TR/2000/03/WD-SVG-20000303/DTD/svg-20000303-stylable.dtd">

<svg width="2.9792in" height="2.9255in" viewBox="0 0 999 981">

<path style="fill:#0096d5" d="M5,108 l0,855 864,0 0,-855 -864,0z" />
<path style="fill:#0096d5;stroke:#aae6ff;stroke-width:2" d="M5,108 l0,855 864,0 0,-855 -864,0z" />
<path style="fill:#00b4ff" d="M5,108 l108,-103 865,0 -109,103 -864,0z" />
<path style="fill:#00b4ff;stroke:#aae6ff;stroke-width:2" d="M5,108 l108,-103 865,0 -109,103 -864,0z" />
<path style="fill:#005a80" d="M869,108 l109,-103 0,849 -109,103 0,-849z" />
<path style="fill:#005a80;stroke:#aae6ff;stroke-width:2" d="M869,108 l109,-103 0,849 -109,103 0,-849z" />
<path style="fill:#000" d="M342,492 l-229,0 0,-31 -68,63 68,69 0,-29 229,0 0,-72z" />
<path style="fill:#000" d="M342,492 l-229,0 0,-31 -68,63 68,69 0,-29 229,0 0,-72z" />
<path style="fill:#000" d="M388,444 l-163,-164 23,-23 -94,0 0,95 22,-26 166,166 46,-48z" />
<path style="fill:#000" d="M388,444 l-163,-164 23,-23 -94,0 0,95 22,-26 166,166 46,-48z" />
<path style="fill:#000" d="M460,444 l0,-236 31,0 -63,-63 -71,63 31,0 0,236 72,0z" />
<path style="fill:#000" d="M460,444 l0,-236 31,0 -63,-63 -71,63 31,0 0,236 72,0z" />
<path style="fill:#000" d="M508,492 l163,-166 23,26 0,-95 -91,0 23,23 -166,164 48,48z" />
<path style="fill:#000" d="M508,492 l163,-166 23,26 0,-95 -91,0 23,23 -166,164 48,48z" />
<path style="fill:#000" d="M508,564 l235,0 0,29 63,-69 -63,-63 0,31 -235,0 0,72z" />
<path style="fill:#000" d="M508,564 l235,0 0,29 63,-69 -63,-63 0,31 -235,0 0,72z" />
<path style="fill:#000" d="M460,610 l166,166 -23,23 91,-8 0,-86 -23,23 -163,-164 -48,46z" />
<path style="fill:#000" d="M460,610 l166,166 -23,23 91,-8 0,-86 -23,23 -163,-164 -48,46z" />
<path style="fill:#000" d="M388,610 l0,235 -31,0 71,63 63,-63 -31,0 0,-235 -72,0z" />
<path style="fill:#000" d="M388,610 l0,235 -31,0 71,63 63,-63 -31,0 0,-235 -72,0z" />
<path style="fill:#000" d="M342,564 l-166,164 -22,-23 0,94 94,0 -23,-23 163,-166 -46,-46z" />
<path style="fill:#000" d="M342,564 l-166,164 -22,-23 0,94 94,0 -23,-23 163,-166 -46,-46z" />
<path style="fill:#fff" d="M351,501 l-229,0 0,-32 -72,63 72,69 0,-31 229,0 0,-69z" />
<path style="fill:#fff" d="M351,501 l-229,0 0,-32 -72,63 72,69 0,-31 229,0 0,-69z" />
<path style="fill:#fff" d="M397,452 l-163,-163 22,-26 -94,0 0,94 23,-23 166,167 46,-49z" />
<path style="fill:#fff" d="M397,452 l-163,-163 22,-26 -94,0 0,94 23,-23 166,167 46,-49z" />
<path style="fill:#fff" d="M468,452 l0,-235 32,0 -63,-63 -72,63 32,0 0,235 71,0z" />
<path style="fill:#fff" d="M468,452 l0,-235 32,0 -63,-63 -72,63 32,0 0,235 71,0z" />
<path style="fill:#fff" d="M514,501 l166,-167 23,23 0,-94 -95,0 26,26 -166,163 46,49z" />
<path style="fill:#fff" d="M514,501 l166,-167 23,23 0,-94 -95,0 26,26 -166,163 46,49z" />
<path style="fill:#fff" d="M514,570 l237,0 0,31 63,-69 -63,-63 0,32 -237,0 0,69z" />
<path style="fill:#fff" d="M514,570 l237,0 0,31 63,-69 -63,-63 0,32 -237,0 0,69z" />
<path style="fill:#fff" d="M468,619 l166,163 -26,23 95,-6 0,-86 -23,23 -166,-166 -46,49z" />
<path style="fill:#fff" d="M468,619 l166,163 -26,23 95,-6 0,-86 -23,23 -166,-166 -46,49z" />
<path style="fill:#fff" d="M397,619 l0,235 -32,0 72,63 63,-63 -32,0 0,-235 -71,0z" />
<path style="fill:#fff" d="M397,619 l0,235 -32,0 72,63 63,-63 -32,0 0,-235 -71,0z" />
<path style="fill:#fff" d="M351,570 l-166,166 -23,-23 0,92 94,0 -22,-23 163,-163 -46,-49z" />
<path style="fill:#fff" d="M351,570 l-166,166 -23,-23 0,92 94,0 -22,-23 163,-163 -46,-49z" />
<ellipse style="fill:#000" cx="416" cy="526" rx="120" ry="120" />
<ellipse style="fill:#fff" cx="432" cy="543" rx="121" ry="122" />
<ellipse style="fill:#e5405c" cx="424" cy="534" rx="122" ry="122" />

</svg>
