<?xml version="1.0" encoding="iso-8859-1"?>
<!-- Generator: Adobe Illustrator 10.0, SVG Export Plug-In . SVG Version: 3.0.0 Build 76)  -->
<!DOCTYPE svg PUBLIC "-//W3C//DTD SVG 1.0//EN"    "http://www.w3.org/TR/2001/REC-SVG-20010904/DTD/svg10.dtd" [
	<!ENTITY ns_flows "http://ns.adobe.com/Flows/1.0/">
	<!ENTITY ns_svg "http://www.w3.org/2000/svg">
	<!ENTITY ns_xlink "http://www.w3.org/1999/xlink">
]>
<svg  xmlns="&ns_svg;" xmlns:xlink="&ns_xlink;" xmlns:a="http://ns.adobe.com/AdobeSVGViewerExtensions/3.0/"
	 width="64.047" height="120.226" viewBox="0 0 64.047 120.226" overflow="visible" enable-background="new 0 0 64.047 120.226"
	 xml:space="preserve">
	<g id="other">
	</g>
	<g id="opennms">
		<g>
			<path fill="#003399" d="M64.047,110.226c0,5.5-4.5,10-10,10H10c-5.5,0-10-4.5-10-10V10C0,4.5,4.5,0,10,0h44.047
				c5.5,0,10,4.5,10,10V110.226z"/>
		</g>
		<g>
			<linearGradient id="XMLID_1_" gradientUnits="userSpaceOnUse" x1="-9.9736" y1="101.1172" x2="72.7759" y2="18.3677">
				<stop  offset="0" style="stop-color:#FFFFFF"/>
				<stop  offset="0.2767" style="stop-color:#BCCAE4"/>
				<stop  offset="0.916" style="stop-color:#1645A2"/>
				<stop  offset="1" style="stop-color:#003399"/>
				<a:midPointStop  offset="0" style="stop-color:#FFFFFF"/>
				<a:midPointStop  offset="0.5141" style="stop-color:#FFFFFF"/>
				<a:midPointStop  offset="1" style="stop-color:#003399"/>
			</linearGradient>
			<path fill="url(#XMLID_1_)" d="M61.391,108.378c0,5.5-4.5,10-10,10H11.412c-5.5,0-10-4.5-10-10V11.107c0-5.5,4.5-10,10-10h39.979
				c5.5,0,10,4.5,10,10V108.378z"/>
		</g>
		<g>
			<path fill="#003399" d="M58.307,94.053c0,2.75-2.25,5-5,5H9.328c-2.75,0-5-2.25-5-5V35.918c0-2.75,2.25-5,5-5h43.979
				c2.75,0,5,2.25,5,5V94.053z"/>
		</g>
		<g>
			<linearGradient id="XMLID_2_" gradientUnits="userSpaceOnUse" x1="4.1738" y1="92.6201" x2="58.9951" y2="37.7988">
				<stop  offset="0" style="stop-color:#FFFFFF"/>
				<stop  offset="0.2767" style="stop-color:#BCCAE4"/>
				<stop  offset="0.916" style="stop-color:#1645A2"/>
				<stop  offset="1" style="stop-color:#003399"/>
				<a:midPointStop  offset="0" style="stop-color:#FFFFFF"/>
				<a:midPointStop  offset="0.5141" style="stop-color:#FFFFFF"/>
				<a:midPointStop  offset="1" style="stop-color:#003399"/>
			</linearGradient>
			<path fill="url(#XMLID_2_)" d="M56.924,92.628c0,2.75-2.25,5-5,5h-40.68c-2.75,0-5-2.25-5-5V37.79c0-2.75,2.25-5,5-5h40.68
				c2.75,0,5,2.25,5,5V92.628z"/>
		</g>
		<g>
			<path fill="#003399" d="M57.785,21.779c0,2.75-2.25,5-5,5H8.809c-2.75,0-5-2.25-5-5V10.645c0-2.75,2.25-5,5-5h43.977
				c2.75,0,5,2.25,5,5V21.779z"/>
		</g>
		<g>
			<linearGradient id="XMLID_3_" gradientUnits="userSpaceOnUse" x1="14.3003" y1="31.7354" x2="45.8281" y2="0.2075">
				<stop  offset="0" style="stop-color:#FFFFFF"/>
				<stop  offset="0.2767" style="stop-color:#BCCAE4"/>
				<stop  offset="0.916" style="stop-color:#1645A2"/>
				<stop  offset="1" style="stop-color:#003399"/>
				<a:midPointStop  offset="0" style="stop-color:#FFFFFF"/>
				<a:midPointStop  offset="0.5141" style="stop-color:#FFFFFF"/>
				<a:midPointStop  offset="1" style="stop-color:#003399"/>
			</linearGradient>
			<path fill="url(#XMLID_3_)" d="M55.404,20.096c0,2.75-2.25,5-5,5H9.724c-2.75,0-5-2.25-5-5v-8.25c0-2.75,2.25-5,5-5h40.681
				c2.75,0,5,2.25,5,5V20.096z"/>
		</g>
		<g>
			<path fill="#003399" d="M7.067,115.219c-0.989,0-1.798-2.066-1.798-4.592c0-2.526,0.809-4.593,1.798-4.593
				s1.798,2.066,1.798,4.593C8.865,113.152,8.056,115.219,7.067,115.219z"/>
		</g>
		<g>
			<path fill="#003399" d="M13.165,115.345c-0.989,0-1.798-2.066-1.798-4.593c0-2.525,0.809-4.592,1.798-4.592
				s1.798,2.066,1.798,4.592C14.963,113.278,14.154,115.345,13.165,115.345z"/>
		</g>
		<g>
			<path fill="#003399" d="M19.114,115.324c-0.989,0-1.798-2.066-1.798-4.592s0.809-4.592,1.798-4.592s1.798,2.066,1.798,4.592
				S20.103,115.324,19.114,115.324z"/>
		</g>
		<g>
			<path fill="#003399" d="M25.091,115.262c-0.989,0-1.798-2.066-1.798-4.592c0-2.526,0.809-4.593,1.798-4.593
				s1.798,2.066,1.798,4.593C26.889,113.195,26.08,115.262,25.091,115.262z"/>
		</g>
		<g>
			<path fill="#003399" d="M31.188,115.388c-0.989,0-1.798-2.066-1.798-4.593c0-2.525,0.809-4.592,1.798-4.592
				s1.798,2.066,1.798,4.592C32.986,113.321,32.177,115.388,31.188,115.388z"/>
		</g>
		<g>
			<path fill="#003399" d="M37.138,115.367c-0.989,0-1.798-2.066-1.798-4.592s0.809-4.592,1.798-4.592s1.798,2.066,1.798,4.592
				S38.126,115.367,37.138,115.367z"/>
		</g>
		<g>
			<path fill="#003399" d="M10.592,11.961c0,0.861-0.67,1.566-1.489,1.566s-1.489-0.705-1.489-1.566c0-0.862,0.67-1.567,1.489-1.567
				S10.592,11.099,10.592,11.961z"/>
		</g>
		<g>
			<path fill="#003399" d="M43.273,115.33c-0.989,0-1.798-2.066-1.798-4.592c0-2.526,0.809-4.593,1.798-4.593
				s1.798,2.066,1.798,4.593C45.071,113.264,44.262,115.33,43.273,115.33z"/>
		</g>
		<g>
			<path fill="#003399" d="M49.523,115.33c-0.989,0-1.798-2.066-1.798-4.592c0-2.526,0.809-4.593,1.798-4.593
				s1.798,2.066,1.798,4.593C51.321,113.264,50.512,115.33,49.523,115.33z"/>
		</g>
		<g>
			<path fill="#003399" d="M55.523,115.33c-0.989,0-1.798-2.066-1.798-4.592c0-2.526,0.809-4.593,1.798-4.593
				s1.798,2.066,1.798,4.593C57.321,113.264,56.512,115.33,55.523,115.33z"/>
		</g>
		<path fill="#FFFFFF" stroke="#003399" stroke-width="2" d="M53.659,64.368c0,12.702-10.298,23-23,23s-23-10.298-23-23
			s10.298-23,23-23S53.659,51.666,53.659,64.368z"/>
		<g>
			<path fill="#003399" d="M23.044,72.233c0,0.055-0.045,0.1-0.1,0.1h-7.459c-0.055,0-0.1-0.045-0.1-0.1v-7.488
				c0-0.055,0.045-0.1,0.1-0.1h7.459c0.055,0,0.1,0.045,0.1,0.1V72.233z"/>
		</g>
		<g>
			<linearGradient id="XMLID_4_" gradientUnits="userSpaceOnUse" x1="15.7368" y1="71.7676" x2="22.4854" y2="65.019">
				<stop  offset="0" style="stop-color:#FFFFFF"/>
				<stop  offset="0.2767" style="stop-color:#BCCAE4"/>
				<stop  offset="0.916" style="stop-color:#1645A2"/>
				<stop  offset="1" style="stop-color:#003399"/>
				<a:midPointStop  offset="0" style="stop-color:#FFFFFF"/>
				<a:midPointStop  offset="0.5141" style="stop-color:#FFFFFF"/>
				<a:midPointStop  offset="1" style="stop-color:#003399"/>
			</linearGradient>
			<path fill="url(#XMLID_4_)" d="M22.51,71.742c0,0.055-0.045,0.1-0.1,0.1h-6.599c-0.055,0-0.1-0.045-0.1-0.1v-6.698
				c0-0.055,0.045-0.1,0.1-0.1h6.599c0.055,0,0.1,0.045,0.1,0.1V71.742z"/>
		</g>
		<g>
			<path fill="#003399" d="M36.184,55.356c0,0.055-0.044,0.1-0.099,0.101l-9.979,0.076c-0.055,0.001-0.101-0.044-0.101-0.099
				l-0.022-2.99c0-0.055,0.044-0.1,0.099-0.101l9.979-0.076c0.055-0.001,0.101,0.044,0.101,0.099L36.184,55.356z"/>
		</g>
		<g>
			
				<linearGradient id="XMLID_5_" gradientUnits="userSpaceOnUse" x1="367.5625" y1="384.8018" x2="372.9297" y2="379.4346" gradientTransform="matrix(2.7487 -0.0211 0.0028 0.3635 -987.7258 -77.2232)">
				<stop  offset="0" style="stop-color:#FFFFFF"/>
				<stop  offset="0.2767" style="stop-color:#BCCAE4"/>
				<stop  offset="0.916" style="stop-color:#1645A2"/>
				<stop  offset="1" style="stop-color:#003399"/>
				<a:midPointStop  offset="0" style="stop-color:#FFFFFF"/>
				<a:midPointStop  offset="0.5141" style="stop-color:#FFFFFF"/>
				<a:midPointStop  offset="1" style="stop-color:#003399"/>
			</linearGradient>
			<path fill="url(#XMLID_5_)" d="M35.967,55.04c0,0.055-0.044,0.1-0.099,0.101l-9.639,0.074c-0.055,0.001-0.101-0.044-0.101-0.099
				l-0.019-2.428c0-0.055,0.044-0.1,0.099-0.101l9.64-0.074c0.055-0.001,0.101,0.044,0.101,0.099L35.967,55.04z"/>
		</g>
		<g>
			<path fill="#003399" d="M34.692,76.807c0,0.055-0.045,0.1-0.1,0.1h-7.459c-0.055,0-0.1-0.045-0.1-0.1v-7.488
				c0-0.055,0.045-0.1,0.1-0.1h7.459c0.055,0,0.1,0.045,0.1,0.1V76.807z"/>
		</g>
		<g>
			<linearGradient id="XMLID_6_" gradientUnits="userSpaceOnUse" x1="27.3857" y1="76.3408" x2="34.1333" y2="69.5933">
				<stop  offset="0" style="stop-color:#FFFFFF"/>
				<stop  offset="0.2767" style="stop-color:#BCCAE4"/>
				<stop  offset="0.916" style="stop-color:#1645A2"/>
				<stop  offset="1" style="stop-color:#003399"/>
				<a:midPointStop  offset="0" style="stop-color:#FFFFFF"/>
				<a:midPointStop  offset="0.5141" style="stop-color:#FFFFFF"/>
				<a:midPointStop  offset="1" style="stop-color:#003399"/>
			</linearGradient>
			<path fill="url(#XMLID_6_)" d="M34.158,76.315c0,0.055-0.045,0.1-0.1,0.1H27.46c-0.055,0-0.1-0.045-0.1-0.1v-6.697
				c0-0.055,0.045-0.1,0.1-0.1h6.598c0.055,0,0.1,0.045,0.1,0.1V76.315z"/>
		</g>
		<g>
			<path fill="#003399" d="M45.364,72.3c0,0.055-0.045,0.1-0.1,0.1h-7.459c-0.055,0-0.1-0.045-0.1-0.1v-7.488
				c0-0.055,0.045-0.1,0.1-0.1h7.459c0.055,0,0.1,0.045,0.1,0.1V72.3z"/>
		</g>
		<g>
			<linearGradient id="XMLID_7_" gradientUnits="userSpaceOnUse" x1="38.0576" y1="71.834" x2="44.8052" y2="65.0864">
				<stop  offset="0" style="stop-color:#FFFFFF"/>
				<stop  offset="0.2767" style="stop-color:#BCCAE4"/>
				<stop  offset="0.916" style="stop-color:#1645A2"/>
				<stop  offset="1" style="stop-color:#003399"/>
				<a:midPointStop  offset="0" style="stop-color:#FFFFFF"/>
				<a:midPointStop  offset="0.5141" style="stop-color:#FFFFFF"/>
				<a:midPointStop  offset="1" style="stop-color:#003399"/>
			</linearGradient>
			<path fill="url(#XMLID_7_)" d="M44.83,71.809c0,0.055-0.045,0.1-0.1,0.1h-6.598c-0.055,0-0.1-0.045-0.1-0.1v-6.697
				c0-0.055,0.045-0.1,0.1-0.1h6.598c0.055,0,0.1,0.045,0.1,0.1V71.809z"/>
		</g>
		<g>
			<path fill="#003399" d="M31.328,69.06c0,0.055-0.045,0.1-0.1,0.1h-0.263c-0.055,0-0.1-0.045-0.1-0.1V55.427
				c0-0.055,0.045-0.1,0.1-0.1h0.263c0.055,0,0.1,0.045,0.1,0.1V69.06z"/>
		</g>
		<g>
			<path fill="#003399" d="M22.647,64.927c-0.029,0.047-0.09,0.062-0.137,0.032l-0.224-0.137c-0.047-0.029-0.062-0.091-0.033-0.138
				l5.759-9.367c0.029-0.047,0.09-0.062,0.137-0.032l0.224,0.137c0.047,0.029,0.062,0.091,0.033,0.138L22.647,64.927z"/>
		</g>
		<g>
			<path fill="#003399" d="M39.397,64.828c0.025,0.049,0.006,0.109-0.043,0.135l-0.232,0.121c-0.049,0.025-0.109,0.006-0.135-0.043
				l-4.988-9.609c-0.025-0.049-0.006-0.109,0.043-0.135l0.232-0.12c0.049-0.025,0.109-0.006,0.135,0.043L39.397,64.828z"/>
		</g>
	</g>
	<g id="unspecified">
	</g>
	<g id="infrastructure">
	</g>
	<g id="printer">
	</g>
	<g id="server">
	</g>
	<g id="telephony">
	</g>
	<g id="workstation">
	</g>
	<g id="laptop">
	</g>
</svg>
