<?xml version="1.0" encoding="iso-8859-1"?>
<!DOCTYPE svg PUBLIC "-//W3C//DTD SVG 20000303 Stylable//EN"
"http://www.w3.org/TR/2000/03/WD-SVG-20000303/DTD/svg-20000303-stylable.dtd">

<svg width="4.7292in" height="2.7693in" viewBox="0 0 999 585">

<ellipse style="fill:#0078aa;stroke:#aae6ff;stroke-width:2" cx="493" cy="410" rx="490" ry="167" />
<path style="fill:#0078aa" d="M3,177 l0,240 984,0 0,-240 -984,0z" />
<path style="fill:#0078aa" d="M3,177 l0,240 984,0 0,-240 -984,0z" />
<ellipse style="fill:#00b4ff;stroke:#aae6ff;stroke-width:2" cx="493" cy="169" rx="490" ry="166" />
<line style="fill:none;stroke:#aae6ff;stroke-width:2" x1="3" y1="-68" x2="3" y2="651" />
<line style="fill:none;stroke:#aae6ff;stroke-width:2" x1="987" y1="-68" x2="987" y2="651" />
<path style="fill:#000" d="M333,56 l0,246 234,-125 -234,-121z" />
<path style="fill:#000" d="M333,56 l0,246 234,-125 -234,-121z" />
<path style="fill:#000" d="M585,62 l0,218 65,0 0,-218 -65,0z" />
<path style="fill:#000" d="M585,62 l0,218 65,0 0,-218 -65,0z" />
<path style="fill:#fff" d="M339,62 l0,247 234,-126 -234,-121z" />
<path style="fill:#fff" d="M339,62 l0,247 234,-126 -234,-121z" />
<path style="fill:#fff" d="M591,69 l0,217 65,0 0,-217 -65,0z" />
<path style="fill:#fff" d="M591,69 l0,217 65,0 0,-217 -65,0z" />

</svg>
