<?xml version="1.0" encoding="iso-8859-1"?>
<!DOCTYPE svg PUBLIC "-//W3C//DTD SVG 20000303 Stylable//EN"
"http://www.w3.org/TR/2000/03/WD-SVG-20000303/DTD/svg-20000303-stylable.dtd">

<svg width="3.9558in" height="2.3125in" viewBox="0 0 999 584">

<ellipse style="fill:#0078aa;stroke:#aae6ff;stroke-width:2" cx="492" cy="408" rx="489" ry="165" />
<path style="fill:#0078aa" d="M3,178 l0,240 984,0 0,-240 -984,0z" />
<path style="fill:#0078aa" d="M3,178 l0,240 984,0 0,-240 -984,0z" />
<ellipse style="fill:#00b4ff;stroke:#aae6ff;stroke-width:2" cx="492" cy="168" rx="489" ry="165" />
<path style="fill:#000" d="M507,136 l72,23 174,-71 78,23 -41,-60 -205,0 83,18 -161,67z" />
<path style="fill:#000" d="M507,136 l72,23 174,-71 78,23 -41,-60 -205,0 83,18 -161,67z" />
<path style="fill:#000" d="M476,201 l-70,-23 -169,71 -84,-23 42,65 211,0 -91,-25 161,-65z" />
<path style="fill:#000" d="M476,201 l-70,-23 -169,71 -84,-23 42,65 211,0 -91,-25 161,-65z" />
<path style="fill:#000" d="M170,69 l73,-23 174,65 78,-17 -41,59 -206,0 86,-17 -164,-67z" />
<path style="fill:#000" d="M170,69 l73,-23 174,65 78,-17 -41,59 -206,0 86,-17 -164,-67z" />
<path style="fill:#000" d="M818,274 l-70,23 -169,-71 -84,23 42,-59 211,0 -91,17 161,67z" />
<path style="fill:#000" d="M818,274 l-70,23 -169,-71 -84,23 42,-59 211,0 -91,17 161,67z" />
<path style="fill:#fff" d="M512,142 l73,23 174,-71 78,23 -42,-60 -205,0 86,17 -164,68z" />
<path style="fill:#fff" d="M512,142 l73,23 174,-71 78,23 -42,-60 -205,0 86,17 -164,68z" />
<path style="fill:#fff" d="M484,207 l-72,-23 -169,71 -84,-23 42,65 211,0 -91,-23 163,-67z" />
<path style="fill:#fff" d="M484,207 l-72,-23 -169,71 -84,-23 42,65 211,0 -91,-23 163,-67z" />
<path style="fill:#fff" d="M178,74 l70,-23 175,66 78,-18 -42,60 -203,0 83,-17 -161,-68z" />
<path style="fill:#fff" d="M178,74 l70,-23 175,66 78,-18 -42,60 -203,0 83,-17 -161,-68z" />
<path style="fill:#fff" d="M826,280 l-73,23 -168,-71 -84,23 42,-60 210,0 -91,18 164,67z" />
<path style="fill:#fff" d="M826,280 l-73,23 -168,-71 -84,23 42,-60 210,0 -91,18 164,67z" />
<line style="fill:none;stroke:#aae6ff;stroke-width:2" x1="3" y1="-67" x2="3" y2="650" />
<line style="fill:none;stroke:#aae6ff;stroke-width:2" x1="987" y1="-67" x2="987" y2="650" />

</svg>
