<?xml version="1.0" encoding="iso-8859-1"?>
<!DOCTYPE svg PUBLIC "-//W3C//DTD SVG 20000303 Stylable//EN"
"http://www.w3.org/TR/2000/03/WD-SVG-20000303/DTD/svg-20000303-stylable.dtd">

<svg width="3.5650in" height="2.9792in" viewBox="0 0 998 834">

<path style="fill:#0096d5" d="M4,446 l0,373 747,0 0,-373 -747,0z" />
<path style="fill:#0096d5;stroke:#aae6ff;stroke-width:2" d="M4,446 l0,373 747,0 0,-373 -747,0z" />
<path style="fill:#005a80" d="M751,446 l231,-442 0,373 -231,442 0,-373z" />
<path style="fill:#005a80;stroke:#aae6ff;stroke-width:2" d="M751,446 l231,-442 0,373 -231,442 0,-373z" />
<path style="fill:#00b4ff" d="M751,446 l231,-442 -748,0 -230,442 747,0z" />
<path style="fill:#00b4ff;stroke:#aae6ff;stroke-width:2" d="M751,446 l231,-442 -748,0 -230,442 747,0z" />
<path style="fill:#000" d="M471,229 l-26,57 190,0 -26,65 155,-78 -82,-70 -19,26 -192,0z" />
<path style="fill:#000" d="M471,229 l-26,57 190,0 -26,65 155,-78 -82,-70 -19,26 -192,0z" />
<path style="fill:#000" d="M568,56 l-28,56 190,0 -35,65 164,-95 -88,-65 -13,39 -190,0z" />
<path style="fill:#000" d="M568,56 l-28,56 190,0 -35,65 164,-95 -88,-65 -13,39 -190,0z" />
<path style="fill:#000" d="M405,377 l28,-52 -199,0 35,-65 -157,78 81,65 15,-26 197,0z" />
<path style="fill:#000" d="M405,377 l28,-52 -199,0 35,-65 -157,78 81,65 15,-26 197,0z" />
<path style="fill:#000" d="M493,190 l28,-52 -192,0 35,-69 -164,95 88,65 15,-39 190,0z" />
<path style="fill:#000" d="M493,190 l28,-52 -192,0 35,-69 -164,95 88,65 15,-39 190,0z" />
<path style="fill:#fff" d="M480,242 l-28,57 189,0 -25,65 155,-78 -82,-70 -20,26 -189,0z" />
<path style="fill:#fff" d="M480,242 l-28,57 189,0 -25,65 155,-78 -82,-70 -20,26 -189,0z" />
<path style="fill:#fff" d="M575,69 l-28,56 189,0 -32,65 161,-91 -88,-69 -13,39 -189,0z" />
<path style="fill:#fff" d="M575,69 l-28,56 189,0 -32,65 161,-91 -88,-69 -13,39 -189,0z" />
<path style="fill:#fff" d="M411,390 l28,-52 -198,0 34,-65 -155,78 80,69 15,-30 196,0z" />
<path style="fill:#fff" d="M411,390 l28,-52 -198,0 34,-65 -155,78 80,69 15,-30 196,0z" />
<path style="fill:#fff" d="M499,203 l28,-52 -191,0 34,-69 -162,95 89,65 13,-39 189,0z" />
<path style="fill:#fff" d="M499,203 l28,-52 -191,0 34,-69 -162,95 89,65 13,-39 189,0z" />

</svg>
