<?xml version="1.0" encoding="iso-8859-1"?>
<!-- Generator: Adobe Illustrator 10.0, SVG Export Plug-In . SVG Version: 3.0.0 Build 76)  -->
<!DOCTYPE svg PUBLIC "-//W3C//DTD SVG 1.0//EN"    "http://www.w3.org/TR/2001/REC-SVG-20010904/DTD/svg10.dtd" [
	<!ENTITY ns_flows "http://ns.adobe.com/Flows/1.0/">
	<!ENTITY ns_svg "http://www.w3.org/2000/svg">
	<!ENTITY ns_xlink "http://www.w3.org/1999/xlink">
]>
<svg  xmlns="&ns_svg;" xmlns:xlink="&ns_xlink;" xmlns:a="http://ns.adobe.com/AdobeSVGViewerExtensions/3.0/"
	 width="64.046" height="120.225" viewBox="0 0 64.046 120.225" overflow="visible" enable-background="new 0 0 64.046 120.225"
	 xml:space="preserve">
	<g id="other">
		<g>
			<path fill="#003399" d="M64.046,110.225c0,5.5-4.5,10-10,10H10c-5.5,0-10-4.5-10-10V10C0,4.5,4.5,0,10,0h44.047
				c5.5,0,10,4.5,10,10V110.225z"/>
		</g>
		<g>
			<linearGradient id="XMLID_1_" gradientUnits="userSpaceOnUse" x1="-9.9731" y1="101.1172" x2="72.7756" y2="18.3684">
				<stop  offset="0" style="stop-color:#FFFFFF"/>
				<stop  offset="0.2767" style="stop-color:#BCCAE4"/>
				<stop  offset="0.916" style="stop-color:#1645A2"/>
				<stop  offset="1" style="stop-color:#003399"/>
				<a:midPointStop  offset="0" style="stop-color:#FFFFFF"/>
				<a:midPointStop  offset="0.5141" style="stop-color:#FFFFFF"/>
				<a:midPointStop  offset="1" style="stop-color:#003399"/>
			</linearGradient>
			<path fill="url(#XMLID_1_)" d="M61.39,108.377c0,5.5-4.5,10-10,10H11.412c-5.5,0-10-4.5-10-10v-97.27c0-5.5,4.5-10,10-10H51.39
				c5.5,0,10,4.5,10,10V108.377z"/>
		</g>
		<g>
			<path fill="#003399" d="M58.306,94.052c0,2.75-2.25,5-5,5H9.328c-2.75,0-5-2.25-5-5V35.917c0-2.75,2.25-5,5-5h43.979
				c2.75,0,5,2.25,5,5V94.052z"/>
		</g>
		<g>
			<linearGradient id="XMLID_2_" gradientUnits="userSpaceOnUse" x1="4.1733" y1="92.6191" x2="58.9944" y2="37.7981">
				<stop  offset="0" style="stop-color:#FFFFFF"/>
				<stop  offset="0.2767" style="stop-color:#BCCAE4"/>
				<stop  offset="0.916" style="stop-color:#1645A2"/>
				<stop  offset="1" style="stop-color:#003399"/>
				<a:midPointStop  offset="0" style="stop-color:#FFFFFF"/>
				<a:midPointStop  offset="0.5141" style="stop-color:#FFFFFF"/>
				<a:midPointStop  offset="1" style="stop-color:#003399"/>
			</linearGradient>
			<path fill="url(#XMLID_2_)" d="M56.923,92.627c0,2.75-2.25,5-5,5H11.244c-2.75,0-5-2.25-5-5V37.789c0-2.75,2.25-5,5-5h40.679
				c2.75,0,5,2.25,5,5V92.627z"/>
		</g>
		<g>
			<path fill="#003399" d="M57.785,21.778c0,2.75-2.25,5-5,5H8.808c-2.75,0-5-2.25-5-5V10.644c0-2.75,2.25-5,5-5h43.977
				c2.75,0,5,2.25,5,5V21.778z"/>
		</g>
		<g>
			<linearGradient id="XMLID_3_" gradientUnits="userSpaceOnUse" x1="14.2993" y1="31.7334" x2="45.8274" y2="0.2053">
				<stop  offset="0" style="stop-color:#FFFFFF"/>
				<stop  offset="0.2767" style="stop-color:#BCCAE4"/>
				<stop  offset="0.916" style="stop-color:#1645A2"/>
				<stop  offset="1" style="stop-color:#003399"/>
				<a:midPointStop  offset="0" style="stop-color:#FFFFFF"/>
				<a:midPointStop  offset="0.5141" style="stop-color:#FFFFFF"/>
				<a:midPointStop  offset="1" style="stop-color:#003399"/>
			</linearGradient>
			<path fill="url(#XMLID_3_)" d="M55.404,20.095c0,2.75-2.25,5-5,5H9.724c-2.75,0-5-2.25-5-5v-8.251c0-2.75,2.25-5,5-5h40.68
				c2.75,0,5,2.25,5,5V20.095z"/>
		</g>
		<g>
			<path fill="#003399" d="M7.067,115.218c-0.988,0-1.797-2.066-1.797-4.592c0-2.526,0.809-4.593,1.797-4.593
				c0.989,0,1.798,2.066,1.798,4.593C8.865,113.151,8.056,115.218,7.067,115.218z"/>
		</g>
		<g>
			<path fill="#003399" d="M13.165,115.344c-0.989,0-1.798-2.066-1.798-4.593c0-2.525,0.809-4.592,1.798-4.592
				s1.798,2.066,1.798,4.592C14.962,113.277,14.154,115.344,13.165,115.344z"/>
		</g>
		<g>
			<path fill="#003399" d="M19.114,115.323c-0.989,0-1.798-2.066-1.798-4.592s0.809-4.592,1.798-4.592s1.798,2.066,1.798,4.592
				S20.103,115.323,19.114,115.323z"/>
		</g>
		<g>
			<path fill="#003399" d="M25.09,115.261c-0.989,0-1.798-2.066-1.798-4.592c0-2.526,0.809-4.593,1.798-4.593
				s1.798,2.066,1.798,4.593C26.888,113.194,26.08,115.261,25.09,115.261z"/>
		</g>
		<g>
			<path fill="#003399" d="M31.188,115.387c-0.989,0-1.798-2.066-1.798-4.593c0-2.525,0.809-4.592,1.798-4.592
				s1.798,2.066,1.798,4.592C32.986,113.32,32.177,115.387,31.188,115.387z"/>
		</g>
		<g>
			<path fill="#003399" d="M37.137,115.366c-0.989,0-1.798-2.066-1.798-4.592s0.809-4.592,1.798-4.592s1.798,2.066,1.798,4.592
				S38.126,115.366,37.137,115.366z"/>
		</g>
		<g>
			<path fill="#003399" d="M10.591,11.96c0,0.862-0.67,1.567-1.489,1.567c-0.818,0-1.489-0.705-1.489-1.567s0.67-1.567,1.489-1.567
				C9.921,10.393,10.591,11.098,10.591,11.96z"/>
		</g>
		<g>
			<path fill="#003399" d="M43.274,115.329c-0.989,0-1.798-2.066-1.798-4.592c0-2.526,0.809-4.593,1.798-4.593
				s1.798,2.066,1.798,4.593C45.072,113.263,44.263,115.329,43.274,115.329z"/>
		</g>
		<g>
			<path fill="#003399" d="M49.524,115.329c-0.989,0-1.798-2.066-1.798-4.592c0-2.526,0.809-4.593,1.798-4.593
				s1.798,2.066,1.798,4.593C51.322,113.263,50.513,115.329,49.524,115.329z"/>
		</g>
		<g>
			<path fill="#003399" d="M55.524,115.329c-0.989,0-1.798-2.066-1.798-4.592c0-2.526,0.809-4.593,1.798-4.593
				s1.798,2.066,1.798,4.593C57.322,113.263,56.513,115.329,55.524,115.329z"/>
		</g>
	</g>
	<g id="opennms">
	</g>
	<g id="unspecified">
		<g>
			<path fill="#FFFFFF" d="M18.048,50.359c0,0.055-0.045,0.102-0.1,0.104l-6.787,0.284c-0.055,0.002-0.101-0.041-0.103-0.096
				l-0.283-12.026c-0.001-0.055,0.039-0.118,0.088-0.142c0,0,4.274-1.998,12.716-2.872c8.442-0.874,16.307,0.874,19.797,2.62
				c3.49,1.747,5.827,2.914,7.567,9.9c1.74,6.982-7.564,13.689-10.477,16.014c-2.913,2.322-5.534,4.359-7.28,8.146
				c-1.747,3.786-0.605,8.636-0.605,8.636c0.013,0.054-0.022,0.098-0.077,0.098l-10.278-0.003c-0.055,0-0.102-0.045-0.103-0.1
				c0,0-0.287-9.798,5.825-15.618s8.455-6.693,11.358-10.77c2.904-4.076,2.617-9.898-4.371-11.645
				c-6.989-1.745-16.79,0.559-16.79,0.559c-0.053,0.012-0.097,0.067-0.097,0.122V50.359z"/>
			<path fill="none" stroke="#003399" stroke-width="2" d="M18.048,50.459l-6.987,0.292l-0.288-12.226c0,0,4.365-2.04,12.807-2.914
				c8.442-0.874,16.307,0.874,19.797,2.62c3.49,1.747,5.827,2.914,7.567,9.9c1.74,6.982-7.564,13.689-10.477,16.014
				c-2.913,2.322-5.534,4.359-7.28,8.146c-1.747,3.786-0.582,8.733-0.582,8.733l-10.478-0.003c0,0-0.29-9.897,5.822-15.718
				s8.455-6.693,11.358-10.77c2.904-4.076,2.617-9.898-4.371-11.645c-6.989-1.745-16.887,0.581-16.887,0.581V50.459z"/>
		</g>
		<path fill="#FFFFFF" stroke="#003399" stroke-width="2" d="M21.635,85.721l11.843,0.338v7.782H20.962L21.635,85.721z"/>
	</g>
	<g id="infrastructure">
	</g>
	<g id="printer">
	</g>
	<g id="server">
	</g>
	<g id="telephony">
	</g>
	<g id="workstation">
	</g>
	<g id="laptop">
	</g>
</svg>
