<svg xmlns="http://www.w3.org/2000/svg" viewBox="0 0 512 512"><path opacity=".2" d="M256 8C119 8 8 119 8 256s111 248 248 248 248-111 248-248S393 8 256 8z"/><path fill="#fff" d="M271.6 116.716c0-14.28-18.39-19.662-26.49-7.824C170.8 217.51 276.4 222.4 276.4 275.2c0 21.378-17.466 38.676-38.91 38.394-21.102-.27-37.89-17.862-37.89-38.964v-51.306c0-13.02-15.882-19.338-24.858-9.9C158.68 230.296 142 259.198 142 294.4c0 63.522 51.678 115.2 115.2 115.2s115.2-51.678 115.2-115.2c0-102.174-100.8-115.8-100.8-177.684z"/></svg>