<svg xmlns="http://www.w3.org/2000/svg" viewBox="0 0 16 16"><path d="M4.46 9.12a27.28 27.28 0 01-2.78-3.55A10.84 10.84 0 011 4.22a8 8 0 001 9.07c.09-.86 1-2.41 2.46-4.17zm2.42 2.42C5.12 13 3.57 13.91 2.71 14a8 8 0 009.07 1.05 11.54 11.54 0 01-1.95-1.13 28.79 28.79 0 01-2.95-2.38zm2.24-7.08C10.88 3 12.43 2.09 13.29 2a8 8 0 00-9.07-1 11.54 11.54 0 012 1.13 28.79 28.79 0 012.9 2.33zM14 2.71c-.09.86-1 2.41-2.46 4.17a27.28 27.28 0 012.78 3.55 10.84 10.84 0 01.73 1.35A8 8 0 0014 2.71zM8 5.42C5.25 2.94 2.77 1.51 2.14 2.14s1.3 3.94 4.54 7.18Q7.34 10 8 10.58zM10.58 8q-.58.66-1.26 1.32T8 10.58c2.75 2.48 5.23 3.91 5.86 3.28s-.8-3.11-3.28-5.86z" fill="#14d1df" data-name="Layer 2"/></svg>