<svg xmlns="http://www.w3.org/2000/svg" xmlns:xlink="http://www.w3.org/1999/xlink" viewBox="0 0 600 110.8"><defs><linearGradient id="a" x1="61.57" y1="108.09" x2="-5.08" y2="40.81" gradientUnits="userSpaceOnUse"><stop offset="0" stop-color="#0081ad"/><stop offset="1" stop-color="#14d1df"/></linearGradient><linearGradient id="c" x1="61.75" y1="107.92" x2="-4.9" y2="40.64" xlink:href="#a"/><linearGradient id="d" x1="41.36" y1="-4.8" x2="104.81" y2="59.29" xlink:href="#a"/><linearGradient id="e" x1="41.54" y1="-4.99" x2="105" y2="59.11" xlink:href="#a"/><linearGradient id="b" x1="13.3" y1="13.95" x2="86.01" y2="85.69" gradientUnits="userSpaceOnUse"><stop offset="0" stop-color="#14d1df"/><stop offset="1" stop-color="#85d9a5"/></linearGradient><linearGradient id="f" x1="13.33" y1="13.92" x2="86.03" y2="85.67" xlink:href="#b"/></defs><g data-name="Layer 2"><path d="M396.06 18.84H405l40.67 57.83h.51V18.84h8.79v72.54H446l-40.64-57.83h-.51v57.83h-8.79zm71.1 0H477L505.07 80l28.2-61.2h9.81v72.58h-8.79V36.31h-.51l-25.34 55.07h-6.64l-25.34-55.07H476v55.07h-8.79zm85.22 55.89l7.26-3.37a17 17 0 0017.06 12.87c7.67 0 14.3-4.23 14.3-12.46 0-7.46-5.32-10.73-13.8-14.11l-4.8-1.83c-10.62-4.3-17.06-10.22-17.06-19.62 0-11.24 9.09-18.39 20.84-18.39 12 0 19 7.25 21.87 15.12l-6.75 3.47c-2.86-6.54-7.56-10.52-14.91-10.52-6.95 0-12.26 3.88-12.26 10.42 0 5.11 3.06 9.09 11.64 12.47l4.91 1.94c11.85 4.7 19.31 10 19.31 21.15 0 13.38-11.14 20.54-23.3 20.54s-21.85-7.26-24.31-17.68zM125.57 55.11c0-22.17 17.06-37.29 37.6-37.29s37.6 15.12 37.6 37.29-17.16 37.3-37.6 37.3-37.6-15.13-37.6-37.3zm58.55 0c0-13.39-9.5-22-21-22s-20.95 8.58-20.95 22 9.51 22 20.95 22 21-8.61 21-22zM267 64.82c0 18.49-13.28 27.59-25.34 27.59-9.4 0-14.92-5.11-15.74-7.06h-.3v25.45H209.8V38.25h15.84v6h.3c.82-1.94 6.34-7.05 15.74-7.05 12.06.03 25.32 9.12 25.32 27.62zm-15.53 0c0-8.59-6.34-13.49-13.08-13.49-6.95 0-13.18 4.8-13.18 13.49s6.23 13.48 13.18 13.48c6.76 0 13.1-4.9 13.1-13.48zM324.63 71h-37.81c2.15 5.72 7.46 8.58 14.51 8.58a20 20 0 0012.77-4.09l7.16 7.46c-4.4 5.52-12 9.51-21.67 9.51-14.71 0-28-10-28-27.49 0-18 13.38-27.69 27.08-27.69 13.49-.05 29.33 9.35 25.96 33.72zm-38.11-11.39h24.21c-1.12-6.13-6.54-9.1-11.85-9.1s-10.63 2.76-12.36 9.1zm97.3.51v31.26H368v-28.5c0-6.65-3.37-11.55-9.91-11.55s-9.81 4.9-9.81 11.55v28.5h-15.85V38.25h15.84V45c3-4.49 8.17-7.76 15.73-7.76 10.73-.01 19.82 6.63 19.82 22.88z" fill="#fff"/><path d="M28.16 57.59a166.75 166.75 0 01-17.53-22.4A70.24 70.24 0 016 26.68 50.58 50.58 0 0012.62 84c.59-5.5 6.38-15.27 15.54-26.41z" fill="url(#a)"/><path d="M43.5 72.93c-11.14 9.15-20.91 14.95-26.37 15.54a50.58 50.58 0 0057.29 6.64 78.32 78.32 0 01-12.34-7.18 179.37 179.37 0 01-18.58-15z" fill="url(#c)"/><path d="M57.59 28.16C68.73 19 78.5 13.21 84 12.62A50.58 50.58 0 0026.67 6 78.32 78.32 0 0139 13.16a179.37 179.37 0 0118.59 15z" fill="url(#d)"/><path d="M88.47 17.13c-.59 5.46-6.39 15.23-15.54 26.37a166.75 166.75 0 0117.53 22.4 68.89 68.89 0 014.66 8.51 50.58 50.58 0 00-6.65-57.28z" fill="url(#e)"/><path d="M50.55 34.25C33.17 18.55 17.48 9.52 13.5 13.5c-4.61 4.61 8.23 24.94 28.69 45.4 2.8 2.8 5.6 5.45 8.36 7.94z" fill="url(#b)"/><path d="M66.84 50.55c-2.49 2.75-5.14 5.55-7.94 8.35s-5.6 5.45-8.35 7.94c17.37 15.7 33.06 24.73 37 20.75s-5.01-19.67-20.71-37.04z" fill="url(#f)"/></g></svg>