<svg xmlns="http://www.w3.org/2000/svg" xmlns:xlink="http://www.w3.org/1999/xlink" viewBox="0 0 300 300"><defs><linearGradient id="a" x1="182.71" y1="320.79" x2="-15.06" y2="121.11" gradientUnits="userSpaceOnUse"><stop offset="0" stop-color="#0081ad"/><stop offset="1" stop-color="#14d1df"/></linearGradient><linearGradient id="c" x1="183.24" y1="320.26" x2="-14.54" y2="120.59" xlink:href="#a"/><linearGradient id="d" x1="122.74" y1="-14.25" x2="311.05" y2="175.96" xlink:href="#a"/><linearGradient id="e" x1="123.29" y1="-14.8" x2="311.61" y2="175.41" xlink:href="#a"/><linearGradient id="b" x1="39.48" y1="41.39" x2="255.24" y2="254.31" gradientUnits="userSpaceOnUse"><stop offset="0" stop-color="#14d1df"/><stop offset="1" stop-color="#85d9a5"/></linearGradient><linearGradient id="f" x1="39.55" y1="41.32" x2="255.3" y2="254.24" xlink:href="#b"/></defs><g data-name="Layer 2"><path d="M83.57 170.92c-21.16-23.19-39.18-46.17-52-66.48a204.84 204.84 0 01-13.85-25.25 150.07 150.07 0 0019.74 170C39.19 233 56.4 204 83.57 170.92z" fill="url(#a)"/><path d="M129.08 216.43C96 243.6 67 260.81 50.84 262.54a150.08 150.08 0 00170 19.72c-10.85-4.83-23-11.9-36.6-21.31a533.55 533.55 0 01-55.16-44.52z" fill="url(#c)"/><path d="M170.92 83.57C204 56.4 233 39.19 249.16 37.46a150.08 150.08 0 00-170-19.72c10.85 4.83 23 11.9 36.6 21.31a532.49 532.49 0 0155.16 44.52z" fill="url(#d)"/><path d="M262.54 50.84C260.81 67 243.6 96 216.43 129.08c21.16 23.19 39.18 46.17 52 66.48a204.84 204.84 0 0113.83 25.25 150.07 150.07 0 00-19.72-169.97z" fill="url(#e)"/><path d="M150 101.63C98.44 55 51.88 28.25 40.06 40.06c-13.69 13.7 24.43 74 85.15 134.73 8.31 8.32 16.61 16.19 24.79 23.58z" fill="url(#b)"/><path d="M198.37 150c-7.39 8.18-15.26 16.48-23.58 24.79S158.18 191 150 198.37c51.56 46.59 98.12 73.38 109.94 61.57S245 201.56 198.37 150z" fill="url(#f)"/></g></svg>