<svg xmlns="http://www.w3.org/2000/svg" viewBox="0 0 512 512"><path opacity=".2" d="M256 8C119 8 8 119 8 256s111 248 248 248 248-111 248-248S393 8 256 8z"/><path fill="#fff" d="M210.4 356.937h12v-86.674h-12c-6.628 0-12-5.373-12-12V229.6c0-6.628 5.372-12 12-12h67.2c6.628 0 12 5.372 12 12v127.337h12c6.628 0 12 5.373 12 12V397.6c0 6.628-5.372 12-12 12h-91.2c-6.628 0-12-5.372-12-12v-28.663c0-6.627 5.372-12 12-12zM256 102.4c-23.859 0-43.2 19.341-43.2 43.2s19.341 43.2 43.2 43.2 43.2-19.341 43.2-43.2-19.342-43.2-43.2-43.2z"/></svg>