<svg xmlns="http://www.w3.org/2000/svg" viewBox="0 0 512 512"><path opacity=".2" d="M256 8C119 8 8 119 8 256s111 248 248 248 248-111 248-248S393 8 256 8z"/><path fill="#fff" d="M256 150.4c-31.764 0-57.6 25.836-57.6 57.6 0 5.304 4.296 9.6 9.6 9.6s9.6-4.296 9.6-9.6c0-21.18 17.232-38.4 38.4-38.4 5.304 0 9.6-4.296 9.6-9.6s-4.296-9.6-9.6-9.6zm-47.964 227.502c0 1.89.558 3.732 1.608 5.304l14.706 22.104a9.605 9.605 0 007.992 4.284h47.31a9.59 9.59 0 007.992-4.284l14.706-22.104a9.65 9.65 0 001.608-5.304l.03-25.908h-95.976l.024 25.908zM256 102.4c-61.368 0-105.6 49.782-105.6 105.6 0 26.622 9.87 50.91 26.136 69.468 9.984 11.394 25.644 35.28 31.452 55.296v.036h28.8v-.072a28.388 28.388 0 00-1.29-8.442c-3.354-10.686-13.692-38.862-37.302-65.802-12.324-14.058-18.912-31.89-18.966-50.484-.12-44.184 35.802-76.8 76.77-76.8 42.348 0 76.8 34.452 76.8 76.8a76.57 76.57 0 01-18.99 50.484c-23.466 26.766-33.852 54.882-37.26 65.676a28.504 28.504 0 00-1.332 8.58v.06h28.8v-.03c5.808-20.022 21.468-43.908 31.452-55.296C351.73 258.91 361.6 234.622 361.6 208c0-58.32-47.28-105.6-105.6-105.6z"/></svg>