<svg class="svg-inline--fa fa-times fa-w-11 fa-inverse" xmlns="http://www.w3.org/2000/svg" viewBox="0 0 512 512"><path opacity=".2" d="M256 8C119 8 8 119 8 256s111 248 248 248 248-111 248-248S393 8 256 8z"/><path fill="#fff" d="M303.6 361.6c0 26.467-21.533 48-48 48s-48-21.533-48-48 21.533-48 48-48 48 21.533 48 48zm-90.444-244.08l8.16 163.2c.383 7.663 6.709 13.68 14.382 13.68h39.804c7.673 0 13.999-6.017 14.382-13.68l8.16-163.2c.411-8.226-6.146-15.12-14.382-15.12h-56.124c-8.236 0-14.793 6.894-14.382 15.12z"/></svg>