<?xml version="1.0" encoding="iso-8859-1"?>
<!DOCTYPE svg PUBLIC "-//W3C//DTD SVG 20000303 Stylable//EN"
"http://www.w3.org/TR/2000/03/WD-SVG-20000303/DTD/svg-20000303-stylable.dtd">

<svg width="3.3538in" height="2.9375in" viewBox="0 0 999 875">

<path style="fill:#c9c9b6" d="M4,106 l107,-102 877,0 -107,102 -877,0z" />
<path style="fill:#c9c9b6;stroke:#494936;stroke-width:2" d="M4,106 l107,-102 877,0 -107,102 -877,0z" />
<path style="fill:#b7b79d" d="M4,111 l877,0 0,751 -877,0 0,-751z" />
<path style="fill:#b7b79d;stroke:#494936;stroke-width:2" d="M4,111 l877,0 0,751 -877,0 0,-751z" />
<path style="fill:#7a7a5a" d="M881,862 l107,-106 0,-752 -107,102 0,756z" />
<path style="fill:#7a7a5a;stroke:#494936;stroke-width:2" d="M881,862 l107,-106 0,-752 -107,102 0,756z" />
<path style="fill:none;stroke:#494936;stroke-width:2" d="M404,4 l-107,107 0,751" />
<path style="fill:none;stroke:#494936;stroke-width:2" d="M690,4 l-102,107 0,751" />
<path style="fill:none;stroke:#494936;stroke-width:2" d="M4,282 l877,0 107,-107" />

</svg>
