<?xml version="1.0" encoding="UTF-8" standalone="no"?>
<!DOCTYPE svg PUBLIC "-//W3C//DTD SVG 1.1//EN" "http://www.w3.org/Graphics/SVG/1.1/DTD/svg11.dtd">
<svg width="100%" height="100%" viewBox="0 0 1765 401" version="1.1" xmlns="http://www.w3.org/2000/svg" xmlns:xlink="http://www.w3.org/1999/xlink" xml:space="preserve" xmlns:serif="http://www.serif.com/" style="fill-rule:evenodd;clip-rule:evenodd;stroke-linecap:round;stroke-linejoin:round;stroke-miterlimit:1.5;">
    <g transform="matrix(1,0,0,1,-77.5845,-139.5)">
        <g transform="matrix(1,0,0,1,0,-200)">
            <g transform="matrix(0.444444,0,0,0.444444,46.9734,304.444)">
                <g transform="matrix(1.02273,0,0,1.02273,-339.091,-196.136)">
                    <circle cx="840" cy="710" r="440" style="fill:url(#_Linear1);stroke:black;stroke-width:2.2px;"/>
                </g>
                <g transform="matrix(0.999905,0,0,0.999905,-289.891,-67.4461)">
                    <path d="M774,680C774,680 780,675 764,674C753.48,673.342 744.667,671.203 735,667C723.5,662 711.888,655.492 700,647C693.218,642.156 682.139,633.435 673,626C658.556,614.25 647.362,603.657 637,592C621,574 608.73,561.459 596,543C579.333,518.833 546.167,468.167 537,449C534.124,442.986 545,437.333 541,432C536,425.333 520.883,416.922 515,413C509,409 499,396 518,403C554.667,417.333 586.667,433 620,443C650.717,452.215 697.468,454.925 724,462C754,470 770,480 770,480C782,484 765,471.18 765,460C765,450 772,442 770,435C768.088,428.308 756.875,426.199 753,420C748,412 750,405.667 752,400C754,394.333 762.833,390.333 765,386C766.789,382.422 766.676,377.632 765,374C763,369.667 756.365,365.048 753,360C749,354 750.229,344.618 753,340C756,335 762.667,333.333 765,330C766.921,327.256 766.776,323.259 766,320C765.167,316.5 762.609,312.261 760,309C756,304 756.876,296.123 760,291C764.167,284.167 780.167,278 785,268C789.833,258 790.153,241.378 789,231C788,222 790.789,211.351 794,206C797,201 804,190 810,200C810,200 832.111,256.149 850,280C870,306.667 911.667,336.667 930,360C943.815,377.583 955.149,398.172 960,420C966.667,450 971.016,486.629 970,510C969,533 965,556 970,560C974.553,563.643 984.341,554.851 990,550C1001.67,540 1016.67,518.333 1030,510C1038.48,504.7 1047,500 1060,500C1072.17,500 1081.67,503.333 1090,510C1097.36,515.89 1104.77,532.155 1110,540C1118,552 1140,560 1140,560L1140,560.861C1140,560.861 1132,568 1120,570C1112.71,571.215 1101.27,574.73 1096,580C1089.33,586.667 1082,597 1080,610C1077.73,624.734 1065.33,655 1057,670C1048.91,684.569 1035.79,698.215 1024,710C1010.67,723.333 991.667,738.333 975,750C959.077,761.146 943.694,765.957 926,774C907.667,782.333 890,785 870,790C850.33,794.918 831,797 810,800C793.174,802.404 776.667,802.667 760,806C743.333,809.333 725,812 710,817C695.858,821.714 685.667,828.333 674,835C663.565,840.963 650,851.667 640,855C630.513,858.162 619.487,856.838 610,860C600,863.333 588.556,873.698 577,877C565.333,880.333 550,879.333 540,876C531.056,873.019 526.667,864.667 520,863C513.333,861.333 506.667,870 500,870C493.333,870 480,860 480,860C478,837 524.154,821.69 540,814C562.667,803 594.333,792.333 620,780C641.774,769.537 665.667,757 684,746C700.017,736.39 714.88,724.966 730,714C745.167,703 774,680 774,680L730,714L684,746" style="fill:rgb(227,230,249);stroke:black;stroke-width:2.25px;"/>
                </g>
            </g>
        </g>
        <g transform="matrix(1,0,0,1,0,-200)">
            <g transform="matrix(1.49301,0,0,1.49301,-684.247,-115.171)">
                <path d="M860.991,516.995C858.458,516.995 856.358,516.295 854.691,514.895C853.025,513.495 852.191,511.595 852.191,509.195L852.191,368.595C852.191,366.328 852.925,364.462 854.391,362.995C855.858,361.528 857.725,360.795 859.991,360.795L908.591,360.795C916.591,360.795 923.825,362.495 930.291,365.895C936.758,369.295 941.891,373.928 945.691,379.795C949.491,385.662 951.391,392.462 951.391,400.195C951.391,407.395 949.458,413.795 945.591,419.395C941.725,424.995 936.658,429.262 930.391,432.195C939.325,434.595 946.525,439.095 951.991,445.695C957.458,452.295 960.191,460.662 960.191,470.795C960.191,479.862 958.125,487.862 953.991,494.795C949.858,501.728 944.158,507.162 936.891,511.095C929.625,515.028 921.325,516.995 911.991,516.995L860.991,516.995ZM867.791,501.995L911.991,501.995C918.391,501.995 924.058,500.728 928.991,498.195C933.925,495.662 937.791,492.062 940.591,487.395C943.391,482.728 944.791,477.195 944.791,470.795C944.791,464.795 943.391,459.562 940.591,455.095C937.791,450.628 933.925,447.162 928.991,444.695C924.058,442.228 918.391,440.995 911.991,440.995L867.791,440.995L867.791,501.995ZM867.791,425.995L908.591,425.995C916.591,425.995 923.191,423.728 928.391,419.195C933.591,414.662 936.191,408.328 936.191,400.195C936.191,392.195 933.591,386.128 928.391,381.995C923.191,377.862 916.591,375.795 908.591,375.795L867.791,375.795L867.791,425.995Z" style="fill:rgb(227,230,249);fill-rule:nonzero;"/>
                <path d="M1012.79,516.995C1007.46,516.995 1002.69,515.528 998.491,512.595C994.291,509.662 991.025,505.595 988.691,500.395C986.358,495.195 985.191,489.195 985.191,482.395L985.191,368.395C985.191,366.128 985.891,364.295 987.291,362.895C988.691,361.495 990.525,360.795 992.791,360.795C995.058,360.795 996.891,361.495 998.291,362.895C999.691,364.295 1000.39,366.128 1000.39,368.395L1000.39,482.395C1000.39,488.128 1001.56,492.795 1003.89,496.395C1006.23,499.995 1009.19,501.795 1012.79,501.795L1017.79,501.795C1019.79,501.795 1021.39,502.495 1022.59,503.895C1023.79,505.295 1024.39,507.128 1024.39,509.395C1024.39,511.662 1023.56,513.495 1021.89,514.895C1020.23,516.295 1018.06,516.995 1015.39,516.995L1012.79,516.995Z" style="fill:rgb(227,230,249);fill-rule:nonzero;"/>
                <path d="M1093.19,518.195C1083.72,518.195 1075.26,516.228 1067.79,512.295C1060.33,508.362 1054.42,502.595 1050.09,494.995C1045.76,487.395 1043.59,478.128 1043.59,467.195L1043.59,415.195C1043.59,413.062 1044.33,411.262 1045.79,409.795C1047.26,408.328 1049.06,407.595 1051.19,407.595C1053.46,407.595 1055.33,408.328 1056.79,409.795C1058.26,411.262 1058.99,413.062 1058.99,415.195L1058.99,467.195C1058.99,475.462 1060.56,482.262 1063.69,487.595C1066.83,492.928 1071.09,496.928 1076.49,499.595C1081.89,502.262 1087.99,503.595 1094.79,503.595C1101.33,503.595 1107.23,502.328 1112.49,499.795C1117.76,497.262 1121.92,493.795 1124.99,489.395C1128.06,484.995 1129.59,479.995 1129.59,474.395L1140.59,474.395C1140.19,482.795 1137.89,490.295 1133.69,496.895C1129.49,503.495 1123.86,508.695 1116.79,512.495C1109.73,516.295 1101.86,518.195 1093.19,518.195ZM1137.19,516.995C1134.92,516.995 1133.09,516.295 1131.69,514.895C1130.29,513.495 1129.59,511.595 1129.59,509.195L1129.59,415.195C1129.59,412.928 1130.29,411.095 1131.69,409.695C1133.09,408.295 1134.92,407.595 1137.19,407.595C1139.46,407.595 1141.33,408.295 1142.79,409.695C1144.26,411.095 1144.99,412.928 1144.99,415.195L1144.99,509.195C1144.99,511.595 1144.26,513.495 1142.79,514.895C1141.33,516.295 1139.46,516.995 1137.19,516.995Z" style="fill:rgb(227,230,249);fill-rule:nonzero;"/>
                <path d="M1230.59,517.995C1219.79,517.995 1210.23,515.628 1201.89,510.895C1193.56,506.162 1187.03,499.595 1182.29,491.195C1177.56,482.795 1175.19,473.195 1175.19,462.395C1175.19,451.462 1177.42,441.828 1181.89,433.495C1186.36,425.162 1192.53,418.595 1200.39,413.795C1208.26,408.995 1217.33,406.595 1227.59,406.595C1237.73,406.595 1246.56,408.895 1254.09,413.495C1261.62,418.095 1267.46,424.462 1271.59,432.595C1275.73,440.728 1277.79,449.995 1277.79,460.395C1277.79,462.528 1277.12,464.228 1275.79,465.495C1274.46,466.762 1272.73,467.395 1270.59,467.395L1185.59,467.395L1185.59,454.595L1272.19,454.595L1263.59,460.795C1263.73,453.062 1262.33,446.128 1259.39,439.995C1256.46,433.862 1252.29,429.062 1246.89,425.595C1241.49,422.128 1235.06,420.395 1227.59,420.395C1219.99,420.395 1213.33,422.195 1207.59,425.795C1201.86,429.395 1197.42,434.362 1194.29,440.695C1191.16,447.028 1189.59,454.262 1189.59,462.395C1189.59,470.528 1191.36,477.728 1194.89,483.995C1198.42,490.262 1203.26,495.195 1209.39,498.795C1215.53,502.395 1222.59,504.195 1230.59,504.195C1235.39,504.195 1240.23,503.362 1245.09,501.695C1249.96,500.028 1253.86,497.928 1256.79,495.395C1258.26,494.195 1259.92,493.562 1261.79,493.495C1263.66,493.428 1265.26,493.928 1266.59,494.995C1268.33,496.595 1269.23,498.328 1269.29,500.195C1269.36,502.062 1268.59,503.662 1266.99,504.995C1262.59,508.728 1256.99,511.828 1250.19,514.295C1243.39,516.762 1236.86,517.995 1230.59,517.995Z" style="fill:rgb(227,230,249);fill-rule:nonzero;"/>
                <path d="M1359.19,517.995C1348.79,517.995 1339.42,515.595 1331.09,510.795C1322.76,505.995 1316.16,499.428 1311.29,491.095C1306.42,482.762 1303.92,473.395 1303.79,462.995L1303.79,368.595C1303.79,366.195 1304.49,364.295 1305.89,362.895C1307.29,361.495 1309.19,360.795 1311.59,360.795C1313.86,360.795 1315.69,361.495 1317.09,362.895C1318.49,364.295 1319.19,366.195 1319.19,368.595L1319.19,427.395C1323.59,421.128 1329.42,416.095 1336.69,412.295C1343.96,408.495 1352.06,406.595 1360.99,406.595C1371.26,406.595 1380.46,409.028 1388.59,413.895C1396.73,418.762 1403.16,425.395 1407.89,433.795C1412.62,442.195 1414.99,451.662 1414.99,462.195C1414.99,472.862 1412.56,482.395 1407.69,490.795C1402.83,499.195 1396.19,505.828 1387.79,510.695C1379.39,515.562 1369.86,517.995 1359.19,517.995ZM1359.19,503.995C1366.92,503.995 1373.86,502.162 1379.99,498.495C1386.12,494.828 1390.96,489.862 1394.49,483.595C1398.03,477.328 1399.79,470.195 1399.79,462.195C1399.79,454.328 1398.03,447.228 1394.49,440.895C1390.96,434.562 1386.12,429.595 1379.99,425.995C1373.86,422.395 1366.92,420.595 1359.19,420.595C1351.59,420.595 1344.73,422.395 1338.59,425.995C1332.46,429.595 1327.66,434.562 1324.19,440.895C1320.73,447.228 1318.99,454.328 1318.99,462.195C1318.99,470.195 1320.73,477.328 1324.19,483.595C1327.66,489.862 1332.46,494.828 1338.59,498.495C1344.73,502.162 1351.59,503.995 1359.19,503.995Z" style="fill:rgb(227,230,249);fill-rule:nonzero;"/>
                <path d="M1456.19,516.995C1453.79,516.995 1451.89,516.295 1450.49,514.895C1449.09,513.495 1448.39,511.595 1448.39,509.195L1448.39,415.395C1448.39,412.995 1449.09,411.095 1450.49,409.695C1451.89,408.295 1453.79,407.595 1456.19,407.595C1458.46,407.595 1460.29,408.295 1461.69,409.695C1463.09,411.095 1463.79,412.995 1463.79,415.395L1463.79,509.195C1463.79,511.595 1463.09,513.495 1461.69,514.895C1460.29,516.295 1458.46,516.995 1456.19,516.995ZM1455.99,386.795C1453.06,386.795 1450.53,385.728 1448.39,383.595C1446.26,381.462 1445.19,378.862 1445.19,375.795C1445.19,372.462 1446.29,369.828 1448.49,367.895C1450.69,365.962 1453.26,364.995 1456.19,364.995C1458.99,364.995 1461.49,365.962 1463.69,367.895C1465.89,369.828 1466.99,372.462 1466.99,375.795C1466.99,378.862 1465.92,381.462 1463.79,383.595C1461.66,385.728 1459.06,386.795 1455.99,386.795Z" style="fill:rgb(227,230,249);fill-rule:nonzero;"/>
                <path d="M1509.39,449.595C1509.79,441.328 1511.96,433.928 1515.89,427.395C1519.83,420.862 1524.96,415.728 1531.29,411.995C1537.62,408.262 1544.66,406.395 1552.39,406.395C1558.53,406.395 1563.26,407.262 1566.59,408.995C1569.92,410.728 1571.19,413.262 1570.39,416.595C1569.86,418.595 1568.96,419.928 1567.69,420.595C1566.42,421.262 1564.89,421.528 1563.09,421.395C1561.29,421.262 1559.26,421.128 1556.99,420.995C1549.53,420.328 1542.89,421.095 1537.09,423.295C1531.29,425.495 1526.69,428.862 1523.29,433.395C1519.89,437.928 1518.19,443.328 1518.19,449.595L1509.39,449.595ZM1510.59,516.995C1508.19,516.995 1506.33,516.328 1504.99,514.995C1503.66,513.662 1502.99,511.795 1502.99,509.395L1502.99,415.195C1502.99,412.795 1503.66,410.928 1504.99,409.595C1506.33,408.262 1508.19,407.595 1510.59,407.595C1512.99,407.595 1514.86,408.262 1516.19,409.595C1517.53,410.928 1518.19,412.795 1518.19,415.195L1518.19,509.395C1518.19,511.795 1517.53,513.662 1516.19,514.995C1514.86,516.328 1512.99,516.995 1510.59,516.995Z" style="fill:rgb(227,230,249);fill-rule:nonzero;"/>
                <path d="M1636.39,517.995C1625.86,517.995 1616.39,515.562 1607.99,510.695C1599.59,505.828 1592.96,499.195 1588.09,490.795C1583.23,482.395 1580.79,472.862 1580.79,462.195C1580.79,451.662 1583.16,442.195 1587.89,433.795C1592.62,425.395 1599.06,418.762 1607.19,413.895C1615.33,409.028 1624.53,406.595 1634.79,406.595C1643.73,406.595 1651.79,408.495 1658.99,412.295C1666.19,416.095 1671.99,421.128 1676.39,427.395L1676.39,368.595C1676.39,366.195 1677.12,364.295 1678.59,362.895C1680.06,361.495 1681.92,360.795 1684.19,360.795C1686.46,360.795 1688.33,361.495 1689.79,362.895C1691.26,364.295 1691.99,366.195 1691.99,368.595L1691.99,462.995C1691.73,473.395 1689.16,482.762 1684.29,491.095C1679.42,499.428 1672.83,505.995 1664.49,510.795C1656.16,515.595 1646.79,517.995 1636.39,517.995ZM1636.39,503.995C1644.12,503.995 1651.03,502.162 1657.09,498.495C1663.16,494.828 1667.96,489.862 1671.49,483.595C1675.03,477.328 1676.79,470.195 1676.79,462.195C1676.79,454.328 1675.03,447.228 1671.49,440.895C1667.96,434.562 1663.16,429.595 1657.09,425.995C1651.03,422.395 1644.12,420.595 1636.39,420.595C1628.79,420.595 1621.92,422.395 1615.79,425.995C1609.66,429.595 1604.79,434.562 1601.19,440.895C1597.59,447.228 1595.79,454.328 1595.79,462.195C1595.79,470.195 1597.59,477.328 1601.19,483.595C1604.79,489.862 1609.66,494.828 1615.79,498.495C1621.92,502.162 1628.79,503.995 1636.39,503.995Z" style="fill:rgb(227,230,249);fill-rule:nonzero;"/>
            </g>
        </g>
    </g>
    <defs>
        <linearGradient id="_Linear1" x1="0" y1="0" x2="1" y2="0" gradientUnits="userSpaceOnUse" gradientTransform="matrix(695.423,-537.778,537.778,695.423,480.926,964.222)"><stop offset="0" style="stop-color:rgb(228,97,255);stop-opacity:1"/><stop offset="0.43" style="stop-color:rgb(158,105,255);stop-opacity:1"/><stop offset="1" style="stop-color:rgb(0,123,255);stop-opacity:1"/></linearGradient>
    </defs>
</svg>
