<?xml version="1.0" encoding="utf-8"?>
<!-- Generator: Adobe Illustrator 18.1.1, SVG Export Plug-In . SVG Version: 6.00 Build 0)  -->
<svg version="1.1" id="Layer_1" xmlns="http://www.w3.org/2000/svg" xmlns:xlink="http://www.w3.org/1999/xlink" x="0px" y="0px"
	 width="130.22px" height="44px" viewBox="0 0 4444.9 1501.9" enable-background="new 0 0 4444.9 1501.9" xml:space="preserve">
<g>
	<path fill="#4E9D2D" d="M486.4,1055.3C-916.7,450.5,1036.9-425.1,2293.9,235.9C1045.4-252.3-529.4,497.7,486.4,1055.3z"/>
	<g>
		<g>
			<path stroke="#010101" stroke-width="1.3373" d="M2378.7,1388.9c-17.9-0.3-33.6-4-47.4-11.1c-13.9-6.9-25.1-15.9-33.8-26.8
				c-17.6-23.1-26.5-47.2-26.5-72.1c0.6-38.1,14.8-70.4,42.7-96.9c26.8-26.8,60.4-40.6,100.6-41.4c20.6,0,38,3.5,52.4,10.6
				c14,7.2,25.3,16.3,33.8,27.3c8.7,11.1,15.1,22.9,19.3,35.6c3.3,13,5,25.4,5,37.5c0,34.1-12.1,65-36.4,92.7
				C2464,1373,2427.4,1387.8,2378.7,1388.9z M2386.6,1346.5c1.6,0.3,5-0.3,10.3-1.8c4.9-1.2,10.3-4.9,15.8-10.9
				c2.9-3.5,5.7-7.8,8.6-12.8c3.1-4.8,5.5-10.8,7.5-18.1c4.6-13.9,7.5-33.9,8.9-59.9c1.2-16.9-0.1-31-3.9-42.3
				c-4-11.4-10.7-17.3-20.1-17.6c-9.3,0.3-17.3,3.7-24.2,10c-6.9,6.4-12.7,14.7-17.5,25.1c-9.3,22.3-13.9,43.9-13.9,64.8
				c0,18.7,2.1,33.9,6.5,45.5C2368.8,1340.5,2376.2,1346.5,2386.6,1346.5z"/>
			<path stroke="#010101" stroke-width="1.3467" d="M2664.4,1171c10.8-9.1,22.6-16.9,35.5-23.3c12.6-5.9,25.6-9.1,39.1-9.6
				c43.7,0.5,65.6,32.3,65.9,95.4c-0.9,49.2-14.2,87.2-40,114.1c-24.9,26.7-50.3,40.2-76.4,40.5c-22.8-0.3-42.6-8.5-59.3-24.7
				l-25.8,137.9h-85.8l67.2-357.2h84.3L2664.4,1171z M2694,1190c-5.3,0-10.7,2.2-16,6.5c-5.6,4.5-11.3,12.1-17.2,22.6
				c-11.7,20.3-19.4,54.1-23.2,101.5c6.4,14,16.9,20.9,31.4,20.9c5.4,0,11.2-2.7,17.3-8.1c5.6-5.4,10.7-12.9,15.3-22.4
				c10.2-19.4,15.4-43.9,15.7-73.6C2717.7,1205.9,2709.9,1190,2694,1190z"/>
			<path stroke="#010101" stroke-width="1.3373" d="M3041.9,1351c-16.1,9.7-34.7,18.3-55.9,25.9c-21,7.7-43.2,11.7-66.5,12
				c-15.1-0.3-27.7-4-37.6-11.1c-10.4-6.2-18.8-14.3-25.2-24.5c-3.1-5.4-5.7-10.6-7.8-15.7c-2.1-5.2-4-10.4-5.6-15.5
				c-1.2-5.1-2-10-2.6-14.8c-0.6-4.3-0.9-8.4-0.9-12.3c1.2-27.7,6.7-51.6,16.5-71.5c4.6-10.2,10.2-19.2,16.5-27.1
				c6.1-7.9,12.7-14.8,19.7-20.8c14.3-12.3,29.8-21.3,46.5-27c16.3-5.4,31.8-8.1,46.7-8.1c23.2,0,42.6,4.8,58,14.4
				c15.7,9.7,23.7,25.8,23.9,48.3c-0.3,12.9-4.4,24.1-12.3,33.5c-8.1,10.2-19,18.6-32.7,25.2c-28.4,13.9-60.1,20.5-95.3,19.9
				c-0.3,2.5-0.3,6.4,0,11.8c0,5.7,1.1,11.5,3.3,17.6c2.1,5.7,5.9,10.6,11.4,14.6c5.5,4.8,13.5,7.2,23.7,7.2
				c10.8,0,20.9-2.1,30.2-6.2c9.3-3.7,18.8-8.3,28.5-13.6L3041.9,1351z M2979.2,1181.4c-13.1,1.3-23.6,7.6-31.3,19.1
				c-7.7,11.3-13.2,25.2-16.8,41.8c45.9,1.2,69.5-11.1,71-37.2c0.6-7.3-1.2-13.1-5.3-17.6
				C2992.4,1183.4,2986.6,1181.4,2979.2,1181.4z"/>
			<path stroke="#010101" stroke-width="1.3478" d="M3193.6,1187.1l0.9,0.9c13.2-16.4,27.7-28.8,43.7-37.3
				c15.8-8,30.7-12.1,44.8-12.1c34,0,51.1,17.1,51.1,51.2c0.3,11-0.9,24.2-3.6,39.6l-27.7,153.5h-83l26.7-149.8
				c0.6-4.2,0.9-8.2,0.9-11.9c-1.2-10-3.5-16.3-7-19.1c-3.6-2.7-7-4-10.1-4c-7.7,0-14.3,2.4-19.8,7.2c-5.9,4.8-10.9,11.2-15.1,19.1
				c-8.1,16.9-13.6,34.3-16.6,52l-19,106.5h-83l43-238.3h82.3L3193.6,1187.1z"/>
		</g>
		<g>
			<path fill="#FFFFFF" stroke="#010101" stroke-width="10.2526" d="M2358.5,1365.9c-17.8-0.3-33.6-4-47.4-11.1
				c-13.9-6.9-25.1-15.9-33.8-26.8c-17.6-23.1-26.4-47.2-26.4-72.2c0.6-38.1,14.8-70.3,42.7-96.9c26.8-26.8,60.3-40.6,100.5-41.4
				c20.5,0,38,3.5,52.3,10.6c14,7.3,25.3,16.4,33.9,27.3c8.7,11.1,15.1,23,19.2,35.6c3.3,12.9,5,25.4,5,37.5
				c0,34-12.1,64.9-36.4,92.7C2443.8,1350,2407.3,1364.9,2358.5,1365.9z M2366.4,1323.5c1.6,0.3,5-0.3,10.3-1.9
				c4.9-1.2,10.2-4.9,15.8-10.9c2.9-3.6,5.8-7.8,8.6-12.8c3.1-4.8,5.6-10.8,7.5-18.1c4.6-13.9,7.6-33.9,8.9-59.9
				c1.2-16.9-0.1-31-3.8-42.3c-4-11.5-10.7-17.4-20.2-17.6c-9.3,0.3-17.4,3.6-24.2,10c-6.8,6.4-12.7,14.7-17.5,25.1
				c-9.3,22.3-13.9,43.9-13.9,64.8c0,18.7,2.1,33.9,6.5,45.5C2348.7,1317.5,2356,1323.5,2366.4,1323.5z"/>
			<path fill="#FFFFFF" stroke="#010101" stroke-width="10.2526" d="M2645.3,1150.3c10.7-9,22.4-16.7,35.2-23.1
				c12.5-5.9,25.4-9.1,38.7-9.6c43.4,0.5,65.3,32.1,65.5,94.8c-0.9,48.9-14.1,86.6-39.7,113.3c-24.7,26.5-50,39.9-75.8,40.2
				c-22.6-0.3-42.2-8.5-58.8-24.6l-25.7,136.9h-85.2l66.7-354.7h83.7L2645.3,1150.3z M2674.6,1169.2c-5.2,0-10.5,2.2-15.9,6.5
				c-5.5,4.4-11.2,11.9-17,22.4c-11.7,20.2-19.4,53.8-23,100.8c6.4,13.9,16.8,20.8,31.2,20.8c5.4,0,11.1-2.7,17.2-8.1
				c5.5-5.4,10.6-12.8,15.1-22.2c10.2-19.3,15.3-43.6,15.7-73.1C2698.2,1184.9,2690.4,1169.2,2674.6,1169.2z"/>
			<path fill="#FFFFFF" stroke="#010101" stroke-width="10.2526" d="M3021.7,1328.1c-16.1,9.7-34.8,18.3-56,25.8
				c-21,7.7-43.1,11.7-66.5,12c-15.1-0.3-27.7-4-37.6-11.1c-10.4-6.2-18.8-14.4-25.2-24.5c-3.1-5.4-5.7-10.6-7.8-15.7
				c-2.1-5.2-3.9-10.4-5.6-15.5c-1.2-5.1-2.1-10-2.7-14.8c-0.6-4.3-0.9-8.4-0.9-12.3c1.2-27.7,6.7-51.5,16.5-71.4
				c4.6-10.2,10.1-19.2,16.5-27.1c6.1-7.8,12.6-14.8,19.7-20.8c14.3-12.3,29.7-21.3,46.4-27.1c16.2-5.4,31.8-8.1,46.7-8.1
				c23.2,0,42.6,4.8,58,14.3c15.7,9.7,23.6,25.8,23.9,48.3c-0.3,12.9-4.4,24.1-12.3,33.5c-8.1,10.2-18.9,18.6-32.7,25.2
				c-28.4,13.9-60.1,20.5-95.3,19.9c-0.3,2.5-0.3,6.4,0,11.8c0,5.7,1.1,11.6,3.4,17.6c2.1,5.7,5.9,10.6,11.4,14.6
				c5.6,4.8,13.5,7.2,23.8,7.2c10.7,0,20.8-2.1,30.2-6.3c9.2-3.7,18.7-8.2,28.4-13.6L3021.7,1328.1z M2959.1,1158.4
				c-13.2,1.2-23.6,7.6-31.4,19c-7.6,11.3-13.2,25.2-16.8,41.8c45.8,1.2,69.5-11.1,71-37.2c0.6-7.3-1.2-13.1-5.4-17.6
				C2972.2,1160.4,2966.4,1158.4,2959.1,1158.4z"/>
			<path fill="#FFFFFF" stroke="#010101" stroke-width="10.2526" d="M3174.6,1165.7l0.9,0.9c13.1-16.2,27.5-28.6,43.3-37
				c15.6-8,30.4-11.9,44.4-11.9c33.8,0,50.7,16.9,50.7,50.8c0.3,11-0.9,24.1-3.6,39.3l-27.4,152.3h-82.4l26.6-148.7
				c0.6-4.2,0.9-8.1,0.9-11.8c-1.2-9.9-3.5-16.2-6.9-18.9c-3.6-2.6-7-4-10.1-4c-7.6,0-14.1,2.4-19.6,7.2c-5.9,4.8-10.8,11.1-15,19
				c-8.1,16.8-13.6,34-16.6,51.6l-18.7,105.7h-82.4l42.6-236.5h81.8L3174.6,1165.7z"/>
		</g>
		<g>
			<path d="M3670.6,1392.3h-64.8c-25.1-31.3-51.2-64.4-78.4-99.3c-27.3-35-49.1-66.5-65.6-94.7h-0.9v194h-75.7v-331.1h70.1
				c24.8,30.5,50.9,63.8,78.4,99.9c27.3,35.9,47.4,65.9,60.2,89.9h0.9v-189.8h75.7V1392.3z"/>
			<path d="M4099,1392.3h-99.8v-231.7h-0.9c-24.6,84.1-49.9,161.3-75.7,231.7H3862c-26.1-70.4-51.8-147.6-77.1-231.7h-0.9v231.7
				h-75.7v-331.1h131.7c22,60.9,43.9,128.9,65.6,203.9h0.9c20.9-75,42.2-143,63.6-203.9H4099V1392.3z"/>
			<path d="M4318.6,1129.3c-13.2-8.2-28.9-12.3-47.2-12.3c-21.6,0.6-32.3,7.4-32.3,20.4c0,4.2,1.8,8.5,5.5,13
				c3.1,4.6,7.7,9.3,13.6,14.1c11.7,9.4,26.1,21.6,43,36.6c20.2,19.3,34,36.3,41.3,51.2c7,15.1,10.4,31.3,10,48.4
				c0,7.3-1.5,16.2-4.6,26.9c-3.3,11.1-9.6,22-18.8,32.8c-8.5,10.7-20.5,19.4-36,26.4c-15.9,7.4-36,11.3-60.1,11.5
				c-19,0-37.1-2.5-54.3-7.6c-17.8-4.7-33.2-12.3-46.3-22.5l29.3-54.8c7,5.4,15,10.5,24.1,15.1c9.2,5.4,19.5,8.1,30.8,8.1
				c10,0,19.1-2.9,27.3-8.6c8.4-4.9,12.6-13.6,13-26c0-6.6-1.7-13.1-5.2-19.4c-3.2-5.7-7.7-11.3-13.2-16.7
				c-11.7-10.6-24.3-21.5-38-32.7c-17.7-14.5-31.7-28.1-41.8-40.8c-10.2-12.3-15.3-28.3-15.3-47.9c0.3-26.9,11.9-48.4,34.7-64.6
				c21.4-16.1,48-24.3,79.8-24.5c21,0.3,39.3,3,54.7,8.1c14.6,5.1,24.8,9.8,30.8,14L4318.6,1129.3z"/>
		</g>
		<g>
			<g>
				<path fill="#010101" d="M4400.4,1065.5c24.9,0,44.5,19.5,44.5,44.3c0,24.8-19.7,44.3-44.7,44.3s-44.8-19.5-44.8-44.3
					c0-24.8,19.7-44.3,44.8-44.3H4400.4z M4400,1073.1c-20.2,0-36.2,16.2-36.2,36.8c0,20.6,16,36.8,36.5,36.8
					c20.5,0,36.5-16.2,36.5-36.8c0-20.6-16-36.8-36.5-36.8H4400z M4382.1,1083.6h16c9.4,0,14.3,1.4,17.9,3.9
					c3.4,2.4,5.6,6.1,5.6,11.1c0,8.1-6.1,12.2-11.5,14.1l14.1,22.7h-11.8l-13-21.4h-6.6v21.4h-10.9V1083.6z M4393,1107.2h7.1
					c6.3,0,10.2-3.2,10.2-8.3c0-6.7-5.8-7.9-12.3-7.9h-5V1107.2z"/>
			</g>
		</g>
	</g>
	<g>
		<path fill="#4E9D2D" d="M631.4,598.9h270V354H996v626h-94.5V687.7h-270V980H537V354h94.5V598.9z"/>
		<path fill="#4E9D2D" d="M1114.8,664.2c0-88.1,32.3-163.8,96.9-227.1c64.3-63.2,141.6-94.9,231.9-94.9
			c89.2,0,165.7,31.9,229.5,95.7c64.1,63.8,96.1,140.4,96.1,229.9c0,90-32.1,166.4-96.5,229.1c-64.6,63-142.6,94.5-233.9,94.5
			c-80.8,0-153.4-28-217.7-83.9C1150.2,845.6,1114.8,764.5,1114.8,664.2z M1210,665.2c0,69.1,23.3,126,69.8,170.6
			c46.2,44.6,99.6,66.8,160.2,66.8c65.7,0,121.1-22.7,166.2-68.1c45.1-45.9,67.7-101.8,67.7-167.7c0-66.7-22.3-122.6-66.9-167.7
			c-44.3-45.4-99.2-68.1-164.6-68.1c-65.1,0-120.2,22.7-165,68.1C1232.5,543.9,1210,599.3,1210,665.2z"/>
		<path fill="#4E9D2D" d="M2100,713.2L2293.9,980h-115.6l-178.8-256.3h-17V980H1888V354h110.7c82.7,0,142.5,15.5,179.2,46.6
			c40.5,34.6,60.8,80.3,60.8,137c0,44.3-12.7,82.4-38.1,114.4C2175.2,683.9,2141.7,704.3,2100,713.2z M1982.5,641.5h30
			c89.5,0,134.2-34.2,134.2-102.6c0-64.1-43.5-96.1-130.6-96.1h-33.6V641.5z"/>
		<path fill="#4E9D2D" d="M2482.4,354v626h-94.5V354H2482.4z"/>
		<path fill="#4E9D2D" d="M2741.1,891.2h300.4V980h-455.8l307.4-537.2h-257.1V354h412.4L2741.1,891.2z"/>
		<path fill="#4E9D2D" d="M3120.7,664.2c0-88.1,32.3-163.8,96.9-227.1c64.3-63.2,141.6-94.9,231.9-94.9
			c89.2,0,165.7,31.9,229.5,95.7c64.1,63.8,96.1,140.4,96.1,229.9c0,90-32.1,166.4-96.5,229.1c-64.6,63-142.6,94.5-233.9,94.5
			c-80.8,0-153.4-28-217.7-83.9C3156,845.6,3120.7,764.5,3120.7,664.2z M3215.9,665.2c0,69.1,23.2,126,69.7,170.6
			c46.3,44.6,99.6,66.8,160.2,66.8c65.6,0,121.1-22.7,166.2-68.1c45.2-45.9,67.7-101.8,67.7-167.7c0-66.7-22.3-122.6-66.9-167.7
			c-44.3-45.4-99.2-68.1-164.6-68.1c-65.1,0-120.1,22.7-165,68.1C3238.4,543.9,3215.9,599.3,3215.9,665.2z"/>
		<path fill="#4E9D2D" d="M3893.9,980V311.4l456.6,477.6V354h94.5v664.2l-456.5-476.4V980H3893.9z"/>
	</g>
</g>
</svg>
