<?xml version="1.0" encoding="utf-8"?>
<!-- Generator: Adobe Illustrator 16.0.4, SVG Export Plug-In . SVG Version: 6.00 Build 0)  -->
<!DOCTYPE svg PUBLIC "-//W3C//DTD SVG 1.1//EN" "http://www.w3.org/Graphics/SVG/1.1/DTD/svg11.dtd">
<svg version="1.1" id="Layer_2" xmlns="http://www.w3.org/2000/svg" xmlns:xlink="http://www.w3.org/1999/xlink" x="0px" y="0px"
	 width="167.046px" height="44px" viewBox="0 0 167.046 44" enable-background="new 0 0 167.046 44" xml:space="preserve">
<g id="Layer_3">
	<path fill="#009900" d="M18.412,39.787C-29.961,17.639,37.388-14.432,80.724,9.778C37.683-8.105-16.608,19.364,18.412,39.787z"/>
</g>
<g id="open__x0028_shadow_x0029_">
	<g>
		<path stroke="#000000" d="M22.099,33.711c-1.217-0.021-2.293-0.27-3.232-0.742c-0.947-0.465-1.715-1.062-2.303-1.795
			c-1.207-1.547-1.809-3.154-1.809-4.826c0.041-2.545,1.014-4.707,2.918-6.479c1.828-1.794,4.115-2.717,6.861-2.769
			c1.402,0,2.596,0.238,3.572,0.711c0.955,0.484,1.727,1.094,2.307,1.825c0.596,0.743,1.031,1.537,1.312,2.383
			c0.229,0.866,0.342,1.701,0.342,2.504c0,2.278-0.826,4.348-2.479,6.201C27.923,32.645,25.427,33.639,22.099,33.711z
			 M22.638,30.873c0.109,0.021,0.344-0.02,0.705-0.123c0.338-0.082,0.699-0.326,1.082-0.73c0.195-0.237,0.391-0.522,0.588-0.854
			c0.207-0.32,0.377-0.727,0.508-1.213c0.316-0.934,0.52-2.268,0.607-4.008c0.082-1.129-0.004-2.071-0.264-2.828
			c-0.273-0.767-0.732-1.159-1.375-1.181c-0.633,0.021-1.186,0.243-1.654,0.667c-0.469,0.426-0.865,0.985-1.195,1.679
			c-0.633,1.491-0.949,2.936-0.949,4.334c0,1.254,0.148,2.268,0.441,3.045C21.427,30.469,21.929,30.873,22.638,30.873z"/>
		<path stroke="#000000" d="M41.671,19.285c0.73-0.604,1.531-1.117,2.404-1.545c0.854-0.396,1.736-0.609,2.65-0.641
			c2.961,0.031,4.451,2.145,4.471,6.342c-0.061,3.27-0.965,5.795-2.711,7.578c-1.686,1.773-3.414,2.67-5.18,2.691
			c-1.541-0.021-2.879-0.568-4.014-1.646l-1.75,9.158h-5.816l4.557-23.729h5.711L41.671,19.285z M43.673,20.551
			c-0.357,0-0.721,0.145-1.086,0.434c-0.375,0.3-0.764,0.8-1.16,1.5c-0.795,1.354-1.318,3.602-1.572,6.746
			c0.438,0.929,1.146,1.392,2.131,1.392c0.367,0,0.758-0.181,1.172-0.541c0.377-0.358,0.723-0.854,1.037-1.481
			c0.689-1.289,1.047-2.918,1.064-4.892C45.281,21.604,44.751,20.551,43.673,20.551z"/>
		<path stroke="#000000" d="M67.365,31.18c-1.1,0.646-2.373,1.223-3.816,1.729c-1.436,0.514-2.947,0.78-4.535,0.803
			c-1.035-0.021-1.891-0.269-2.568-0.742c-0.711-0.411-1.283-0.959-1.717-1.641c-0.215-0.359-0.393-0.711-0.533-1.052
			c-0.143-0.352-0.268-0.694-0.381-1.036c-0.08-0.341-0.141-0.668-0.182-0.99c-0.041-0.287-0.061-0.562-0.061-0.817
			c0.082-1.857,0.457-3.447,1.127-4.779c0.316-0.68,0.691-1.284,1.129-1.811c0.416-0.526,0.863-0.989,1.342-1.392
			c0.975-0.825,2.031-1.429,3.17-1.811c1.107-0.36,2.168-0.542,3.186-0.542c1.584,0,2.904,0.318,3.963,0.959
			c1.066,0.65,1.609,1.729,1.629,3.232c-0.02,0.868-0.299,1.614-0.838,2.245c-0.551,0.682-1.295,1.242-2.23,1.688
			c-1.936,0.928-4.102,1.371-6.506,1.33c-0.02,0.164-0.02,0.43,0,0.789c0,0.381,0.076,0.773,0.23,1.176
			c0.141,0.383,0.402,0.709,0.779,0.978c0.377,0.319,0.916,0.479,1.619,0.479c0.732,0,1.42-0.139,2.062-0.418
			c0.633-0.248,1.277-0.553,1.941-0.914L67.365,31.18z M63.091,19.828c-0.896,0.083-1.611,0.509-2.141,1.273
			c-0.521,0.756-0.904,1.689-1.146,2.795c3.127,0.082,4.742-0.746,4.846-2.485c0.041-0.486-0.082-0.88-0.367-1.181
			C63.988,19.964,63.589,19.828,63.091,19.828z"/>
		<path stroke="#000000" d="M77.796,20.312l0.061,0.062c0.895-1.086,1.879-1.91,2.957-2.476c1.066-0.532,2.076-0.799,3.031-0.799
			c2.307,0,3.459,1.134,3.459,3.4c0.021,0.732-0.061,1.606-0.242,2.626l-1.875,10.189h-5.623l1.812-9.944
			c0.041-0.276,0.061-0.541,0.061-0.789c-0.08-0.658-0.238-1.082-0.473-1.268c-0.244-0.175-0.471-0.263-0.686-0.263
			c-0.518,0-0.965,0.161-1.34,0.479c-0.396,0.318-0.738,0.742-1.021,1.268c-0.549,1.124-0.924,2.273-1.129,3.448l-1.279,7.065
			h-5.623l2.91-15.818h5.576L77.796,20.312z"/>
	</g>
</g>
<g id="open__x0028_outline_x0029_">
	<g>
		<path fill="#FFFFFF" stroke="#000000" stroke-width="0.5" d="M20.63,31.697c-1.217-0.021-2.293-0.271-3.23-0.742
			c-0.947-0.463-1.717-1.062-2.303-1.795c-1.207-1.545-1.811-3.154-1.811-4.824c0.041-2.547,1.016-4.708,2.916-6.481
			c1.832-1.793,4.119-2.716,6.863-2.77c1.406,0,2.594,0.237,3.574,0.712c0.957,0.484,1.725,1.092,2.309,1.823
			c0.592,0.744,1.027,1.537,1.311,2.383c0.229,0.866,0.344,1.701,0.344,2.506c0,2.278-0.83,4.347-2.48,6.204
			C26.457,30.631,23.96,31.625,20.63,31.697z M21.171,28.859c0.107,0.021,0.344-0.021,0.703-0.123
			c0.34-0.084,0.699-0.326,1.082-0.73c0.195-0.238,0.393-0.523,0.59-0.854c0.207-0.322,0.375-0.726,0.508-1.213
			c0.316-0.933,0.518-2.269,0.604-4.008c0.084-1.129-0.004-2.071-0.262-2.829c-0.271-0.765-0.73-1.159-1.375-1.18
			c-0.633,0.021-1.184,0.242-1.654,0.668c-0.469,0.424-0.867,0.983-1.193,1.679c-0.635,1.491-0.949,2.938-0.949,4.333
			c0,1.254,0.145,2.268,0.439,3.045C19.96,28.457,20.462,28.859,21.171,28.859z"/>
		<path fill="#FFFFFF" stroke="#000000" stroke-width="0.5" d="M40.203,17.272c0.73-0.604,1.533-1.12,2.406-1.546
			c0.854-0.396,1.736-0.609,2.65-0.643c2.959,0.032,4.449,2.146,4.471,6.344c-0.062,3.267-0.965,5.793-2.713,7.579
			c-1.686,1.771-3.412,2.67-5.18,2.689c-1.541-0.021-2.879-0.566-4.016-1.646l-1.748,9.16h-5.816l4.557-23.73h5.711L40.203,17.272z
			 M42.205,18.537c-0.355,0-0.719,0.146-1.084,0.434c-0.377,0.3-0.766,0.8-1.16,1.501c-0.795,1.351-1.32,3.601-1.574,6.744
			c0.438,0.931,1.146,1.396,2.133,1.396c0.365,0,0.756-0.182,1.172-0.543c0.377-0.359,0.721-0.854,1.035-1.484
			c0.691-1.287,1.047-2.92,1.068-4.889C43.814,19.59,43.285,18.537,42.205,18.537z"/>
		<path fill="#FFFFFF" stroke="#000000" stroke-width="0.5" d="M65.896,29.164c-1.098,0.65-2.371,1.227-3.816,1.73
			c-1.438,0.514-2.947,0.78-4.535,0.803c-1.033-0.021-1.889-0.271-2.568-0.742c-0.709-0.412-1.281-0.959-1.717-1.641
			c-0.213-0.359-0.391-0.711-0.531-1.051c-0.143-0.353-0.27-0.695-0.381-1.037c-0.082-0.341-0.143-0.67-0.182-0.988
			c-0.041-0.289-0.062-0.562-0.062-0.82c0.082-1.855,0.459-3.449,1.129-4.779c0.314-0.683,0.691-1.283,1.129-1.811
			c0.416-0.525,0.863-0.989,1.342-1.393c0.975-0.825,2.029-1.428,3.17-1.81c1.105-0.361,2.168-0.543,3.186-0.543
			c1.584,0,2.906,0.321,3.963,0.959c1.066,0.65,1.609,1.729,1.629,3.235c-0.02,0.865-0.299,1.613-0.84,2.242
			c-0.549,0.682-1.293,1.244-2.229,1.688c-1.936,0.928-4.104,1.372-6.506,1.331c-0.02,0.164-0.02,0.428,0,0.791
			c0,0.381,0.078,0.772,0.23,1.176c0.141,0.381,0.4,0.707,0.777,0.978c0.377,0.317,0.918,0.479,1.621,0.479
			c0.732,0,1.422-0.142,2.061-0.42c0.633-0.246,1.279-0.554,1.941-0.912L65.896,29.164z M61.623,17.815
			c-0.895,0.083-1.609,0.507-2.141,1.273c-0.52,0.756-0.902,1.688-1.146,2.796c3.127,0.083,4.744-0.746,4.848-2.485
			c0.041-0.486-0.08-0.881-0.367-1.181C62.521,17.95,62.121,17.815,61.623,17.815z"/>
		<path fill="#FFFFFF" stroke="#000000" stroke-width="0.5" d="M76.328,18.299l0.062,0.062c0.893-1.086,1.877-1.912,2.955-2.476
			c1.066-0.533,2.08-0.8,3.033-0.8c2.307,0,3.459,1.134,3.459,3.4c0.021,0.731-0.062,1.608-0.242,2.628l-1.875,10.19h-5.623
			l1.811-9.946c0.041-0.279,0.062-0.542,0.062-0.79c-0.082-0.659-0.238-1.082-0.471-1.267c-0.244-0.177-0.475-0.265-0.688-0.265
			c-0.518,0-0.965,0.16-1.342,0.479c-0.396,0.32-0.736,0.742-1.021,1.269c-0.549,1.123-0.924,2.273-1.125,3.449L74.042,31.3h-5.623
			l2.91-15.82h5.578L76.328,18.299z"/>
	</g>
</g>
<g id="open__x0028_white_overlay_x0029_">
	<g>
		<path fill="#FFFFFF" stroke="#000000" stroke-width="0.5" d="M20.63,31.697c-1.217-0.021-2.293-0.271-3.23-0.742
			c-0.947-0.463-1.717-1.062-2.303-1.795c-1.207-1.545-1.811-3.154-1.811-4.824c0.041-2.547,1.016-4.708,2.916-6.481
			c1.832-1.793,4.119-2.716,6.863-2.77c1.406,0,2.594,0.237,3.574,0.712c0.957,0.484,1.725,1.092,2.309,1.823
			c0.592,0.744,1.027,1.537,1.311,2.383c0.229,0.866,0.344,1.701,0.344,2.506c0,2.278-0.83,4.347-2.48,6.204
			C26.457,30.631,23.96,31.625,20.63,31.697z M21.171,28.859c0.107,0.021,0.344-0.021,0.703-0.123
			c0.34-0.084,0.699-0.326,1.082-0.73c0.195-0.238,0.393-0.523,0.59-0.854c0.207-0.322,0.375-0.726,0.508-1.213
			c0.316-0.933,0.518-2.269,0.604-4.008c0.084-1.129-0.004-2.071-0.262-2.829c-0.271-0.765-0.73-1.159-1.375-1.18
			c-0.633,0.021-1.184,0.242-1.654,0.668c-0.469,0.424-0.867,0.983-1.193,1.679c-0.635,1.491-0.949,2.938-0.949,4.333
			c0,1.254,0.145,2.268,0.439,3.045C19.96,28.457,20.462,28.859,21.171,28.859z"/>
		<path fill="#FFFFFF" stroke="#000000" stroke-width="0.5" d="M40.203,17.272c0.73-0.604,1.533-1.12,2.406-1.546
			c0.854-0.396,1.736-0.609,2.65-0.643c2.959,0.032,4.449,2.146,4.471,6.344c-0.062,3.267-0.965,5.793-2.713,7.579
			c-1.686,1.771-3.412,2.67-5.18,2.689c-1.541-0.021-2.879-0.566-4.016-1.646l-1.748,9.16h-5.816l4.557-23.73h5.711L40.203,17.272z
			 M42.205,18.537c-0.355,0-0.719,0.146-1.084,0.434c-0.377,0.3-0.766,0.8-1.16,1.501c-0.795,1.351-1.32,3.601-1.574,6.744
			c0.438,0.931,1.146,1.396,2.133,1.396c0.365,0,0.756-0.182,1.172-0.543c0.377-0.359,0.721-0.854,1.035-1.484
			c0.691-1.287,1.047-2.92,1.068-4.889C43.814,19.59,43.285,18.537,42.205,18.537z"/>
		<path fill="#FFFFFF" stroke="#000000" stroke-width="0.5" d="M65.896,29.164c-1.098,0.65-2.371,1.227-3.816,1.73
			c-1.438,0.514-2.947,0.78-4.535,0.803c-1.033-0.021-1.889-0.271-2.568-0.742c-0.709-0.412-1.281-0.959-1.717-1.641
			c-0.213-0.359-0.391-0.711-0.531-1.051c-0.143-0.353-0.27-0.695-0.381-1.037c-0.082-0.341-0.143-0.67-0.182-0.988
			c-0.041-0.289-0.062-0.562-0.062-0.82c0.082-1.855,0.459-3.449,1.129-4.779c0.314-0.683,0.691-1.283,1.129-1.811
			c0.416-0.525,0.863-0.989,1.342-1.393c0.975-0.825,2.029-1.428,3.17-1.81c1.105-0.361,2.168-0.543,3.186-0.543
			c1.584,0,2.906,0.321,3.963,0.959c1.066,0.65,1.609,1.729,1.629,3.235c-0.02,0.865-0.299,1.613-0.84,2.242
			c-0.549,0.682-1.293,1.244-2.229,1.688c-1.936,0.928-4.104,1.372-6.506,1.331c-0.02,0.164-0.02,0.428,0,0.791
			c0,0.381,0.078,0.772,0.23,1.176c0.141,0.381,0.4,0.707,0.777,0.978c0.377,0.317,0.918,0.479,1.621,0.479
			c0.732,0,1.422-0.142,2.061-0.42c0.633-0.246,1.279-0.554,1.941-0.912L65.896,29.164z M61.623,17.815
			c-0.895,0.083-1.609,0.507-2.141,1.273c-0.52,0.756-0.902,1.688-1.146,2.796c3.127,0.083,4.744-0.746,4.848-2.485
			c0.041-0.486-0.08-0.881-0.367-1.181C62.521,17.95,62.121,17.815,61.623,17.815z"/>
		<path fill="#FFFFFF" stroke="#000000" stroke-width="0.5" d="M76.328,18.299l0.062,0.062c0.893-1.086,1.877-1.912,2.955-2.476
			c1.066-0.533,2.08-0.8,3.033-0.8c2.307,0,3.459,1.134,3.459,3.4c0.021,0.731-0.062,1.608-0.242,2.628l-1.875,10.19h-5.623
			l1.811-9.946c0.041-0.279,0.062-0.542,0.062-0.79c-0.082-0.659-0.238-1.082-0.471-1.267c-0.244-0.177-0.475-0.265-0.688-0.265
			c-0.518,0-0.965,0.16-1.342,0.479c-0.396,0.32-0.736,0.742-1.021,1.269c-0.549,1.123-0.924,2.273-1.125,3.449L74.042,31.3h-5.623
			l2.91-15.82h5.578L76.328,18.299z"/>
	</g>
</g>
<g id="NMS">
	<g>
		<path d="M110.82,33.459h-4.418c-1.711-2.092-3.494-4.307-5.348-6.646c-1.865-2.336-3.359-4.448-4.48-6.333h-0.061v12.981h-5.164
			V11.312h4.783c1.688,2.041,3.475,4.269,5.35,6.681c1.863,2.403,3.234,4.409,4.111,6.017h0.062V11.312h5.164L110.82,33.459
			L110.82,33.459z"/>
		<path d="M140.064,33.459h-6.814v-15.5h-0.062c-1.683,5.625-3.403,10.793-5.168,15.5h-4.131c-1.785-4.707-3.539-9.875-5.261-15.5
			h-0.062v15.5h-5.164V11.311h8.988c1.504,4.073,2.996,8.62,4.479,13.64h0.062c1.432-5.02,2.879-9.567,4.342-13.64h8.789
			L140.064,33.459L140.064,33.459z"/>
		<path d="M155.046,15.869c-0.896-0.548-1.969-0.821-3.219-0.821c-1.476,0.042-2.209,0.497-2.209,1.362
			c0,0.279,0.123,0.567,0.373,0.867c0.219,0.309,0.526,0.623,0.932,0.943c0.803,0.63,1.779,1.443,2.932,2.445
			c1.385,1.289,2.324,2.433,2.824,3.422c0.479,1.011,0.707,2.09,0.686,3.231c0,0.484-0.104,1.084-0.318,1.798
			c-0.227,0.741-0.651,1.477-1.282,2.196c-0.578,0.713-1.397,1.302-2.455,1.765c-1.09,0.496-2.457,0.754-4.104,0.772
			c-1.293,0-2.529-0.17-3.709-0.508c-1.211-0.318-2.265-0.82-3.16-1.508l2.002-3.668c0.479,0.363,1.024,0.701,1.647,1.01
			c0.632,0.363,1.332,0.543,2.104,0.543c0.683,0,1.304-0.191,1.861-0.574c0.568-0.328,0.865-0.905,0.885-1.733
			c0-0.44-0.114-0.877-0.35-1.302c-0.225-0.383-0.525-0.754-0.9-1.114c-0.793-0.713-1.657-1.438-2.594-2.183
			c-1.213-0.972-2.16-1.88-2.848-2.729c-0.699-0.824-1.049-1.895-1.049-3.206c0.021-1.798,0.811-3.237,2.365-4.323
			c1.461-1.074,3.276-1.621,5.445-1.643c1.438,0.021,2.686,0.202,3.733,0.539c0.991,0.34,1.692,0.654,2.101,0.941L155.046,15.869z"
			/>
	</g>
	<g>
		<path d="M160.728,9.554c1.607,0,2.891,1.281,2.891,2.884c0,1.629-1.281,2.897-2.904,2.897c-1.608,0-2.916-1.27-2.916-2.897
			c0-1.603,1.308-2.884,2.916-2.884H160.728z M160.714,10.001c-1.295,0-2.355,1.091-2.355,2.437c0,1.373,1.062,2.45,2.369,2.45
			c1.307,0.013,2.354-1.077,2.354-2.438c0-1.358-1.047-2.449-2.354-2.449H160.714z M160.164,14.118h-0.521v-3.219
			c0.272-0.039,0.537-0.077,0.928-0.077c0.498,0,0.824,0.103,1.021,0.243c0.197,0.14,0.302,0.359,0.302,0.667
			c0,0.423-0.287,0.679-0.642,0.782v0.025c0.287,0.051,0.482,0.309,0.551,0.781c0.076,0.501,0.156,0.693,0.207,0.795h-0.549
			c-0.076-0.102-0.155-0.396-0.223-0.818c-0.078-0.411-0.287-0.565-0.705-0.565h-0.367v1.386H160.164z M160.164,12.335h0.381
			c0.433,0,0.799-0.154,0.799-0.553c0-0.281-0.209-0.562-0.799-0.562c-0.17,0-0.287,0.013-0.381,0.025V12.335z"/>
	</g>
</g>
<g id="group" display="none">
	<g display="inline">
		<path fill="#009900" d="M2822.511,971.963c-0.113,9.84-2.529,16.738-7.244,20.693c-4.658,3.953-10.371,5.899-17.133,5.844
			c-6.791-0.059-12.898-1.465-18.326-4.217l2.264-7.379c4.266,2.567,9.344,3.854,15.23,3.854c3.953,0,7.182-1.26,9.688-3.776
			c2.561-2.521,3.871-6.357,3.93-11.517v-5.934h-0.176c-1.396,1.973-3.264,3.678-5.6,5.119c-2.336,1.588-5.172,2.411-8.504,2.471
			c-5.811-0.06-10.441-2.287-13.889-6.688c-3.562-4.311-5.342-10.133-5.342-17.465c0.057-6.067,1.949-11.395,5.684-15.971
			c3.676-4.604,8.545-6.979,14.613-7.127c2.732,0,5.27,0.58,7.604,1.74c2.336,1.143,4.146,2.768,5.428,4.877h0.172V931h11.604
			L2822.511,971.963L2822.511,971.963z M2800.439,937.113c-3.688,0.059-6.334,1.565-7.938,4.522c-1.66,2.871-2.49,6.562-2.49,11.07
			c0,4.481,0.83,8.406,2.49,11.772c0.871,1.609,1.938,2.898,3.209,3.865c1.211,1.025,2.617,1.537,4.223,1.537
			c3.855-0.059,6.686-1.889,8.486-5.492c1.66-3.426,2.49-7.479,2.49-12.168c0-4.067-0.859-7.567-2.576-10.5
			C2806.587,938.711,2803.957,937.172,2800.439,937.113z"/>
		<path fill="#009900" d="M2847.587,938.83h0.18l2.342-3.48c0.709-1.051,1.73-2.2,3.066-3.459c1.221-1.256,2.697-1.928,4.43-2.016
			c2.727,0.088,5.336,1.447,7.836,4.076l-4.346,8.238c-1.621-1.054-3.453-1.576-5.496-1.576c-2.047,0-3.852,0.938-5.412,2.817
			c-1.619,2.027-2.457,5.451-2.514,10.271V976h-11.605v-45h11.52V938.83L2847.587,938.83z"/>
		<path fill="#009900" d="M2892.578,977.125c-6.873-0.148-12.393-2.463-16.555-6.951c-4.189-4.396-6.314-10.133-6.373-17.201
			c0.113-7.332,2.48-13.008,7.102-17.024c4.477-4.047,9.75-6.07,15.824-6.07c6.215,0,11.561,2.023,16.039,6.07
			c4.561,4.02,6.896,9.692,7.014,17.024c-0.061,7.068-2.154,12.806-6.287,17.201
			C2905.177,974.662,2899.589,976.977,2892.578,977.125z M2892.578,970.512c2.115,0,3.855-0.571,5.225-1.723
			c1.396-1.031,2.451-2.416,3.176-4.154c1.428-3.562,2.107-7.451,2.053-11.664c0-4.035-0.711-7.748-2.135-11.137
			c-1.529-3.445-4.307-5.229-8.314-5.346c-3.764,0.117-6.439,1.897-8.025,5.346c-1.592,3.389-2.355,7.102-2.299,11.137
			c0,1.976,0.195,3.99,0.586,6.056c0.332,2.004,0.875,3.872,1.629,5.608c0.752,1.738,1.811,3.123,3.178,4.154
			C2889.009,969.938,2890.654,970.512,2892.578,970.512z"/>
		<path fill="#009900" d="M2954.81,970.469c-3.887,4.379-8.508,6.601-13.865,6.656c-9.699-0.059-14.605-5.773-14.721-17.148V931
			h11.604v27.33c0,3.17,0.707,5.693,2.123,7.57c1.387,1.905,3.41,2.858,6.072,2.858c1.047,0,2.094-0.231,3.141-0.705
			c0.961-0.498,1.883-1.217,2.762-2.153c1.812-1.877,2.746-4.826,2.805-8.849V931h11.602v45h-11.516v-5.531H2954.81z"/>
		<path fill="#009900" d="M2991.375,937.201h0.17c1.629-2.324,3.703-4.119,6.219-5.385c2.52-1.293,5.119-1.941,7.807-1.941
			c6.861,0.207,11.855,2.744,14.973,7.611c2.973,4.723,4.461,9.733,4.461,15.045c-0.062,6.219-1.873,11.764-5.447,16.631
			c-3.633,5.104-8.637,7.756-15.012,7.963c-5.461-0.148-9.854-2.383-13.166-6.709V998.5h-11.605V931h11.605L2991.375,937.201
			L2991.375,937.201z M3002.501,937.113c-3.652,0.059-6.414,1.565-8.281,4.522c-1.896,2.988-2.846,7.117-2.846,12.392
			c0,4.746,1.004,8.553,3.016,11.422c1.98,2.959,4.543,4.438,7.689,4.438c1.953,0,3.623-0.541,5.012-1.625
			c1.33-1.022,2.377-2.373,3.145-4.043c1.441-3.543,2.166-7.408,2.166-11.598c0-4.041-0.811-7.613-2.424-10.719
			C3008.277,938.77,3005.787,937.172,3002.501,937.113z"/>
	</g>
</g>
<g>
	<rect x="-11.631" y="-14.095" fill="none" width="200.309" height="74.19"/>
</g>
</svg>
