<?xml version="1.0" encoding="utf-8"?>
<!-- Generator: Adobe Illustrator 16.0.4, SVG Export Plug-In . SVG Version: 6.00 Build 0)  -->
<!DOCTYPE svg PUBLIC "-//W3C//DTD SVG 1.1//EN" "http://www.w3.org/Graphics/SVG/1.1/DTD/svg11.dtd">
<svg version="1.1" id="Layer_2" xmlns="http://www.w3.org/2000/svg" xmlns:xlink="http://www.w3.org/1999/xlink" x="0px" y="0px"
	 width="167.046px" height="44px" viewBox="2616.477 689.182 167.046 44" enable-background="new 2616.477 689.182 167.046 44"
	 xml:space="preserve">
<g id="Layer_3">
	<path fill="#009900" d="M2636.021,729.432c-48.373-22.148,18.977-54.219,62.312-30.009
		C2655.292,681.54,2601.001,709.009,2636.021,729.432z"/>
</g>
<g id="open__x0028_shadow_x0029_">
	<g>
		<path stroke="#000000" d="M2639.708,723.355c-1.216-0.021-2.293-0.268-3.231-0.742c-0.948-0.465-1.716-1.062-2.304-1.795
			c-1.206-1.547-1.808-3.154-1.808-4.826c0.041-2.545,1.013-4.707,2.917-6.479c1.829-1.794,4.116-2.717,6.862-2.769
			c1.403,0,2.595,0.238,3.573,0.711c0.955,0.484,1.725,1.094,2.307,1.825c0.594,0.743,1.03,1.537,1.311,2.383
			c0.229,0.866,0.343,1.7,0.343,2.504c0,2.279-0.827,4.348-2.48,6.201C2645.533,722.289,2643.037,723.283,2639.708,723.355z
			 M2640.248,720.518c0.109,0.021,0.344-0.02,0.704-0.123c0.338-0.082,0.699-0.326,1.082-0.73c0.195-0.238,0.392-0.523,0.588-0.855
			c0.207-0.32,0.377-0.725,0.508-1.211c0.316-0.934,0.519-2.268,0.607-4.008c0.083-1.129-0.004-2.072-0.263-2.828
			c-0.273-0.767-0.732-1.16-1.375-1.181c-0.633,0.021-1.185,0.243-1.654,0.667c-0.468,0.426-0.866,0.985-1.195,1.679
			c-0.633,1.49-0.95,2.936-0.95,4.334c0,1.254,0.148,2.268,0.442,3.045C2639.037,720.113,2639.538,720.518,2640.248,720.518z"/>
		<path stroke="#000000" d="M2659.28,708.93c0.732-0.604,1.533-1.118,2.406-1.545c0.852-0.396,1.736-0.61,2.65-0.641
			c2.96,0.031,4.45,2.145,4.471,6.342c-0.062,3.27-0.965,5.795-2.711,7.578c-1.687,1.773-3.414,2.67-5.18,2.691
			c-1.542-0.021-2.879-0.568-4.015-1.645l-1.75,9.158h-5.815l4.556-23.729h5.711L2659.28,708.93z M2661.282,710.196
			c-0.357,0-0.719,0.145-1.085,0.434c-0.376,0.3-0.764,0.8-1.161,1.5c-0.794,1.352-1.318,3.6-1.572,6.746
			c0.437,0.928,1.147,1.391,2.131,1.391c0.367,0,0.757-0.18,1.172-0.541c0.376-0.361,0.722-0.855,1.037-1.484
			c0.689-1.289,1.046-2.918,1.065-4.889C2662.891,711.249,2662.361,710.196,2661.282,710.196z"/>
		<path stroke="#000000" d="M2684.975,720.824c-1.1,0.646-2.373,1.223-3.818,1.729c-1.435,0.514-2.947,0.781-4.535,0.803
			c-1.034-0.021-1.89-0.268-2.568-0.742c-0.71-0.412-1.282-0.959-1.717-1.641c-0.214-0.359-0.391-0.711-0.533-1.051
			c-0.142-0.352-0.268-0.695-0.38-1.037c-0.081-0.34-0.142-0.668-0.182-0.99c-0.041-0.287-0.061-0.561-0.061-0.818
			c0.082-1.857,0.458-3.447,1.128-4.779c0.315-0.68,0.691-1.284,1.128-1.81c0.417-0.526,0.864-0.989,1.341-1.391
			c0.976-0.825,2.032-1.429,3.17-1.811c1.108-0.36,2.168-0.542,3.187-0.542c1.584,0,2.904,0.319,3.962,0.959
			c1.067,0.65,1.61,1.729,1.63,3.233c-0.02,0.868-0.299,1.614-0.839,2.245c-0.55,0.68-1.294,1.242-2.23,1.686
			c-1.935,0.928-4.102,1.371-6.505,1.33c-0.021,0.164-0.021,0.43,0,0.789c0,0.381,0.076,0.775,0.229,1.176
			c0.142,0.383,0.402,0.709,0.779,0.977c0.377,0.32,0.917,0.48,1.62,0.48c0.733,0,1.42-0.139,2.062-0.418
			c0.633-0.248,1.278-0.553,1.941-0.914L2684.975,720.824z M2680.701,709.473c-0.897,0.083-1.612,0.508-2.141,1.273
			c-0.521,0.756-0.903,1.689-1.147,2.796c3.128,0.082,4.744-0.746,4.847-2.485c0.041-0.487-0.082-0.88-0.368-1.181
			C2681.597,709.609,2681.198,709.473,2680.701,709.473z"/>
		<path stroke="#000000" d="M2695.406,709.957l0.061,0.062c0.893-1.086,1.878-1.911,2.956-2.476
			c1.066-0.532,2.076-0.799,3.032-0.799c2.306,0,3.459,1.134,3.459,3.401c0.021,0.732-0.061,1.607-0.243,2.626l-1.875,10.188h-5.623
			l1.812-9.943c0.041-0.277,0.062-0.541,0.062-0.789c-0.081-0.659-0.238-1.082-0.473-1.268c-0.244-0.175-0.472-0.263-0.686-0.263
			c-0.517,0-0.964,0.161-1.34,0.48c-0.397,0.318-0.737,0.742-1.021,1.267c-0.548,1.123-0.924,2.275-1.129,3.449l-1.279,7.066h-5.623
			l2.909-15.819h5.578L2695.406,709.957z"/>
	</g>
</g>
<g id="open__x0028_outline_x0029_">
	<g>
		<path fill="#FFFFFF" stroke="#000000" stroke-width="0.5" d="M2638.24,721.342c-1.216-0.021-2.294-0.27-3.231-0.742
			c-0.947-0.463-1.716-1.062-2.303-1.795c-1.206-1.545-1.81-3.154-1.81-4.824c0.042-2.547,1.015-4.708,2.917-6.481
			c1.831-1.793,4.118-2.716,6.863-2.77c1.405,0,2.594,0.238,3.573,0.712c0.957,0.485,1.726,1.092,2.309,1.824
			c0.592,0.744,1.028,1.537,1.31,2.383c0.229,0.866,0.344,1.701,0.344,2.505c0,2.279-0.829,4.346-2.481,6.203
			C2644.066,720.275,2641.569,721.27,2638.24,721.342z M2638.781,718.504c0.108,0.021,0.343-0.02,0.703-0.123
			c0.339-0.084,0.699-0.326,1.082-0.73c0.196-0.238,0.393-0.523,0.589-0.854c0.208-0.322,0.376-0.725,0.508-1.213
			c0.317-0.932,0.519-2.268,0.605-4.007c0.084-1.129-0.004-2.071-0.262-2.829c-0.273-0.765-0.731-1.159-1.375-1.18
			c-0.633,0.021-1.185,0.243-1.654,0.668c-0.47,0.424-0.868,0.984-1.195,1.679c-0.633,1.491-0.949,2.937-0.949,4.333
			c0,1.254,0.146,2.268,0.441,3.045C2637.569,718.102,2638.071,718.504,2638.781,718.504z"/>
		<path fill="#FFFFFF" stroke="#000000" stroke-width="0.5" d="M2657.813,706.917c0.73-0.604,1.532-1.12,2.406-1.546
			c0.852-0.396,1.736-0.609,2.65-0.642c2.958,0.032,4.45,2.146,4.47,6.343c-0.061,3.267-0.964,5.794-2.712,7.578
			c-1.686,1.773-3.412,2.67-5.18,2.691c-1.542-0.021-2.879-0.568-4.015-1.645l-1.749,9.16h-5.816l4.556-23.73h5.711
			L2657.813,706.917z M2659.814,708.182c-0.356,0-0.719,0.145-1.084,0.433c-0.377,0.3-0.765,0.8-1.161,1.501
			c-0.795,1.351-1.319,3.601-1.574,6.744c0.438,0.93,1.148,1.395,2.133,1.395c0.366,0,0.757-0.182,1.173-0.543
			c0.376-0.359,0.72-0.855,1.035-1.484c0.69-1.289,1.046-2.92,1.067-4.889C2661.423,709.235,2660.895,708.182,2659.814,708.182z"/>
		<path fill="#FFFFFF" stroke="#000000" stroke-width="0.5" d="M2683.506,718.809c-1.099,0.65-2.371,1.227-3.817,1.73
			c-1.437,0.514-2.948,0.781-4.535,0.803c-1.034-0.021-1.89-0.27-2.569-0.742c-0.709-0.412-1.281-0.959-1.717-1.641
			c-0.212-0.359-0.39-0.711-0.531-1.051c-0.143-0.35-0.269-0.695-0.38-1.037c-0.082-0.34-0.143-0.67-0.182-0.988
			c-0.041-0.289-0.062-0.562-0.062-0.82c0.082-1.855,0.459-3.449,1.129-4.779c0.314-0.682,0.69-1.283,1.128-1.81
			c0.417-0.526,0.864-0.99,1.341-1.393c0.976-0.825,2.031-1.428,3.171-1.809c1.106-0.362,2.168-0.543,3.185-0.543
			c1.585,0,2.906,0.321,3.963,0.959c1.066,0.65,1.609,1.728,1.629,3.235c-0.02,0.865-0.299,1.613-0.839,2.242
			c-0.55,0.681-1.294,1.244-2.229,1.687c-1.935,0.928-4.103,1.371-6.505,1.33c-0.021,0.164-0.021,0.428,0,0.791
			c0,0.381,0.077,0.773,0.229,1.176c0.141,0.381,0.401,0.707,0.778,0.977c0.377,0.318,0.917,0.479,1.62,0.479
			c0.733,0,1.422-0.139,2.062-0.418c0.632-0.248,1.278-0.553,1.94-0.914L2683.506,718.809z M2679.233,707.46
			c-0.896,0.083-1.61,0.507-2.141,1.273c-0.52,0.756-0.902,1.688-1.146,2.796c3.127,0.083,4.743-0.746,4.846-2.485
			c0.042-0.486-0.079-0.881-0.367-1.181C2680.13,707.595,2679.731,707.46,2679.233,707.46z"/>
		<path fill="#FFFFFF" stroke="#000000" stroke-width="0.5" d="M2693.938,707.944l0.061,0.062c0.893-1.086,1.878-1.912,2.956-2.476
			c1.067-0.533,2.079-0.8,3.033-0.8c2.307,0,3.459,1.134,3.459,3.401c0.021,0.731-0.06,1.608-0.242,2.628l-1.876,10.188h-5.623
			l1.812-9.945c0.041-0.279,0.062-0.542,0.062-0.79c-0.082-0.659-0.239-1.082-0.472-1.267c-0.244-0.176-0.473-0.264-0.686-0.264
			c-0.519,0-0.966,0.16-1.342,0.479c-0.397,0.32-0.737,0.742-1.021,1.269c-0.549,1.123-0.925,2.273-1.126,3.449l-1.281,7.068h-5.624
			l2.911-15.82h5.578L2693.938,707.944z"/>
	</g>
</g>
<g id="open__x0028_white_overlay_x0029_">
	<g>
		<path fill="#FFFFFF" stroke="#000000" stroke-width="0.5" d="M2638.24,721.342c-1.216-0.021-2.294-0.27-3.231-0.742
			c-0.947-0.463-1.716-1.062-2.303-1.795c-1.206-1.545-1.81-3.154-1.81-4.824c0.042-2.547,1.015-4.708,2.917-6.481
			c1.831-1.793,4.118-2.716,6.863-2.77c1.405,0,2.594,0.238,3.573,0.712c0.957,0.485,1.726,1.092,2.309,1.824
			c0.592,0.744,1.028,1.537,1.31,2.383c0.229,0.866,0.344,1.701,0.344,2.505c0,2.279-0.829,4.346-2.481,6.203
			C2644.066,720.275,2641.569,721.27,2638.24,721.342z M2638.781,718.504c0.108,0.021,0.343-0.02,0.703-0.123
			c0.339-0.084,0.699-0.326,1.082-0.73c0.196-0.238,0.393-0.523,0.589-0.854c0.208-0.322,0.376-0.725,0.508-1.213
			c0.317-0.932,0.519-2.268,0.605-4.007c0.084-1.129-0.004-2.071-0.262-2.829c-0.273-0.765-0.731-1.159-1.375-1.18
			c-0.633,0.021-1.185,0.243-1.654,0.668c-0.47,0.424-0.868,0.984-1.195,1.679c-0.633,1.491-0.949,2.937-0.949,4.333
			c0,1.254,0.146,2.268,0.441,3.045C2637.569,718.102,2638.071,718.504,2638.781,718.504z"/>
		<path fill="#FFFFFF" stroke="#000000" stroke-width="0.5" d="M2657.813,706.917c0.73-0.604,1.532-1.12,2.406-1.546
			c0.852-0.396,1.736-0.609,2.65-0.642c2.958,0.032,4.45,2.146,4.47,6.343c-0.061,3.267-0.964,5.794-2.712,7.578
			c-1.686,1.773-3.412,2.67-5.18,2.691c-1.542-0.021-2.879-0.568-4.015-1.645l-1.749,9.16h-5.816l4.556-23.73h5.711
			L2657.813,706.917z M2659.814,708.182c-0.356,0-0.719,0.145-1.084,0.433c-0.377,0.3-0.765,0.8-1.161,1.501
			c-0.795,1.351-1.319,3.601-1.574,6.744c0.438,0.93,1.148,1.395,2.133,1.395c0.366,0,0.757-0.182,1.173-0.543
			c0.376-0.359,0.72-0.855,1.035-1.484c0.69-1.289,1.046-2.92,1.067-4.889C2661.423,709.235,2660.895,708.182,2659.814,708.182z"/>
		<path fill="#FFFFFF" stroke="#000000" stroke-width="0.5" d="M2683.506,718.809c-1.099,0.65-2.371,1.227-3.817,1.73
			c-1.437,0.514-2.948,0.781-4.535,0.803c-1.034-0.021-1.89-0.27-2.569-0.742c-0.709-0.412-1.281-0.959-1.717-1.641
			c-0.212-0.359-0.39-0.711-0.531-1.051c-0.143-0.35-0.269-0.695-0.38-1.037c-0.082-0.34-0.143-0.67-0.182-0.988
			c-0.041-0.289-0.062-0.562-0.062-0.82c0.082-1.855,0.459-3.449,1.129-4.779c0.314-0.682,0.69-1.283,1.128-1.81
			c0.417-0.526,0.864-0.99,1.341-1.393c0.976-0.825,2.031-1.428,3.171-1.809c1.106-0.362,2.168-0.543,3.185-0.543
			c1.585,0,2.906,0.321,3.963,0.959c1.066,0.65,1.609,1.728,1.629,3.235c-0.02,0.865-0.299,1.613-0.839,2.242
			c-0.55,0.681-1.294,1.244-2.229,1.687c-1.935,0.928-4.103,1.371-6.505,1.33c-0.021,0.164-0.021,0.428,0,0.791
			c0,0.381,0.077,0.773,0.229,1.176c0.141,0.381,0.401,0.707,0.778,0.977c0.377,0.318,0.917,0.479,1.62,0.479
			c0.733,0,1.422-0.139,2.062-0.418c0.632-0.248,1.278-0.553,1.94-0.914L2683.506,718.809z M2679.233,707.46
			c-0.896,0.083-1.61,0.507-2.141,1.273c-0.52,0.756-0.902,1.688-1.146,2.796c3.127,0.083,4.743-0.746,4.846-2.485
			c0.042-0.486-0.079-0.881-0.367-1.181C2680.13,707.595,2679.731,707.46,2679.233,707.46z"/>
		<path fill="#FFFFFF" stroke="#000000" stroke-width="0.5" d="M2693.938,707.944l0.061,0.062c0.893-1.086,1.878-1.912,2.956-2.476
			c1.067-0.533,2.079-0.8,3.033-0.8c2.307,0,3.459,1.134,3.459,3.401c0.021,0.731-0.06,1.608-0.242,2.628l-1.876,10.188h-5.623
			l1.812-9.945c0.041-0.279,0.062-0.542,0.062-0.79c-0.082-0.659-0.239-1.082-0.472-1.267c-0.244-0.176-0.473-0.264-0.686-0.264
			c-0.519,0-0.966,0.16-1.342,0.479c-0.397,0.32-0.737,0.742-1.021,1.269c-0.549,1.123-0.925,2.273-1.126,3.449l-1.281,7.068h-5.624
			l2.911-15.82h5.578L2693.938,707.944z"/>
	</g>
</g>
<g id="NMS">
	<g>
		<path d="M2728.43,723.104h-4.418c-1.712-2.092-3.494-4.307-5.349-6.646c-1.865-2.336-3.358-4.449-4.479-6.333h-0.062v12.98h-5.164
			v-22.148h4.784c1.69,2.041,3.475,4.269,5.35,6.681c1.863,2.403,3.234,4.409,4.111,6.016h0.062v-12.697h5.165V723.104
			L2728.43,723.104z"/>
		<path d="M2757.673,723.104h-6.814v-15.5h-0.062c-1.682,5.625-3.405,10.792-5.168,15.5h-4.132c-1.785-4.707-3.538-9.875-5.26-15.5
			h-0.062v15.5h-5.163v-22.148h8.988c1.503,4.073,2.995,8.62,4.479,13.64h0.062c1.432-5.02,2.878-9.567,4.341-13.64h8.79V723.104
			L2757.673,723.104z"/>
		<path d="M2772.656,705.514c-0.896-0.548-1.969-0.822-3.219-0.822c-1.475,0.042-2.209,0.497-2.209,1.363
			c0,0.279,0.124,0.567,0.374,0.867c0.218,0.309,0.526,0.623,0.931,0.943c0.803,0.63,1.78,1.444,2.932,2.446
			c1.384,1.289,2.324,2.431,2.824,3.421c0.478,1.01,0.707,2.09,0.686,3.234c0,0.484-0.106,1.084-0.319,1.797
			c-0.226,0.742-0.652,1.475-1.283,2.197c-0.579,0.713-1.398,1.301-2.456,1.764c-1.089,0.496-2.457,0.754-4.105,0.773
			c-1.292,0-2.528-0.17-3.709-0.508c-1.21-0.318-2.264-0.82-3.159-1.508l2.001-3.668c0.478,0.363,1.026,0.701,1.648,1.01
			c0.631,0.363,1.332,0.543,2.106,0.543c0.681,0,1.302-0.191,1.862-0.574c0.568-0.328,0.864-0.906,0.885-1.734
			c0-0.443-0.117-0.877-0.351-1.301c-0.224-0.383-0.524-0.754-0.899-1.115c-0.793-0.713-1.659-1.441-2.595-2.184
			c-1.212-0.971-2.16-1.88-2.848-2.728c-0.698-0.825-1.048-1.895-1.048-3.207c0.021-1.797,0.81-3.237,2.366-4.323
			c1.461-1.074,3.276-1.621,5.444-1.642c1.44,0.021,2.686,0.202,3.734,0.539c0.994,0.34,1.694,0.654,2.1,0.941L2772.656,705.514z"/>
	</g>
	<g>
		<path d="M2778.337,699.199c1.608,0,2.891,1.282,2.891,2.884c0,1.629-1.282,2.898-2.904,2.898c-1.609,0-2.916-1.27-2.916-2.898
			c0-1.602,1.307-2.884,2.916-2.884H2778.337z M2778.323,699.647c-1.294,0-2.354,1.09-2.354,2.436c0,1.373,1.061,2.45,2.368,2.45
			c1.308,0.013,2.355-1.077,2.355-2.437c0-1.359-1.048-2.449-2.355-2.449H2778.323z M2777.774,703.763h-0.523v-3.219
			c0.275-0.039,0.537-0.077,0.929-0.077c0.497,0,0.824,0.102,1.021,0.243c0.197,0.141,0.301,0.359,0.301,0.667
			c0,0.423-0.287,0.679-0.641,0.782v0.026c0.287,0.05,0.483,0.308,0.55,0.781c0.078,0.501,0.157,0.693,0.208,0.795h-0.548
			c-0.078-0.102-0.157-0.397-0.224-0.819c-0.077-0.411-0.287-0.565-0.705-0.565h-0.367V703.763L2777.774,703.763z M2777.774,701.98
			h0.38c0.432,0,0.798-0.154,0.798-0.552c0-0.282-0.209-0.563-0.798-0.563c-0.17,0-0.287,0.013-0.38,0.026V701.98z"/>
	</g>
</g>
<g id="group" display="none">
	<g display="inline">
		<path fill="#009900" d="M2822.512,971.963c-0.113,9.84-2.529,16.738-7.244,20.693c-4.659,3.953-10.371,5.901-17.133,5.844
			c-6.791-0.059-12.899-1.465-18.326-4.217l2.263-7.379c4.266,2.569,9.344,3.856,15.231,3.856c3.953,0,7.182-1.26,9.687-3.778
			c2.561-2.521,3.871-6.357,3.93-11.515v-5.934h-0.176c-1.396,1.973-3.263,3.678-5.599,5.119c-2.336,1.588-5.172,2.412-8.504,2.471
			c-5.812-0.059-10.442-2.287-13.889-6.688c-3.562-4.311-5.342-10.133-5.342-17.465c0.057-6.069,1.951-11.395,5.684-15.971
			c3.675-4.604,8.545-6.979,14.613-7.127c2.734,0,5.271,0.58,7.605,1.74c2.336,1.143,4.145,2.768,5.426,4.877h0.172V931h11.603
			L2822.512,971.963L2822.512,971.963z M2800.439,937.113c-3.688,0.059-6.334,1.567-7.938,4.524c-1.66,2.871-2.49,6.562-2.49,11.07
			c0,4.482,0.83,8.406,2.49,11.773c0.871,1.61,1.94,2.899,3.209,3.866c1.211,1.025,2.617,1.537,4.223,1.537
			c3.855-0.059,6.685-1.889,8.486-5.492c1.66-3.426,2.49-7.479,2.49-12.168c0-4.069-0.859-7.569-2.576-10.5
			C2806.588,938.711,2803.957,937.172,2800.439,937.113z"/>
		<path fill="#009900" d="M2847.588,938.83h0.18l2.342-3.48c0.709-1.051,1.73-2.202,3.066-3.459c1.221-1.256,2.697-1.928,4.43-2.016
			c2.726,0.088,5.336,1.447,7.836,4.076l-4.346,8.238c-1.621-1.052-3.453-1.576-5.496-1.576c-2.047,0-3.85,0.94-5.412,2.819
			c-1.619,2.027-2.457,5.451-2.514,10.269V976h-11.603v-45h11.517V938.83L2847.588,938.83z"/>
		<path fill="#009900" d="M2892.577,977.125c-6.873-0.148-12.392-2.463-16.554-6.951c-4.19-4.397-6.315-10.133-6.373-17.201
			c0.113-7.332,2.48-13.008,7.101-17.026c4.478-4.047,9.75-6.07,15.824-6.07c6.215,0,11.562,2.023,16.039,6.07
			c4.561,4.02,6.897,9.694,7.014,17.026c-0.06,7.068-2.154,12.804-6.287,17.201C2905.177,974.662,2899.589,976.977,2892.577,977.125
			z M2892.577,970.512c2.116,0,3.856-0.573,5.225-1.723c1.394-1.031,2.451-2.416,3.177-4.154c1.424-3.562,2.106-7.451,2.049-11.664
			c0-4.035-0.711-7.748-2.131-11.137c-1.533-3.445-4.308-5.229-8.318-5.346c-3.762,0.117-6.438,1.899-8.025,5.346
			c-1.592,3.389-2.356,7.102-2.299,11.137c0,1.974,0.195,3.99,0.586,6.054c0.332,2.004,0.875,3.872,1.629,5.61
			c0.752,1.738,1.811,3.123,3.178,4.154C2889.009,969.938,2890.653,970.512,2892.577,970.512z"/>
		<path fill="#009900" d="M2954.811,970.469c-3.887,4.379-8.508,6.599-13.866,6.656c-9.699-0.059-14.605-5.773-14.72-17.148V931
			h11.603v27.33c0,3.17,0.707,5.693,2.123,7.57c1.387,1.907,3.41,2.86,6.072,2.86c1.047,0,2.094-0.233,3.141-0.705
			c0.961-0.498,1.882-1.217,2.761-2.155c1.812-1.877,2.746-4.826,2.803-8.847V931h11.602v45h-11.516v-5.531H2954.811z"/>
		<path fill="#009900" d="M2991.375,937.201h0.17c1.629-2.324,3.703-4.119,6.219-5.385c2.517-1.293,5.119-1.941,7.807-1.941
			c6.861,0.207,11.853,2.744,14.97,7.611c2.973,4.723,4.461,9.735,4.461,15.045c-0.06,6.219-1.873,11.764-5.447,16.631
			c-3.633,5.104-8.637,7.756-15.012,7.963c-5.461-0.148-9.851-2.383-13.166-6.709V998.5h-11.603V931h11.603L2991.375,937.201
			L2991.375,937.201z M3002.502,937.113c-3.652,0.059-6.414,1.567-8.281,4.524c-1.897,2.988-2.846,7.117-2.846,12.39
			c0,4.746,1.004,8.553,3.016,11.422c1.98,2.959,4.543,4.438,7.688,4.438c1.953,0,3.623-0.541,5.012-1.625
			c1.33-1.024,2.377-2.373,3.144-4.043c1.443-3.543,2.166-7.408,2.166-11.598c0-4.041-0.81-7.613-2.422-10.719
			C3008.277,938.77,3005.787,937.172,3002.502,937.113z"/>
	</g>
</g>
<g>
	<rect x="2605.979" y="675.55" fill="none" width="200.307" height="74.19"/>
</g>
</svg>
