<?xml version="1.0" encoding="utf-8"?>
<!-- Generator: Adobe Illustrator 16.0.4, SVG Export Plug-In . SVG Version: 6.00 Build 0)  -->
<!DOCTYPE svg PUBLIC "-//W3C//DTD SVG 1.1//EN" "http://www.w3.org/Graphics/SVG/1.1/DTD/svg11.dtd">
<svg version="1.1" id="Layer_1" xmlns="http://www.w3.org/2000/svg" xmlns:xlink="http://www.w3.org/1999/xlink" x="0px" y="0px"
	width="170.558px" height="44px" viewBox="0 0 170.558 44" enable-background="new 0 0 170.558 44" xml:space="preserve">
<g>
	<path fill="#237CB7" d="M19.612,0c-50.803,21.895,19.933,53.602,65.442,29.668C39.853,47.345-17.164,20.189,19.612,0z"/>
	<g>
		<g>
			<path stroke="#010101" stroke-width="1.3373" d="M95.747,39.93c-0.645-0.011-1.216-0.145-1.713-0.402
				c-0.503-0.25-0.912-0.576-1.22-0.97c-0.641-0.836-0.963-1.709-0.963-2.614c0.021-1.379,0.54-2.549,1.546-3.509
				c0.974-0.97,2.187-1.47,3.643-1.499c0.742,0,1.375,0.127,1.894,0.384c0.507,0.265,0.916,0.594,1.224,0.988
				c0.315,0.402,0.547,0.833,0.699,1.29c0.119,0.466,0.181,0.919,0.181,1.358c0,1.234-0.438,2.35-1.318,3.356
				C98.835,39.354,97.51,39.89,95.747,39.93z M96.033,38.395c0.058,0.011,0.181-0.011,0.373-0.069
				c0.181-0.043,0.373-0.178,0.576-0.395c0.102-0.13,0.207-0.282,0.312-0.463c0.112-0.174,0.203-0.391,0.271-0.655
				c0.167-0.503,0.275-1.228,0.322-2.169c0.043-0.612-0.004-1.123-0.138-1.532c-0.148-0.417-0.387-0.626-0.731-0.641
				c-0.337,0.011-0.626,0.134-0.876,0.362c-0.25,0.231-0.46,0.532-0.634,0.908c-0.336,0.808-0.503,1.59-0.503,2.347
				c0,0.681,0.076,1.227,0.235,1.647C95.388,38.174,95.656,38.395,96.033,38.395z"/>
			<path stroke="#010101" stroke-width="1.3467" d="M106.091,32.041c0.391-0.33,0.818-0.608,1.289-0.844
				c0.453-0.213,0.927-0.329,1.416-0.348c1.583,0.019,2.375,1.17,2.386,3.455c-0.032,1.781-0.514,3.157-1.445,4.131
				c-0.901,0.967-1.825,1.456-2.766,1.467c-0.822-0.011-1.542-0.308-2.147-0.895L103.89,44h-3.107l2.434-12.933h3.052
				L106.091,32.041z M107.163,32.729c-0.192,0-0.384,0.08-0.58,0.235c-0.203,0.167-0.409,0.438-0.623,0.818
				c-0.423,0.735-0.702,1.963-0.84,3.679c0.231,0.503,0.612,0.756,1.137,0.756c0.195,0,0.405-0.097,0.625-0.297
				c0.203-0.195,0.388-0.466,0.555-0.807c0.369-0.702,0.557-1.593,0.568-2.665C108.025,33.304,107.738,32.729,107.163,32.729z"/>
			<path stroke="#010101" stroke-width="1.3373" d="M119.76,38.558c-0.583,0.351-1.256,0.662-2.027,0.938
				c-0.761,0.279-1.564,0.423-2.408,0.434c-0.546-0.011-1.003-0.145-1.361-0.402c-0.376-0.224-0.677-0.518-0.912-0.887
				c-0.112-0.196-0.206-0.384-0.282-0.568c-0.076-0.189-0.145-0.376-0.203-0.562c-0.043-0.185-0.076-0.362-0.098-0.536
				c-0.022-0.156-0.033-0.304-0.033-0.442c0.043-1.006,0.243-1.868,0.598-2.588c0.167-0.37,0.369-0.695,0.601-0.981
				c0.217-0.286,0.456-0.536,0.71-0.753c0.518-0.445,1.079-0.771,1.683-0.978c0.59-0.196,1.152-0.293,1.691-0.293
				c0.84,0,1.542,0.174,2.104,0.521c0.565,0.352,0.854,0.935,0.865,1.749c-0.011,0.467-0.159,0.873-0.445,1.213
				c-0.293,0.37-0.688,0.674-1.185,0.913c-1.028,0.503-2.175,0.742-3.45,0.72c-0.011,0.091-0.011,0.232,0,0.428
				c0,0.206,0.04,0.416,0.12,0.637c0.076,0.207,0.213,0.384,0.416,0.529c0.2,0.174,0.486,0.26,0.858,0.26
				c0.391,0,0.757-0.076,1.097-0.224c0.337-0.134,0.677-0.3,1.028-0.496L119.76,38.558z M117.493,32.417
				c-0.475,0.043-0.855,0.275-1.137,0.688c-0.275,0.409-0.478,0.912-0.608,1.513c1.662,0.043,2.516-0.406,2.57-1.347
				c0.022-0.261-0.043-0.478-0.195-0.637C117.971,32.489,117.757,32.417,117.493,32.417z"/>
			<path stroke="#010101" stroke-width="1.3478" d="M125.252,32.624l0.032,0.032c0.478-0.594,1.007-1.042,1.583-1.351
				c0.572-0.29,1.112-0.438,1.622-0.438c1.231,0,1.85,0.619,1.85,1.857c0.011,0.398-0.032,0.876-0.13,1.434l-1.003,5.555h-3.005
				l0.97-5.424c0.022-0.152,0.033-0.297,0.033-0.431c-0.043-0.362-0.126-0.59-0.253-0.691c-0.13-0.094-0.253-0.145-0.369-0.145
				c-0.275,0-0.518,0.087-0.717,0.261c-0.213,0.173-0.395,0.405-0.546,0.691c-0.293,0.612-0.497,1.242-0.602,1.883l-0.688,3.856
				h-3.005l1.557-8.628h2.98L125.252,32.624z"/>
		</g>
		<g>
			<path fill="#FFFFFF" stroke="#010101" stroke-width="0.25" d="M95.015,39.097c-0.645-0.011-1.217-0.145-1.712-0.402
				c-0.503-0.25-0.913-0.576-1.22-0.971c-0.641-0.836-0.959-1.709-0.959-2.614c0.021-1.376,0.536-2.545,1.546-3.505
				c0.97-0.971,2.184-1.47,3.639-1.499c0.746,0,1.376,0.126,1.894,0.384c0.507,0.26,0.916,0.59,1.228,0.988
				c0.315,0.402,0.546,0.833,0.695,1.289c0.12,0.471,0.181,0.924,0.181,1.358c0,1.234-0.438,2.35-1.318,3.356
				C98.104,38.521,96.782,39.061,95.015,39.097z M95.301,37.562c0.058,0.011,0.181-0.012,0.373-0.069
				c0.177-0.044,0.369-0.178,0.572-0.395c0.102-0.131,0.207-0.282,0.312-0.464c0.108-0.174,0.199-0.391,0.268-0.655
				c0.167-0.503,0.275-1.228,0.322-2.169c0.043-0.612-0.004-1.119-0.138-1.528c-0.145-0.416-0.387-0.626-0.731-0.637
				c-0.333,0.011-0.626,0.131-0.876,0.359c-0.25,0.231-0.464,0.535-0.637,0.909c-0.337,0.807-0.503,1.589-0.503,2.346
				c0,0.681,0.08,1.231,0.235,1.647C94.66,37.345,94.925,37.562,95.301,37.562z"/>
			<path fill="#FFFFFF" stroke="#010101" stroke-width="0.25" d="M105.399,31.291c0.388-0.327,0.812-0.604,1.275-0.836
				c0.453-0.213,0.919-0.33,1.405-0.348c1.571,0.019,2.361,1.163,2.372,3.433c-0.029,1.771-0.511,3.136-1.438,4.103
				c-0.895,0.959-1.807,1.444-2.745,1.455c-0.818-0.011-1.528-0.308-2.129-0.891l-0.931,4.957h-3.085l2.416-12.842h3.031
				L105.399,31.291z M106.46,31.975c-0.188,0-0.38,0.08-0.572,0.235c-0.203,0.163-0.409,0.431-0.616,0.811
				c-0.42,0.731-0.699,1.948-0.833,3.65c0.232,0.503,0.608,0.753,1.13,0.753c0.196,0,0.402-0.097,0.623-0.292
				c0.2-0.196,0.384-0.464,0.547-0.804c0.37-0.699,0.554-1.582,0.568-2.646C107.315,32.543,107.036,31.975,106.46,31.975z"/>
			<path fill="#FFFFFF" stroke="#010101" stroke-width="0.25" d="M119.028,37.729c-0.583,0.351-1.257,0.662-2.028,0.935
				c-0.76,0.278-1.561,0.423-2.408,0.434c-0.546-0.011-1.003-0.145-1.361-0.402c-0.376-0.221-0.681-0.518-0.912-0.887
				c-0.112-0.196-0.207-0.384-0.279-0.568c-0.076-0.188-0.145-0.377-0.203-0.562c-0.043-0.184-0.072-0.361-0.094-0.536
				c-0.022-0.159-0.033-0.304-0.033-0.445c0.043-1.003,0.243-1.865,0.597-2.586c0.167-0.369,0.366-0.699,0.598-0.98
				c0.221-0.286,0.457-0.536,0.713-0.753c0.518-0.446,1.075-0.771,1.68-0.978c0.587-0.195,1.151-0.293,1.691-0.293
				c0.84,0,1.543,0.174,2.1,0.518c0.568,0.352,0.854,0.938,0.865,1.752c-0.011,0.468-0.159,0.873-0.445,1.213
				c-0.293,0.37-0.685,0.673-1.185,0.912c-1.028,0.503-2.176,0.742-3.45,0.72c-0.011,0.091-0.011,0.232,0,0.428
				c0,0.206,0.04,0.419,0.123,0.637c0.076,0.207,0.213,0.384,0.413,0.529c0.199,0.173,0.485,0.261,0.857,0.261
				c0.388,0,0.753-0.077,1.094-0.228c0.337-0.135,0.677-0.297,1.032-0.493L119.028,37.729z M116.762,31.584
				c-0.475,0.044-0.854,0.272-1.133,0.688c-0.279,0.409-0.482,0.912-0.608,1.513c1.658,0.043,2.517-0.402,2.571-1.347
				c0.022-0.264-0.043-0.478-0.196-0.637C117.239,31.656,117.026,31.584,116.762,31.584z"/>
			<path fill="#FFFFFF" stroke="#010101" stroke-width="0.25" d="M124.564,31.845l0.033,0.033c0.474-0.586,0.996-1.032,1.567-1.339
				c0.568-0.29,1.101-0.431,1.608-0.431c1.224,0,1.836,0.612,1.836,1.839c0.01,0.395-0.033,0.873-0.127,1.423l-0.992,5.514h-2.983
				l0.963-5.384c0.021-0.149,0.033-0.293,0.033-0.427c-0.043-0.358-0.127-0.586-0.25-0.685c-0.13-0.097-0.253-0.141-0.362-0.141
				c-0.279,0-0.514,0.086-0.713,0.256c-0.21,0.174-0.391,0.402-0.543,0.688c-0.293,0.608-0.492,1.231-0.597,1.868l-0.677,3.828
				h-2.987l1.542-8.563h2.961L124.564,31.845z"/>
		</g>
		<g>
			<path d="M142.523,40.053h-2.346c-0.909-1.133-1.854-2.331-2.835-3.595c-0.988-1.264-1.781-2.408-2.375-3.429h-0.033v7.028h-2.741
				V28.064h2.535c0.898,1.104,1.843,2.311,2.839,3.618c0.988,1.3,1.716,2.386,2.18,3.254h0.032v-6.872h2.741v11.988H142.523
				L142.523,40.053z"/>
			<path d="M158.039,40.053h-3.617V31.66h-0.033c-0.891,3.045-1.807,5.84-2.741,8.39h-2.19c-0.945-2.549-1.876-5.345-2.788-8.39
				h-0.033v8.39h-2.741V28.064h4.768c0.797,2.205,1.586,4.667,2.375,7.383h0.033c0.757-2.719,1.528-5.178,2.303-7.383h4.664V40.053z
				"/>
			<path d="M165.986,30.53c-0.475-0.296-1.043-0.445-1.709-0.445c-0.783,0.021-1.169,0.268-1.169,0.735
				c0,0.152,0.068,0.308,0.199,0.471c0.116,0.166,0.279,0.337,0.493,0.511c0.427,0.34,0.949,0.782,1.557,1.321
				c0.735,0.699,1.231,1.318,1.496,1.854c0.257,0.546,0.376,1.129,0.366,1.752c0,0.264-0.058,0.586-0.17,0.97
				c-0.119,0.402-0.347,0.797-0.681,1.192c-0.308,0.387-0.742,0.703-1.303,0.956c-0.576,0.268-1.303,0.406-2.176,0.417
				c-0.688,0-1.343-0.09-1.966-0.275c-0.641-0.174-1.203-0.445-1.677-0.815l1.061-1.984c0.253,0.195,0.543,0.38,0.873,0.546
				c0.337,0.199,0.71,0.297,1.119,0.297c0.362,0,0.692-0.105,0.989-0.312c0.304-0.178,0.46-0.493,0.471-0.941
				c0-0.24-0.062-0.475-0.185-0.703c-0.12-0.207-0.279-0.406-0.478-0.604c-0.423-0.384-0.88-0.779-1.376-1.181
				c-0.641-0.524-1.147-1.017-1.51-1.477c-0.373-0.445-0.554-1.025-0.554-1.734c0.007-0.974,0.427-1.752,1.253-2.338
				c0.774-0.583,1.738-0.876,2.889-0.888c0.764,0.011,1.423,0.109,1.98,0.293c0.528,0.181,0.898,0.351,1.115,0.507L165.986,30.53z"
				/>
		</g>
		<g>
			<g>
				<path fill="#010101" d="M168.948,28.221c0.901,0,1.611,0.706,1.611,1.604c0,0.898-0.709,1.604-1.619,1.604
					c-0.908,0-1.622-0.706-1.622-1.604c0-0.898,0.713-1.604,1.622-1.604H168.948z M168.934,28.496c-0.735,0-1.314,0.587-1.314,1.332
					c0,0.747,0.579,1.333,1.321,1.333s1.322-0.586,1.322-1.333c0-0.745-0.58-1.332-1.322-1.332H168.934z M168.285,28.876h0.576
					c0.341,0,0.518,0.051,0.648,0.138c0.127,0.086,0.207,0.224,0.207,0.405c0,0.293-0.221,0.442-0.417,0.511l0.511,0.822h-0.42
					l-0.471-0.774h-0.235v0.774h-0.395v-1.875H168.285z M168.68,29.73h0.258c0.228,0,0.369-0.116,0.369-0.297
					c0-0.243-0.207-0.286-0.445-0.286h-0.177v0.583H168.68z"/>
			</g>
		</g>
	</g>
	<g>
		<path fill="#237CB7" d="M23.968,25.208l4.772-24.372l7.781,17.619l8.06-17.619l4.287,24.372H45.36l-2.19-13.683L36.463,26.25
			l-6.517-14.74l-2.437,13.697L23.968,25.208L23.968,25.208z"/>
		<path fill="#237CB7" d="M66.179,5.753h-9.088v5.446h8.824v3.215h-8.824v7.575h9.088v3.215H53.67V2.539h12.509V5.753z"/>
		<path fill="#237CB7" d="M78.345,15.548l7.017,9.66h-4.186l-6.47-9.28h-0.616v9.28h-3.421V2.539h4.008
			c2.998,0,5.16,0.561,6.489,1.687c1.466,1.253,2.201,2.908,2.201,4.96c0,1.608-0.459,2.987-1.383,4.139
			C81.068,14.483,79.855,15.222,78.345,15.548z M74.091,12.948h1.086c3.24,0,4.859-1.238,4.859-3.715
			c0-2.321-1.575-3.479-4.725-3.479h-1.22V12.948z"/>
		<path fill="#237CB7" d="M92.191,2.538v22.67H88.77V2.538H92.191z"/>
		<path fill="#237CB7" d="M97.64,25.208V2.538h4.754c2.281,0,4.081,0.225,5.402,0.674c1.419,0.441,2.705,1.191,3.86,2.245
			c2.343,2.133,3.512,4.939,3.512,8.415c0,3.483-1.22,6.304-3.657,8.454c-1.22,1.076-2.506,1.825-3.845,2.246
			c-1.253,0.423-3.027,0.633-5.33,0.633H97.64V25.208L97.64,25.208z M101.058,21.993h1.542c1.535,0,2.813-0.163,3.831-0.485
			c1.018-0.344,1.937-0.887,2.763-1.629c1.683-1.535,2.523-3.538,2.523-6.003c0-2.484-0.833-4.504-2.495-6.05
			c-1.499-1.379-3.705-2.071-6.623-2.071h-1.542V21.993L101.058,21.993z"/>
		<path fill="#237CB7" d="M122.892,2.538v22.67h-3.421V2.538H122.892z"/>
		<path fill="#237CB7" d="M141.654,19.701h-9.703l-2.528,5.503h-3.686l11.218-24.092l10.822,24.092h-3.744L141.654,19.701z
			 M140.261,16.486l-3.364-7.709l-3.523,7.709H140.261z"/>
		<path fill="#237CB7" d="M150.608,25.208V0.996l16.529,17.293V2.538h3.421v24.049L154.03,9.338v15.87H150.608L150.608,25.208z"/>
	</g>
</g>
</svg>
