<?xml version="1.0" encoding="utf-8"?>
<!-- Generator: Adobe Illustrator 16.0.4, SVG Export Plug-In . SVG Version: 6.00 Build 0)  -->
<!DOCTYPE svg PUBLIC "-//W3C//DTD SVG 1.1//EN" "http://www.w3.org/Graphics/SVG/1.1/DTD/svg11.dtd">
<svg version="1.1" id="Layer_1" xmlns="http://www.w3.org/2000/svg" xmlns:xlink="http://www.w3.org/1999/xlink" x="0px" y="0px"
	 width="616.5px" height="159.754px" viewBox="-2 316.083 616.5 159.754" enable-background="new -2 316.083 616.5 159.754"
	 xml:space="preserve">
<g>
	<path fill="#237CB7" d="M63.944,316.083c-184.456,79.496,72.37,194.618,237.606,107.721
		C137.432,487.984-69.583,389.387,63.944,316.083z"/>
	<g>
		<g>
			<path stroke="#010101" stroke-width="1.3373" d="M340.371,461.062c-2.34-0.04-4.417-0.526-6.219-1.46
				c-1.827-0.907-3.312-2.09-4.43-3.522c-2.327-3.037-3.497-6.205-3.497-9.492c0.079-5.009,1.959-9.255,5.613-12.738
				c3.536-3.523,7.94-5.338,13.226-5.443c2.694,0,4.995,0.461,6.875,1.394c1.841,0.96,3.326,2.156,4.443,3.589
				c1.145,1.46,1.985,3.024,2.538,4.681c0.434,1.695,0.657,3.339,0.657,4.93c0,4.482-1.591,8.532-4.785,12.187
				C351.585,458.971,346.773,460.916,340.371,461.062z M341.409,455.487c0.211,0.039,0.657-0.04,1.354-0.25
				c0.657-0.158,1.354-0.645,2.09-1.433c0.368-0.474,0.75-1.025,1.131-1.684c0.407-0.631,0.736-1.419,0.986-2.379
				c0.604-1.827,0.999-4.457,1.17-7.875c0.157-2.222-0.014-4.075-0.5-5.561c-0.539-1.512-1.406-2.274-2.655-2.327
				c-1.223,0.04-2.274,0.486-3.182,1.314c-0.907,0.842-1.669,1.933-2.301,3.3c-1.222,2.932-1.827,5.771-1.827,8.52
				c0,2.471,0.276,4.456,0.854,5.981C339.069,454.686,340.042,455.487,341.409,455.487z"/>
			<path stroke="#010101" stroke-width="1.3467" d="M377.93,432.415c1.42-1.196,2.972-2.208,4.681-3.062
				c1.644-0.776,3.365-1.196,5.14-1.263c5.745,0.066,8.624,4.246,8.664,12.542c-0.118,6.468-1.867,11.464-5.246,15
				c-3.273,3.51-6.625,5.284-10.043,5.324c-2.984-0.04-5.601-1.117-7.796-3.247l-3.392,18.129h-11.28l8.835-46.959h11.082
				L377.93,432.415z M381.821,434.913c-0.696,0-1.394,0.289-2.104,0.854c-0.736,0.604-1.485,1.591-2.261,2.971
				c-1.538,2.669-2.551,7.126-3.05,13.357c0.841,1.827,2.222,2.747,4.128,2.747c0.709,0,1.472-0.354,2.273-1.078
				c0.736-0.71,1.407-1.695,2.012-2.932c1.341-2.55,2.024-5.784,2.064-9.676C384.95,437.003,383.911,434.913,381.821,434.913z"/>
			<path stroke="#010101" stroke-width="1.3373" d="M427.558,456.079c-2.117,1.274-4.562,2.405-7.362,3.404
				c-2.761,1.013-5.679,1.538-8.742,1.578c-1.985-0.04-3.642-0.526-4.943-1.46c-1.367-0.814-2.458-1.88-3.312-3.221
				c-0.407-0.71-0.749-1.394-1.025-2.063c-0.276-0.684-0.526-1.367-0.736-2.038c-0.157-0.67-0.276-1.314-0.354-1.945
				c-0.079-0.565-0.119-1.104-0.119-1.604c0.158-3.654,0.881-6.783,2.17-9.399c0.604-1.341,1.341-2.523,2.182-3.562
				c0.789-1.038,1.657-1.945,2.577-2.734c1.88-1.617,3.917-2.8,6.113-3.55c2.143-0.71,4.18-1.064,6.139-1.064
				c3.05,0,5.601,0.631,7.639,1.893c2.051,1.275,3.103,3.393,3.142,6.35c-0.039,1.696-0.578,3.169-1.617,4.404
				c-1.064,1.341-2.498,2.445-4.299,3.313c-3.733,1.827-7.9,2.694-12.528,2.615c-0.039,0.329-0.039,0.842,0,1.552
				c0,0.749,0.145,1.512,0.434,2.313c0.276,0.75,0.775,1.394,1.512,1.92c0.724,0.631,1.762,0.946,3.116,0.946
				c1.42,0,2.747-0.276,3.983-0.815c1.223-0.486,2.458-1.091,3.733-1.801L427.558,456.079z M419.328,433.782
				c-1.723,0.158-3.103,0.999-4.128,2.498c-0.999,1.485-1.735,3.312-2.209,5.495c6.034,0.158,9.137-1.473,9.334-4.891
				c0.079-0.946-0.158-1.735-0.71-2.313C421.063,434.045,420.287,433.782,419.328,433.782z"/>
			<path stroke="#010101" stroke-width="1.3478" d="M447.5,434.532l0.118,0.118c1.735-2.156,3.655-3.786,5.745-4.904
				c2.077-1.051,4.036-1.59,5.89-1.59c4.47,0,6.718,2.248,6.718,6.744c0.04,1.445-0.118,3.181-0.473,5.205l-3.642,20.167h-10.912
				l3.523-19.693c0.079-0.552,0.118-1.078,0.118-1.564c-0.157-1.314-0.46-2.143-0.92-2.511c-0.474-0.342-0.92-0.526-1.341-0.526
				c-0.999,0-1.88,0.315-2.604,0.947c-0.775,0.631-1.433,1.472-1.984,2.511c-1.065,2.222-1.802,4.509-2.183,6.836l-2.498,14.001
				h-10.911l5.652-31.328h10.819L447.5,434.532z"/>
		</g>
		<g>
			<path fill="#FFFFFF" stroke="#010101" d="M337.716,458.037c-2.341-0.039-4.418-0.525-6.219-1.459
				c-1.827-0.907-3.312-2.09-4.43-3.523c-2.327-3.036-3.484-6.205-3.484-9.491c0.079-4.996,1.946-9.242,5.613-12.726
				c3.523-3.523,7.928-5.338,13.212-5.442c2.709,0,4.996,0.46,6.876,1.394c1.841,0.946,3.326,2.143,4.457,3.589
				c1.144,1.459,1.984,3.023,2.523,4.68c0.434,1.709,0.657,3.353,0.657,4.93c0,4.483-1.591,8.532-4.785,12.187
				C348.93,455.947,344.131,457.906,337.716,458.037z M338.754,452.464c0.211,0.039,0.657-0.04,1.354-0.25
				c0.644-0.158,1.341-0.645,2.077-1.434c0.368-0.473,0.749-1.025,1.13-1.683c0.395-0.631,0.724-1.42,0.974-2.379
				c0.604-1.828,0.999-4.457,1.17-7.875c0.157-2.222-0.014-4.062-0.5-5.548c-0.525-1.512-1.406-2.274-2.655-2.313
				c-1.21,0.039-2.274,0.474-3.182,1.302c-0.907,0.841-1.683,1.945-2.313,3.3c-1.223,2.932-1.827,5.771-1.827,8.519
				c0,2.472,0.289,4.47,0.854,5.981C336.427,451.675,337.387,452.464,338.754,452.464z"/>
			<path fill="#FFFFFF" stroke="#010101" d="M375.419,429.694c1.407-1.184,2.945-2.195,4.628-3.037
				c1.643-0.775,3.339-1.196,5.101-1.262c5.705,0.065,8.571,4.22,8.61,12.462c-0.104,6.429-1.854,11.385-5.219,14.896
				c-3.247,3.483-6.56,5.245-9.965,5.284c-2.971-0.039-5.548-1.117-7.73-3.233l-3.378,17.997h-11.201l8.769-46.63h11.004
				L375.419,429.694z M379.271,432.179c-0.684,0-1.38,0.289-2.077,0.854c-0.735,0.592-1.485,1.564-2.234,2.944
				c-1.525,2.656-2.537,7.073-3.023,13.252c0.841,1.827,2.208,2.734,4.102,2.734c0.71,0,1.459-0.354,2.261-1.064
				c0.724-0.71,1.394-1.684,1.985-2.919c1.341-2.537,2.012-5.745,2.064-9.61C382.373,434.242,381.361,432.179,379.271,432.179z"/>
			<path fill="#FFFFFF" stroke="#010101" d="M424.901,453.068c-2.116,1.275-4.562,2.405-7.361,3.392
				c-2.761,1.013-5.666,1.538-8.742,1.577c-1.985-0.039-3.642-0.525-4.943-1.459c-1.367-0.802-2.472-1.88-3.312-3.221
				c-0.408-0.71-0.75-1.394-1.013-2.064c-0.276-0.684-0.525-1.367-0.736-2.037c-0.157-0.671-0.263-1.314-0.342-1.945
				c-0.079-0.579-0.118-1.104-0.118-1.617c0.158-3.642,0.881-6.771,2.169-9.387c0.605-1.341,1.328-2.537,2.169-3.562
				c0.803-1.039,1.657-1.946,2.59-2.734c1.88-1.617,3.905-2.801,6.101-3.55c2.13-0.71,4.181-1.064,6.139-1.064
				c3.051,0,5.601,0.631,7.625,1.88c2.064,1.275,3.103,3.404,3.143,6.362c-0.04,1.696-0.579,3.169-1.617,4.404
				c-1.065,1.341-2.484,2.445-4.299,3.312c-3.733,1.827-7.901,2.695-12.528,2.616c-0.04,0.329-0.04,0.842,0,1.552
				c0,0.749,0.145,1.524,0.446,2.313c0.276,0.749,0.776,1.394,1.499,1.919c0.723,0.632,1.762,0.947,3.115,0.947
				c1.407,0,2.735-0.276,3.971-0.828c1.223-0.487,2.458-1.078,3.747-1.788L424.901,453.068z M416.672,430.759
				c-1.722,0.158-3.103,0.986-4.114,2.498c-1.013,1.485-1.749,3.312-2.209,5.495c6.021,0.157,9.137-1.459,9.334-4.891
				c0.079-0.96-0.157-1.735-0.71-2.313C418.407,431.021,417.632,430.759,416.672,430.759z"/>
			<path fill="#FFFFFF" stroke="#010101" d="M445.003,431.705l0.118,0.118c1.722-2.129,3.615-3.746,5.692-4.863
				c2.063-1.052,3.996-1.564,5.837-1.564c4.443,0,6.665,2.222,6.665,6.678c0.039,1.434-0.118,3.169-0.46,5.167l-3.603,20.021
				h-10.832l3.496-19.549c0.079-0.539,0.119-1.064,0.119-1.551c-0.158-1.302-0.461-2.13-0.907-2.484
				c-0.474-0.355-0.921-0.513-1.314-0.513c-1.013,0-1.867,0.315-2.59,0.933c-0.763,0.632-1.42,1.46-1.973,2.498
				c-1.064,2.209-1.787,4.47-2.169,6.783l-2.458,13.896h-10.846l5.601-31.092h10.753L445.003,431.705z"/>
		</g>
		<g>
			<path d="M510.208,461.508h-8.519c-3.3-4.114-6.731-8.466-10.294-13.054c-3.589-4.589-6.468-8.742-8.624-12.45h-0.118v25.518
				h-9.951V417.98h9.202c3.26,4.01,6.691,8.388,10.307,13.134c3.589,4.719,6.231,8.663,7.914,11.818h0.118V417.98h9.952v43.527
				H510.208z"/>
			<path d="M566.54,461.508h-13.133v-30.473h-0.118c-3.234,11.056-6.561,21.205-9.952,30.46h-7.953
				c-3.432-9.255-6.811-19.404-10.123-30.46h-0.118v30.46h-9.952V417.98h17.313c2.893,8.006,5.759,16.945,8.624,26.806h0.118
				c2.748-9.873,5.548-18.8,8.361-26.806h16.933V461.508z"/>
			<path d="M595.396,426.934c-1.723-1.078-3.786-1.617-6.205-1.617c-2.84,0.079-4.246,0.973-4.246,2.669
				c0,0.552,0.249,1.117,0.723,1.709c0.421,0.604,1.013,1.223,1.788,1.854c1.551,1.235,3.444,2.84,5.652,4.798
				c2.669,2.537,4.47,4.785,5.43,6.731c0.934,1.985,1.367,4.102,1.328,6.362c0,0.96-0.211,2.13-0.618,3.523
				c-0.434,1.459-1.262,2.893-2.472,4.325c-1.117,1.406-2.694,2.551-4.732,3.471c-2.09,0.973-4.732,1.473-7.901,1.512
				c-2.497,0-4.877-0.329-7.138-0.999c-2.327-0.631-4.365-1.617-6.087-2.958l3.852-7.204c0.92,0.71,1.972,1.38,3.168,1.985
				c1.223,0.723,2.577,1.078,4.062,1.078c1.314,0,2.511-0.382,3.589-1.131c1.104-0.645,1.67-1.788,1.709-3.418
				c0-0.868-0.224-1.723-0.67-2.551c-0.435-0.749-1.013-1.473-1.735-2.195c-1.538-1.394-3.195-2.826-4.996-4.286
				c-2.327-1.905-4.167-3.693-5.481-5.363c-1.354-1.617-2.012-3.721-2.012-6.297c0.026-3.536,1.551-6.363,4.549-8.492
				c2.813-2.117,6.31-3.182,10.49-3.222c2.774,0.04,5.167,0.395,7.191,1.065c1.919,0.657,3.26,1.275,4.049,1.84L595.396,426.934z"/>
		</g>
		<g>
			<g>
				<path fill="#010101" d="M606.15,418.546c3.272,0,5.85,2.563,5.85,5.824c0,3.26-2.577,5.823-5.877,5.823
					c-3.299,0-5.889-2.563-5.889-5.823c0-3.261,2.59-5.824,5.889-5.824H606.15z M606.098,419.545c-2.669,0-4.772,2.13-4.772,4.838
					s2.104,4.838,4.799,4.838c2.694,0,4.798-2.13,4.798-4.838s-2.104-4.838-4.798-4.838H606.098z M603.744,420.926h2.09
					c1.236,0,1.88,0.184,2.354,0.499c0.46,0.315,0.749,0.815,0.749,1.473c0,1.064-0.802,1.604-1.512,1.854l1.854,2.984h-1.524
					l-1.709-2.813h-0.854v2.813h-1.434v-6.81H603.744z M605.177,424.028h0.934c0.828,0,1.341-0.421,1.341-1.078
					c0-0.881-0.749-1.039-1.617-1.039h-0.644v2.117H605.177z"/>
			</g>
		</g>
	</g>
	<g>
		<path fill="#237CB7" d="M79.759,407.608l17.327-88.488l28.251,63.97l29.264-63.97l15.565,88.488h-12.739l-7.954-49.68
			l-24.347,53.466l-23.663-53.519l-8.848,49.732H79.759z"/>
		<path fill="#237CB7" d="M233.018,336.973h-32.997v19.772h32.038v11.674h-32.038v27.502h32.997v11.674h-45.42v-82.295h45.42
			V336.973z"/>
		<path fill="#237CB7" d="M277.19,372.534l25.478,35.075H287.47l-23.492-33.694h-2.235v33.694H249.32v-82.309h14.553
			c10.885,0,18.733,2.038,23.558,6.126c5.324,4.549,7.993,10.557,7.993,18.01c0,5.837-1.669,10.846-5.022,15.026
			C287.076,368.669,282.672,371.351,277.19,372.534z M261.743,363.095h3.944c11.766,0,17.642-4.496,17.642-13.488
			c0-8.427-5.719-12.633-17.156-12.633h-4.43V363.095z"/>
		<path fill="#237CB7" d="M327.461,325.299v82.309h-12.423v-82.309H327.461z"/>
		<path fill="#237CB7" d="M347.246,407.608v-82.309h17.262c8.282,0,14.815,0.815,19.614,2.445c5.153,1.604,9.82,4.325,14.014,8.151
			c8.506,7.743,12.752,17.932,12.752,30.552c0,12.646-4.431,22.888-13.277,30.696c-4.431,3.904-9.098,6.626-13.962,8.151
			c-4.549,1.538-10.99,2.3-19.352,2.3h-17.051V407.608z M359.656,395.934h5.601c5.574,0,10.215-0.591,13.909-1.761
			c3.694-1.249,7.033-3.221,10.03-5.916c6.113-5.574,9.163-12.844,9.163-21.796c0-9.019-3.023-16.354-9.058-21.968
			c-5.442-5.009-13.449-7.52-24.045-7.52h-5.601V395.934L359.656,395.934z"/>
		<path fill="#237CB7" d="M438.929,325.299v82.309h-12.423v-82.309H438.929z"/>
		<path fill="#237CB7" d="M507.053,387.613h-35.231l-9.177,19.982h-13.383l40.728-87.475l39.294,87.475H515.69L507.053,387.613z
			 M501.992,375.939l-12.213-27.989l-12.792,27.989H501.992z"/>
		<path fill="#237CB7" d="M539.563,407.608v-87.91l60.014,62.787v-57.186H612v87.318l-60.013-62.629v57.621H539.563z"/>
	</g>
</g>
</svg>
