<svg width="102" height="102" viewBox="0 0 102 102" fill="none" xmlns="http://www.w3.org/2000/svg">
<path d="M28.1594 57.5927C21.6887 50.639 15.8241 43.1451 10.6294 35.1927C8.89205 32.466 7.34504 29.6226 5.9994 26.6827C1.12761 35.7725 -0.849174 46.1344 0.334035 56.3793C1.51724 66.6243 5.8039 76.2627 12.6194 84.0027C13.2094 78.5027 18.9994 68.7327 28.1594 57.5927Z" fill="url(#paint0_linear)"/>
<path d="M43.4994 72.9327C32.3594 82.0827 22.5894 87.8827 17.1294 88.4727C24.8646 95.285 34.4965 99.5715 44.7353 100.758C54.9741 101.945 65.331 99.9752 74.4194 95.1127C70.096 93.1001 65.9656 90.6968 62.0794 87.9327C55.5598 83.351 49.3527 78.3399 43.4994 72.9327V72.9327Z" fill="url(#paint1_linear)"/>
<path d="M57.5894 28.1627C68.7294 19.0027 78.4994 13.2127 83.9994 12.6227C76.2585 5.80509 66.6182 1.51716 56.3712 0.33392C46.1242 -0.849322 35.7603 1.1287 26.6694 6.00274C30.9886 8.00955 35.1156 10.4061 38.9994 13.1627C45.5225 17.7441 51.7329 22.7552 57.5894 28.1627V28.1627Z" fill="url(#paint2_linear)"/>
<path d="M88.4694 17.1327C87.8794 22.5927 82.0794 32.3627 72.9294 43.5027C79.4001 50.4565 85.2647 57.9504 90.4594 65.9027C92.2108 68.6264 93.768 71.4701 95.1194 74.4127C99.9783 65.3246 101.945 54.969 100.757 44.7323C99.5682 34.4955 95.2812 24.866 88.4694 17.1327V17.1327Z" fill="url(#paint3_linear)"/>
<path d="M50.5494 34.2527C33.1694 18.5527 17.4794 9.52273 13.4994 13.5027C8.8894 18.1127 21.7294 38.4427 42.1894 58.9027C44.9894 61.7027 47.7894 64.3527 50.5494 66.8427V34.2527Z" fill="url(#paint4_linear)"/>
<path d="M66.8394 50.5527C64.3494 53.3027 61.6994 56.1027 58.8994 58.9027C56.0994 61.7027 53.2994 64.3527 50.5494 66.8427C67.9194 82.5427 83.6094 91.5727 87.5494 87.5927C91.4894 83.6127 82.5394 67.9227 66.8394 50.5527Z" fill="url(#paint5_linear)"/>
<defs>
<linearGradient id="paint0_linear" x1="61.5694" y1="108.093" x2="-5.0806" y2="40.8127" gradientUnits="userSpaceOnUse">
<stop stop-color="#0081AD"/>
<stop offset="1" stop-color="#14D1DF"/>
</linearGradient>
<linearGradient id="paint1_linear" x1="3554.79" y1="3112.16" x2="2077.07" y2="77.6118" gradientUnits="userSpaceOnUse">
<stop stop-color="#0081AD"/>
<stop offset="1" stop-color="#14D1DF"/>
</linearGradient>
<linearGradient id="paint2_linear" x1="2397.84" y1="-135.181" x2="3803.53" y2="2755.21" gradientUnits="userSpaceOnUse">
<stop stop-color="#0081AD"/>
<stop offset="1" stop-color="#14D1DF"/>
</linearGradient>
<linearGradient id="paint3_linear" x1="1242.89" y1="-268.694" x2="4139.32" y2="1169.85" gradientUnits="userSpaceOnUse">
<stop stop-color="#0081AD"/>
<stop offset="1" stop-color="#14D1DF"/>
</linearGradient>
<linearGradient id="paint4_linear" x1="13.2994" y1="13.9527" x2="86.0094" y2="85.6927" gradientUnits="userSpaceOnUse">
<stop stop-color="#14D1DF"/>
<stop offset="1" stop-color="#85D9A5"/>
</linearGradient>
<linearGradient id="paint5_linear" x1="556.109" y1="579.196" x2="3317" y2="3300.37" gradientUnits="userSpaceOnUse">
<stop stop-color="#14D1DF"/>
<stop offset="1" stop-color="#85D9A5"/>
</linearGradient>
</defs>
</svg>
