<?xml version="1.0" encoding="UTF-8" standalone="no"?><!DOCTYPE svg PUBLIC "-//W3C//DTD SVG 1.1//EN" "http://www.w3.org/Graphics/SVG/1.1/DTD/svg11.dtd"><svg width="100%" height="100%" viewBox="0 0 40 40" version="1.1" xmlns="http://www.w3.org/2000/svg" xmlns:xlink="http://www.w3.org/1999/xlink" xml:space="preserve" xmlns:serif="http://www.serif.com/" style="fill-rule:evenodd;clip-rule:evenodd;stroke-linejoin:round;stroke-miterlimit:1.41421;"><path d="M22.745,34.535c0.197,0.038 0.622,-0.039 1.273,-0.23c0.612,-0.152 1.264,-0.601 1.955,-1.347c0.355,-0.44 0.71,-0.965 1.066,-1.577c0.375,-0.592 0.681,-1.337 0.919,-2.236c0.572,-1.72 0.937,-4.185 1.095,-7.395c0.152,-2.084 -0.006,-3.822 -0.473,-5.218c-0.494,-1.414 -1.323,-2.14 -2.488,-2.179c-1.145,0.039 -2.142,0.449 -2.991,1.233c-0.849,0.784 -1.57,1.816 -2.161,3.096c-1.146,2.753 -1.718,5.419 -1.718,7.998c0,2.313 0.266,4.186 0.799,5.619c0.533,1.49 1.441,2.236 2.724,2.236m-0.976,5.235c-2.2,-0.039 -4.149,-0.495 -5.845,-1.37c-1.714,-0.856 -3.103,-1.959 -4.166,-3.311c-2.181,-2.854 -3.272,-5.822 -3.272,-8.905c0.075,-4.699 1.834,-8.685 5.276,-11.957c3.31,-3.31 7.447,-5.013 12.413,-5.109c2.538,0 4.692,0.438 6.461,1.313c1.729,0.894 3.121,2.017 4.174,3.368c1.072,1.37 1.862,2.835 2.37,4.395c0.414,1.599 0.621,3.139 0.621,4.624c0,4.204 -1.496,8.019 -4.486,11.444c-3.011,3.539 -7.526,5.374 -13.546,5.508" style="fill:#4c9d45;fill-rule:nonzero;"/><path d="M10.254,39.191c-27.253,-21.497 7.208,-56.104 28.71,-29.047c-20.519,-18.92 -47.457,11.009 -28.71,29.047" style="fill:#4c9d45;fill-rule:nonzero;"/></svg>