<svg xmlns="http://www.w3.org/2000/svg" xmlns:xlink="http://www.w3.org/1999/xlink" viewBox="0 0 600 110.8"><defs><style>.cls-1{fill:#fff;}.cls-2{fill:url(#linear-gradient);}.cls-3{fill:url(#linear-gradient-2);}.cls-4{fill:url(#linear-gradient-3);}.cls-5{fill:url(#linear-gradient-4);}.cls-6{fill:url(#linear-gradient-5);}.cls-7{fill:url(#linear-gradient-6);}</style><linearGradient id="linear-gradient" x1="61.57" y1="108.09" x2="-5.08" y2="40.81" gradientUnits="userSpaceOnUse"><stop offset="0" stop-color="#0081ad"/><stop offset="1" stop-color="#14d1df"/></linearGradient><linearGradient id="linear-gradient-2" x1="61.75" y1="107.92" x2="-4.9" y2="40.64" xlink:href="#linear-gradient"/><linearGradient id="linear-gradient-3" x1="41.36" y1="-4.8" x2="104.81" y2="59.29" xlink:href="#linear-gradient"/><linearGradient id="linear-gradient-4" x1="41.54" y1="-4.99" x2="105" y2="59.11" xlink:href="#linear-gradient"/><linearGradient id="linear-gradient-5" x1="13.3" y1="13.95" x2="86.01" y2="85.69" gradientUnits="userSpaceOnUse"><stop offset="0" stop-color="#14d1df"/><stop offset="1" stop-color="#85d9a5"/></linearGradient><linearGradient id="linear-gradient-6" x1="13.33" y1="13.92" x2="86.03" y2="85.67" xlink:href="#linear-gradient-5"/></defs><g id="Layer_2" data-name="Layer 2"><g id="Logos"><path class="cls-1" d="M396.06,18.84H405l40.67,57.83h.51V18.84h8.79V91.38H446L405.36,33.55h-.51V91.38h-8.79Z"/><path class="cls-1" d="M467.16,18.84H477L505.07,80l28.2-61.2h9.81V91.38h-8.79V36.31h-.51L508.44,91.38H501.8L476.46,36.31H476V91.38h-8.79Z"/><path class="cls-1" d="M552.38,74.73l7.26-3.37A17,17,0,0,0,576.7,84.23C584.37,84.23,591,80,591,71.77c0-7.46-5.32-10.73-13.8-14.11l-4.8-1.83c-10.62-4.3-17.06-10.22-17.06-19.62,0-11.24,9.09-18.39,20.84-18.39,12,0,19,7.25,21.87,15.12l-6.75,3.47c-2.86-6.54-7.56-10.52-14.91-10.52-6.95,0-12.26,3.88-12.26,10.42,0,5.11,3.06,9.09,11.64,12.47l4.91,1.94c11.85,4.7,19.31,10,19.31,21.15,0,13.38-11.14,20.54-23.3,20.54S554.84,85.15,552.38,74.73Z"/><path class="cls-1" d="M125.57,55.11c0-22.17,17.06-37.29,37.6-37.29s37.6,15.12,37.6,37.29-17.16,37.3-37.6,37.3S125.57,77.28,125.57,55.11Zm58.55,0c0-13.39-9.5-22-21-22s-20.95,8.58-20.95,22,9.51,22,20.95,22S184.12,68.5,184.12,55.11Z"/><path class="cls-1" d="M267,64.82c0,18.49-13.28,27.59-25.34,27.59-9.4,0-14.92-5.11-15.74-7.06h-.3V110.8H209.8V38.25h15.84v6h.3c.82-1.94,6.34-7.05,15.74-7.05C253.74,37.23,267,46.32,267,64.82Zm-15.53,0c0-8.59-6.34-13.49-13.08-13.49-6.95,0-13.18,4.8-13.18,13.49s6.23,13.48,13.18,13.48C245.15,78.3,251.49,73.4,251.49,64.82Z"/><path class="cls-1" d="M324.63,71H286.82c2.15,5.72,7.46,8.58,14.51,8.58a20,20,0,0,0,12.77-4.09l7.16,7.46c-4.4,5.52-12,9.51-21.67,9.51-14.71,0-28-10-28-27.49,0-18,13.38-27.69,27.08-27.69C312.16,37.23,328,46.63,324.63,71ZM286.52,59.61h24.21c-1.12-6.13-6.54-9.1-11.85-9.1S288.25,53.27,286.52,59.61Z"/><path class="cls-1" d="M383.82,60.12V91.38H368V62.88c0-6.65-3.37-11.55-9.91-11.55s-9.81,4.9-9.81,11.55v28.5H332.43V38.25h15.84V45c3-4.49,8.17-7.76,15.73-7.76C374.73,37.23,383.82,43.87,383.82,60.12Z"/><path class="cls-2" d="M28.16,57.59a166.75,166.75,0,0,1-17.53-22.4A70.24,70.24,0,0,1,6,26.68,50.58,50.58,0,0,0,12.62,84C13.21,78.5,19,68.73,28.16,57.59Z"/><path class="cls-3" d="M43.5,72.93C32.36,82.08,22.59,87.88,17.13,88.47a50.58,50.58,0,0,0,57.29,6.64,78.32,78.32,0,0,1-12.34-7.18A179.37,179.37,0,0,1,43.5,72.93Z"/><path class="cls-4" d="M57.59,28.16C68.73,19,78.5,13.21,84,12.62A50.58,50.58,0,0,0,26.67,6,78.32,78.32,0,0,1,39,13.16,179.37,179.37,0,0,1,57.59,28.16Z"/><path class="cls-5" d="M88.47,17.13c-.59,5.46-6.39,15.23-15.54,26.37A166.75,166.75,0,0,1,90.46,65.9a68.89,68.89,0,0,1,4.66,8.51A50.58,50.58,0,0,0,88.47,17.13Z"/><path class="cls-6" d="M50.55,34.25h0C33.17,18.55,17.48,9.52,13.5,13.5c-4.61,4.61,8.23,24.94,28.69,45.4,2.8,2.8,5.6,5.45,8.36,7.94Z"/><path class="cls-7" d="M66.84,50.55h0C64.35,53.3,61.7,56.1,58.9,58.9s-5.6,5.45-8.35,7.94c17.37,15.7,33.06,24.73,37,20.75S82.54,67.92,66.84,50.55Z"/></g></g></svg>