<svg xmlns="http://www.w3.org/2000/svg" viewBox="0 0 319.54 91.37"><defs><style>.cls-1{fill:#0081ad;}.cls-2{fill:#0a0c1b;}</style></defs><g id="Layer_2" data-name="Layer 2"><g id="Lockups"><path class="cls-1" d="M0,0H11.86L30.08,42,48.3,0H60.16V55.76H49.4v-35H49l-15,35H26.07l-14.92-35h-.39v35H0Z"/><path class="cls-1" d="M106.72,39.43H76.17c1.5,5.57,6.37,8.48,12.49,8.48a15.44,15.44,0,0,0,10.53-3.69l4.79,5.1c-3.38,4.24-9.27,7.23-16.5,7.23-11.23,0-21.28-7.62-21.28-21.21,0-13.74,10.21-21.2,20.66-21.2S109,21.44,106.72,39.43ZM76,31.73H97.38C96.75,25.92,91.88,23,86.93,23A10.81,10.81,0,0,0,76,31.73Z"/><path class="cls-1" d="M139.08,14.45V24.5a16,16,0,0,0-2.67-.23c-7.93,0-12.88,5.5-12.88,13.66V55.76H113V14.92h10.53v10.6c1.41-6.28,5.42-11.38,12.8-11.38A10.75,10.75,0,0,1,139.08,14.45Z"/><path class="cls-1" d="M145,0h10.53V9.27H145Zm0,14.92h10.53V55.76H145Z"/><path class="cls-1" d="M205,0V55.76H194.52v-5.5h-.24c-1,2.28-5.73,6.29-13,6.29-9.51,0-19.64-7.07-19.64-21.21s10.13-21.2,19.64-21.2c7.3,0,12,4,13,6.28h.16V0ZM194.76,35.34c0-7.7-5.5-11.78-11.39-11.78S172,27.72,172,35.34s5.5,11.78,11.39,11.78S194.76,43,194.76,35.34Z"/><path class="cls-1" d="M213.05,0h10.52V9.27H213.05Zm0,14.92h10.52V55.76H213.05Z"/><path class="cls-1" d="M229.62,35.34c0-14.13,10.13-21.2,19.63-21.2,7.31,0,12,4,13,6.28h.24v-5.5h10.52V55.76H262.53v-5.5h-.24c-1,2.28-5.73,6.29-13,6.29C239.75,56.55,229.62,49.48,229.62,35.34Zm33.14,0c0-7.7-5.5-11.78-11.39-11.78S240,27.72,240,35.34s5.49,11.78,11.38,11.78S262.76,43,262.76,35.34Z"/><path class="cls-1" d="M319.54,31.73v24H309V33.46c0-6-3.22-9.9-8.71-9.9s-8.72,3.93-8.72,9.9v22.3H281.06V14.92h10.52V20.5c2.28-3.61,6.36-6.36,12.49-6.36C312.47,14.14,319.54,19.32,319.54,31.73Z"/><path class="cls-2" d="M263.82,66.25h2.43l11.11,15.8h.14V66.25h2.4V86.07h-2.43l-11.11-15.8h-.14v15.8h-2.4Z"/><path class="cls-2" d="M283.24,66.25h2.68L293.6,83l7.71-16.72H304V86.07h-2.41V71h-.13l-6.93,15h-1.81l-6.93-15h-.14v15h-2.4Z"/><path class="cls-2" d="M306.53,81.52l2-.92a4.67,4.67,0,0,0,4.66,3.52c2.1,0,3.91-1.15,3.91-3.41,0-2-1.45-2.93-3.77-3.85l-1.31-.5c-2.9-1.18-4.66-2.8-4.66-5.36,0-3.08,2.48-5,5.69-5a6.09,6.09,0,0,1,6,4.13l-1.84,1a4.24,4.24,0,0,0-4.08-2.87c-1.9,0-3.35,1.06-3.35,2.84,0,1.4.84,2.49,3.18,3.41l1.34.53c3.24,1.28,5.28,2.74,5.28,5.78,0,3.66-3,5.61-6.37,5.61A6.51,6.51,0,0,1,306.53,81.52Z"/><path class="cls-2" d="M189.91,76.16a10.28,10.28,0,1,1,10.28,10.19A10,10,0,0,1,189.91,76.16Zm16,0a5.73,5.73,0,1,0-5.72,6A5.68,5.68,0,0,0,205.91,76.16Z"/><path class="cls-2" d="M228.56,78.81c0,5-3.63,7.54-6.92,7.54a5,5,0,0,1-4.3-1.93h-.09v7h-4.32V71.55h4.32V73.2h.09a5,5,0,0,1,4.3-1.93C224.93,71.27,228.56,73.76,228.56,78.81Zm-4.24,0a3.59,3.59,0,1,0-3.58,3.69A3.52,3.52,0,0,0,224.32,78.81Z"/><path class="cls-2" d="M244.3,80.49H234c.59,1.56,2,2.34,4,2.34a5.57,5.57,0,0,0,3.49-1.11l1.95,2a7.41,7.41,0,0,1-5.92,2.6,7.32,7.32,0,0,1-7.65-7.51,7.25,7.25,0,0,1,7.4-7.57C240.9,71.27,245.22,73.84,244.3,80.49Zm-10.41-3.1h6.61a3.11,3.11,0,0,0-3.23-2.49A3.33,3.33,0,0,0,233.89,77.39Z"/><path class="cls-2" d="M260.47,77.53v8.54h-4.32V78.28c0-1.81-.92-3.15-2.71-3.15s-2.68,1.34-2.68,3.15v7.79h-4.33V71.55h4.33V73.4a4.9,4.9,0,0,1,4.3-2.13C258,71.27,260.47,73.09,260.47,77.53Z"/></g></g></svg>