<svg xmlns="http://www.w3.org/2000/svg" viewBox="0 0 274.62 91.37"><defs><style>.cls-1{fill:#0081ad;}.cls-2{fill:#fff;}</style></defs><g id="Layer_2" data-name="Layer 2"><g id="Lockups"><path class="cls-1" d="M44.45,0V55.76H33.69V32.91H10.76V55.76H0V0H10.76V23H33.69V0Z"/><path class="cls-1" d="M50.49,35.34c0-13.82,10.84-21.2,21.52-21.2s21.52,7.38,21.52,21.2S82.62,56.55,72,56.55,50.49,49.16,50.49,35.34Zm32.6,0c0-7.3-5.19-11.7-11.08-11.7S60.86,28,60.86,35.34,66.12,47,72,47,83.09,42.64,83.09,35.34Z"/><path class="cls-1" d="M125.65,14.45V24.5a16,16,0,0,0-2.67-.23c-7.93,0-12.88,5.5-12.88,13.66V55.76H99.57V14.92H110.1v10.6c1.41-6.28,5.42-11.38,12.8-11.38A10.75,10.75,0,0,1,125.65,14.45Z"/><path class="cls-1" d="M131.61,0h10.53V9.27H131.61Zm0,14.92h10.53V55.76H131.61Z"/><path class="cls-1" d="M169.23,24.11H149.68V14.92h36.44L164.28,46.49h20.27v9.27H147.4Z"/><path class="cls-1" d="M187.06,35.34c0-13.82,10.83-21.2,21.51-21.2s21.52,7.38,21.52,21.2-10.91,21.21-21.52,21.21S187.06,49.16,187.06,35.34Zm32.59,0c0-7.3-5.19-11.7-11.08-11.7s-11.15,4.4-11.15,11.7S202.68,47,208.57,47,219.65,42.64,219.65,35.34Z"/><path class="cls-1" d="M274.62,31.73v24H264.09V33.46c0-6-3.22-9.9-8.71-9.9s-8.72,3.93-8.72,9.9v22.3H236.14V14.92h10.52V20.5c2.28-3.61,6.36-6.36,12.49-6.36C267.55,14.14,274.62,19.32,274.62,31.73Z"/><path class="cls-2" d="M218.9,66.25h2.43l11.11,15.8h.14V66.25H235V86.07h-2.43l-11.11-15.8h-.14v15.8h-2.4Z"/><path class="cls-2" d="M238.32,66.25H241L248.68,83l7.71-16.72h2.68V86.07h-2.4V71h-.14l-6.93,15h-1.81l-6.93-15h-.14v15h-2.4Z"/><path class="cls-2" d="M261.61,81.52l2-.92a4.67,4.67,0,0,0,4.66,3.52c2.1,0,3.91-1.15,3.91-3.41,0-2-1.45-2.93-3.77-3.85l-1.31-.5c-2.9-1.18-4.66-2.8-4.66-5.36,0-3.08,2.48-5,5.69-5a6.09,6.09,0,0,1,6,4.13l-1.84,1a4.24,4.24,0,0,0-4.08-2.87c-1.9,0-3.35,1.06-3.35,2.84,0,1.4.84,2.49,3.18,3.41l1.34.53c3.24,1.28,5.28,2.74,5.28,5.78,0,3.66-3,5.61-6.37,5.61A6.51,6.51,0,0,1,261.61,81.52Z"/><path class="cls-2" d="M145,76.16a10.28,10.28,0,1,1,10.28,10.19A10,10,0,0,1,145,76.16Zm16,0a5.73,5.73,0,1,0-5.72,6A5.68,5.68,0,0,0,161,76.16Z"/><path class="cls-2" d="M183.64,78.81c0,5-3.63,7.54-6.92,7.54a5,5,0,0,1-4.3-1.93h-.09v7H168V71.55h4.32V73.2h.09a5,5,0,0,1,4.3-1.93C180,71.27,183.64,73.76,183.64,78.81Zm-4.24,0a3.59,3.59,0,1,0-3.58,3.69A3.52,3.52,0,0,0,179.4,78.81Z"/><path class="cls-2" d="M199.38,80.49H189.05c.59,1.56,2,2.34,4,2.34a5.57,5.57,0,0,0,3.49-1.11l2,2a7.41,7.41,0,0,1-5.92,2.6,7.32,7.32,0,0,1-7.65-7.51,7.25,7.25,0,0,1,7.4-7.57C196,71.27,200.3,73.84,199.38,80.49ZM189,77.39h6.61a3.11,3.11,0,0,0-3.23-2.49A3.33,3.33,0,0,0,189,77.39Z"/><path class="cls-2" d="M215.55,77.53v8.54h-4.32V78.28c0-1.81-.92-3.15-2.71-3.15s-2.68,1.34-2.68,3.15v7.79h-4.33V71.55h4.33V73.4a4.9,4.9,0,0,1,4.3-2.13C213.07,71.27,215.55,73.09,215.55,77.53Z"/></g></g></svg>