<?xml version="1.0" encoding="iso-8859-1"?>
<!-- Generator: Adobe Illustrator 10.0, SVG Export Plug-In . SVG Version: 3.0.0 Build 76)  -->
<!DOCTYPE svg PUBLIC "-//W3C//DTD SVG 1.0//EN"    "http://www.w3.org/TR/2001/REC-SVG-20010904/DTD/svg10.dtd" [
	<!ENTITY ns_flows "http://ns.adobe.com/Flows/1.0/">
	<!ENTITY ns_svg "http://www.w3.org/2000/svg">
	<!ENTITY ns_xlink "http://www.w3.org/1999/xlink">
]>
<svg  xmlns="&ns_svg;" xmlns:xlink="&ns_xlink;" xmlns:a="http://ns.adobe.com/AdobeSVGViewerExtensions/3.0/"
	 width="122.783" height="115.112" viewBox="0 0 122.783 115.112" overflow="visible" enable-background="new 0 0 122.783 115.112"
	 xml:space="preserve">
	<g id="other">
	</g>
	<g id="opennms">
	</g>
	<g id="unspecified">
	</g>
	<g id="infrastructure">
	</g>
	<g id="printer">
		<g>
			<path fill="#0F3399" d="M105.974,4.809C106.727,2.164,105.092,0,102.342,0H53.28c-2.75,0-5.615,2.164-6.368,4.809L28.31,70.191
				C27.558,72.836,29.191,75,31.941,75h49.063c2.75,0,5.615-2.164,6.368-4.809L105.974,4.809z"/>
		</g>
		<g>
			<path fill="#003399" d="M115.146,77.196c0,5.5-4.5,10-10,10H17.638c-5.5,0-10-4.5-10-10v-6.393c0-5.5,4.5-10,10-10h87.509
				c5.5,0,10,4.5,10,10V77.196z"/>
		</g>
		<g>
			<path fill="#003399" d="M122.783,105.112c0,5.5-4.5,10-10,10H10c-5.5,0-10-4.5-10-10V82.887c0-5.5,4.5-10,10-10h102.783
				c5.5,0,10,4.5,10,10V105.112z"/>
		</g>
		<g>
			<linearGradient id="XMLID_1_" gradientUnits="userSpaceOnUse" x1="24.583" y1="129.9087" x2="96.6589" y2="57.8328">
				<stop  offset="0" style="stop-color:#FFFFFF"/>
				<stop  offset="0.2767" style="stop-color:#BCCAE4"/>
				<stop  offset="0.916" style="stop-color:#1645A2"/>
				<stop  offset="1" style="stop-color:#003399"/>
				<a:midPointStop  offset="0" style="stop-color:#FFFFFF"/>
				<a:midPointStop  offset="0.5141" style="stop-color:#FFFFFF"/>
				<a:midPointStop  offset="1" style="stop-color:#003399"/>
			</linearGradient>
			<path fill="url(#XMLID_1_)" d="M119.375,103.066c0,5.5-4.5,10-10,10H11.866c-5.5,0-10-4.5-10-10V84.673c0-5.5,4.5-10,10-10
				h97.509c5.5,0,10,4.5,10,10V103.066z"/>
		</g>
		<g>
			<linearGradient id="XMLID_2_" gradientUnits="userSpaceOnUse" x1="34.6514" y1="37.5" x2="98.9346" y2="37.5">
				<stop  offset="0" style="stop-color:#FFFFFF"/>
				<stop  offset="0.2767" style="stop-color:#BCCAE4"/>
				<stop  offset="0.916" style="stop-color:#1645A2"/>
				<stop  offset="1" style="stop-color:#003399"/>
				<a:midPointStop  offset="0" style="stop-color:#FFFFFF"/>
				<a:midPointStop  offset="0.5141" style="stop-color:#FFFFFF"/>
				<a:midPointStop  offset="1" style="stop-color:#003399"/>
			</linearGradient>
			<path fill="url(#XMLID_2_)" d="M98.935,6.852C99.601,4.183,97.895,2,95.145,2h-39c-2.75,0-5.544,2.183-6.21,4.852L34.651,68.148
				C33.985,70.817,35.691,73,38.441,73h39c2.75,0,5.544-2.183,6.21-4.852L98.935,6.852z"/>
		</g>
		<g>
			<path fill="#003399" d="M93.886,14.759c-0.084,0.336-2.402,0.611-5.152,0.611H53.358c-2.75,0-4.932-0.275-4.848-0.611
				s2.402-0.611,5.152-0.611h35.375C91.788,14.148,93.97,14.423,93.886,14.759z"/>
		</g>
		<g>
			<path fill="#003399" d="M91.997,18.542c-0.084,0.335-2.402,0.61-5.152,0.61H52.416c-2.75,0-4.932-0.275-4.848-0.61
				c0.084-0.336,2.402-0.611,5.152-0.611h34.429C89.899,17.932,92.081,18.207,91.997,18.542z"/>
		</g>
		<g>
			<path fill="#003399" d="M91.999,22.325c-0.083,0.336-2.401,0.611-5.151,0.611H51.473c-2.75,0-4.932-0.275-4.849-0.611
				c0.084-0.336,2.402-0.611,5.152-0.611h35.375C89.901,21.714,92.083,21.989,91.999,22.325z"/>
		</g>
		<g>
			<path fill="#003399" d="M72.141,26.108c-0.084,0.336-2.402,0.611-5.152,0.611H50.529c-2.75,0-4.932-0.275-4.848-0.611
				c0.084-0.335,2.402-0.61,5.152-0.61h16.459C70.043,25.498,72.225,25.772,72.141,26.108z"/>
		</g>
		<g>
			<path fill="#003399" d="M88.214,37.458c-0.084,0.335-2.402,0.61-5.152,0.61H47.688c-2.75,0-4.932-0.275-4.849-0.61
				c0.084-0.336,2.402-0.611,5.152-0.611h35.374C86.115,36.847,88.297,37.122,88.214,37.458z"/>
		</g>
		<g>
			<path fill="#003399" d="M68.355,41.24c-0.084,0.336-2.402,0.611-5.152,0.611h-16.46c-2.75,0-4.932-0.275-4.848-0.611
				s2.402-0.611,5.152-0.611h16.46C66.258,40.629,68.439,40.904,68.355,41.24z"/>
		</g>
		<g>
			<path fill="#003399" d="M32.38,98.567c0,2.75-2.25,5-5,5H11.403c-2.75,0-5-2.25-5-5V87.433c0-2.75,2.25-5,5-5H27.38
				c2.75,0,5,2.25,5,5V98.567z"/>
		</g>
		<g>
			<linearGradient id="XMLID_3_" gradientUnits="userSpaceOnUse" x1="10.0791" y1="102.0332" x2="28.2952" y2="83.8171">
				<stop  offset="0" style="stop-color:#FFFFFF"/>
				<stop  offset="0.2767" style="stop-color:#BCCAE4"/>
				<stop  offset="0.916" style="stop-color:#1645A2"/>
				<stop  offset="1" style="stop-color:#003399"/>
				<a:midPointStop  offset="0" style="stop-color:#FFFFFF"/>
				<a:midPointStop  offset="0.5141" style="stop-color:#FFFFFF"/>
				<a:midPointStop  offset="1" style="stop-color:#003399"/>
			</linearGradient>
			<path fill="url(#XMLID_3_)" d="M31.049,97.217c0,2.75-2.25,5-5,5H12.325c-2.75,0-5-2.25-5-5v-8.583c0-2.75,2.25-5,5-5h13.724
				c2.75,0,5,2.25,5,5V97.217z"/>
		</g>
		<g>
			<path fill="#003399" d="M42.944,93c0,1.347-1.374,2.449-3.053,2.449S36.839,94.346,36.839,93s1.374-2.448,3.053-2.448
				S42.944,91.653,42.944,93z"/>
		</g>
		<g>
			<path fill="#003399" d="M55.444,93c0,1.347-1.374,2.449-3.053,2.449S49.339,94.346,49.339,93s1.374-2.448,3.053-2.448
				S55.444,91.653,55.444,93z"/>
		</g>
		<g>
			<path fill="#003399" d="M107.331,86.886c0,2.75-2.25,5-5,5H68.452c-2.75,0-5-2.25-5-5v-3.773c0-2.75,2.25-5,5-5h33.879
				c2.75,0,5,2.25,5,5V86.886z"/>
		</g>
	</g>
	<g id="server">
	</g>
	<g id="telephony">
	</g>
	<g id="workstation">
	</g>
	<g id="laptop">
	</g>
</svg>
