<?xml version="1.0" encoding="utf-8"?>
<!-- Generator: Adobe Illustrator 16.0.4, SVG Export Plug-In . SVG Version: 6.00 Build 0)  -->
<!DOCTYPE svg PUBLIC "-//W3C//DTD SVG 1.0//EN" "http://www.w3.org/TR/2001/REC-SVG-20010904/DTD/svg10.dtd">
<svg version="1.0"
	 id="svg2989" xmlns:dc="http://purl.org/dc/elements/1.1/" xmlns:cc="http://creativecommons.org/ns#" xmlns:rdf="http://www.w3.org/1999/02/22-rdf-syntax-ns#" xmlns:svg="http://www.w3.org/2000/svg"
	 xmlns="http://www.w3.org/2000/svg" xmlns:xlink="http://www.w3.org/1999/xlink" x="0px" y="0px" width="30.857px"
	 height="30.857px" viewBox="2.44 -207.015 30.857 30.857" enable-background="new 2.44 -207.015 30.857 30.857"
	 xml:space="preserve">
<g id="g2991" transform="matrix(1,0,0,-1,121.49153,1300.6102)">
	<path id="path2993" fill="#A61C2A" d="M-93.337,1492.196c0,1.861-0.475,3.603-1.426,5.223l-14.083-14.083
		c1.621-0.951,3.362-1.426,5.223-1.426c1.393,0,2.723,0.271,3.988,0.813s2.359,1.276,3.284,2.2c0.924,0.924,1.657,2.019,2.2,3.285
		C-93.608,1489.474-93.337,1490.803-93.337,1492.196z M-112.482,1486.973l14.082,14.083c-1.62,0.951-3.361,1.426-5.223,1.426
		c-1.393,0-2.722-0.271-3.988-0.813s-2.36-1.276-3.285-2.2c-0.924-0.924-1.657-2.019-2.2-3.285s-0.813-2.595-0.813-3.988
		C-113.908,1490.334-113.432,1488.594-112.482,1486.973z M-88.194,1492.196c0-2.799-0.69-5.381-2.069-7.745
		s-3.251-4.235-5.615-5.615c-2.363-1.379-4.945-2.069-7.744-2.069s-5.38,0.69-7.744,2.069c-2.364,1.379-4.236,3.251-5.615,5.615
		s-2.069,4.945-2.069,7.745c0,2.799,0.69,5.38,2.069,7.744c1.379,2.364,3.251,4.236,5.615,5.615
		c2.364,1.379,4.945,2.069,7.744,2.069s5.381-0.69,7.744-2.069c2.364-1.379,4.236-3.251,5.615-5.615
		C-88.884,1497.577-88.194,1494.995-88.194,1492.196z"/>
</g>
</svg>
