<?xml version="1.0" encoding="utf-8"?>
<!-- Generator: Adobe Illustrator 19.2.0, SVG Export Plug-In . SVG Version: 6.00 Build 0)  -->
<svg version="1.1" id="Layer_2" xmlns="http://www.w3.org/2000/svg" xmlns:xlink="http://www.w3.org/1999/xlink" x="0px" y="0px"
	 width="5274.8px" height="1333.4px" viewBox="0 0 5274.8 1333.4" style="enable-background:new 0 0 5274.8 1333.4;"
	 xml:space="preserve">
<style type="text/css">
	.st0{fill:#4C9E45;}
	.st1{fill:#030303;}
</style>
<g id="Layer_3">
	<path class="st0" d="M551.2,1296.1C-1038.8,553.4,1175-522.1,2599.4,289.7C1184.6-309.9-599.9,611.3,551.2,1296.1z"/>
</g>
<g id="open__x28_shadow_x29_">
	<g>
		<path class="st0" d="M669.5,1081.4c-40-0.7-75.4-9-106.2-24.9c-31.2-15.6-56.4-35.6-75.7-60.2c-39.6-51.9-59.5-105.8-59.5-161.8
			c1.4-85.4,33.3-157.8,95.9-217.3c60.2-60.2,135.3-91.1,225.6-92.8c46.1,0,85.3,8,117.4,23.9c31.4,16.3,56.7,36.7,75.9,61.2
			c19.5,24.9,33.8,51.5,43.1,79.9c7.5,29,11.3,57,11.3,84c0,76.4-27.2,145.7-81.5,208C860.9,1045.6,778.9,1078.9,669.5,1081.4z
			 M687.2,986.2c3.6,0.7,11.3-0.7,23.1-4.2c11.1-2.8,23-10.9,35.5-24.5c6.4-8,12.9-17.5,19.4-28.7c6.8-10.8,12.4-24.3,16.7-40.6
			c10.4-31.3,17-76.1,19.9-134.4c2.8-37.9-0.1-69.5-8.6-94.8c-9-25.7-24-38.9-45.2-39.6c-20.8,0.7-38.9,8.2-54.4,22.4
			c-15.4,14.2-28.5,33-39.3,56.3c-20.8,50-31.2,98.5-31.2,145.3c0,42,4.8,76.1,14.5,102.1C647.4,972.7,663.9,986.2,687.2,986.2z"/>
		<path class="st0" d="M1310.6,592.4c24.2-20.4,50.7-37.8,79.6-52.2c28.2-13.4,57.4-20.6,87.7-21.6c98,1.1,147.3,72.4,148,214.2
			c-2,110.4-31.9,195.7-89.8,255.9c-55.8,59.9-113,90.2-171.4,90.9c-51-0.7-95.3-19.2-132.9-55.5l-57.9,309.3H981.4L1132.2,532
			h189.1L1310.6,592.4z M1376.8,635.2c-11.8,0-23.8,4.9-35.9,14.6c-12.5,10.1-25.3,27-38.4,50.7c-26.3,45.6-43.6,121.5-52.1,227.8
			c14.5,31.3,38,47,70.6,47c12.1,0,25-6.1,38.8-18.3c12.4-12.2,23.8-28.9,34.3-50.1c22.8-43.5,34.6-98.6,35.3-165.1
			C1430.1,670.7,1412.6,635.2,1376.8,635.2z"/>
		<path class="st0" d="M2157.3,996.5c-36.1,21.7-78,41.1-125.5,58c-47.2,17.3-96.9,26.2-149.1,26.9c-34-0.7-62.1-9-84.4-24.9
			c-23.3-13.8-42.1-32.2-56.4-55c-7-12.1-12.8-23.9-17.5-35.3c-4.7-11.8-8.8-23.3-12.5-34.7c-2.7-11.4-4.7-22.5-6-33.2
			c-1.3-9.7-2-18.8-2-27.5c2.7-62.2,15-115.7,37.1-160.3c10.3-22.8,22.7-43,37.1-60.7c13.7-17.6,28.4-33.2,44.1-46.7
			c32.1-27.7,66.8-47.9,104.2-60.7c36.4-12.1,71.3-18.2,104.7-18.2c52.1,0,95.5,10.7,130.3,32.2c35.1,21.8,52.9,58,53.6,108.4
			c-0.7,29.1-9.9,54.1-27.6,75.2c-18.1,22.8-42.5,41.7-73.3,56.6c-63.6,31.1-134.9,46-213.8,44.6c-0.7,5.5-0.7,14.4,0,26.5
			c0,12.8,2.5,26,7.5,39.5c4.7,12.8,13.2,23.7,25.6,32.7c12.4,10.7,30.1,16.1,53.2,16.1c24.1,0,46.7-4.7,67.8-14
			c20.7-8.3,42-18.5,63.8-30.7L2157.3,996.5z M2016.8,615.8c-29.5,2.8-52.9,17-70.3,42.7c-17.1,25.4-29.7,56.6-37.7,93.8
			c102.8,2.8,155.9-25,159.3-83.4c1.4-16.3-2.6-29.5-12.1-39.6C2046.3,620.4,2033.3,615.8,2016.8,615.8z"/>
		<path class="st0" d="M2497.7,628.6l2,2.1c29.6-36.7,62.3-64.6,97.9-83.7c35.3-18,68.8-27,100.5-27c76.4,0,114.6,38.3,114.6,114.9
			c0.7,24.7-2,54.3-8.1,88.8l-62.1,344.3h-186.3l60.1-336.1c1.3-9.4,2-18.3,2-26.7c-2.7-22.3-7.9-36.6-15.6-42.9
			c-8.1-5.9-15.7-8.9-22.7-8.9c-17.2,0-32,5.4-44.4,16.2c-13.1,10.8-24.4,25.1-33.8,42.9c-18.2,38-30.6,76.8-37.3,116.6l-42.4,238.9
			h-186.3l96.4-534.7h184.8L2497.7,628.6z"/>
	</g>
</g>
<g id="open__x28_outline_x29_">
</g>
<g id="NMS">
	<g>
		<path class="st1" d="M3567.7,1083.9h-145.2c-56.3-70.1-114.9-144.4-175.8-222.8c-61.3-78.4-110.4-149.2-147.2-212.5h-2v435.3
			h-169.8V341.2h157.3c55.6,68.5,114.2,143.1,175.8,224c61.3,80.6,106.3,147.8,135.1,201.8h2V341.2h169.8V1083.9z"/>
		<path class="st1" d="M4528.9,1083.9h-224V564.1h-2.1C4247.6,752.8,4191,926,4133,1083.9h-135.9
			c-58.6-157.9-116.2-331.2-172.8-519.8h-2v519.8h-169.8V341.2H3948c49.4,136.6,98.5,289.1,147.2,457.4h2
			c47.1-168.4,94.6-320.9,142.7-457.4h288.9V1083.9z"/>
		<path class="st1" d="M5021.4,494c-29.4-18.4-64.7-27.6-105.8-27.6c-48.4,1.4-72.6,16.6-72.6,45.7c0,9.3,4.1,19,12.3,29.1
			c7.1,10.4,17.3,20.9,30.5,31.7c26.4,21.1,58.6,48.4,96.4,82c45.5,43.3,76.4,81.5,92.8,114.7c15.7,33.9,23.3,70.1,22.6,108.5
			c0,16.3-3.5,36.3-10.5,60.2c-7.4,24.9-21.4,49.5-42.1,73.7c-19.1,23.9-46,43.6-80.7,59.2c-35.8,16.6-80.8,25.3-135,26
			c-42.5,0-83.1-5.7-121.9-17c-39.8-10.7-74.4-27.5-103.8-50.6l65.7-122.9c15.7,12.2,33.8,23.4,54.2,33.8
			c20.7,12.2,43.8,18.2,69.2,18.2c22.4,0,42.8-6.4,61.2-19.2c18.7-11.1,28.4-30.5,29.1-58.2c0-14.9-3.8-29.4-11.5-43.6
			c-7.4-12.8-17.2-25.3-29.6-37.4c-26.1-23.9-54.5-48.3-85.2-73.2c-39.8-32.6-71-63-93.6-91.4c-23-27.7-34.4-63.5-34.4-107.5
			c0.7-60.3,26.6-108.6,77.7-145c48.1-36,107.7-54.4,179-55.1c47.4,0.7,88.3,6.7,122.7,18.1c32.7,11.4,55.7,21.9,69,31.5L5021.4,494
			z"/>
	</g>
</g>
<g>
	<g>
		<path class="st1" d="M5174.9,399.4c55.8,0,99.9,43.8,99.9,99.4c0,55.7-44.1,99.4-100.4,99.4c-56.3,0-100.4-43.8-100.4-99.4
			c0-55.6,44.1-99.4,100.4-99.4H5174.9z M5174,416.2c-45.5,0-81.4,36.3-81.4,82.6c0,46.3,35.9,82.6,81.8,82.6
			c46.1,0,81.8-36.3,81.8-82.6c0-46.3-35.9-82.6-81.8-82.6H5174z M5133.8,439.9h35.9c21.2,0,32.1,3.1,40.1,8.6
			c7.8,5.4,12.8,13.8,12.8,25c0,18.3-13.8,27.4-26,31.6l31.9,50.9H5202l-29.2-48h-14.6v48h-24.5V439.9z M5158.3,492.8h16
			c14,0,22.8-7.1,22.8-18.6c0-15-13-17.8-27.6-17.8h-11.1V492.8z"/>
	</g>
</g>
</svg>
