<?xml version="1.0" encoding="UTF-8"?>
<svg id="atlas-icons" xmlns="http://www.w3.org/2000/svg">
  <g id="microwave_backhaul_1_icon" data-name="microwave_backhaul_1 icon">
    <g id="microwave_backhaul_1_active" data-name="microwave_backhaul_1 active">
      <rect width="100" height="100" fill="#fff"/>
      <path d="M29.67,92.53a202.14,202.14,0,0,0,8.67-20.33A204.75,204.75,0,0,0,50,17.53h0a244,244,0,0,0,12.67,56c2.4,6.77,5,13.1,7.67,19" transform="translate(0 0)" fill="none" stroke="#09a8d3" stroke-miterlimit="10" stroke-width="2"/>
      <polyline points="31.33 88.86 61 71.53 43.67 58.36 54.17 47.03 47.83 36.86 51.5 29.19" fill="none" stroke="#09a8d3" stroke-miterlimit="10" stroke-width="2"/>
      <polyline points="68.83 89.03 39.67 71.53 57.33 58.53 45.83 47.03 52.33 36.69 48.67 29.19" fill="none" stroke="#09a8d3" stroke-miterlimit="10" stroke-width="2"/>
      <circle cx="50.21" cy="17.05" r="3.21" fill="#fff" stroke="#09a8d3" stroke-miterlimit="10" stroke-width="1.5"/>
      <path d="M42.33,12.42A8.07,8.07,0,0,0,42,20.76" transform="translate(0 0)" fill="#fff" stroke="#09a8d3" stroke-miterlimit="10" stroke-width="1.5"/>
      <path d="M38.64,10.06a12.65,12.65,0,0,0-.52,13.06" transform="translate(0 0)" fill="#fff" stroke="#09a8d3" stroke-miterlimit="10" stroke-width="1.5"/>
      <path d="M34.19,7.44a17.71,17.71,0,0,0-.73,18.29" transform="translate(0 0)" fill="#fff" stroke="#09a8d3" stroke-miterlimit="10" stroke-width="1.5"/>
      <path d="M58.19,12.42a8.07,8.07,0,0,1,.33,8.33" transform="translate(0 0)" fill="#fff" stroke="#09a8d3" stroke-miterlimit="10" stroke-width="1.5"/>
      <path d="M61.88,10.06a12.65,12.65,0,0,1,.52,13.06" transform="translate(0 0)" fill="#fff" stroke="#09a8d3" stroke-miterlimit="10" stroke-width="1.5"/>
      <path d="M66.34,7.44a17.71,17.71,0,0,1,.73,18.29" transform="translate(0 0)" fill="#fff" stroke="#09a8d3" stroke-miterlimit="10" stroke-width="1.5"/>
    </g>
    <g id="microwave_backhaul_1_rollover" data-name="microwave_backhaul_1 rollover">
      <rect width="100" height="100" fill="#fff"/>
      <path d="M29.67,92.53a202.14,202.14,0,0,0,8.67-20.33A204.75,204.75,0,0,0,50,17.53h0a244,244,0,0,0,12.67,56c2.4,6.77,5,13.1,7.67,19" transform="translate(0 0)" fill="none" stroke="#09a8d3" stroke-miterlimit="10" stroke-width="2"/>
      <polyline points="31.33 88.86 61 71.53 43.67 58.36 54.17 47.03 47.83 36.86 51.5 29.19" fill="none" stroke="#09a8d3" stroke-miterlimit="10" stroke-width="2"/>
      <polyline points="68.83 89.03 39.67 71.53 57.33 58.53 45.83 47.03 52.33 36.69 48.67 29.19" fill="none" stroke="#09a8d3" stroke-miterlimit="10" stroke-width="2"/>
      <circle cx="50.21" cy="17.05" r="3.21" fill="#fff" stroke="#09a8d3" stroke-miterlimit="10" stroke-width="1.5"/>
      <path d="M42.33,12.42A8.07,8.07,0,0,0,42,20.76" transform="translate(0 0)" fill="#fff" stroke="#09a8d3" stroke-miterlimit="10" stroke-width="1.5"/>
      <path d="M38.64,10.06a12.65,12.65,0,0,0-.52,13.06" transform="translate(0 0)" fill="#fff" stroke="#09a8d3" stroke-miterlimit="10" stroke-width="1.5"/>
      <path d="M34.19,7.44a17.71,17.71,0,0,0-.73,18.29" transform="translate(0 0)" fill="#fff" stroke="#09a8d3" stroke-miterlimit="10" stroke-width="1.5"/>
      <path d="M58.19,12.42a8.07,8.07,0,0,1,.33,8.33" transform="translate(0 0)" fill="#fff" stroke="#09a8d3" stroke-miterlimit="10" stroke-width="1.5"/>
      <path d="M61.88,10.06a12.65,12.65,0,0,1,.52,13.06" transform="translate(0 0)" fill="#fff" stroke="#09a8d3" stroke-miterlimit="10" stroke-width="1.5"/>
      <path d="M66.34,7.44a17.71,17.71,0,0,1,.73,18.29" transform="translate(0 0)" fill="#fff" stroke="#09a8d3" stroke-miterlimit="10" stroke-width="1.5"/>
    </g>
    <g id="microwave_backhaul_1">
      <rect width="100" height="100" fill="#fff"/>
      <path d="M29.67,92.53a202.14,202.14,0,0,0,8.67-20.33A204.75,204.75,0,0,0,50,17.53h0a244,244,0,0,0,12.67,56c2.4,6.77,5,13.1,7.67,19" transform="translate(0 0)" fill="none" stroke="#505154" stroke-miterlimit="10" stroke-width="2"/>
      <polyline points="31.33 88.86 61 71.53 43.67 58.36 54.17 47.03 47.83 36.86 51.5 29.19" fill="none" stroke="#505154" stroke-miterlimit="10" stroke-width="2"/>
      <polyline points="68.83 89.03 39.67 71.53 57.33 58.53 45.83 47.03 52.33 36.69 48.67 29.19" fill="none" stroke="#505154" stroke-miterlimit="10" stroke-width="2"/>
      <circle cx="50.21" cy="17.05" r="3.21" fill="#fff" stroke="#505154" stroke-miterlimit="10" stroke-width="1.5"/>
      <path d="M42.33,12.42A8.07,8.07,0,0,0,42,20.76" transform="translate(0 0)" fill="#fff" stroke="#505154" stroke-miterlimit="10" stroke-width="1.5"/>
      <path d="M38.64,10.06a12.65,12.65,0,0,0-.52,13.06" transform="translate(0 0)" fill="#fff" stroke="#505154" stroke-miterlimit="10" stroke-width="1.5"/>
      <path d="M34.19,7.44a17.71,17.71,0,0,0-.73,18.29" transform="translate(0 0)" fill="#fff" stroke="#505154" stroke-miterlimit="10" stroke-width="1.5"/>
      <path d="M58.19,12.42a8.07,8.07,0,0,1,.33,8.33" transform="translate(0 0)" fill="#fff" stroke="#505154" stroke-miterlimit="10" stroke-width="1.5"/>
      <path d="M61.88,10.06a12.65,12.65,0,0,1,.52,13.06" transform="translate(0 0)" fill="#fff" stroke="#505154" stroke-miterlimit="10" stroke-width="1.5"/>
      <path d="M66.34,7.44a17.71,17.71,0,0,1,.73,18.29" transform="translate(0 0)" fill="#fff" stroke="#505154" stroke-miterlimit="10" stroke-width="1.5"/>
    </g>
  </g>
  <g id="microwave_backhaul_2_icon">
    <g id="microwave_backhaul_2_active">
      <rect y="0" fill="#FFFFFF" width="100" height="100"/>
      <g>
        <g>
          <g>
            <polyline fill="none" stroke="#09A8D3" stroke-width="2.6443" stroke-miterlimit="10" points="24.4,85.5 50,8.7 75.6,85.5"/>
            <line fill="none" stroke="#09A8D3" stroke-width="2" stroke-miterlimit="10" x1="50" y1="9" x2="50" y2="95"/>
            <polyline fill="none" stroke="#09A8D3" stroke-width="2.6443" stroke-miterlimit="10" points="26.2,79 50,87.7 73.8,79"/>
            <polyline fill="none" stroke="#09A8D3" stroke-width="2.6443" stroke-miterlimit="10" points="31,65.2 50,72 68.5,64.5"/>
            <polyline fill="none" stroke="#09A8D3" stroke-width="2.6443" stroke-miterlimit="10" points="35.7,50.5 50,56.2 64.7,50.7"/>
            <polyline fill="none" stroke="#09A8D3" stroke-width="2.6443" stroke-miterlimit="10" points="40.1,36 50,40.4 59.6,36"/>
          </g>
          <polyline fill="none" stroke="#09A8D3" stroke-width="2.6443" stroke-miterlimit="10" points="40.8,36 49.9,33 58.1,36"/>
          <polyline fill="none" stroke="#09A8D3" stroke-width="2.6443" stroke-miterlimit="10" points="36.1,50.9 50.1,46.8 63.4,51.4"/>
          <polyline fill="none" stroke="#09A8D3" stroke-width="2.6443" stroke-miterlimit="10" points="31.5,64.7 50.1,62.5 67.9,63.4"/>
          <polyline fill="none" stroke="#09A8D3" stroke-width="2.6443" stroke-miterlimit="10" points="26.8,78.8 50.1,79.6 72.7,78.5"/>
        </g>
        <g>
          <path fill="#FFFFFF" stroke="#09A8D3" stroke-width="1.9833" stroke-miterlimit="10" d="M37,43.9l3.8,0.6c2.5,0.4,4,3.9,3.4,7.9c-0.6,4-3.1,6.9-5.6,6.6l-3.8-0.6"/>
          <path fill="#FFFFFF" stroke="#09A8D3" stroke-width="1.9833" stroke-miterlimit="10" d="M39.8,51.7c-0.6,4-3.1,6.9-5.6,6.6c-2.5-0.4-4-3.9-3.4-7.9c0.6-4,3.1-6.9,5.6-6.6C38.9,44.1,40.4,47.7,39.8,51.7z"/>
        </g>
        <g>
          <path fill="#FFFFFF" stroke="#09A8D3" stroke-width="1.9833" stroke-miterlimit="10" d="M67.2,56.8l-3.8,0.6c-2.5,0.4-4,3.9-3.4,7.9c0.6,4,3.1,6.9,5.6,6.6l3.8-0.6"/>
          <path fill="#FFFFFF" stroke="#09A8D3" stroke-width="1.9833" stroke-miterlimit="10" d="M64.4,64.6c0.6,4,3.1,6.9,5.6,6.6c2.5-0.4,4-3.9,3.4-7.9c-0.6-4-3.1-6.9-5.6-6.6C65.3,57.1,63.8,60.6,64.4,64.6z"/>
        </g>
        <g>
          <path fill="#FFFFFF" stroke="#09A8D3" stroke-width="1.9833" stroke-miterlimit="10" d="M59.2,30.1l-3.8,0.6c-2.5,0.4-4,3.9-3.4,7.9c0.6,4,3.1,6.9,5.6,6.6l3.8-0.6"/>
          <path fill="#FFFFFF" stroke="#09A8D3" stroke-width="1.9833" stroke-miterlimit="10" d="M56.4,37.9c0.6,4,3.1,6.9,5.6,6.6c2.5-0.4,4-3.9,3.4-7.9c-0.6-4-3.1-6.9-5.6-6.6C57.3,30.3,55.8,33.9,56.4,37.9z"/>
        </g>
      </g>
    </g>
    <g id="microwave_backhaul_2_rollover">
      <rect y="0" fill="#FFFFFF" width="100" height="100"/>
      <g>
        <g>
          <g>
            <polyline fill="none" stroke="#09A8D3" stroke-width="2.6443" stroke-miterlimit="10" points="24.4,85.5 50,8.7 75.6,85.5"/>
            <line fill="none" stroke="#09A8D3" stroke-width="2" stroke-miterlimit="10" x1="50" y1="9" x2="50" y2="95"/>
            <polyline fill="none" stroke="#09A8D3" stroke-width="2.6443" stroke-miterlimit="10" points="26.2,79 50,87.7 73.8,79"/>
            <polyline fill="none" stroke="#09A8D3" stroke-width="2.6443" stroke-miterlimit="10" points="31,65.2 50,72 68.5,64.5"/>
            <polyline fill="none" stroke="#09A8D3" stroke-width="2.6443" stroke-miterlimit="10" points="35.7,50.5 50,56.2 64.7,50.7"/>
            <polyline fill="none" stroke="#09A8D3" stroke-width="2.6443" stroke-miterlimit="10" points="40.1,36 50,40.4 59.6,36"/>
          </g>
          <polyline fill="none" stroke="#09A8D3" stroke-width="2.6443" stroke-miterlimit="10" points="40.8,36 49.9,33 58.1,36"/>
          <polyline fill="none" stroke="#09A8D3" stroke-width="2.6443" stroke-miterlimit="10" points="36.1,50.9 50.1,46.8 63.4,51.4"/>
          <polyline fill="none" stroke="#09A8D3" stroke-width="2.6443" stroke-miterlimit="10" points="31.5,64.7 50.1,62.5 67.9,63.4"/>
          <polyline fill="none" stroke="#09A8D3" stroke-width="2.6443" stroke-miterlimit="10" points="26.8,78.8 50.1,79.6 72.7,78.5"/>
        </g>
        <g>
          <path fill="#FFFFFF" stroke="#09A8D3" stroke-width="1.9833" stroke-miterlimit="10" d="M37,43.9l3.8,0.6c2.5,0.4,4,3.9,3.4,7.9c-0.6,4-3.1,6.9-5.6,6.6l-3.8-0.6"/>
          <path fill="#FFFFFF" stroke="#09A8D3" stroke-width="1.9833" stroke-miterlimit="10" d="M39.8,51.7c-0.6,4-3.1,6.9-5.6,6.6c-2.5-0.4-4-3.9-3.4-7.9c0.6-4,3.1-6.9,5.6-6.6C38.9,44.1,40.4,47.7,39.8,51.7z"/>
        </g>
        <g>
          <path fill="#FFFFFF" stroke="#09A8D3" stroke-width="1.9833" stroke-miterlimit="10" d="M67.2,56.8l-3.8,0.6c-2.5,0.4-4,3.9-3.4,7.9c0.6,4,3.1,6.9,5.6,6.6l3.8-0.6"/>
          <path fill="#FFFFFF" stroke="#09A8D3" stroke-width="1.9833" stroke-miterlimit="10" d="M64.4,64.6c0.6,4,3.1,6.9,5.6,6.6c2.5-0.4,4-3.9,3.4-7.9c-0.6-4-3.1-6.9-5.6-6.6C65.3,57.1,63.8,60.6,64.4,64.6z"/>
        </g>
        <g>
          <path fill="#FFFFFF" stroke="#09A8D3" stroke-width="1.9833" stroke-miterlimit="10" d="M59.2,30.1l-3.8,0.6c-2.5,0.4-4,3.9-3.4,7.9c0.6,4,3.1,6.9,5.6,6.6l3.8-0.6"/>
          <path fill="#FFFFFF" stroke="#09A8D3" stroke-width="1.9833" stroke-miterlimit="10" d="M56.4,37.9c0.6,4,3.1,6.9,5.6,6.6c2.5-0.4,4-3.9,3.4-7.9c-0.6-4-3.1-6.9-5.6-6.6C57.3,30.3,55.8,33.9,56.4,37.9z"/>
        </g>
      </g>
    </g>
    <g id="microwave_backhaul_2">
      <rect y="0" fill="#FFFFFF" width="100" height="100"/>
      <g>
        <g>
          <g>
            <polyline fill="none" stroke="#505154" stroke-width="2.6443" stroke-miterlimit="10" points="24.4,85.5 50,8.7 75.6,85.5"/>
            <line fill="none" stroke="#505154" stroke-width="2" stroke-miterlimit="10" x1="50" y1="9" x2="50" y2="95"/>
            <polyline fill="none" stroke="#505154" stroke-width="2.6443" stroke-miterlimit="10" points="26.2,79 50,87.7 73.8,79"/>
            <polyline fill="none" stroke="#505154" stroke-width="2.6443" stroke-miterlimit="10" points="31,65.2 50,72 68.5,64.5"/>
            <polyline fill="none" stroke="#505154" stroke-width="2.6443" stroke-miterlimit="10" points="35.7,50.5 50,56.2 64.7,50.7"/>
            <polyline fill="none" stroke="#505154" stroke-width="2.6443" stroke-miterlimit="10" points="40.1,36 50,40.4 59.6,36"/>
          </g>
          <polyline fill="none" stroke="#505154" stroke-width="2.6443" stroke-miterlimit="10" points="40.8,36 49.9,33 58.1,36"/>
          <polyline fill="none" stroke="#505154" stroke-width="2.6443" stroke-miterlimit="10" points="36.1,50.9 50.1,46.8 63.4,51.4"/>
          <polyline fill="none" stroke="#505154" stroke-width="2.6443" stroke-miterlimit="10" points="31.5,64.7 50.1,62.5 67.9,63.4"/>
          <polyline fill="none" stroke="#505154" stroke-width="2.6443" stroke-miterlimit="10" points="26.8,78.8 50.1,79.6 72.7,78.5"/>
        </g>
        <g>
          <path fill="#FFFFFF" stroke="#505154" stroke-width="1.9833" stroke-miterlimit="10" d="M37,43.9l3.8,0.6c2.5,0.4,4,3.9,3.4,7.9c-0.6,4-3.1,6.9-5.6,6.6l-3.8-0.6"/>
          <path fill="#FFFFFF" stroke="#505154" stroke-width="1.9833" stroke-miterlimit="10" d="M39.8,51.7c-0.6,4-3.1,6.9-5.6,6.6c-2.5-0.4-4-3.9-3.4-7.9c0.6-4,3.1-6.9,5.6-6.6C38.9,44.1,40.4,47.7,39.8,51.7z"/>
        </g>
        <g>
          <path fill="#FFFFFF" stroke="#505154" stroke-width="1.9833" stroke-miterlimit="10" d="M67.2,56.8l-3.8,0.6c-2.5,0.4-4,3.9-3.4,7.9c0.6,4,3.1,6.9,5.6,6.6l3.8-0.6"/>
          <path fill="#FFFFFF" stroke="#505154" stroke-width="1.9833" stroke-miterlimit="10" d="M64.4,64.6c0.6,4,3.1,6.9,5.6,6.6c2.5-0.4,4-3.9,3.4-7.9c-0.6-4-3.1-6.9-5.6-6.6C65.3,57.1,63.8,60.6,64.4,64.6z"/>
        </g>
        <g>
          <path fill="#FFFFFF" stroke="#505154" stroke-width="1.9833" stroke-miterlimit="10" d="M59.2,30.1l-3.8,0.6c-2.5,0.4-4,3.9-3.4,7.9c0.6,4,3.1,6.9,5.6,6.6l3.8-0.6"/>
          <path fill="#FFFFFF" stroke="#505154" stroke-width="1.9833" stroke-miterlimit="10" d="M56.4,37.9c0.6,4,3.1,6.9,5.6,6.6c2.5-0.4,4-3.9,3.4-7.9c-0.6-4-3.1-6.9-5.6-6.6C57.3,30.3,55.8,33.9,56.4,37.9z"/>
        </g>
      </g>
    </g>
  </g>
  <g id="region_1_icon" data-name="region_1 icon">
    <g id="region_1_active" data-name="region_1 active">
      <rect width="100" height="100" fill="#fff"/>
      <circle cx="50" cy="50" r="45" fill="#09a8d3"/>
      <polygon points="30.54 78.52 49.81 19.67 69.09 78.52 49.81 61.61 30.54 78.52" fill="#fff"/>
    </g>
    <g id="region_1_rollover" data-name="region_1 rollover">
      <rect width="100" height="100" fill="#fff"/>
      <circle cx="50" cy="50" r="45" fill="#09a8d3"/>
      <polygon points="30.54 78.52 49.81 19.67 69.09 78.52 49.81 61.61 30.54 78.52" fill="#fff"/>
    </g>
    <g id="region_1">
      <rect width="100" height="100" fill="#fff"/>
      <circle cx="50" cy="50" r="45" fill="#505154"/>
      <polygon points="30.54 78.52 49.81 19.67 69.09 78.52 49.81 61.61 30.54 78.52" fill="#fff"/>
    </g>
  </g>
  <g id="region__2_icon" data-name="region_ 2 icon">
    <g id="region_2_active" data-name="region_2 active">
      <rect width="100" height="100" fill="#fff"/>
      <circle cx="50" cy="50" r="45" fill="#09a8d3"/>
      <polygon points="43.24 42.51 75.84 26.66 56.76 57.49 24.16 73.33 43.24 42.51" fill="#fff"/>
      <circle cx="50.4" cy="50.17" r="4.86" transform="translate(-19.21 64.73) rotate(-56.68)" fill="#09a8d3"/>
    </g>
    <g id="region_2_rollover" data-name="region_2 rollover">
      <rect width="100" height="100" fill="#fff"/>
      <circle cx="50" cy="50" r="45" fill="#09a8d3"/>
      <polygon points="43.24 42.51 75.84 26.66 56.76 57.49 24.16 73.33 43.24 42.51" fill="#fff"/>
      <circle cx="50.4" cy="50.17" r="4.86" transform="translate(-19.21 64.73) rotate(-56.68)" fill="#09a8d3"/>
    </g>
    <g id="region_2">
      <rect width="100" height="100" fill="#fff"/>
      <circle cx="50" cy="50" r="45" fill="#505154"/>
      <polygon points="43.24 42.51 75.84 26.66 56.76 57.49 24.16 73.33 43.24 42.51" fill="#fff"/>
      <circle cx="50.4" cy="50.17" r="4.86" transform="translate(-19.21 64.73) rotate(-56.68)" fill="#505154"/>
    </g>
  </g>
  <g id="market_1_icon" data-name="market_1 icon">
    <g id="market_1_active" data-name="market_1 active">
      <rect width="100" height="100" fill="#fff"/>
      <path d="M50,5A45,45,0,1,0,95,50,45,45,0,0,0,50,5ZM70,80.53L50,67,30,80.53l7.34-23.19L17.11,42.95h25.1L50,19.47l7.79,23.48h25.1L62.63,57.34Z" transform="translate(0 0)" fill="#09a8d3"/>
    </g>
    <g id="market_1_rollover" data-name="market_1 rollover">
      <rect width="100" height="100" fill="#fff"/>
      <path d="M50,5A45,45,0,1,0,95,50,45,45,0,0,0,50,5ZM70,80.53L50,67,30,80.53l7.34-23.19L17.11,42.95h25.1L50,19.47l7.79,23.48h25.1L62.63,57.34Z" transform="translate(0 0)" fill="#09a8d3"/>
    </g>
    <g id="market_1">
      <rect width="100" height="100" fill="#fff"/>
      <path d="M50,5A45,45,0,1,0,95,50,45,45,0,0,0,50,5ZM70,80.53L50,67,30,80.53l7.34-23.19L17.11,42.95h25.1L50,19.47l7.79,23.48h25.1L62.63,57.34Z" transform="translate(0 0)" fill="#505154"/>
    </g>
  </g>
  <g id="market_2_icon" data-name="market_2 icon">
    <g id="market_2_active" data-name="market_2 active">
      <rect width="100" height="100" fill="#fff"/>
      <path d="M77.28,32.28C77.28,47.35,50,95,50,95S22.72,47.35,22.72,32.28A27.28,27.28,0,0,1,77.28,32.28Z" transform="translate(0 0)" fill="#09a8d3"/>
      <g id="_726-star-selected_2x.png" data-name="726-star-selected@2x.png">
        <polygon points="67.09 30.47 54.05 30.47 50 18.27 45.95 30.47 32.91 30.47 43.44 37.95 39.63 50 50 42.99 60.38 50 56.56 37.95 67.09 30.47" fill="#fff"/>
      </g>
    </g>
    <g id="market_2_rollover" data-name="market_2 rollover">
      <rect width="100" height="100" fill="#fff"/>
      <path d="M77.28,32.28C77.28,47.35,50,95,50,95S22.72,47.35,22.72,32.28A27.28,27.28,0,0,1,77.28,32.28Z" transform="translate(0 0)" fill="#09a8d3"/>
      <g id="_726-star-selected_2x.png-2" data-name="726-star-selected@2x.png">
        <polygon points="67.09 30.47 54.05 30.47 50 18.27 45.95 30.47 32.91 30.47 43.44 37.95 39.63 50 50 42.99 60.38 50 56.56 37.95 67.09 30.47" fill="#fff"/>
      </g>
    </g>
    <g id="market_2">
      <rect width="100" height="100" fill="#fff"/>
      <path d="M77.28,32.28C77.28,47.35,50,95,50,95S22.72,47.35,22.72,32.28A27.28,27.28,0,0,1,77.28,32.28Z" transform="translate(0 0)" fill="#505154"/>
      <g id="_726-star-selected_2x.png-3" data-name="726-star-selected@2x.png">
        <polygon points="67.09 30.47 54.05 30.47 50 18.27 45.95 30.47 32.91 30.47 43.44 37.95 39.63 50 50 42.99 60.38 50 56.56 37.95 67.09 30.47" fill="#fff"/>
      </g>
    </g>
  </g>
  <g id="site_1_icon" data-name="site_1 icon">
    <g id="site_1_active" data-name="site_1 active">
      <rect width="100" height="100" fill="#fff"/>
      <path d="M77.28,32.28C77.28,47.35,50,95,50,95S22.72,47.35,22.72,32.28A27.28,27.28,0,0,1,77.28,32.28Z" transform="translate(0 0)" fill="#09a8d3"/>
      <circle cx="50" cy="30.26" r="11.17" fill="#fff"/>
    </g>
    <g id="site_1_rollover" data-name="site_1 rollover">
      <rect width="100" height="100" fill="#fff"/>
      <path d="M77.28,32.28C77.28,47.35,50,95,50,95S22.72,47.35,22.72,32.28A27.28,27.28,0,0,1,77.28,32.28Z" transform="translate(0 0)" fill="#09a8d3"/>
      <circle cx="50" cy="30.26" r="11.17" fill="#fff"/>
    </g>
    <g id="site_1">
      <rect width="100" height="100" fill="#fff"/>
      <path d="M77.28,32.28C77.28,47.35,50,95,50,95S22.72,47.35,22.72,32.28A27.28,27.28,0,0,1,77.28,32.28Z" transform="translate(0 0)" fill="#505154"/>
      <circle cx="50" cy="30.26" r="11.17" fill="#fff"/>
    </g>
  </g>
  <g id="site_2_icon" data-name="site_2 icon">
    <g id="site_2_active" data-name="site_2 active">
      <rect width="100" height="100" fill="#fff"/>
      <rect x="11.22" y="5" width="10.4" height="90" fill="#09a8d3"/>
      <rect x="25.02" y="5" width="63.76" height="46.67" fill="#09a8d3"/>
    </g>
    <g id="site_2_rollover" data-name="site_2 rollover">
      <rect width="100" height="100" fill="#fff"/>
      <rect x="11.22" y="5" width="10.4" height="90" fill="#09a8d3"/>
      <rect x="25.02" y="5" width="63.76" height="46.67" fill="#09a8d3"/>
    </g>
    <g id="site_2">
      <rect width="100" height="100" fill="#fff"/>
      <rect x="11.22" y="5" width="10.4" height="90" fill="#505154"/>
      <rect x="25.02" y="5" width="63.76" height="46.67" fill="#505154"/>
    </g>
  </g>
  <g id="site_3_icon" data-name="site_3 icon">
    <g id="site_3_active" data-name="site_3 active">
      <rect width="100" height="100" fill="#fff"/>
      <rect x="11.22" y="5" width="10.4" height="90" fill="#09a8d3"/>
      <polygon points="88.78 51.67 25.02 51.67 25.02 5 88.78 5 71.36 28.34 88.78 51.67" fill="#09a8d3"/>
    </g>
    <g id="site_3_rollover" data-name="site_3 rollover">
      <rect width="100" height="100" fill="#fff"/>
      <rect x="11.22" y="5" width="10.4" height="90" fill="#09a8d3"/>
      <polygon points="88.78 51.67 25.02 51.67 25.02 5 88.78 5 71.36 28.34 88.78 51.67" fill="#09a8d3"/>
    </g>
    <g id="site_3">
      <rect width="100" height="100" fill="#fff"/>
      <rect x="11.22" y="5" width="10.4" height="90" fill="#505154"/>
      <polygon points="88.78 51.67 25.02 51.67 25.02 5 88.78 5 71.36 28.34 88.78 51.67" fill="#505154"/>
    </g>
  </g>
</svg>
