<?xml version="1.0"?>
<svg xmlns="http://www.w3.org/2000/svg" id="Icons" viewBox="0 0 100 100">
  <defs>
    <style>.cls-1,.cls-3,.cls-5,.cls-7,.cls-9{fill:#fff;}.cls-2,.cls-4,.cls-6,.cls-8{fill:none;}.cls-2,.cls-3,.cls-6,.cls-7{stroke:#09a8d3;}.cls-2,.cls-3,.cls-4,.cls-5,.cls-6,.cls-7,.cls-8,.cls-9{stroke-miterlimit:10;}.cls-2,.cls-4{stroke-width:2px;}.cls-3,.cls-5{stroke-width:1.5px;}.cls-4,.cls-5,.cls-8,.cls-9{stroke:#505154;}.cls-6,.cls-8{stroke-width:2.64px;}.cls-7,.cls-9{stroke-width:1.98px;}.cls-10{fill:#09a8d3;}.cls-11{fill:#505154;}</style>
  </defs>
  <title>icons set 2</title>
  <g id="microwave_backhaul_1_icon" data-name="microwave_backhaul_1 icon">
    <g id="microwave_backhaul_1_active" data-name="microwave_backhaul_1 active">
      <rect class="cls-1" width="100" height="100"/>
      <path class="cls-2" d="M29.67,92.53a202.14,202.14,0,0,0,8.67-20.33A204.75,204.75,0,0,0,50,17.53h0a244,244,0,0,0,12.67,56c2.4,6.77,5,13.1,7.67,19" transform="translate(0 0)"/>
      <polyline class="cls-2" points="31.33 88.86 61 71.53 43.67 58.36 54.17 47.03 47.83 36.86 51.5 29.19"/>
      <polyline class="cls-2" points="68.83 89.03 39.67 71.53 57.33 58.53 45.83 47.03 52.33 36.69 48.67 29.19"/>
      <circle class="cls-3" cx="50.21" cy="17.05" r="3.21"/>
      <path class="cls-3" d="M42.33,12.42A8.07,8.07,0,0,0,42,20.76" transform="translate(0 0)"/>
      <path class="cls-3" d="M38.64,10.06a12.65,12.65,0,0,0-.52,13.06" transform="translate(0 0)"/>
      <path class="cls-3" d="M34.19,7.44a17.71,17.71,0,0,0-.73,18.29" transform="translate(0 0)"/>
      <path class="cls-3" d="M58.19,12.42a8.07,8.07,0,0,1,.33,8.33" transform="translate(0 0)"/>
      <path class="cls-3" d="M61.88,10.06a12.65,12.65,0,0,1,.52,13.06" transform="translate(0 0)"/>
      <path class="cls-3" d="M66.34,7.44a17.71,17.71,0,0,1,.73,18.29" transform="translate(0 0)"/>
    </g>
    <g id="microwave_backhaul_1_rollover_copy" data-name="microwave_backhaul_1 rollover copy">
      <rect class="cls-1" width="100" height="100"/>
      <path class="cls-2" d="M29.67,92.53a202.14,202.14,0,0,0,8.67-20.33A204.75,204.75,0,0,0,50,17.53h0a244,244,0,0,0,12.67,56c2.4,6.77,5,13.1,7.67,19" transform="translate(0 0)"/>
      <polyline class="cls-2" points="31.33 88.86 61 71.53 43.67 58.36 54.17 47.03 47.83 36.86 51.5 29.19"/>
      <polyline class="cls-2" points="68.83 89.03 39.67 71.53 57.33 58.53 45.83 47.03 52.33 36.69 48.67 29.19"/>
      <circle class="cls-3" cx="50.21" cy="17.05" r="3.21"/>
      <path class="cls-3" d="M42.33,12.42A8.07,8.07,0,0,0,42,20.76" transform="translate(0 0)"/>
      <path class="cls-3" d="M38.64,10.06a12.65,12.65,0,0,0-.52,13.06" transform="translate(0 0)"/>
      <path class="cls-3" d="M34.19,7.44a17.71,17.71,0,0,0-.73,18.29" transform="translate(0 0)"/>
      <path class="cls-3" d="M58.19,12.42a8.07,8.07,0,0,1,.33,8.33" transform="translate(0 0)"/>
      <path class="cls-3" d="M61.88,10.06a12.65,12.65,0,0,1,.52,13.06" transform="translate(0 0)"/>
      <path class="cls-3" d="M66.34,7.44a17.71,17.71,0,0,1,.73,18.29" transform="translate(0 0)"/>
    </g>
    <g id="microwave_backhaul_1">
      <rect class="cls-1" width="100" height="100"/>
      <path class="cls-4" d="M29.67,92.53a202.14,202.14,0,0,0,8.67-20.33A204.75,204.75,0,0,0,50,17.53h0a244,244,0,0,0,12.67,56c2.4,6.77,5,13.1,7.67,19" transform="translate(0 0)"/>
      <polyline class="cls-4" points="31.33 88.86 61 71.53 43.67 58.36 54.17 47.03 47.83 36.86 51.5 29.19"/>
      <polyline class="cls-4" points="68.83 89.03 39.67 71.53 57.33 58.53 45.83 47.03 52.33 36.69 48.67 29.19"/>
      <circle class="cls-5" cx="50.21" cy="17.05" r="3.21"/>
      <path class="cls-5" d="M42.33,12.42A8.07,8.07,0,0,0,42,20.76" transform="translate(0 0)"/>
      <path class="cls-5" d="M38.64,10.06a12.65,12.65,0,0,0-.52,13.06" transform="translate(0 0)"/>
      <path class="cls-5" d="M34.19,7.44a17.71,17.71,0,0,0-.73,18.29" transform="translate(0 0)"/>
      <path class="cls-5" d="M58.19,12.42a8.07,8.07,0,0,1,.33,8.33" transform="translate(0 0)"/>
      <path class="cls-5" d="M61.88,10.06a12.65,12.65,0,0,1,.52,13.06" transform="translate(0 0)"/>
      <path class="cls-5" d="M66.34,7.44a17.71,17.71,0,0,1,.73,18.29" transform="translate(0 0)"/>
    </g>
  </g>
  <g id="microwave_backhaul_2_icon" data-name="microwave_backhaul_2 icon">
    <g id="microwave_backhaul_2_active" data-name="microwave_backhaul_2 active">
      <rect class="cls-1" width="100" height="100"/>
      <path class="cls-6" d="M38.14,29.92" transform="translate(0 0)"/>
      <path class="cls-6" d="M42.13,57.51" transform="translate(0 0)"/>
      <polyline class="cls-6" points="24.39 85.54 50 8.68 75.61 85.54"/>
      <line class="cls-2" x1="50" y1="9" x2="50" y2="95"/>
      <polyline class="cls-6" points="26.16 78.97 50 87.73 73.84 78.97"/>
      <polyline class="cls-6" points="31.04 65.17 50 71.96 68.52 64.52"/>
      <polyline class="cls-6" points="35.7 50.5 50 56.2 64.75 50.72"/>
      <polyline class="cls-6" points="40.13 36.05 50 40.43 59.65 36.05"/>
      <polyline class="cls-6" points="40.8 36.05 49.89 32.98 58.09 36.05"/>
      <polyline class="cls-6" points="36.14 50.94 50.11 46.78 63.42 51.38"/>
      <polyline class="cls-6" points="31.48 64.74 50.11 62.55 67.85 63.42"/>
      <polyline class="cls-6" points="26.83 78.75 50.11 79.63 72.73 78.53"/>
      <path class="cls-7" d="M37,43.86l3.82,0.56c2.48,0.36,4,3.9,3.4,7.9s-3.1,6.94-5.58,6.58l-3.82-.56" transform="translate(0 0)"/>
      <path class="cls-7" d="M39.81,51.67c-0.6,4-3.1,6.94-5.58,6.58s-4-3.9-3.4-7.9,3.1-6.94,5.58-6.58S40.41,47.67,39.81,51.67Z" transform="translate(0 0)"/>
      <path class="cls-7" d="M67.17,56.78l-3.82.56c-2.48.36-4,3.9-3.4,7.9s3.1,6.94,5.58,6.58l3.82-.56" transform="translate(0 0)"/>
      <path class="cls-7" d="M64.38,64.59c0.6,4,3.1,6.94,5.58,6.58s4-3.9,3.4-7.9-3.1-6.94-5.58-6.58S63.78,60.59,64.38,64.59Z" transform="translate(0 0)"/>
      <path class="cls-7" d="M59.19,30.06l-3.82.56c-2.48.36-4,3.9-3.4,7.9s3.1,6.94,5.58,6.58l3.82-.56" transform="translate(0 0)"/>
      <path class="cls-7" d="M56.4,37.87c0.6,4,3.1,6.94,5.58,6.58s4-3.9,3.4-7.9S62.28,29.61,59.8,30,55.79,33.88,56.4,37.87Z" transform="translate(0 0)"/>
    </g>
    <g id="microwave_backhaul_2_rollover" data-name="microwave_backhaul_2 rollover">
      <rect class="cls-1" width="100" height="100"/>
      <path class="cls-6" d="M38.14,29.92" transform="translate(0 0)"/>
      <path class="cls-6" d="M42.13,57.51" transform="translate(0 0)"/>
      <polyline class="cls-6" points="24.39 85.54 50 8.68 75.61 85.54"/>
      <line class="cls-2" x1="50" y1="9" x2="50" y2="95"/>
      <polyline class="cls-6" points="26.16 78.97 50 87.73 73.84 78.97"/>
      <polyline class="cls-6" points="31.04 65.17 50 71.96 68.52 64.52"/>
      <polyline class="cls-6" points="35.7 50.5 50 56.2 64.75 50.72"/>
      <polyline class="cls-6" points="40.13 36.05 50 40.43 59.65 36.05"/>
      <polyline class="cls-6" points="40.8 36.05 49.89 32.98 58.09 36.05"/>
      <polyline class="cls-6" points="36.14 50.94 50.11 46.78 63.42 51.38"/>
      <polyline class="cls-6" points="31.48 64.74 50.11 62.55 67.85 63.42"/>
      <polyline class="cls-6" points="26.83 78.75 50.11 79.63 72.73 78.53"/>
      <path class="cls-7" d="M37,43.86l3.82,0.56c2.48,0.36,4,3.9,3.4,7.9s-3.1,6.94-5.58,6.58l-3.82-.56" transform="translate(0 0)"/>
      <path class="cls-7" d="M39.81,51.67c-0.6,4-3.1,6.94-5.58,6.58s-4-3.9-3.4-7.9,3.1-6.94,5.58-6.58S40.41,47.67,39.81,51.67Z" transform="translate(0 0)"/>
      <path class="cls-7" d="M67.17,56.78l-3.82.56c-2.48.36-4,3.9-3.4,7.9s3.1,6.94,5.58,6.58l3.82-.56" transform="translate(0 0)"/>
      <path class="cls-7" d="M64.38,64.59c0.6,4,3.1,6.94,5.58,6.58s4-3.9,3.4-7.9-3.1-6.94-5.58-6.58S63.78,60.59,64.38,64.59Z" transform="translate(0 0)"/>
      <path class="cls-7" d="M59.19,30.06l-3.82.56c-2.48.36-4,3.9-3.4,7.9s3.1,6.94,5.58,6.58l3.82-.56" transform="translate(0 0)"/>
      <path class="cls-7" d="M56.4,37.87c0.6,4,3.1,6.94,5.58,6.58s4-3.9,3.4-7.9S62.28,29.61,59.8,30,55.79,33.88,56.4,37.87Z" transform="translate(0 0)"/>
    </g>
    <g id="microwave_backhaul_2">
      <rect class="cls-1" width="100" height="100"/>
      <path class="cls-8" d="M38.14,29.92" transform="translate(0 0)"/>
      <path class="cls-8" d="M42.13,57.51" transform="translate(0 0)"/>
      <polyline class="cls-8" points="24.39 85.54 50 8.68 75.61 85.54"/>
      <line class="cls-4" x1="50" y1="9" x2="50" y2="95"/>
      <polyline class="cls-8" points="26.16 78.97 50 87.73 73.84 78.97"/>
      <polyline class="cls-8" points="31.04 65.17 50 71.96 68.52 64.52"/>
      <polyline class="cls-8" points="35.7 50.5 50 56.2 64.75 50.72"/>
      <polyline class="cls-8" points="40.13 36.05 50 40.43 59.65 36.05"/>
      <polyline class="cls-8" points="40.8 36.05 49.89 32.98 58.09 36.05"/>
      <polyline class="cls-8" points="36.14 50.94 50.11 46.78 63.42 51.38"/>
      <polyline class="cls-8" points="31.48 64.74 50.11 62.55 67.85 63.42"/>
      <polyline class="cls-8" points="26.83 78.75 50.11 79.63 72.73 78.53"/>
      <path class="cls-9" d="M37,43.86l3.82,0.56c2.48,0.36,4,3.9,3.4,7.9s-3.1,6.94-5.58,6.58l-3.82-.56" transform="translate(0 0)"/>
      <path class="cls-9" d="M39.81,51.67c-0.6,4-3.1,6.94-5.58,6.58s-4-3.9-3.4-7.9,3.1-6.94,5.58-6.58S40.41,47.67,39.81,51.67Z" transform="translate(0 0)"/>
      <path class="cls-9" d="M67.17,56.78l-3.82.56c-2.48.36-4,3.9-3.4,7.9s3.1,6.94,5.58,6.58l3.82-.56" transform="translate(0 0)"/>
      <path class="cls-9" d="M64.38,64.59c0.6,4,3.1,6.94,5.58,6.58s4-3.9,3.4-7.9-3.1-6.94-5.58-6.58S63.78,60.59,64.38,64.59Z" transform="translate(0 0)"/>
      <path class="cls-9" d="M59.19,30.06l-3.82.56c-2.48.36-4,3.9-3.4,7.9s3.1,6.94,5.58,6.58l3.82-.56" transform="translate(0 0)"/>
      <path class="cls-9" d="M56.4,37.87c0.6,4,3.1,6.94,5.58,6.58s4-3.9,3.4-7.9S62.28,29.61,59.8,30,55.79,33.88,56.4,37.87Z" transform="translate(0 0)"/>
    </g>
  </g>
  <g id="region_1_icon" data-name="region_1 icon">
    <g id="region_1_active" data-name="region_1 active">
      <rect class="cls-1" width="100" height="100"/>
      <circle class="cls-10" cx="50" cy="50" r="45"/>
      <polygon class="cls-1" points="30.54 78.52 49.81 19.67 69.09 78.52 49.81 61.61 30.54 78.52"/>
    </g>
    <g id="region_1_rollover" data-name="region_1 rollover">
      <rect class="cls-1" width="100" height="100"/>
      <circle class="cls-10" cx="50" cy="50" r="45"/>
      <polygon class="cls-1" points="30.54 78.52 49.81 19.67 69.09 78.52 49.81 61.61 30.54 78.52"/>
    </g>
    <g id="region_1">
      <rect class="cls-1" width="100" height="100"/>
      <circle class="cls-11" cx="50" cy="50" r="45"/>
      <polygon class="cls-1" points="30.54 78.52 49.81 19.67 69.09 78.52 49.81 61.61 30.54 78.52"/>
    </g>
  </g>
  <g id="region_2_icon" data-name="region_2 icon">
    <g id="region_2_active" data-name="region_2 active">
      <rect class="cls-1" width="100" height="100"/>
      <circle class="cls-10" cx="50" cy="50" r="45"/>
      <polygon class="cls-1" points="43.24 42.51 75.84 26.66 56.76 57.49 24.16 73.33 43.24 42.51"/>
      <circle class="cls-10" cx="50.4" cy="50.17" r="4.86" transform="translate(-19.21 64.73) rotate(-56.68)"/>
    </g>
    <g id="region_2_rollover" data-name="region_2 rollover">
      <rect class="cls-1" width="100" height="100"/>
      <circle class="cls-10" cx="50" cy="50" r="45"/>
      <polygon class="cls-1" points="43.24 42.51 75.84 26.66 56.76 57.49 24.16 73.33 43.24 42.51"/>
      <circle class="cls-10" cx="50.4" cy="50.17" r="4.86" transform="translate(-19.21 64.73) rotate(-56.68)"/>
    </g>
    <g id="region_2">
      <rect class="cls-1" width="100" height="100"/>
      <circle class="cls-11" cx="50" cy="50" r="45"/>
      <polygon class="cls-1" points="43.24 42.51 75.84 26.66 56.76 57.49 24.16 73.33 43.24 42.51"/>
      <circle class="cls-11" cx="50.4" cy="50.17" r="4.86" transform="translate(-19.21 64.73) rotate(-56.68)"/>
    </g>
  </g>
  <g id="market_1_icon" data-name="market_1 icon">
    <g id="market_1_active" data-name="market_1 active">
      <rect class="cls-1" width="100" height="100"/>
      <path class="cls-10" d="M50,5A45,45,0,1,0,95,50,45,45,0,0,0,50,5ZM70,80.53L50,67,30,80.53l7.34-23.19L17.11,42.95h25.1L50,19.47l7.79,23.48h25.1L62.63,57.34Z" transform="translate(0 0)"/>
    </g>
    <g id="market_1_rollover" data-name="market_1 rollover">
      <rect class="cls-1" width="100" height="100"/>
      <path class="cls-10" d="M50,5A45,45,0,1,0,95,50,45,45,0,0,0,50,5ZM70,80.53L50,67,30,80.53l7.34-23.19L17.11,42.95h25.1L50,19.47l7.79,23.48h25.1L62.63,57.34Z" transform="translate(0 0)"/>
    </g>
    <g id="market_1">
      <rect class="cls-1" width="100" height="100"/>
      <path class="cls-11" d="M50,5A45,45,0,1,0,95,50,45,45,0,0,0,50,5ZM70,80.53L50,67,30,80.53l7.34-23.19L17.11,42.95h25.1L50,19.47l7.79,23.48h25.1L62.63,57.34Z" transform="translate(0 0)"/>
    </g>
  </g>
  <g id="market_2_icon" data-name="market_2 icon">
    <g id="market_2_active" data-name="market_2 active">
      <rect class="cls-1" width="100" height="100"/>
      <path class="cls-10" d="M77.28,32.28C77.28,47.35,50,95,50,95S22.72,47.35,22.72,32.28A27.28,27.28,0,0,1,77.28,32.28Z" transform="translate(0 0)"/>
      <g id="_726-star-selected_2x.png" data-name="726-star-selected@2x.png">
        <polygon class="cls-1" points="67.09 30.47 54.05 30.47 50 18.27 45.95 30.47 32.91 30.47 43.44 37.95 39.63 50 50 42.99 60.38 50 56.56 37.95 67.09 30.47"/>
      </g>
    </g>
    <g id="market_2_rollover" data-name="market_2 rollover">
      <rect class="cls-1" width="100" height="100"/>
      <path class="cls-10" d="M77.28,32.28C77.28,47.35,50,95,50,95S22.72,47.35,22.72,32.28A27.28,27.28,0,0,1,77.28,32.28Z" transform="translate(0 0)"/>
      <g id="_726-star-selected_2x.png-2" data-name="726-star-selected@2x.png">
        <polygon class="cls-1" points="67.09 30.47 54.05 30.47 50 18.27 45.95 30.47 32.91 30.47 43.44 37.95 39.63 50 50 42.99 60.38 50 56.56 37.95 67.09 30.47"/>
      </g>
    </g>
    <g id="market_2">
      <rect class="cls-1" width="100" height="100"/>
      <path class="cls-11" d="M77.28,32.28C77.28,47.35,50,95,50,95S22.72,47.35,22.72,32.28A27.28,27.28,0,0,1,77.28,32.28Z" transform="translate(0 0)"/>
      <g id="_726-star-selected_2x.png-3" data-name="726-star-selected@2x.png">
        <polygon class="cls-1" points="67.09 30.47 54.05 30.47 50 18.27 45.95 30.47 32.91 30.47 43.44 37.95 39.63 50 50 42.99 60.38 50 56.56 37.95 67.09 30.47"/>
      </g>
    </g>
  </g>
  <g id="site_1_icon" data-name="site_1 icon">
    <g id="site_1_active" data-name="site_1 active">
      <rect class="cls-1" width="100" height="100"/>
      <path class="cls-10" d="M77.28,32.28C77.28,47.35,50,95,50,95S22.72,47.35,22.72,32.28A27.28,27.28,0,0,1,77.28,32.28Z" transform="translate(0 0)"/>
      <circle class="cls-1" cx="50" cy="30.26" r="11.17"/>
    </g>
    <g id="site_1_rollover" data-name="site_1 rollover">
      <rect class="cls-1" width="100" height="100"/>
      <path class="cls-10" d="M77.28,32.28C77.28,47.35,50,95,50,95S22.72,47.35,22.72,32.28A27.28,27.28,0,0,1,77.28,32.28Z" transform="translate(0 0)"/>
      <circle class="cls-1" cx="50" cy="30.26" r="11.17"/>
    </g>
    <g id="site_1">
      <rect class="cls-1" width="100" height="100"/>
      <path class="cls-11" d="M77.28,32.28C77.28,47.35,50,95,50,95S22.72,47.35,22.72,32.28A27.28,27.28,0,0,1,77.28,32.28Z" transform="translate(0 0)"/>
      <circle class="cls-1" cx="50" cy="30.26" r="11.17"/>
    </g>
  </g>
  <g id="site_2_icon" data-name="site_2 icon">
    <g id="site_2_active" data-name="site_2 active">
      <rect class="cls-1" width="100" height="100"/>
      <rect class="cls-10" x="11.22" y="5" width="10.4" height="90"/>
      <rect class="cls-10" x="25.02" y="5" width="63.76" height="46.67"/>
    </g>
    <g id="site_2_rollover" data-name="site_2 rollover">
      <rect class="cls-1" width="100" height="100"/>
      <rect class="cls-10" x="11.22" y="5" width="10.4" height="90"/>
      <rect class="cls-10" x="25.02" y="5" width="63.76" height="46.67"/>
    </g>
    <g id="site_2">
      <rect class="cls-1" width="100" height="100"/>
      <rect class="cls-11" x="11.22" y="5" width="10.4" height="90"/>
      <rect class="cls-11" x="25.02" y="5" width="63.76" height="46.67"/>
    </g>
  </g>
  <g id="site_3_icon" data-name="site_3 icon">
    <g id="site_3_active" data-name="site_3 active">
      <rect class="cls-1" width="100" height="100"/>
      <rect class="cls-10" x="11.22" y="5" width="10.4" height="90"/>
      <polygon class="cls-10" points="88.78 51.67 25.02 51.67 25.02 5 88.78 5 71.36 28.34 88.78 51.67"/>
    </g>
    <g id="site_3_rollover" data-name="site_3 rollover">
      <rect class="cls-1" width="100" height="100"/>
      <rect class="cls-10" x="11.22" y="5" width="10.4" height="90"/>
      <polygon class="cls-10" points="88.78 51.67 25.02 51.67 25.02 5 88.78 5 71.36 28.34 88.78 51.67"/>
    </g>
    <g id="site_3">
      <rect class="cls-1" width="100" height="100"/>
      <rect class="cls-11" x="11.22" y="5" width="10.4" height="90"/>
      <polygon class="cls-11" points="88.78 51.67 25.02 51.67 25.02 5 88.78 5 71.36 28.34 88.78 51.67"/>
    </g>
  </g>
</svg>
