<svg id="Icons" xmlns="http://www.w3.org/2000/svg" viewBox="0 0 77 85.75"><defs><style>.cls-1,.cls-3{fill:#fff;}.cls-2{fill:#707477;}.cls-3{stroke:#000;stroke-width:2px;}.cls-3,.cls-6,.cls-7,.cls-8{stroke-miterlimit:10;}.cls-4{fill:#bbbdc0;}.cls-5{fill:#237cb7;}.cls-6,.cls-7,.cls-8{fill:none;}.cls-6{stroke:#707477;}.cls-7{stroke:#bbbdc0;}.cls-8{stroke:#237cb7;}</style></defs><title>BSM icons 3</title><g id="reduction_key_icon" data-name="reduction key icon"><g id="reduction_key_active" data-name="reduction key active"><rect class="cls-1" width="69.5" height="77.66"/><path class="cls-2" d="M4,4V59.18H51.14V4H4ZM17.83,22.82h-2.7V50.27h-2V22.82H10.42v-2h2.7V12.9h2v7.92h2.7v2h0ZM31.27,41.61h-2.7v8.66h-2V41.61h-2.7v-2h2.7V12.9h2V39.61h2.7v2ZM44.6,28.86H41.9V50.27h-2V28.86H37.2v-2h2.7v-14h2v14h2.7v2Z"/><circle class="cls-3" cx="51.38" cy="59.39" r="12.13"/><rect class="cls-2" x="49.53" y="64.8" width="4" height="1.46"/><path class="cls-2" d="M58.48,62.54c-0.29-2.7-1.53-10.33-6.1-11.1V50.52H50.67v1c-3.73.81-5.17,6.26-5.69,9.65-0.09.56-.15,1-0.2,1.4H43.55v1.58H59.7V62.54H58.48Z"/></g><g id="reduction_key_rollover" data-name="reduction key rollover"><rect class="cls-1" width="69.5" height="77.66"/><path class="cls-4" d="M4,4V59.18H51.14V4H4ZM17.83,22.82h-2.7V50.27h-2V22.82H10.42v-2h2.7V12.9h2v7.92h2.7v2h0ZM31.27,41.61h-2.7v8.66h-2V41.61h-2.7v-2h2.7V12.9h2V39.61h2.7v2ZM44.6,28.86H41.9V50.27h-2V28.86H37.2v-2h2.7v-14h2v14h2.7v2Z"/><circle class="cls-3" cx="51.38" cy="59.39" r="12.13"/><rect class="cls-4" x="49.53" y="64.8" width="4" height="1.46"/><path class="cls-4" d="M58.48,62.54c-0.29-2.7-1.53-10.33-6.1-11.1V50.52H50.67v1c-3.73.81-5.17,6.26-5.69,9.65-0.09.56-.15,1-0.2,1.4H43.55v1.58H59.7V62.54H58.48Z"/></g><g id="reduction_key" data-name="reduction key"><rect class="cls-1" width="69.5" height="77.66"/><path class="cls-5" d="M4,4V59.18H51.14V4H4ZM17.83,22.82h-2.7V50.27h-2V22.82H10.42v-2h2.7V12.9h2v7.92h2.7v2h0ZM31.27,41.61h-2.7v8.66h-2V41.61h-2.7v-2h2.7V12.9h2V39.61h2.7v2ZM44.6,28.86H41.9V50.27h-2V28.86H37.2v-2h2.7v-14h2v14h2.7v2Z"/><circle class="cls-3" cx="51.38" cy="59.39" r="12.13"/><rect class="cls-5" x="49.53" y="64.8" width="4" height="1.46"/><path class="cls-5" d="M58.48,62.54c-0.29-2.7-1.53-10.33-6.1-11.1V50.52H50.67v1c-3.73.81-5.17,6.26-5.69,9.65-0.09.56-.15,1-0.2,1.4H43.55v1.58H59.7V62.54H58.48Z"/></g></g><g id="IP_service_icon" data-name="IP service icon"><g id="IP_service_active" data-name="IP service active"><rect class="cls-1" width="75.75" height="85.75"/><circle class="cls-2" cx="36.06" cy="37.75" r="3.88"/><circle class="cls-2" cx="64.25" cy="22.81" r="3.88"/><circle class="cls-2" cx="36.06" cy="7.88" r="3.88"/><circle class="cls-2" cx="64.25" cy="52.69" r="3.88"/><circle class="cls-2" cx="7.88" cy="22.81" r="3.88"/><circle class="cls-2" cx="7.88" cy="52.69" r="3.88"/><circle class="cls-2" cx="36.06" cy="67.63" r="3.88"/><line class="cls-6" x1="36.06" y1="7.88" x2="36.06" y2="67.63"/><line class="cls-6" x1="7.88" y1="22.81" x2="64.25" y2="52.69"/><line class="cls-6" x1="64.25" y1="22.81" x2="7.88" y2="52.69"/><line class="cls-6" x1="36.06" y1="7.88" x2="7.88" y2="22.81"/><line class="cls-6" x1="64.25" y1="22.81" x2="36.06" y2="7.88"/><line class="cls-6" x1="64.25" y1="52.69" x2="64.25" y2="22.81"/><line class="cls-6" x1="36.06" y1="67.63" x2="64.25" y2="52.69"/><line class="cls-6" x1="7.88" y1="52.69" x2="36.06" y2="67.63"/><line class="cls-6" x1="7.88" y1="22.81" x2="7.88" y2="52.69"/><line class="cls-6" x1="36.06" y1="7.88" x2="7.88" y2="52.69"/><line class="cls-6" x1="64.25" y1="52.69" x2="36.06" y2="7.88"/><line class="cls-6" x1="7.88" y1="22.81" x2="36.06" y2="67.63"/><line class="cls-6" x1="64.25" y1="22.81" x2="36.06" y2="67.63"/><circle class="cls-3" cx="54.4" cy="68.16" r="12.13"/><path class="cls-2" d="M63.14,70.24V66.08h-2a7,7,0,0,0-.5-1.2L62,63.45l-2.9-3-1.42,1.42a7,7,0,0,0-1.2-.5v-2H52.31v2a7,7,0,0,0-1.2.5L49.69,60.5l-3,3,1.42,1.42a7,7,0,0,0-.5,1.2h-2v4.17h2a7,7,0,0,0,.5,1.2l-1.42,1.42,3,2.95,1.42-1.42a7,7,0,0,0,1.2.5v2h4.17v-2a7,7,0,0,0,1.2-.5l1.42,1.42L62,72.87l-1.42-1.42a7,7,0,0,0,.5-1.2h2.06ZM54.4,71a2.8,2.8,0,1,1,2.8-2.8A2.8,2.8,0,0,1,54.4,71h0Z"/></g><g id="IP_service_rollover" data-name="IP service rollover"><rect class="cls-1" width="75.75" height="85.75"/><circle class="cls-4" cx="36.06" cy="37.75" r="3.88"/><circle class="cls-4" cx="64.25" cy="22.81" r="3.88"/><circle class="cls-4" cx="36.06" cy="7.88" r="3.88"/><circle class="cls-4" cx="64.25" cy="52.69" r="3.88"/><circle class="cls-4" cx="7.88" cy="22.81" r="3.88"/><circle class="cls-4" cx="7.88" cy="52.69" r="3.88"/><circle class="cls-4" cx="36.06" cy="67.63" r="3.88"/><line class="cls-7" x1="36.06" y1="7.88" x2="36.06" y2="67.63"/><line class="cls-7" x1="7.88" y1="22.81" x2="64.25" y2="52.69"/><line class="cls-7" x1="64.25" y1="22.81" x2="7.88" y2="52.69"/><line class="cls-7" x1="36.06" y1="7.88" x2="7.88" y2="22.81"/><line class="cls-7" x1="64.25" y1="22.81" x2="36.06" y2="7.88"/><line class="cls-7" x1="64.25" y1="52.69" x2="64.25" y2="22.81"/><line class="cls-7" x1="36.06" y1="67.63" x2="64.25" y2="52.69"/><line class="cls-7" x1="7.88" y1="52.69" x2="36.06" y2="67.63"/><line class="cls-7" x1="7.88" y1="22.81" x2="7.88" y2="52.69"/><line class="cls-7" x1="36.06" y1="7.88" x2="7.88" y2="52.69"/><line class="cls-7" x1="64.25" y1="52.69" x2="36.06" y2="7.88"/><line class="cls-7" x1="7.88" y1="22.81" x2="36.06" y2="67.63"/><line class="cls-7" x1="64.25" y1="22.81" x2="36.06" y2="67.63"/><circle class="cls-3" cx="54.4" cy="68.16" r="12.13"/><path class="cls-4" d="M63.14,70.24V66.08h-2a7,7,0,0,0-.5-1.2L62,63.45l-2.9-3-1.42,1.42a7,7,0,0,0-1.2-.5v-2H52.31v2a7,7,0,0,0-1.2.5L49.69,60.5l-3,3,1.42,1.42a7,7,0,0,0-.5,1.2h-2v4.17h2a7,7,0,0,0,.5,1.2l-1.42,1.42,3,2.95,1.42-1.42a7,7,0,0,0,1.2.5v2h4.17v-2a7,7,0,0,0,1.2-.5l1.42,1.42L62,72.87l-1.42-1.42a7,7,0,0,0,.5-1.2h2.06ZM54.4,71a2.8,2.8,0,1,1,2.8-2.8A2.8,2.8,0,0,1,54.4,71h0Z"/></g><g id="IP_service" data-name="IP service"><rect class="cls-1" width="75.75" height="85.75"/><circle class="cls-5" cx="36.06" cy="37.75" r="3.88"/><circle class="cls-5" cx="64.25" cy="22.81" r="3.88"/><circle class="cls-5" cx="36.06" cy="7.88" r="3.88"/><circle class="cls-5" cx="64.25" cy="52.69" r="3.88"/><circle class="cls-5" cx="7.88" cy="22.81" r="3.88"/><circle class="cls-5" cx="7.88" cy="52.69" r="3.88"/><circle class="cls-5" cx="36.06" cy="67.63" r="3.88"/><line class="cls-8" x1="36.06" y1="7.88" x2="36.06" y2="67.63"/><line class="cls-8" x1="7.88" y1="22.81" x2="64.25" y2="52.69"/><line class="cls-8" x1="64.25" y1="22.81" x2="7.88" y2="52.69"/><line class="cls-8" x1="36.06" y1="7.88" x2="7.88" y2="22.81"/><line class="cls-8" x1="64.25" y1="22.81" x2="36.06" y2="7.88"/><line class="cls-8" x1="64.25" y1="52.69" x2="64.25" y2="22.81"/><line class="cls-8" x1="36.06" y1="67.63" x2="64.25" y2="52.69"/><line class="cls-8" x1="7.88" y1="52.69" x2="36.06" y2="67.63"/><line class="cls-8" x1="7.88" y1="22.81" x2="7.88" y2="52.69"/><line class="cls-8" x1="36.06" y1="7.88" x2="7.88" y2="52.69"/><line class="cls-8" x1="64.25" y1="52.69" x2="36.06" y2="7.88"/><line class="cls-8" x1="7.88" y1="22.81" x2="36.06" y2="67.63"/><line class="cls-8" x1="64.25" y1="22.81" x2="36.06" y2="67.63"/><circle class="cls-3" cx="54.4" cy="68.16" r="12.13"/><path class="cls-5" d="M63.14,70.24V66.08h-2a7,7,0,0,0-.5-1.2L62,63.45l-2.9-3-1.42,1.42a7,7,0,0,0-1.2-.5v-2H52.31v2a7,7,0,0,0-1.2.5L49.69,60.5l-3,3,1.42,1.42a7,7,0,0,0-.5,1.2h-2v4.17h2a7,7,0,0,0,.5,1.2l-1.42,1.42,3,2.95,1.42-1.42a7,7,0,0,0,1.2.5v2h4.17v-2a7,7,0,0,0,1.2-.5l1.42,1.42L62,72.87l-1.42-1.42a7,7,0,0,0,.5-1.2h2.06ZM54.4,71a2.8,2.8,0,1,1,2.8-2.8A2.8,2.8,0,0,1,54.4,71h0Z"/></g></g><g id="business_service_icon" data-name="business service icon"><g id="business_service_active" data-name="business service active"><rect class="cls-1" width="77" height="69"/><path class="cls-2" d="M42.65,11V4H20.86v7H4V30H59.51V11H42.65ZM24.31,7.42H39.2V11H24.31V7.42Z"/><rect class="cls-2" x="28.19" y="32" width="7.13" height="3.62"/><polygon class="cls-2" points="37.32 32 37.32 37.62 26.19 37.62 26.19 32 4 32 4 54.67 59.51 54.67 59.51 32 37.32 32"/><circle class="cls-3" cx="59.93" cy="51.29" r="12.13"/><path class="cls-2" d="M68.67,53.38V49.21h-2a7,7,0,0,0-.5-1.2l1.42-1.42-3-3-1.42,1.42a7,7,0,0,0-1.2-.5v-2H57.85v2a7,7,0,0,0-1.2.5l-1.42-1.42-3,3L53.7,48a7,7,0,0,0-.5,1.2h-2v4.17h2a7,7,0,0,0,.5,1.2L52.28,56l3,3,1.42-1.42a7,7,0,0,0,1.2.5v2H62V58a7,7,0,0,0,1.2-.5l1.42,1.42,3-2.92-1.42-1.42a7,7,0,0,0,.5-1.2h2Zm-8.74.72a2.8,2.8,0,1,1,2.8-2.8h0A2.8,2.8,0,0,1,59.93,54.1Z"/></g><g id="business_service_rollover" data-name="business service rollover"><rect class="cls-1" width="77" height="69"/><path class="cls-4" d="M42.65,11V4H20.86v7H4V30H59.51V11H42.65ZM24.31,7.42H39.2V11H24.31V7.42Z"/><rect class="cls-4" x="28.19" y="32" width="7.13" height="3.62"/><polygon class="cls-4" points="37.32 32 37.32 37.62 26.19 37.62 26.19 32 4 32 4 54.67 59.51 54.67 59.51 32 37.32 32"/><circle class="cls-3" cx="59.93" cy="51.29" r="12.13"/><path class="cls-4" d="M68.67,53.38V49.21h-2a7,7,0,0,0-.5-1.2l1.42-1.42-3-3-1.42,1.42a7,7,0,0,0-1.2-.5v-2H57.85v2a7,7,0,0,0-1.2.5l-1.42-1.42-3,3L53.7,48a7,7,0,0,0-.5,1.2h-2v4.17h2a7,7,0,0,0,.5,1.2L52.28,56l3,3,1.42-1.42a7,7,0,0,0,1.2.5v2H62V58a7,7,0,0,0,1.2-.5l1.42,1.42,3-2.92-1.42-1.42a7,7,0,0,0,.5-1.2h2Zm-8.74.72a2.8,2.8,0,1,1,2.8-2.8h0A2.8,2.8,0,0,1,59.93,54.1Z"/></g><g id="business_service" data-name="business service"><rect class="cls-1" width="77" height="69"/><path class="cls-5" d="M42.65,11V4H20.86v7H4V30H59.51V11H42.65ZM24.31,7.42H39.2V11H24.31V7.42Z"/><rect class="cls-5" x="28.19" y="32" width="7.13" height="3.62"/><polygon class="cls-5" points="37.32 32 37.32 37.62 26.19 37.62 26.19 32 4 32 4 54.67 59.51 54.67 59.51 32 37.32 32"/><circle class="cls-3" cx="59.93" cy="51.29" r="12.13"/><path class="cls-5" d="M68.67,53.38V49.21h-2a7,7,0,0,0-.5-1.2l1.42-1.42-3-3-1.42,1.42a7,7,0,0,0-1.2-.5v-2H57.85v2a7,7,0,0,0-1.2.5l-1.42-1.42-3,3L53.7,48a7,7,0,0,0-.5,1.2h-2v4.17h2a7,7,0,0,0,.5,1.2L52.28,56l3,3,1.42-1.42a7,7,0,0,0,1.2.5v2H62V58a7,7,0,0,0,1.2-.5l1.42,1.42,3-2.92-1.42-1.42a7,7,0,0,0,.5-1.2h2Zm-8.74.72a2.8,2.8,0,1,1,2.8-2.8h0A2.8,2.8,0,0,1,59.93,54.1Z"/></g></g></svg>
