<svg id="Icons" xmlns="http://www.w3.org/2000/svg" viewBox="0 0 100 100"><defs><style>.cls-1,.cls-7,.cls-9{fill:#fff;}.cls-2,.cls-3{fill:#09a8d3;}.cls-3,.cls-5{stroke:#fff;}.cls-3,.cls-5,.cls-6,.cls-7,.cls-8,.cls-9{stroke-miterlimit:10;}.cls-3,.cls-5,.cls-7,.cls-9{stroke-width:2px;}.cls-4,.cls-5{fill:#505154;}.cls-6,.cls-8{fill:none;stroke-width:1.5px;}.cls-6,.cls-7{stroke:#09a8d3;}.cls-8,.cls-9{stroke:#505154;}</style></defs><title>BSM icons new</title><g id="reduction_key_icon" data-name="reduction_key icon"><g id="reduction_key_active" data-name="reduction_key active"><rect class="cls-1" width="100" height="100"/><rect class="cls-2" x="6" y="8.9" width="88" height="82.2"/><polygon class="cls-1" points="63.2 73.6 14.6 73.6 14.6 77.1 63.2 77.1 63.2 81.8 66.7 81.8 66.7 77.1 86.6 77.1 86.6 73.6 66.7 73.6 66.7 68.9 63.2 68.9 63.2 73.6"/><polygon class="cls-1" points="79.2 18.1 79.2 22.8 14.6 22.8 14.6 26.3 79.2 26.3 79.2 31 82.7 31 82.7 26.3 86.7 26.3 86.7 22.8 82.7 22.8 82.7 18.1 79.2 18.1"/><polygon class="cls-1" points="72.1 43.5 72.1 48.2 56.5 48.2 56.5 51.7 72.1 51.7 72.1 56.4 75.6 56.4 75.6 51.7 86.6 51.7 86.6 48.2 75.6 48.2 75.6 43.5 72.1 43.5"/><circle class="cls-3" cx="32.2" cy="50" r="17.6"/><rect class="cls-1" x="29.5" y="57.8" width="5.8" height="2.1"/><path class="cls-1" d="M42.5,54.5c-0.4-3.9-2.2-15-8.8-16.1V37.1H31.2v1.4c-5.4,1.2-7.5,9.1-8.2,14-0.1.8-.2,1.4-0.3,2H20.9v2.3H44.3V54.5H42.5Z"/></g><g id="reduction_key_rollover" data-name="reduction_key rollover"><rect class="cls-1" width="100" height="100"/><rect class="cls-2" x="6" y="8.9" width="88" height="82.2"/><polygon class="cls-1" points="63.2 73.6 14.6 73.6 14.6 77.1 63.2 77.1 63.2 81.8 66.7 81.8 66.7 77.1 86.6 77.1 86.6 73.6 66.7 73.6 66.7 68.9 63.2 68.9 63.2 73.6"/><polygon class="cls-1" points="79.2 18.1 79.2 22.8 14.6 22.8 14.6 26.3 79.2 26.3 79.2 31 82.7 31 82.7 26.3 86.7 26.3 86.7 22.8 82.7 22.8 82.7 18.1 79.2 18.1"/><polygon class="cls-1" points="72.1 43.5 72.1 48.2 56.5 48.2 56.5 51.7 72.1 51.7 72.1 56.4 75.6 56.4 75.6 51.7 86.6 51.7 86.6 48.2 75.6 48.2 75.6 43.5 72.1 43.5"/><circle class="cls-3" cx="32.2" cy="50" r="17.6"/><rect class="cls-1" x="29.5" y="57.8" width="5.8" height="2.1"/><path class="cls-1" d="M42.5,54.5c-0.4-3.9-2.2-15-8.8-16.1V37.1H31.2v1.4c-5.4,1.2-7.5,9.1-8.2,14-0.1.8-.2,1.4-0.3,2H20.9v2.3H44.3V54.5H42.5Z"/></g><g id="reduction_key"><rect class="cls-1" width="100" height="100"/><rect class="cls-4" x="6" y="8.9" width="88" height="82.2"/><polygon class="cls-1" points="63.2 73.6 14.6 73.6 14.6 77.1 63.2 77.1 63.2 81.8 66.7 81.8 66.7 77.1 86.6 77.1 86.6 73.6 66.7 73.6 66.7 68.9 63.2 68.9 63.2 73.6"/><polygon class="cls-1" points="79.2 18.1 79.2 22.8 14.6 22.8 14.6 26.3 79.2 26.3 79.2 31 82.7 31 82.7 26.3 86.7 26.3 86.7 22.8 82.7 22.8 82.7 18.1 79.2 18.1"/><polygon class="cls-1" points="72.1 43.5 72.1 48.2 56.5 48.2 56.5 51.7 72.1 51.7 72.1 56.4 75.6 56.4 75.6 51.7 86.6 51.7 86.6 48.2 75.6 48.2 75.6 43.5 72.1 43.5"/><circle class="cls-5" cx="32.2" cy="50" r="17.6"/><rect class="cls-1" x="29.5" y="57.8" width="5.8" height="2.1"/><path class="cls-1" d="M42.5,54.5c-0.4-3.9-2.2-15-8.8-16.1V37.1H31.2v1.4c-5.4,1.2-7.5,9.1-8.2,14-0.1.8-.2,1.4-0.3,2H20.9v2.3H44.3V54.5H42.5Z"/></g></g><g id="IP_service_icon" data-name="IP service icon"><g id="IP_service_active" data-name="IP service active"><rect class="cls-1" width="100" height="100"/><circle class="cls-2" cx="85.9" cy="31" r="4.9"/><circle class="cls-2" cx="50" cy="12" r="4.9"/><circle class="cls-2" cx="85.9" cy="68.9" r="4.9"/><circle class="cls-2" cx="14.2" cy="31" r="4.9"/><circle class="cls-2" cx="14.2" cy="68.9" r="4.9"/><circle class="cls-2" cx="50" cy="87.9" r="4.9"/><line class="cls-6" x1="50" y1="12" x2="50" y2="87.9"/><line class="cls-6" x1="14.2" y1="31" x2="85.9" y2="68.9"/><line class="cls-6" x1="85.9" y1="31" x2="14.2" y2="68.9"/><line class="cls-6" x1="50" y1="12" x2="14.2" y2="31"/><line class="cls-6" x1="85.9" y1="31" x2="50" y2="12"/><line class="cls-6" x1="85.9" y1="68.9" x2="85.9" y2="31"/><line class="cls-6" x1="50" y1="87.9" x2="85.9" y2="68.9"/><line class="cls-6" x1="14.2" y1="68.9" x2="50" y2="87.9"/><line class="cls-6" x1="14.2" y1="31" x2="14.2" y2="68.9"/><line class="cls-6" x1="50" y1="12" x2="14.2" y2="68.9"/><line class="cls-6" x1="85.9" y1="68.9" x2="50" y2="12"/><line class="cls-6" x1="14.2" y1="31" x2="50" y2="87.9"/><line class="cls-6" x1="85.9" y1="31" x2="50" y2="87.9"/><circle class="cls-7" cx="50" cy="50" r="15.4"/><path class="cls-2" d="M61.1,52.6V47.3H58.6L58,45.8,59.7,44,56,40.2,54.2,42a4.71,4.71,0,0,0-1.5-.6V38.9H47.4v2.4l-1.5.6-1.8-1.7L40.3,44l1.8,1.8a4.71,4.71,0,0,0-.6,1.5H39v5.3h2.5l0.6,1.5-1.8,1.8,3.8,3.7,1.8-1.8a4.71,4.71,0,0,0,1.5.6v2.5h5.3V58.4l1.5-.6L56,59.6l3.7-3.8L57.9,54a4.71,4.71,0,0,0,.6-1.5l2.6,0.1h0ZM50,53.6A3.6,3.6,0,1,1,53.6,50,3.59,3.59,0,0,1,50,53.6h0Z"/></g><g id="IP_service_rollover" data-name="IP service rollover"><rect class="cls-1" width="100" height="100"/><circle class="cls-2" cx="85.9" cy="31" r="4.9"/><circle class="cls-2" cx="50" cy="12" r="4.9"/><circle class="cls-2" cx="85.9" cy="68.9" r="4.9"/><circle class="cls-2" cx="14.2" cy="31" r="4.9"/><circle class="cls-2" cx="14.2" cy="68.9" r="4.9"/><circle class="cls-2" cx="50" cy="87.9" r="4.9"/><line class="cls-6" x1="50" y1="12" x2="50" y2="87.9"/><line class="cls-6" x1="14.2" y1="31" x2="85.9" y2="68.9"/><line class="cls-6" x1="85.9" y1="31" x2="14.2" y2="68.9"/><line class="cls-6" x1="50" y1="12" x2="14.2" y2="31"/><line class="cls-6" x1="85.9" y1="31" x2="50" y2="12"/><line class="cls-6" x1="85.9" y1="68.9" x2="85.9" y2="31"/><line class="cls-6" x1="50" y1="87.9" x2="85.9" y2="68.9"/><line class="cls-6" x1="14.2" y1="68.9" x2="50" y2="87.9"/><line class="cls-6" x1="14.2" y1="31" x2="14.2" y2="68.9"/><line class="cls-6" x1="50" y1="12" x2="14.2" y2="68.9"/><line class="cls-6" x1="85.9" y1="68.9" x2="50" y2="12"/><line class="cls-6" x1="14.2" y1="31" x2="50" y2="87.9"/><line class="cls-6" x1="85.9" y1="31" x2="50" y2="87.9"/><circle class="cls-7" cx="50" cy="50" r="15.4"/><path class="cls-2" d="M61.1,52.6V47.3H58.6L58,45.8,59.7,44,56,40.2,54.2,42a4.71,4.71,0,0,0-1.5-.6V38.9H47.4v2.4l-1.5.6-1.8-1.7L40.3,44l1.8,1.8a4.71,4.71,0,0,0-.6,1.5H39v5.3h2.5l0.6,1.5-1.8,1.8,3.8,3.7,1.8-1.8a4.71,4.71,0,0,0,1.5.6v2.5h5.3V58.4l1.5-.6L56,59.6l3.7-3.8L57.9,54a4.71,4.71,0,0,0,.6-1.5l2.6,0.1h0ZM50,53.6A3.6,3.6,0,1,1,53.6,50,3.59,3.59,0,0,1,50,53.6h0Z"/></g><g id="IP_service" data-name="IP service"><rect class="cls-1" width="100" height="100"/><circle class="cls-4" cx="85.9" cy="31" r="4.9"/><circle class="cls-4" cx="50" cy="12" r="4.9"/><circle class="cls-4" cx="85.9" cy="68.9" r="4.9"/><circle class="cls-4" cx="14.2" cy="31" r="4.9"/><circle class="cls-4" cx="14.2" cy="68.9" r="4.9"/><circle class="cls-4" cx="50" cy="87.9" r="4.9"/><line class="cls-8" x1="50" y1="12" x2="50" y2="87.9"/><line class="cls-8" x1="14.2" y1="31" x2="85.9" y2="68.9"/><line class="cls-8" x1="85.9" y1="31" x2="14.2" y2="68.9"/><line class="cls-8" x1="50" y1="12" x2="14.2" y2="31"/><line class="cls-8" x1="85.9" y1="31" x2="50" y2="12"/><line class="cls-8" x1="85.9" y1="68.9" x2="85.9" y2="31"/><line class="cls-8" x1="50" y1="87.9" x2="85.9" y2="68.9"/><line class="cls-8" x1="14.2" y1="68.9" x2="50" y2="87.9"/><line class="cls-8" x1="14.2" y1="31" x2="14.2" y2="68.9"/><line class="cls-8" x1="50" y1="12" x2="14.2" y2="68.9"/><line class="cls-8" x1="85.9" y1="68.9" x2="50" y2="12"/><line class="cls-8" x1="14.2" y1="31" x2="50" y2="87.9"/><line class="cls-8" x1="85.9" y1="31" x2="50" y2="87.9"/><circle class="cls-9" cx="50" cy="50" r="15.4"/><path class="cls-4" d="M61.1,52.6V47.3H58.6L58,45.8,59.7,44,56,40.2,54.2,42a4.71,4.71,0,0,0-1.5-.6V38.9H47.4v2.4l-1.5.6-1.8-1.7L40.3,44l1.8,1.8a4.71,4.71,0,0,0-.6,1.5H39v5.3h2.5l0.6,1.5-1.8,1.8,3.8,3.7,1.8-1.8a4.71,4.71,0,0,0,1.5.6v2.5h5.3V58.4l1.5-.6L56,59.6l3.7-3.8L57.9,54a4.71,4.71,0,0,0,.6-1.5l2.6,0.1h0ZM50,53.6A3.6,3.6,0,1,1,53.6,50,3.59,3.59,0,0,1,50,53.6h0Z"/></g></g><g id="business_service_icon" data-name="business service icon"><g id="business_service_active" data-name="business service active"><rect class="cls-1" width="100" height="100"/><path class="cls-2" d="M67.5,20.6V9.4h-35V20.6H5.5V51H94.4V20.6H67.5ZM38.1,14.9H62v5.7H38.1V14.9Z"/><polygon class="cls-2" points="58.9 54.2 58.9 63.2 41.1 63.2 41.1 54.2 5.5 54.2 5.5 90.6 94.5 90.6 94.5 54.2 58.9 54.2"/><circle class="cls-3" cx="50" cy="56.1" r="15.3"/><path class="cls-1" d="M61,58.7V53.4H58.5l-0.6-1.5,1.8-1.8-3.8-3.8-1.8,1.8a4.71,4.71,0,0,0-1.5-.6V45H47.4v2.5l-1.5.6-1.8-1.8-3.8,3.8,1.9,1.8a4.71,4.71,0,0,0-.6,1.5H39.1v5.3h2.5l0.6,1.5L40.4,62l3.8,3.8L46,64a4.71,4.71,0,0,0,1.5.6v2.5h5.2V64.5l1.5-.6L56,65.7,59.8,62,58,60.2a4.71,4.71,0,0,0,.6-1.5H61Zm-11,.9a3.5,3.5,0,1,1,3.5-3.5h0A3.48,3.48,0,0,1,50,59.6Z"/></g><g id="business_service_rollover" data-name="business service rollover"><rect class="cls-1" width="100" height="100"/><path class="cls-2" d="M67.5,20.6V9.4h-35V20.6H5.5V51H94.4V20.6H67.5ZM38.1,14.9H62v5.7H38.1V14.9Z"/><polygon class="cls-2" points="58.9 54.2 58.9 63.2 41.1 63.2 41.1 54.2 5.5 54.2 5.5 90.6 94.5 90.6 94.5 54.2 58.9 54.2"/><circle class="cls-3" cx="50" cy="56.1" r="15.3"/><path class="cls-1" d="M61,58.7V53.4H58.5l-0.6-1.5,1.8-1.8-3.8-3.8-1.8,1.8a4.71,4.71,0,0,0-1.5-.6V45H47.4v2.5l-1.5.6-1.8-1.8-3.8,3.8,1.9,1.8a4.71,4.71,0,0,0-.6,1.5H39.1v5.3h2.5l0.6,1.5L40.4,62l3.8,3.8L46,64a4.71,4.71,0,0,0,1.5.6v2.5h5.2V64.5l1.5-.6L56,65.7,59.8,62,58,60.2a4.71,4.71,0,0,0,.6-1.5H61Zm-11,.9a3.5,3.5,0,1,1,3.5-3.5h0A3.48,3.48,0,0,1,50,59.6Z"/></g><g id="business_service" data-name="business service"><rect class="cls-1" width="100" height="100"/><path class="cls-4" d="M67.5,20.6V9.4h-35V20.6H5.5V51H94.4V20.6H67.5ZM38.1,14.9H62v5.7H38.1V14.9Z"/><polygon class="cls-4" points="58.9 54.2 58.9 63.2 41.1 63.2 41.1 54.2 5.5 54.2 5.5 90.6 94.5 90.6 94.5 54.2 58.9 54.2"/><circle class="cls-5" cx="50" cy="56.1" r="15.3"/><path class="cls-1" d="M61,58.7V53.4H58.5l-0.6-1.5,1.8-1.8-3.8-3.8-1.8,1.8a4.71,4.71,0,0,0-1.5-.6V45H47.4v2.5l-1.5.6-1.8-1.8-3.8,3.8,1.9,1.8a4.71,4.71,0,0,0-.6,1.5H39.1v5.3h2.5l0.6,1.5L40.4,62l3.8,3.8L46,64a4.71,4.71,0,0,0,1.5.6v2.5h5.2V64.5l1.5-.6L56,65.7,59.8,62,58,60.2a4.71,4.71,0,0,0,.6-1.5H61Zm-11,.9a3.5,3.5,0,1,1,3.5-3.5h0A3.48,3.48,0,0,1,50,59.6Z"/></g></g></svg>