<?xml version="1.0" encoding="utf-8"?>
<!-- Generator: Adobe Illustrator 19.2.1, SVG Export Plug-In . SVG Version: 6.00 Build 0)  -->
<svg version="1.1" id="default-icons" xmlns="http://www.w3.org/2000/svg" xmlns:xlink="http://www.w3.org/1999/xlink" x="0px"
	 y="0px" viewBox="0 0 100 100" style="enable-background:new 0 0 100 100;" xml:space="preserve">
<style type="text/css">
	.st0{fill:#FFFFFF;}
	.st1{fill:#09A8D3;}
	.st2{fill:#09A8D3;stroke:#FFFFFF;stroke-width:2;stroke-miterlimit:10;}
	.st3{fill:#505154;}
	.st4{fill:#505154;stroke:#FFFFFF;stroke-width:2;stroke-miterlimit:10;}
	.st5{fill:none;stroke:#09A8D3;stroke-width:1.5;stroke-miterlimit:10;}
	.st6{fill:#FFFFFF;stroke:#09A8D3;stroke-width:2;stroke-miterlimit:10;}
	.st7{fill:none;stroke:#505154;stroke-width:1.5;stroke-miterlimit:10;}
	.st8{fill:#FFFFFF;stroke:#505154;stroke-width:2;stroke-miterlimit:10;}
	.st9{fill:#FFFFFF;stroke:#09A8D3;stroke-miterlimit:10;}
	.st10{fill:#FFFFFF;stroke:#505154;stroke-miterlimit:10;}
	.st11{fill:#FFFFFF;stroke:#09A8D3;stroke-width:0.5;stroke-miterlimit:10;}
	.st12{fill:#FFFFFF;stroke:#505154;stroke-width:0.5;stroke-miterlimit:10;}
	.st13{fill:none;}
	.st14{fill:#FFFFFF;stroke:#FFFFFF;stroke-miterlimit:10;}
	.st15{fill:#3FA9F5;}
	.st16{fill:#FFFFFF;stroke:#3FA9F5;stroke-miterlimit:10;}
</style>
<g id="reduction_key_icon">
	<g id="reduction_key_active">
		<rect y="0" class="st0" width="100" height="100"/>
		<rect x="6" y="8.9" class="st1" width="88" height="82.2"/>
		<polygon class="st0" points="63.2,73.6 14.6,73.6 14.6,77.1 63.2,77.1 63.2,81.8 66.7,81.8 66.7,77.1 86.6,77.1 86.6,73.6
			66.7,73.6 66.7,68.9 63.2,68.9 		"/>
		<polygon class="st0" points="79.2,18.1 79.2,22.8 14.6,22.8 14.6,26.3 79.2,26.3 79.2,31 82.7,31 82.7,26.3 86.7,26.3 86.7,22.8
			82.7,22.8 82.7,18.1 		"/>
		<polygon class="st0" points="72.1,43.5 72.1,48.2 56.5,48.2 56.5,51.7 72.1,51.7 72.1,56.4 75.6,56.4 75.6,51.7 86.6,51.7
			86.6,48.2 75.6,48.2 75.6,43.5 		"/>
		<circle class="st2" cx="32.2" cy="50" r="17.6"/>
		<rect x="29.5" y="57.8" class="st0" width="5.8" height="2.1"/>
		<path class="st0" d="M42.5,54.5c-0.4-3.9-2.2-15-8.8-16.1v-1.3h-2.5v1.4c-5.4,1.2-7.5,9.1-8.2,14c-0.1,0.8-0.2,1.4-0.3,2h-1.8v2.3
			h23.4v-2.3H42.5z"/>
	</g>
	<g id="reduction_key_rollover">
		<rect y="0" class="st0" width="100" height="100"/>
		<rect x="6" y="8.9" class="st1" width="88" height="82.2"/>
		<polygon class="st0" points="63.2,73.6 14.6,73.6 14.6,77.1 63.2,77.1 63.2,81.8 66.7,81.8 66.7,77.1 86.6,77.1 86.6,73.6
			66.7,73.6 66.7,68.9 63.2,68.9 		"/>
		<polygon class="st0" points="79.2,18.1 79.2,22.8 14.6,22.8 14.6,26.3 79.2,26.3 79.2,31 82.7,31 82.7,26.3 86.7,26.3 86.7,22.8
			82.7,22.8 82.7,18.1 		"/>
		<polygon class="st0" points="72.1,43.5 72.1,48.2 56.5,48.2 56.5,51.7 72.1,51.7 72.1,56.4 75.6,56.4 75.6,51.7 86.6,51.7
			86.6,48.2 75.6,48.2 75.6,43.5 		"/>
		<circle class="st2" cx="32.2" cy="50" r="17.6"/>
		<rect x="29.5" y="57.8" class="st0" width="5.8" height="2.1"/>
		<path class="st0" d="M42.5,54.5c-0.4-3.9-2.2-15-8.8-16.1v-1.3h-2.5v1.4c-5.4,1.2-7.5,9.1-8.2,14c-0.1,0.8-0.2,1.4-0.3,2h-1.8v2.3
			h23.4v-2.3H42.5z"/>
	</g>
	<g id="reduction_key">
		<rect y="0" class="st0" width="100" height="100"/>
		<rect x="6" y="8.9" class="st3" width="88" height="82.2"/>
		<polygon class="st0" points="63.2,73.6 14.6,73.6 14.6,77.1 63.2,77.1 63.2,81.8 66.7,81.8 66.7,77.1 86.6,77.1 86.6,73.6
			66.7,73.6 66.7,68.9 63.2,68.9 		"/>
		<polygon class="st0" points="79.2,18.1 79.2,22.8 14.6,22.8 14.6,26.3 79.2,26.3 79.2,31 82.7,31 82.7,26.3 86.7,26.3 86.7,22.8
			82.7,22.8 82.7,18.1 		"/>
		<polygon class="st0" points="72.1,43.5 72.1,48.2 56.5,48.2 56.5,51.7 72.1,51.7 72.1,56.4 75.6,56.4 75.6,51.7 86.6,51.7
			86.6,48.2 75.6,48.2 75.6,43.5 		"/>
		<circle class="st4" cx="32.2" cy="50" r="17.6"/>
		<rect x="29.5" y="57.8" class="st0" width="5.8" height="2.1"/>
		<path class="st0" d="M42.5,54.5c-0.4-3.9-2.2-15-8.8-16.1v-1.3h-2.5v1.4c-5.4,1.2-7.5,9.1-8.2,14c-0.1,0.8-0.2,1.4-0.3,2h-1.8v2.3
			h23.4v-2.3H42.5z"/>
	</g>
</g>
<g id="IP_service_icon">
	<g id="IP_service_active">
		<rect y="0" class="st0" width="100" height="100"/>
		<circle class="st1" cx="85.9" cy="31" r="4.9"/>
		<circle class="st1" cx="50" cy="12" r="4.9"/>
		<circle class="st1" cx="85.9" cy="68.9" r="4.9"/>
		<circle class="st1" cx="14.2" cy="31" r="4.9"/>
		<circle class="st1" cx="14.2" cy="68.9" r="4.9"/>
		<circle class="st1" cx="50" cy="87.9" r="4.9"/>
		<line class="st5" x1="50" y1="12" x2="50" y2="87.9"/>
		<line class="st5" x1="14.2" y1="31" x2="85.9" y2="68.9"/>
		<line class="st5" x1="85.9" y1="31" x2="14.2" y2="68.9"/>
		<line class="st5" x1="50" y1="12" x2="14.2" y2="31"/>
		<line class="st5" x1="85.9" y1="31" x2="50" y2="12"/>
		<line class="st5" x1="85.9" y1="68.9" x2="85.9" y2="31"/>
		<line class="st5" x1="50" y1="87.9" x2="85.9" y2="68.9"/>
		<line class="st5" x1="14.2" y1="68.9" x2="50" y2="87.9"/>
		<line class="st5" x1="14.2" y1="31" x2="14.2" y2="68.9"/>
		<line class="st5" x1="50" y1="12" x2="14.2" y2="68.9"/>
		<line class="st5" x1="85.9" y1="68.9" x2="50" y2="12"/>
		<line class="st5" x1="14.2" y1="31" x2="50" y2="87.9"/>
		<line class="st5" x1="85.9" y1="31" x2="50" y2="87.9"/>
		<circle class="st6" cx="50" cy="50" r="15.4"/>
		<path class="st1" d="M61.1,52.6v-5.3h-2.5L58,45.8l1.7-1.8L56,40.2L54.2,42c-0.5-0.3-1-0.5-1.5-0.6v-2.5h-5.3v2.4l-1.5,0.6
			l-1.8-1.7L40.3,44l1.8,1.8c-0.3,0.5-0.5,1-0.6,1.5H39v5.3h2.5l0.6,1.5l-1.8,1.8l3.8,3.7l1.8-1.8c0.5,0.3,1,0.5,1.5,0.6v2.5h5.3
			v-2.5l1.5-0.6l1.8,1.8l3.7-3.8L57.9,54c0.3-0.5,0.5-1,0.6-1.5L61.1,52.6L61.1,52.6z M50,53.6c-2,0-3.6-1.6-3.6-3.6
			s1.6-3.6,3.6-3.6c2,0,3.6,1.6,3.6,3.6c0,0,0,0,0,0C53.6,52,52,53.6,50,53.6C50,53.6,50,53.6,50,53.6L50,53.6z"/>
	</g>
	<g id="IP_service_rollover">
		<rect y="0" class="st0" width="100" height="100"/>
		<circle class="st1" cx="85.9" cy="31" r="4.9"/>
		<circle class="st1" cx="50" cy="12" r="4.9"/>
		<circle class="st1" cx="85.9" cy="68.9" r="4.9"/>
		<circle class="st1" cx="14.2" cy="31" r="4.9"/>
		<circle class="st1" cx="14.2" cy="68.9" r="4.9"/>
		<circle class="st1" cx="50" cy="87.9" r="4.9"/>
		<line class="st5" x1="50" y1="12" x2="50" y2="87.9"/>
		<line class="st5" x1="14.2" y1="31" x2="85.9" y2="68.9"/>
		<line class="st5" x1="85.9" y1="31" x2="14.2" y2="68.9"/>
		<line class="st5" x1="50" y1="12" x2="14.2" y2="31"/>
		<line class="st5" x1="85.9" y1="31" x2="50" y2="12"/>
		<line class="st5" x1="85.9" y1="68.9" x2="85.9" y2="31"/>
		<line class="st5" x1="50" y1="87.9" x2="85.9" y2="68.9"/>
		<line class="st5" x1="14.2" y1="68.9" x2="50" y2="87.9"/>
		<line class="st5" x1="14.2" y1="31" x2="14.2" y2="68.9"/>
		<line class="st5" x1="50" y1="12" x2="14.2" y2="68.9"/>
		<line class="st5" x1="85.9" y1="68.9" x2="50" y2="12"/>
		<line class="st5" x1="14.2" y1="31" x2="50" y2="87.9"/>
		<line class="st5" x1="85.9" y1="31" x2="50" y2="87.9"/>
		<circle class="st6" cx="50" cy="50" r="15.4"/>
		<path class="st1" d="M61.1,52.6v-5.3h-2.5L58,45.8l1.7-1.8L56,40.2L54.2,42c-0.5-0.3-1-0.5-1.5-0.6v-2.5h-5.3v2.4l-1.5,0.6
			l-1.8-1.7L40.3,44l1.8,1.8c-0.3,0.5-0.5,1-0.6,1.5H39v5.3h2.5l0.6,1.5l-1.8,1.8l3.8,3.7l1.8-1.8c0.5,0.3,1,0.5,1.5,0.6v2.5h5.3
			v-2.5l1.5-0.6l1.8,1.8l3.7-3.8L57.9,54c0.3-0.5,0.5-1,0.6-1.5L61.1,52.6L61.1,52.6z M50,53.6c-2,0-3.6-1.6-3.6-3.6
			s1.6-3.6,3.6-3.6c2,0,3.6,1.6,3.6,3.6c0,0,0,0,0,0C53.6,52,52,53.6,50,53.6C50,53.6,50,53.6,50,53.6L50,53.6z"/>
	</g>
	<g id="IP_service">
		<rect y="0" class="st0" width="100" height="100"/>
		<circle class="st3" cx="85.9" cy="31" r="4.9"/>
		<circle class="st3" cx="50" cy="12" r="4.9"/>
		<circle class="st3" cx="85.9" cy="68.9" r="4.9"/>
		<circle class="st3" cx="14.2" cy="31" r="4.9"/>
		<circle class="st3" cx="14.2" cy="68.9" r="4.9"/>
		<circle class="st3" cx="50" cy="87.9" r="4.9"/>
		<line class="st7" x1="50" y1="12" x2="50" y2="87.9"/>
		<line class="st7" x1="14.2" y1="31" x2="85.9" y2="68.9"/>
		<line class="st7" x1="85.9" y1="31" x2="14.2" y2="68.9"/>
		<line class="st7" x1="50" y1="12" x2="14.2" y2="31"/>
		<line class="st7" x1="85.9" y1="31" x2="50" y2="12"/>
		<line class="st7" x1="85.9" y1="68.9" x2="85.9" y2="31"/>
		<line class="st7" x1="50" y1="87.9" x2="85.9" y2="68.9"/>
		<line class="st7" x1="14.2" y1="68.9" x2="50" y2="87.9"/>
		<line class="st7" x1="14.2" y1="31" x2="14.2" y2="68.9"/>
		<line class="st7" x1="50" y1="12" x2="14.2" y2="68.9"/>
		<line class="st7" x1="85.9" y1="68.9" x2="50" y2="12"/>
		<line class="st7" x1="14.2" y1="31" x2="50" y2="87.9"/>
		<line class="st7" x1="85.9" y1="31" x2="50" y2="87.9"/>
		<circle class="st8" cx="50" cy="50" r="15.4"/>
		<path class="st3" d="M61.1,52.6v-5.3h-2.5L58,45.8l1.7-1.8L56,40.2L54.2,42c-0.5-0.3-1-0.5-1.5-0.6v-2.5h-5.3v2.4l-1.5,0.6
			l-1.8-1.7L40.3,44l1.8,1.8c-0.3,0.5-0.5,1-0.6,1.5H39v5.3h2.5l0.6,1.5l-1.8,1.8l3.8,3.7l1.8-1.8c0.5,0.3,1,0.5,1.5,0.6v2.5h5.3
			v-2.5l1.5-0.6l1.8,1.8l3.7-3.8L57.9,54c0.3-0.5,0.5-1,0.6-1.5L61.1,52.6L61.1,52.6z M50,53.6c-2,0-3.6-1.6-3.6-3.6
			s1.6-3.6,3.6-3.6c2,0,3.6,1.6,3.6,3.6c0,0,0,0,0,0C53.6,52,52,53.6,50,53.6C50,53.6,50,53.6,50,53.6L50,53.6z"/>
	</g>
</g>
<g id="business_service_icon">
	<g id="business_service_active">
		<rect y="0" class="st0" width="100" height="100"/>
		<path class="st1" d="M67.5,20.6V9.4h-35v11.2h-27V51h88.9V20.6H67.5z M38.1,14.9H62v5.7H38.1V14.9z"/>
		<polygon class="st1" points="58.9,54.2 58.9,63.2 41.1,63.2 41.1,54.2 5.5,54.2 5.5,90.6 94.5,90.6 94.5,54.2 		"/>
		<circle class="st2" cx="50" cy="56.1" r="15.3"/>
		<path class="st0" d="M61,58.7v-5.3h-2.5l-0.6-1.5l1.8-1.8l-3.8-3.8l-1.8,1.8c-0.5-0.3-1-0.5-1.5-0.6V45h-5.2v2.5l-1.5,0.6
			l-1.8-1.8l-3.8,3.8l1.9,1.8c-0.3,0.5-0.5,1-0.6,1.5h-2.5v5.3h2.5l0.6,1.5L40.4,62l3.8,3.8L46,64c0.5,0.3,1,0.5,1.5,0.6v2.5h5.2
			v-2.6l1.5-0.6l1.8,1.8l3.8-3.7L58,60.2c0.3-0.5,0.5-1,0.6-1.5H61z M50,59.6c-1.9,0-3.5-1.6-3.5-3.5s1.6-3.5,3.5-3.5
			s3.5,1.6,3.5,3.5l0,0l0,0C53.5,58,52,59.6,50,59.6C50,59.6,50,59.6,50,59.6z"/>
	</g>
	<g id="business_service_rollover">
		<rect y="0" class="st0" width="100" height="100"/>
		<path class="st1" d="M67.5,20.6V9.4h-35v11.2h-27V51h88.9V20.6H67.5z M38.1,14.9H62v5.7H38.1V14.9z"/>
		<polygon class="st1" points="58.9,54.2 58.9,63.2 41.1,63.2 41.1,54.2 5.5,54.2 5.5,90.6 94.5,90.6 94.5,54.2 		"/>
		<circle class="st2" cx="50" cy="56.1" r="15.3"/>
		<path class="st0" d="M61,58.7v-5.3h-2.5l-0.6-1.5l1.8-1.8l-3.8-3.8l-1.8,1.8c-0.5-0.3-1-0.5-1.5-0.6V45h-5.2v2.5l-1.5,0.6
			l-1.8-1.8l-3.8,3.8l1.9,1.8c-0.3,0.5-0.5,1-0.6,1.5h-2.5v5.3h2.5l0.6,1.5L40.4,62l3.8,3.8L46,64c0.5,0.3,1,0.5,1.5,0.6v2.5h5.2
			v-2.6l1.5-0.6l1.8,1.8l3.8-3.7L58,60.2c0.3-0.5,0.5-1,0.6-1.5H61z M50,59.6c-1.9,0-3.5-1.6-3.5-3.5s1.6-3.5,3.5-3.5
			s3.5,1.6,3.5,3.5l0,0l0,0C53.5,58,52,59.6,50,59.6C50,59.6,50,59.6,50,59.6z"/>
	</g>
	<g id="business_service">
		<rect y="0" class="st0" width="100" height="100"/>
		<path class="st3" d="M67.5,20.6V9.4h-35v11.2h-27V51h88.9V20.6H67.5z M38.1,14.9H62v5.7H38.1V14.9z"/>
		<polygon class="st3" points="58.9,54.2 58.9,63.2 41.1,63.2 41.1,54.2 5.5,54.2 5.5,90.6 94.5,90.6 94.5,54.2 		"/>
		<circle class="st4" cx="50" cy="56.1" r="15.3"/>
		<path class="st0" d="M61,58.7v-5.3h-2.5l-0.6-1.5l1.8-1.8l-3.8-3.8l-1.8,1.8c-0.5-0.3-1-0.5-1.5-0.6V45h-5.2v2.5l-1.5,0.6
			l-1.8-1.8l-3.8,3.8l1.9,1.8c-0.3,0.5-0.5,1-0.6,1.5h-2.5v5.3h2.5l0.6,1.5L40.4,62l3.8,3.8L46,64c0.5,0.3,1,0.5,1.5,0.6v2.5h5.2
			v-2.6l1.5-0.6l1.8,1.8l3.8-3.7L58,60.2c0.3-0.5,0.5-1,0.6-1.5H61z M50,59.6c-1.9,0-3.5-1.6-3.5-3.5s1.6-3.5,3.5-3.5
			s3.5,1.6,3.5,3.5l0,0l0,0C53.5,58,52,59.6,50,59.6C50,59.6,50,59.6,50,59.6z"/>
	</g>
</g>
<g id="router_icon">
	<g id="router_active">
		<rect x="0" y="0" class="st0" width="100" height="100"/>
		<g>
			<circle class="st1" cx="50" cy="50" r="45"/>
			<polygon class="st0" points="26.1,41.6 43.8,43.8 41.6,26.1 37.1,30.6 27.7,21.2 21.2,27.7 30.6,37.1 			"/>
			<polygon class="st0" points="78.8,72.3 69.3,62.9 73.8,58.4 56.2,56.2 58.4,73.8 62.9,69.3 72.3,78.8 			"/>
			<polygon class="st0" points="40.6,52.9 31.2,62.4 26.7,57.9 24.4,75.6 42.1,73.3 37.6,68.8 47.1,59.4 			"/>
			<polygon class="st0" points="59.4,47.1 68.8,37.6 73.3,42.1 75.6,24.4 57.9,26.7 62.4,31.2 52.9,40.6 			"/>
		</g>
	</g>
	<g id="router_rollover">
		<polygon class="st0" points="60.4,46.8 70.9,36.3 75.9,41.3 78.4,21.6 58.7,24.1 63.7,29.1 53.2,39.6 		"/>
		<g>
			<circle class="st1" cx="50" cy="50" r="45"/>
			<polygon class="st0" points="26.1,41.6 43.8,43.8 41.6,26.1 37.1,30.6 27.7,21.2 21.2,27.7 30.6,37.1 			"/>
			<polygon class="st0" points="78.8,72.3 69.3,62.9 73.8,58.4 56.2,56.2 58.4,73.8 62.9,69.3 72.3,78.8 			"/>
			<polygon class="st0" points="40.6,52.9 31.2,62.4 26.7,57.9 24.4,75.6 42.1,73.3 37.6,68.8 47.1,59.4 			"/>
			<polygon class="st0" points="59.4,47.1 68.8,37.6 73.3,42.1 75.6,24.4 57.9,26.7 62.4,31.2 52.9,40.6 			"/>
		</g>
	</g>
	<g id="router">
		<rect y="0" class="st0" width="100" height="100"/>
		<g>
			<circle class="st3" cx="50" cy="50" r="45"/>
			<polygon class="st0" points="26.1,41.6 43.8,43.8 41.6,26.1 37.1,30.6 27.7,21.2 21.2,27.7 30.6,37.1 			"/>
			<polygon class="st0" points="78.8,72.3 69.3,62.9 73.8,58.4 56.2,56.2 58.4,73.8 62.9,69.3 72.3,78.8 			"/>
			<polygon class="st0" points="40.6,52.9 31.2,62.4 26.7,57.9 24.4,75.6 42.1,73.3 37.6,68.8 47.1,59.4 			"/>
			<polygon class="st0" points="59.4,47.1 68.8,37.6 73.3,42.1 75.6,24.4 57.9,26.7 62.4,31.2 52.9,40.6 			"/>
		</g>
	</g>
</g>
<g id="switch_icon">
	<g id="switch_active">
		<rect class="st0" width="100" height="100"/>
		<g>
			<rect x="5" y="6" class="st1" width="90" height="88"/>
			<polygon class="st0" points="33.2,17.5 18.3,29.1 33.2,40.7 33.2,33.9 46.1,33.9 46.1,24.3 33.2,24.3 			"/>
			<polygon class="st0" points="66.8,66.1 53.9,66.1 53.9,75.7 66.8,75.7 66.8,82.5 81.7,70.9 66.8,59.3 			"/>
			<polygon class="st0" points="66.8,54.6 81.7,43 66.8,31.5 66.8,38.2 53.9,38.2 53.9,47.9 66.8,47.9 			"/>
			<polygon class="st0" points="33.2,45.4 18.3,57 33.2,68.5 33.2,61.8 46.1,61.8 46.1,52.1 33.2,52.1 			"/>
		</g>
	</g>
	<g id="switch_rollover">
		<rect class="st0" width="100" height="100"/>
		<g>
			<rect x="5" y="6" class="st1" width="90" height="88"/>
			<polygon class="st0" points="33.2,17.5 18.3,29.1 33.2,40.7 33.2,33.9 46.1,33.9 46.1,24.3 33.2,24.3 			"/>
			<polygon class="st0" points="66.8,66.1 53.9,66.1 53.9,75.7 66.8,75.7 66.8,82.5 81.7,70.9 66.8,59.3 			"/>
			<polygon class="st0" points="66.8,54.6 81.7,43 66.8,31.5 66.8,38.2 53.9,38.2 53.9,47.9 66.8,47.9 			"/>
			<polygon class="st0" points="33.2,45.4 18.3,57 33.2,68.5 33.2,61.8 46.1,61.8 46.1,52.1 33.2,52.1 			"/>
		</g>
	</g>
	<g id="switch">
		<rect class="st0" width="100" height="100"/>
		<g>
			<rect x="5" y="6" class="st3" width="90" height="88"/>
			<polygon class="st0" points="33.2,17.5 18.3,29.1 33.2,40.7 33.2,33.9 46.1,33.9 46.1,24.3 33.2,24.3 			"/>
			<polygon class="st0" points="66.8,66.1 53.9,66.1 53.9,75.7 66.8,75.7 66.8,82.5 81.7,70.9 66.8,59.3 			"/>
			<polygon class="st0" points="66.8,54.6 81.7,43 66.8,31.5 66.8,38.2 53.9,38.2 53.9,47.9 66.8,47.9 			"/>
			<polygon class="st0" points="33.2,45.4 18.3,57 33.2,68.5 33.2,61.8 46.1,61.8 46.1,52.1 33.2,52.1 			"/>
		</g>
	</g>
</g>
<g id="server_icon">
	<g id="server_active">
		<rect class="st0" width="100" height="100"/>
		<g>
			<rect x="19.1" y="5" class="st1" width="61.8" height="90"/>
			<rect x="31.2" y="16.9" class="st0" width="37.7" height="5.9"/>
			<rect x="31.2" y="31.3" class="st0" width="37.7" height="5.9"/>
			<rect x="31.2" y="45.7" class="st0" width="37.7" height="5.9"/>
			<rect x="31.2" y="60.1" class="st0" width="37.7" height="5.9"/>
			<circle class="st0" cx="50" cy="80.8" r="4.8"/>
		</g>
	</g>
	<g id="server_rollover">
		<rect class="st0" width="100" height="100"/>
		<g>
			<rect x="19.1" y="5" class="st1" width="61.8" height="90"/>
			<rect x="31.2" y="16.9" class="st0" width="37.7" height="5.9"/>
			<rect x="31.2" y="31.3" class="st0" width="37.7" height="5.9"/>
			<rect x="31.2" y="45.7" class="st0" width="37.7" height="5.9"/>
			<rect x="31.2" y="60.1" class="st0" width="37.7" height="5.9"/>
			<circle class="st0" cx="50" cy="80.8" r="4.8"/>
		</g>
	</g>
	<g id="server">
		<rect class="st0" width="100" height="100"/>
		<g>
			<rect x="19.1" y="5" class="st3" width="61.8" height="90"/>
			<rect x="31.2" y="16.9" class="st0" width="37.7" height="5.9"/>
			<rect x="31.2" y="31.3" class="st0" width="37.7" height="5.9"/>
			<rect x="31.2" y="45.7" class="st0" width="37.7" height="5.9"/>
			<rect x="31.2" y="60.1" class="st0" width="37.7" height="5.9"/>
			<circle class="st0" cx="50" cy="80.8" r="4.8"/>
		</g>
	</g>
</g>
<g id="database_icon">
	<g id="database_active">
		<rect class="st0" width="100" height="100"/>
		<g>
			<rect x="19.1" y="5" class="st1" width="61.8" height="90"/>
			<path class="st0" d="M27.5,14.9v13.5h45V14.9H27.5z M65.3,25.1c-1.8,0-3.2-1.4-3.2-3.2s1.4-3.2,3.2-3.2c1.8,0,3.2,1.4,3.2,3.2
				C68.5,23.6,67.1,25.1,65.3,25.1L65.3,25.1z"/>
			<path class="st0" d="M27.5,33.8v13.5h45V33.8H27.5z M65.3,43.8c-1.8,0-3.2-1.4-3.2-3.2s1.4-3.2,3.2-3.2c1.8,0,3.2,1.4,3.2,3.2
				l0,0C68.5,42.4,67.1,43.8,65.3,43.8z"/>
			<path class="st0" d="M27.5,52.7v13.5h45V52.7H27.5z M65.3,62.6c-1.8,0-3.2-1.4-3.2-3.2s1.4-3.2,3.2-3.2c1.8,0,3.2,1.4,3.2,3.2
				S67.1,62.6,65.3,62.6L65.3,62.6z"/>
			<path class="st0" d="M27.5,71.6v13.5h45V71.6H27.5z M65.3,81.4c-1.8,0-3.2-1.4-3.2-3.2c0-1.8,1.4-3.2,3.2-3.2
				c1.8,0,3.2,1.4,3.2,3.2C68.5,79.9,67.1,81.4,65.3,81.4L65.3,81.4z"/>
		</g>
	</g>
	<g id="database_rollover">
		<rect class="st0" width="100" height="100"/>
		<g>
			<rect x="19.1" y="5" class="st1" width="61.8" height="90"/>
			<path class="st0" d="M27.5,14.9v13.5h45V14.9H27.5z M65.3,25.1c-1.8,0-3.2-1.4-3.2-3.2s1.4-3.2,3.2-3.2c1.8,0,3.2,1.4,3.2,3.2
				C68.5,23.6,67.1,25.1,65.3,25.1L65.3,25.1z"/>
			<path class="st0" d="M27.5,33.8v13.5h45V33.8H27.5z M65.3,43.8c-1.8,0-3.2-1.4-3.2-3.2s1.4-3.2,3.2-3.2c1.8,0,3.2,1.4,3.2,3.2
				l0,0C68.5,42.4,67.1,43.8,65.3,43.8z"/>
			<path class="st0" d="M27.5,52.7v13.5h45V52.7H27.5z M65.3,62.6c-1.8,0-3.2-1.4-3.2-3.2s1.4-3.2,3.2-3.2c1.8,0,3.2,1.4,3.2,3.2
				S67.1,62.6,65.3,62.6L65.3,62.6z"/>
			<path class="st0" d="M27.5,71.6v13.5h45V71.6H27.5z M65.3,81.4c-1.8,0-3.2-1.4-3.2-3.2c0-1.8,1.4-3.2,3.2-3.2
				c1.8,0,3.2,1.4,3.2,3.2C68.5,79.9,67.1,81.4,65.3,81.4L65.3,81.4z"/>
		</g>
	</g>
	<g id="database">
		<rect class="st0" width="100" height="100"/>
		<g>
			<rect x="19.1" y="5" class="st3" width="61.8" height="90"/>
			<path class="st0" d="M27.5,14.9v13.5h45V14.9H27.5z M65.3,25.1c-1.8,0-3.2-1.4-3.2-3.2s1.4-3.2,3.2-3.2c1.8,0,3.2,1.4,3.2,3.2
				C68.5,23.6,67.1,25.1,65.3,25.1L65.3,25.1z"/>
			<path class="st0" d="M27.5,33.8v13.5h45V33.8H27.5z M65.3,43.8c-1.8,0-3.2-1.4-3.2-3.2s1.4-3.2,3.2-3.2c1.8,0,3.2,1.4,3.2,3.2
				l0,0C68.5,42.4,67.1,43.8,65.3,43.8z"/>
			<path class="st0" d="M27.5,52.7v13.5h45V52.7H27.5z M65.3,62.6c-1.8,0-3.2-1.4-3.2-3.2s1.4-3.2,3.2-3.2c1.8,0,3.2,1.4,3.2,3.2
				S67.1,62.6,65.3,62.6L65.3,62.6z"/>
			<path class="st0" d="M27.5,71.6v13.5h45V71.6H27.5z M65.3,81.4c-1.8,0-3.2-1.4-3.2-3.2c0-1.8,1.4-3.2,3.2-3.2
				c1.8,0,3.2,1.4,3.2,3.2C68.5,79.9,67.1,81.4,65.3,81.4L65.3,81.4z"/>
		</g>
	</g>
</g>
<g id="firewall_icon">
	<g id="firewall_active">
		<rect class="st0" width="100" height="100"/>
		<g>
			<rect x="5" y="5.2" class="st0" width="90" height="89.5"/>
			<rect x="5" y="5.2" class="st1" width="45" height="20.6"/>
			<polyline class="st1" points="95,25.8 52.8,25.8 52.8,5.2 95,5.2 			"/>
			<polyline class="st1" points="5,28.2 26.8,28.2 26.8,48.8 5,48.8 			"/>
			<rect x="29.6" y="28.2" class="st1" width="45" height="20.6"/>
			<polyline class="st1" points="95,48.8 77.4,48.8 77.4,28.2 95,28.2 			"/>
			<rect x="5" y="51.2" class="st1" width="45" height="20.6"/>
			<polyline class="st1" points="95,71.8 52.8,71.8 52.8,51.2 95,51.2 			"/>
			<polyline class="st1" points="5,74.2 26.8,74.2 26.8,94.8 5,94.8 			"/>
			<rect x="29.6" y="74.2" class="st1" width="45" height="20.6"/>
			<polyline class="st1" points="95,94.8 77.4,94.8 77.4,74.2 95,74.2 			"/>
			<circle class="st2" cx="50" cy="50" r="25.6"/>
			<path class="st0" d="M57.9,32.6c0,0-8.8,2.2-12.2,8.7c-2.4,4.8-1.8,9.6-2.7,9.7c-3.2,0.5-3.2-8-3.2-8s-3.9,7-2.5,14.1
				c0.5,2.7,1.7,8.4,6.7,11.2c4.6,2.6,11.4,2.3,15.4-2c3-3.3,3.9-8,2.5-12.2c-1.8-5.1-6.3-4.9-7.5-9.5
				C52.9,38.9,57.9,32.6,57.9,32.6z"/>
			<path class="st9" d="M49.2,52.3c1.5,1.5,3,3.2,4.3,4.9c2.5,3.3,3.8,5.1,3.6,7c-0.4,2.9-2.8,5.1-5.7,5.4c-2.9,0.1-5.5-1.8-6.2-4.7
				c-0.4-2.1,1.2-3.1,2.8-7.5C48.5,55.7,49,54,49.2,52.3z"/>
		</g>
	</g>
	<g id="firewall_rollover">
		<rect class="st0" width="100" height="100"/>
		<g>
			<rect x="5" y="5.2" class="st0" width="90" height="89.5"/>
			<rect x="5" y="5.2" class="st1" width="45" height="20.6"/>
			<polyline class="st1" points="95,25.8 52.8,25.8 52.8,5.2 95,5.2 			"/>
			<polyline class="st1" points="5,28.2 26.8,28.2 26.8,48.8 5,48.8 			"/>
			<rect x="29.6" y="28.2" class="st1" width="45" height="20.6"/>
			<polyline class="st1" points="95,48.8 77.4,48.8 77.4,28.2 95,28.2 			"/>
			<rect x="5" y="51.2" class="st1" width="45" height="20.6"/>
			<polyline class="st1" points="95,71.8 52.8,71.8 52.8,51.2 95,51.2 			"/>
			<polyline class="st1" points="5,74.2 26.8,74.2 26.8,94.8 5,94.8 			"/>
			<rect x="29.6" y="74.2" class="st1" width="45" height="20.6"/>
			<polyline class="st1" points="95,94.8 77.4,94.8 77.4,74.2 95,74.2 			"/>
			<circle class="st2" cx="50" cy="50" r="25.6"/>
			<path class="st0" d="M57.9,32.6c0,0-8.8,2.2-12.2,8.7c-2.4,4.8-1.8,9.6-2.7,9.7c-3.2,0.5-3.2-8-3.2-8s-3.9,7-2.5,14.1
				c0.5,2.7,1.7,8.4,6.7,11.2c4.6,2.6,11.4,2.3,15.4-2c3-3.3,3.9-8,2.5-12.2c-1.8-5.1-6.3-4.9-7.5-9.5
				C52.9,38.9,57.9,32.6,57.9,32.6z"/>
			<path class="st9" d="M49.2,52.3c1.5,1.5,3,3.2,4.3,4.9c2.5,3.3,3.8,5.1,3.6,7c-0.4,2.9-2.8,5.1-5.7,5.4c-2.9,0.1-5.5-1.8-6.2-4.7
				c-0.4-2.1,1.2-3.1,2.8-7.5C48.5,55.7,49,54,49.2,52.3z"/>
		</g>
	</g>
	<g id="firewall">
		<rect class="st0" width="100" height="100"/>
		<g>
			<rect x="5" y="5.2" class="st0" width="90" height="89.5"/>
			<rect x="5" y="5.2" class="st3" width="45" height="20.6"/>
			<polyline class="st3" points="95,25.8 52.8,25.8 52.8,5.2 95,5.2 			"/>
			<polyline class="st3" points="5,28.2 26.8,28.2 26.8,48.8 5,48.8 			"/>
			<rect x="29.6" y="28.2" class="st3" width="45" height="20.6"/>
			<polyline class="st3" points="95,48.8 77.4,48.8 77.4,28.2 95,28.2 			"/>
			<rect x="5" y="51.2" class="st3" width="45" height="20.6"/>
			<polyline class="st3" points="95,71.8 52.8,71.8 52.8,51.2 95,51.2 			"/>
			<polyline class="st3" points="5,74.2 26.8,74.2 26.8,94.8 5,94.8 			"/>
			<rect x="29.6" y="74.2" class="st3" width="45" height="20.6"/>
			<polyline class="st3" points="95,94.8 77.4,94.8 77.4,74.2 95,74.2 			"/>
			<circle class="st4" cx="50" cy="50" r="25.6"/>
			<path class="st0" d="M57.9,32.6c0,0-8.8,2.2-12.2,8.7c-2.4,4.8-1.8,9.6-2.7,9.7c-3.2,0.5-3.2-8-3.2-8s-3.9,7-2.5,14.1
				c0.5,2.7,1.7,8.4,6.7,11.2c4.6,2.6,11.4,2.3,15.4-2c3-3.3,3.9-8,2.5-12.2c-1.8-5.1-6.3-4.9-7.5-9.5
				C52.9,38.9,57.9,32.6,57.9,32.6z"/>
			<path class="st10" d="M49.2,52.3c1.5,1.5,3,3.2,4.3,4.9c2.5,3.3,3.8,5.1,3.6,7c-0.4,2.9-2.8,5.1-5.7,5.4
				c-2.9,0.1-5.5-1.8-6.2-4.7c-0.4-2.1,1.2-3.1,2.8-7.5C48.5,55.7,49,54,49.2,52.3z"/>
		</g>
	</g>
</g>
<g id="generic_icon">
	<g id="generic_active">
		<rect x="5" y="5" class="st0" width="90" height="90"/>
		<polygon id="_x3C_path_x3E__2_" class="st1" points="81.1,18.9 81.1,5 18.9,5 18.9,18.9 5,18.9 5,81.1 18.9,81.1 18.9,95 81.1,95
			81.1,81.1 95,81.1 95,18.9 		"/>
	</g>
	<g id="generic_rollover">
		<rect x="5" y="5" class="st0" width="90" height="90"/>
		<polygon id="_x3C_path_x3E_" class="st1" points="81.1,18.9 81.1,5 18.9,5 18.9,18.9 5,18.9 5,81.1 18.9,81.1 18.9,95 81.1,95
			81.1,81.1 95,81.1 95,18.9 		"/>
	</g>
	<g id="generic">
		<rect class="st0" width="100" height="100"/>
		<polygon id="_x3C_path_x3E__1_" class="st3" points="81.1,18.9 81.1,5 18.9,5 18.9,18.9 5,18.9 5,81.1 18.9,81.1 18.9,95 81.1,95
			81.1,81.1 95,81.1 95,18.9 		"/>
	</g>
</g>
<g id="cloud_icon">
	<g id="cloud_active">
		<path id="cloudNew_active" class="st1" d="M89.9,32.6c0-6.3-5.1-11.5-11.5-11.5l0,0h-0.1C77.8,8.9,67.6-0.5,55.4,0
			c-7.6,0.3-14.5,4.5-18.2,11.1c-8.7-2.4-17.8,2.6-20.4,11.3c-5.6-3-12.6-0.9-15.5,4.7S0.4,39.7,6,42.6c1.3,0.7,2.8,1.1,4.3,1.3V44
			h69l0,0C85.3,43.6,89.9,38.6,89.9,32.6z"/>
	</g>
	<g id="cloud_rollover">
		<path id="cloudNew_rollover" class="st1" d="M89.9,32.6c0-6.3-5.1-11.5-11.5-11.5l0,0h-0.1C77.8,8.9,67.6-0.5,55.4,0
			c-7.6,0.3-14.5,4.5-18.2,11.1c-8.7-2.4-17.8,2.6-20.4,11.3c-5.6-3-12.6-0.9-15.5,4.7S0.4,39.7,6,42.6c1.3,0.7,2.8,1.1,4.3,1.3V44
			h69l0,0C85.3,43.6,89.9,38.6,89.9,32.6z"/>
	</g>
	<g id="cloud">
		<path id="_x3C_path_x3E__3_" class="st3" d="M89.9,32.6c0-6.3-5.1-11.5-11.5-11.5l0,0h-0.1C77.8,8.9,67.6-0.5,55.4,0
			c-7.6,0.3-14.5,4.5-18.2,11.1c-8.7-2.4-17.8,2.6-20.4,11.3c-5.6-3-12.6-0.9-15.5,4.7S0.4,39.7,6,42.6c1.3,0.7,2.8,1.1,4.3,1.3V44
			h69l0,0C85.3,43.6,89.9,38.6,89.9,32.6z"/>
	</g>
</g>
<g id="printer_icon">
	<g id="printer_active">
		<rect class="st0" width="100" height="100"/>
		<g>
			<polygon class="st1" points="5,36.4 5,69 64.3,78.3 64.3,45.7 			"/>
			<polygon class="st11" points="21.8,49.9 11.5,72.3 43.1,77.3 53.3,55 			"/>
			<polygon class="st1" points="21.9,54.9 21.1,56.5 47.5,60.9 48.3,59.2 			"/>
			<polygon class="st1" points="19.7,60.2 18.9,61.9 45.3,66.2 46.1,64.6 			"/>
			<polygon class="st1" points="17.1,65.5 16.3,67.2 42.7,71.5 43.4,69.9 			"/>
			<polygon class="st1" points="95,41.2 65.4,45.9 65.4,78.5 95,73.8 			"/>
			<polygon class="st1" points="65.4,44.8 95,40 34.6,30.5 5,35.2 			"/>
			<polygon class="st11" points="36.4,21.8 29.4,36.2 60.9,41.3 67.9,26.9 			"/>
		</g>
	</g>
	<g id="printer_rollover">
		<rect class="st0" width="100" height="100"/>
		<g>
			<polygon class="st1" points="5,36.4 5,69 64.3,78.3 64.3,45.7 			"/>
			<polygon class="st11" points="21.8,49.9 11.5,72.3 43.1,77.3 53.3,55 			"/>
			<polygon class="st1" points="21.9,54.9 21.1,56.5 47.5,60.9 48.3,59.2 			"/>
			<polygon class="st1" points="19.7,60.2 18.9,61.9 45.3,66.2 46.1,64.6 			"/>
			<polygon class="st1" points="17.1,65.5 16.3,67.2 42.7,71.5 43.4,69.9 			"/>
			<polygon class="st1" points="95,41.2 65.4,45.9 65.4,78.5 95,73.8 			"/>
			<polygon class="st1" points="65.4,44.8 95,40 34.6,30.5 5,35.2 			"/>
			<polygon class="st11" points="36.4,21.8 29.4,36.2 60.9,41.3 67.9,26.9 			"/>
		</g>
	</g>
	<g id="printer">
		<rect class="st0" width="100" height="100"/>
		<g>
			<polygon class="st3" points="5,36.4 5,69 64.3,78.3 64.3,45.7 			"/>
			<polygon class="st12" points="21.8,49.9 11.5,72.3 43.1,77.3 53.3,55 			"/>
			<polygon class="st3" points="21.9,54.9 21.1,56.5 47.5,60.9 48.3,59.2 			"/>
			<polygon class="st3" points="19.7,60.2 18.9,61.9 45.3,66.2 46.1,64.6 			"/>
			<polygon class="st3" points="17.1,65.5 16.3,67.2 42.7,71.5 43.4,69.9 			"/>
			<polygon class="st3" points="95,41.2 65.4,45.9 65.4,78.5 95,73.8 			"/>
			<polygon class="st3" points="65.4,44.8 95,40 34.6,30.5 5,35.2 			"/>
			<polygon class="st12" points="36.4,21.8 29.4,36.2 60.9,41.3 67.9,26.9 			"/>
		</g>
	</g>
</g>
<g id="wifiAccess_icon">
	<g id="wifiAccess_active">
		<rect class="st0" width="100" height="100"/>
		<g>
			<rect x="5" y="54.8" class="st1" width="90" height="20.4"/>
			<line class="st13" x1="5" y1="53.3" x2="20.2" y2="46.1"/>
			<polygon class="st1" points="94.8,53.3 79.6,46.1 20.2,46.1 5,53.3 			"/>
			<rect x="10.5" y="62.9" class="st0" width="53" height="4.2"/>
			<ellipse class="st0" cx="81.9" cy="65" rx="3.8" ry="3.8"/>
			<rect x="24.9" y="33.8" class="st1" width="5.3" height="14.8"/>
			<path class="st5" d="M37.4,30.8c1.9,1.9,1.8,4.9-0.1,6.8c-0.2,0.2-0.3,0.3-0.5,0.4"/>
			<path class="st5" d="M42.9,27.9c3.4,3.4,3.3,8.9-0.1,12.3c-0.3,0.3-0.6,0.6-0.9,0.8"/>
			<path class="st5" d="M48.4,25.3c2.4,2.5,3.7,5.9,3.4,9.4c-0.3,3.5-2.1,6.8-5,8.9"/>
		</g>
	</g>
	<g id="wifiAccess_rollover">
		<rect class="st0" width="100" height="100"/>
		<g>
			<rect x="5" y="54.8" class="st1" width="90" height="20.4"/>
			<line class="st13" x1="5" y1="53.3" x2="20.2" y2="46.1"/>
			<polygon class="st1" points="94.8,53.3 79.6,46.1 20.2,46.1 5,53.3 			"/>
			<rect x="10.5" y="62.9" class="st0" width="53" height="4.2"/>
			<ellipse class="st0" cx="81.9" cy="65" rx="3.8" ry="3.8"/>
			<rect x="24.9" y="33.8" class="st1" width="5.3" height="14.8"/>
			<path class="st5" d="M37.4,30.8c1.9,1.9,1.8,4.9-0.1,6.8c-0.2,0.2-0.3,0.3-0.5,0.4"/>
			<path class="st5" d="M42.9,27.9c3.4,3.4,3.3,8.9-0.1,12.3c-0.3,0.3-0.6,0.6-0.9,0.8"/>
			<path class="st5" d="M48.4,25.3c2.4,2.5,3.7,5.9,3.4,9.4c-0.3,3.5-2.1,6.8-5,8.9"/>
		</g>
	</g>
	<g id="wifiAccess">
		<rect class="st0" width="100" height="100"/>
		<g>
			<rect x="5" y="54.8" class="st3" width="90" height="20.4"/>
			<line class="st13" x1="5" y1="53.3" x2="20.2" y2="46.1"/>
			<polygon class="st3" points="94.8,53.3 79.6,46.1 20.2,46.1 5,53.3 			"/>
			<rect x="10.5" y="62.9" class="st0" width="53" height="4.2"/>
			<ellipse class="st0" cx="81.9" cy="65" rx="3.8" ry="3.8"/>
			<rect x="24.9" y="33.8" class="st3" width="5.3" height="14.8"/>
			<path class="st7" d="M37.4,30.8c1.9,1.9,1.8,4.9-0.1,6.8c-0.2,0.2-0.3,0.3-0.5,0.4"/>
			<path class="st7" d="M42.9,27.9c3.4,3.4,3.3,8.9-0.1,12.3c-0.3,0.3-0.6,0.6-0.9,0.8"/>
			<path class="st7" d="M48.4,25.3c2.4,2.5,3.7,5.9,3.4,9.4c-0.3,3.5-2.1,6.8-5,8.9"/>
		</g>
	</g>
</g>
<g id="linux_file_server_icon">
	<g id="linux_file_server_active">
		<rect class="st0" width="100" height="100"/>
		<g>
			<rect x="19.1" y="5" class="st1" width="61.8" height="90"/>
			<rect x="31.2" y="16.9" class="st0" width="37.7" height="5.9"/>
			<rect x="31.2" y="31.3" class="st0" width="37.7" height="5.9"/>
			<path class="st14" d="M62.5,79.8c-2.1,3.3-5.4,5.8-9.2,6.9c-7.6,2.1-15.6-0.6-18.6-8.5c-2.4-6.5-0.5-14.7,5.3-19
				c5.1-3.7,11-2.9,12.4-2.6C56.1,64.9,58.8,71.5,62.5,79.8z"/>
			<path class="st1" d="M46,72.8l-6.5,3.5L42,64.4l-2.3-5h-0.1c-1.4,0-5.9,0.4-6,0.4l-0.8,0.1l4.4-8.1c0.8-4.5,5.2-7.5,9.7-6.6
				c4.5,0.8,7.5,5.2,6.6,9.7c-0.1,0.5-0.2,1-0.4,1.5L64.8,82l0.2,0.3l2.4,5.2l-14.9,0.1L46,72.8z"/>
			<path class="st0" d="M45.3,45.4c4.3,0,7.8,3.6,7.8,7.9c0,1-0.2,2.1-0.6,3l11.9,26.3l0,0l2.1,4.6l-13.9,0.1l-6.5-15l-6.1,3.3
				l2.4-11.2L40,59c-0.1,0-0.3,0-0.4,0c-1.4,0-6,0.4-6,0.4l4-7.4C38.2,48.2,41.5,45.4,45.3,45.4 M45.3,44.5c-4.2,0-7.9,3-8.6,7.2
				l-4,7.3l-0.8,1.5l1.7-0.1c0,0,4.2-0.4,5.8-0.4l2.1,4.5l-2.3,10.9l-0.4,1.9l1.7-0.9l5.2-2.9l6.1,14.1l0.2,0.5h0.6l14-0.1H68
				l-0.6-1.3l-2.1-4.6l-0.4-0.8l0,0L53.5,56.3c1.5-4.2-0.3-8.9-4.3-10.9C48,44.8,46.7,44.5,45.3,44.5L45.3,44.5L45.3,44.5z"/>

				<ellipse transform="matrix(0.4478 -0.8942 0.8942 0.4478 -22.6709 67.5591)" class="st0" cx="43.4" cy="52.1" rx="1.1" ry="1.1"/>
		</g>
	</g>
	<g id="linux_file_server_rollover">
		<rect class="st0" width="100" height="100"/>
		<g>
			<rect x="19.1" y="5" class="st1" width="61.8" height="90"/>
			<rect x="31.2" y="16.9" class="st0" width="37.7" height="5.9"/>
			<rect x="31.2" y="31.3" class="st0" width="37.7" height="5.9"/>
			<path class="st14" d="M62.5,79.8c-2.1,3.3-5.4,5.8-9.2,6.9c-7.6,2.1-15.6-0.6-18.6-8.5c-2.4-6.5-0.5-14.7,5.3-19
				c5.1-3.7,11-2.9,12.4-2.6C56.1,64.9,58.8,71.5,62.5,79.8z"/>
			<path class="st1" d="M46,72.8l-6.5,3.5L42,64.4l-2.3-5h-0.1c-1.4,0-5.9,0.4-6,0.4l-0.8,0.1l4.4-8.1c0.8-4.5,5.2-7.5,9.7-6.6
				c4.5,0.8,7.5,5.2,6.6,9.7c-0.1,0.5-0.2,1-0.4,1.5L64.8,82l0.2,0.3l2.4,5.2l-14.9,0.1L46,72.8z"/>
			<path class="st0" d="M45.3,45.4c4.3,0,7.8,3.6,7.8,7.9c0,1-0.2,2.1-0.6,3l11.9,26.3l0,0l2.1,4.6l-13.9,0.1l-6.5-15l-6.1,3.3
				l2.4-11.2L40,59c-0.1,0-0.3,0-0.4,0c-1.4,0-6,0.4-6,0.4l4-7.4C38.2,48.2,41.5,45.4,45.3,45.4 M45.3,44.5c-4.2,0-7.9,3-8.6,7.2
				l-4,7.3l-0.8,1.5l1.7-0.1c0,0,4.2-0.4,5.8-0.4l2.1,4.5l-2.3,10.9l-0.4,1.9l1.7-0.9l5.2-2.9l6.1,14.1l0.2,0.5h0.6l14-0.1H68
				l-0.6-1.3l-2.1-4.6l-0.4-0.8l0,0L53.5,56.3c1.5-4.2-0.3-8.9-4.3-10.9C48,44.8,46.7,44.5,45.3,44.5L45.3,44.5L45.3,44.5z"/>

				<ellipse transform="matrix(0.4478 -0.8942 0.8942 0.4478 -22.6709 67.5591)" class="st0" cx="43.4" cy="52.1" rx="1.1" ry="1.1"/>
		</g>
	</g>
	<g id="linux_file_server">
		<rect class="st0" width="100" height="100"/>
		<g>
			<rect x="19.1" y="5" class="st3" width="61.8" height="90"/>
			<rect x="31.2" y="16.9" class="st0" width="37.7" height="5.9"/>
			<rect x="31.2" y="31.3" class="st0" width="37.7" height="5.9"/>
			<path class="st14" d="M62.5,79.8c-2.1,3.3-5.4,5.8-9.2,6.9c-7.6,2.1-15.6-0.6-18.6-8.5c-2.4-6.5-0.5-14.7,5.3-19
				c5.1-3.7,11-2.9,12.4-2.6C56.1,64.9,58.8,71.5,62.5,79.8z"/>
			<path class="st3" d="M46.1,72.5l-6.3,3.4l2.5-11.6l-2.4-5.2h-0.3c-1.4,0-6,0.4-6,0.4h-0.4l4.3-7.7c0.1-0.8,0.4-1.5,0.7-2.2
				c2.2-3.9,7.2-5.3,11-3c3.4,1.9,5,6.1,3.6,9.8l11.8,26l0.1,0.1l2.3,4.9l-14.5,0.1L46.1,72.5z"/>
			<path class="st0" d="M45.3,45.4c4.3,0,7.8,3.6,7.8,7.9c0,1-0.2,2.1-0.6,3l11.9,26.3l0,0l2.1,4.6l-13.9,0.1l-6.5-15l-6.1,3.3
				l2.4-11.2L40,59c-0.1,0-0.3,0-0.4,0c-1.4,0-6,0.4-6,0.4l4-7.4C38.2,48.2,41.5,45.4,45.3,45.4 M45.3,45c-4,0-7.5,2.9-8.2,6.8
				l-4,7.3l-0.4,0.8l0.8-0.1c0,0,4.6-0.4,6-0.4h0.1l2.3,5l-2.3,11l-0.2,1l0.9-0.5l5.6-3.1l6.3,14.6l0.1,0.3h0.3l14-0.1h0.7L67,86.9
				l-2.1-4.6l-0.2-0.4l0,0L53.1,56.3c1.6-4-0.2-8.5-4-10.5C47.9,45.2,46.6,44.9,45.3,45L45.3,45L45.3,45z"/>

				<ellipse transform="matrix(0.4478 -0.8942 0.8942 0.4478 -22.6709 67.5591)" class="st0" cx="43.4" cy="52.1" rx="1.1" ry="1.1"/>
		</g>
	</g>
</g>
<g id="opennms_server_icon">
	<g id="opennms_server_active">
		<rect class="st0" width="100" height="100"/>
		<g>
			<rect x="19.1" y="5" class="st15" width="61.8" height="90"/>
			<rect x="31.2" y="16.9" class="st0" width="37.7" height="5.9"/>
			<rect x="31.2" y="31.3" class="st0" width="37.7" height="5.9"/>
			<path class="st16" d="M40,61.8"/>
			<path class="st15" d="M51.6,80.6l-14-18.3l-4.5,11.8l-2.3-17.8c-0.2-0.7-0.4-1.5-0.4-2.3c0.3-4.5,4.2-7.8,8.7-7.4
				c3.8,0.3,6.8,3.2,7.4,6.9c1.8-0.6,3.6-0.9,5.5-0.9c0.9,0,1.8,0.1,2.6,0.2c9.3,1.5,15.6,10.3,14.1,19.6
				c-1.1,6.7-6.1,12.1-12.6,13.8l-0.3,0.1l-0.1-0.1l-10.5,0.3L51.6,80.6z"/>
			<path class="st0" d="M38.6,46.4c4.2,0,7.6,3.4,7.6,7.6l0,0c0,0,0,0.1,0,0.1c1.9-0.7,3.9-1.1,6-1.1c0.8,0,1.7,0.1,2.5,0.2
				c9.1,1.4,15.3,10,13.8,19c-1,6.6-5.9,11.9-12.4,13.5v-0.1l-9.5,0.3l5.7-5.3L37.6,61.5h-0.1l0,0l-4,10.8l-2.1-16
				C31.1,55.5,31,54.7,31,54C31,49.8,34.4,46.3,38.6,46.4L38.6,46.4 M38.6,45.4c-4.7,0-8.5,3.8-8.5,8.5c0,0.8,0.1,1.6,0.4,2.4
				l2.1,16l0.5,3.6l1.3-3.4l3.5-9.3L51,80.5l-5.1,4.7l-1.7,1.6l2.4-0.1l9.1-0.2l0.1,0.2l0.5-0.2c9.4-2.3,15.1-11.9,12.8-21.3
				c-1.7-6.8-7.3-12-14.3-13.1c-0.9-0.1-1.8-0.2-2.7-0.2c-1.7,0-3.5,0.3-5.1,0.8C46.4,48.6,42.8,45.4,38.6,45.4L38.6,45.4L38.6,45.4
				z"/>
			<ellipse class="st0" cx="35.5" cy="52.7" rx="1.5" ry="1.6"/>
		</g>
	</g>
	<g id="opennms_server_rollover">
		<rect class="st0" width="100" height="100"/>
		<g>
			<rect x="19.1" y="5" class="st15" width="61.8" height="90"/>
			<rect x="31.2" y="16.9" class="st0" width="37.7" height="5.9"/>
			<rect x="31.2" y="31.3" class="st0" width="37.7" height="5.9"/>
			<path class="st16" d="M40,61.8"/>
			<path class="st15" d="M51.6,80.6l-14-18.3l-4.5,11.8l-2.3-17.8c-0.2-0.7-0.4-1.5-0.4-2.3c0.3-4.5,4.2-7.8,8.7-7.4
				c3.8,0.3,6.8,3.2,7.4,6.9c1.8-0.6,3.6-0.9,5.5-0.9c0.9,0,1.8,0.1,2.6,0.2c9.3,1.5,15.6,10.3,14.1,19.6
				c-1.1,6.7-6.1,12.1-12.6,13.8l-0.3,0.1l-0.1-0.1l-10.5,0.3L51.6,80.6z"/>
			<path class="st0" d="M38.6,46.4c4.2,0,7.6,3.4,7.6,7.6l0,0c0,0,0,0.1,0,0.1c1.9-0.7,3.9-1.1,6-1.1c0.8,0,1.7,0.1,2.5,0.2
				c9.1,1.4,15.3,10,13.8,19c-1,6.6-5.9,11.9-12.4,13.5v-0.1l-9.5,0.3l5.7-5.3L37.6,61.5h-0.1l0,0l-4,10.8l-2.1-16
				C31.1,55.5,31,54.7,31,54C31,49.8,34.4,46.3,38.6,46.4L38.6,46.4 M38.6,45.4c-4.7,0-8.5,3.8-8.5,8.5c0,0.8,0.1,1.6,0.4,2.4
				l2.1,16l0.5,3.6l1.3-3.4l3.5-9.3L51,80.5l-5.1,4.7l-1.7,1.6l2.4-0.1l9.1-0.2l0.1,0.2l0.5-0.2c9.4-2.3,15.1-11.9,12.8-21.3
				c-1.7-6.8-7.3-12-14.3-13.1c-0.9-0.1-1.8-0.2-2.7-0.2c-1.7,0-3.5,0.3-5.1,0.8C46.4,48.6,42.8,45.4,38.6,45.4L38.6,45.4L38.6,45.4
				z"/>
			<ellipse class="st0" cx="35.5" cy="52.7" rx="1.5" ry="1.6"/>
		</g>
	</g>
	<g id="opennms_server">
		<rect class="st0" width="100" height="100"/>
		<g>
			<rect x="19.1" y="5" class="st3" width="61.8" height="90"/>
			<rect x="31.2" y="16.9" class="st0" width="37.7" height="5.9"/>
			<rect x="31.2" y="31.3" class="st0" width="37.7" height="5.9"/>
			<path class="st10" d="M40,61.8"/>
			<path class="st3" d="M51.6,80.6l-14-18.3l-4.5,11.8l-2.3-17.8c-0.2-0.7-0.4-1.5-0.4-2.3c0.3-4.5,4.2-7.8,8.7-7.4
				c3.8,0.3,6.8,3.2,7.4,6.9c1.8-0.6,3.6-0.9,5.5-0.9c0.9,0,1.8,0.1,2.6,0.2c9.3,1.5,15.6,10.3,14.1,19.6
				c-1.1,6.7-6.1,12.1-12.6,13.8l-0.3,0.1l-0.1-0.1l-10.5,0.3L51.6,80.6z"/>
			<path class="st0" d="M38.6,46.4c4.2,0,7.6,3.4,7.6,7.6l0,0c0,0,0,0.1,0,0.1c1.9-0.7,3.9-1.1,6-1.1c0.8,0,1.7,0.1,2.5,0.2
				c9.1,1.4,15.3,10,13.8,19c-1,6.6-5.9,11.9-12.4,13.5v-0.1l-9.5,0.3l5.7-5.3L37.6,61.5h-0.1l0,0l-4,10.8l-2.1-16
				C31.1,55.5,31,54.7,31,54C31,49.8,34.4,46.3,38.6,46.4L38.6,46.4 M38.6,45.4c-4.7,0-8.5,3.8-8.5,8.5c0,0.8,0.1,1.6,0.4,2.4
				l2.1,16l0.5,3.6l1.3-3.4l3.5-9.3L51,80.5l-5.1,4.7l-1.7,1.6l2.4-0.1l9.1-0.2l0.1,0.2l0.5-0.2c9.4-2.3,15.1-11.9,12.8-21.3
				c-1.7-6.8-7.3-12-14.3-13.1c-0.9-0.1-1.8-0.2-2.7-0.2c-1.7,0-3.5,0.3-5.1,0.8C46.4,48.6,42.8,45.4,38.6,45.4L38.6,45.4L38.6,45.4
				z"/>
			<ellipse class="st0" cx="35.5" cy="52.7" rx="1.5" ry="1.6"/>
		</g>
	</g>
</g>
</svg>
