<?xml version="1.0" encoding="UTF-8" standalone="no"?>
<svg width="119px" height="175px" viewBox="0 0 119 175" version="1.1" xmlns="http://www.w3.org/2000/svg" xmlns:xlink="http://www.w3.org/1999/xlink" xmlns:sketch="http://www.bohemiancoding.com/sketch/ns">
    <title>Slice 1</title>
    <description>Created with Sketch (http://www.bohemiancoding.com/sketch)</description>
    <defs></defs>
    <g id="Page 1" stroke="none" stroke-width="1" fill="none" fill-rule="evenodd">
        <g id="mx9600_icons">
            <g id="mx9600_external_rollover">
                <g id="Group">
                    <path d="M0.98500061,174.254005 L118.581001,174.254005 L118.581001,0.416999817 L0.98500061,0.416999817 L0.98500061,174.254005 Z M0.98500061,174.254005" id="Rectangle" stroke="#36516C" stroke-width="1.5" fill="#36516C"></path>
                    <path d="M86.1230011,12.4300003 L86.1230011,16.1740003 L91.315001,16.1740003 L91.315001,12.4300003 L86.1230011,12.4300003 L86.1230011,12.4300003 Z M86.1230011,12.4300003" id="Rectangle" fill="#FFFFFF"></path>
                    <path d="M98.1589966,12.4300003 L98.1589966,16.1740003 L103.353997,16.1740003 L103.353997,12.4300003 L98.1589966,12.4300003 L98.1589966,12.4300003 Z M98.1589966,12.4300003" id="Rectangle" fill="#FFFFFF"></path>
                </g>
                <g id="Group" transform="translate(10.000000, 20.000000)">
                    <path d="M98.72,8.741 L0.858,8.741 L0.858,0.549 L98.72,0.543 L98.72,8.741 L98.72,8.741 Z M98.72,8.741" id="Shape" fill="#BDBEC0"></path>
                    <path d="M1.15200043,11.7130013 L1.15200043,102.515003 L6.56700039,102.515003 L6.56700039,11.7130013 L1.15200043,11.7130013 L1.15200043,11.7130013 Z M1.15200043,11.7130013" id="Rectangle" fill="#FFFFFF"></path>
                    <path d="M8.12599945,11.7130013 L8.12599945,102.515003 L13.5409994,102.515003 L13.5409994,11.7130013 L8.12599945,11.7130013 L8.12599945,11.7130013 Z M8.12599945,11.7130013" id="Rectangle" fill="#FFFFFF"></path>
                    <path d="M15.3079987,11.7130013 L15.3079987,102.515003 L20.7219987,102.515003 L20.7219987,11.7130013 L15.3079987,11.7130013 L15.3079987,11.7130013 Z M15.3079987,11.7130013" id="Rectangle" fill="#FFFFFF"></path>
                    <path d="M22.3010025,11.7130013 L22.3010025,102.515003 L27.7160025,102.515003 L27.7160025,11.7130013 L22.3010025,11.7130013 L22.3010025,11.7130013 Z M22.3010025,11.7130013" id="Rectangle" fill="#FFFFFF"></path>
                    <path d="M29.348999,11.7130013 L29.348999,102.515003 L34.763999,102.515003 L34.763999,11.7130013 L29.348999,11.7130013 L29.348999,11.7130013 Z M29.348999,11.7130013" id="Rectangle" fill="#FFFFFF"></path>
                    <path d="M36.401001,11.7130013 L36.401001,102.515003 L41.8130012,102.515003 L41.8130012,11.7130013 L36.401001,11.7130013 L36.401001,11.7130013 Z M36.401001,11.7130013" id="Rectangle" fill="#FFFFFF"></path>
                    <path d="M43.4459991,11.7130013 L43.4459991,102.515003 L48.8639994,102.515003 L48.8639994,11.7130013 L43.4459991,11.7130013 L43.4459991,11.7130013 Z M43.4459991,11.7130013" id="Rectangle" fill="#FFFFFF"></path>
                    <path d="M50.4970016,11.7130013 L50.4970016,102.515003 L55.9120016,102.515003 L55.9120016,11.7130013 L50.4970016,11.7130013 L50.4970016,11.7130013 Z M50.4970016,11.7130013" id="Rectangle" fill="#FFFFFF"></path>
                    <path d="M57.8170013,11.7130013 L57.8170013,102.515003 L63.2320013,102.515003 L63.2320013,11.7130013 L57.8170013,11.7130013 L57.8170013,11.7130013 Z M57.8170013,11.7130013" id="Rectangle" fill="#FFFFFF"></path>
                    <path d="M64.9830017,11.7130013 L64.9830017,102.515003 L70.3970017,102.515003 L70.3970017,11.7130013 L64.9830017,11.7130013 L64.9830017,11.7130013 Z M64.9830017,11.7130013" id="Rectangle" fill="#FFFFFF"></path>
                    <path d="M72.3040009,11.7130013 L72.3040009,102.515003 L77.7180009,102.515003 L77.7180009,11.7130013 L72.3040009,11.7130013 L72.3040009,11.7130013 Z M72.3040009,11.7130013" id="Rectangle" fill="#FFFFFF"></path>
                    <path d="M79.3099976,11.7130013 L79.3099976,102.515003 L84.7259974,102.515003 L84.7259974,11.7130013 L79.3099976,11.7130013 L79.3099976,11.7130013 Z M79.3099976,11.7130013" id="Rectangle" fill="#FFFFFF"></path>
                    <path d="M86.3190002,11.7130013 L86.3190002,102.515003 L91.7350001,102.515003 L91.7350001,11.7130013 L86.3190002,11.7130013 L86.3190002,11.7130013 Z M86.3190002,11.7130013" id="Rectangle" fill="#FFFFFF"></path>
                    <path d="M93.1710052,11.7130013 L93.1710052,102.515003 L98.5860052,102.515003 L98.5860052,11.7130013 L93.1710052,11.7130013 L93.1710052,11.7130013 Z M93.1710052,11.7130013" id="Rectangle" fill="#FFFFFF"></path>
                    <path d="M51.8410034,125.358994 L51.8410034,147.528994 L98.6950035,147.528994 L98.6950035,125.358994 L51.8410034,125.358994 L51.8410034,125.358994 Z M51.8410034,125.358994" id="Rectangle" fill="#BDBEC0"></path>
                    <path d="M0.85100174,125.358994 L0.85100174,147.528994 L47.7050018,147.528994 L47.7050018,125.358994 L0.85100174,125.358994 L0.85100174,125.358994 Z M0.85100174,125.358994" id="Rectangle" fill="#BDBEC0"></path>
                    <path d="M45.0080032,76.9909973 L45.0080032,79.7999973 L47.3660033,79.7999973 L47.3660033,76.9909973 L45.0080032,76.9909973 L45.0080032,76.9909973 Z M45.0080032,76.9909973" id="Rectangle" fill="#547EA8"></path>
                    <path d="M45.0080032,73.1360016 L45.0080032,75.9470017 L47.3660033,75.9470017 L47.3660033,73.1360016 L45.0080032,73.1360016 L45.0080032,73.1360016 Z M45.0080032,73.1360016" id="Rectangle" fill="#547EA8"></path>
                    <path d="M45.0080032,68.947998 L45.0080032,71.754998 L47.3660033,71.754998 L47.3660033,68.947998 L45.0080032,68.947998 L45.0080032,68.947998 Z M45.0080032,68.947998" id="Rectangle" fill="#547EA8"></path>
                    <path d="M45.3939972,65.0920029 L45.3939972,67.8990028 L47.0849972,67.8990028 L47.0849972,65.0920029 L45.3939972,65.0920029 L45.3939972,65.0920029 Z M45.3939972,65.0920029" id="Rectangle" fill="#547EA8"></path>
                    <path d="M52.1729965,76.9909973 L52.1729965,79.7999973 L54.5279965,79.7999973 L54.5279965,76.9909973 L52.1729965,76.9909973 L52.1729965,76.9909973 Z M52.1729965,76.9909973" id="Rectangle" fill="#547EA8"></path>
                    <path d="M52.1729965,73.1360016 L52.1729965,75.9470017 L54.5279965,75.9470017 L54.5279965,73.1360016 L52.1729965,73.1360016 L52.1729965,73.1360016 Z M52.1729965,73.1360016" id="Rectangle" fill="#547EA8"></path>
                    <path d="M52.1729965,68.947998 L52.1729965,71.754998 L54.5279965,71.754998 L54.5279965,68.947998 L52.1729965,68.947998 L52.1729965,68.947998 Z M52.1729965,68.947998" id="Rectangle" fill="#547EA8"></path>
                    <path d="M52.5279999,65.0920029 L52.5279999,67.8990028 L54.2189999,67.8990028 L54.2189999,65.0920029 L52.5279999,65.0920029 L52.5279999,65.0920029 Z M52.5279999,65.0920029" id="Rectangle" fill="#547EA8"></path>
                    <path d="M74.411,31.758 L74.411,28.77 L76.226,28.77 L76.226,31.758 L74.411,31.758 L74.411,31.758 Z M74.411,31.758" id="Shape" fill="#547EA8"></path>
                    <path d="M66.448,31.758 L66.448,28.77 L68.265,28.77 L68.265,31.758 L66.448,31.758 L66.448,31.758 Z M66.448,31.758" id="Shape" fill="#547EA8"></path>
                    <path d="M74.411,51.864 L74.411,48.874 L76.226,48.874 L76.226,51.864 L74.411,51.864 L74.411,51.864 Z M74.411,51.864" id="Shape" fill="#547EA8"></path>
                    <path d="M66.448,51.864 L66.448,48.874 L68.265,48.874 L68.265,51.864 L66.448,51.864 L66.448,51.864 Z M66.448,51.864" id="Shape" fill="#547EA8"></path>
                    <path d="M74.411,70.528 L74.411,67.542 L76.226,67.542 L76.226,70.528 L74.411,70.528 L74.411,70.528 Z M74.411,70.528" id="Shape" fill="#547EA8"></path>
                    <path d="M66.448,70.528 L66.448,67.542 L68.265,67.542 L68.265,70.528 L66.448,70.528 L66.448,70.528 Z M66.448,70.528" id="Shape" fill="#547EA8"></path>
                    <path d="M74.411,91.248 L74.411,88.26 L76.226,88.26 L76.226,91.248 L74.411,91.248 L74.411,91.248 Z M74.411,91.248" id="Shape" fill="#547EA8"></path>
                    <path d="M80.975,31.758 L80.975,28.77 L82.792,28.77 L82.792,31.758 L80.975,31.758 L80.975,31.758 Z M80.975,31.758" id="Shape" fill="#547EA8"></path>
                    <path d="M80.975,51.864 L80.975,48.874 L82.792,48.874 L82.792,51.864 L80.975,51.864 L80.975,51.864 Z M80.975,51.864" id="Shape" fill="#547EA8"></path>
                    <path d="M80.975,70.528 L80.975,67.542 L82.792,67.542 L82.792,70.528 L80.975,70.528 L80.975,70.528 Z M80.975,70.528" id="Shape" fill="#547EA8"></path>
                    <path d="M80.975,91.248 L80.975,88.26 L82.792,88.26 L82.792,91.248 L80.975,91.248 L80.975,91.248 Z M80.975,91.248" id="Shape" fill="#547EA8"></path>
                    <path d="M66.448,91.248 L66.448,88.26 L68.265,88.26 L68.265,91.248 L66.448,91.248 L66.448,91.248 Z M66.448,91.248" id="Shape" fill="#547EA8"></path>
                    <path d="M9.10100174,19.2669983 L9.10100174,54.1409988 L10.3310018,54.1409988 L10.3310018,19.2669983 L9.10100174,19.2669983 L9.10100174,19.2669983 Z M9.10100174,19.2669983" id="Rectangle" fill="#547EA8"></path>
                    <path d="M11.3580017,19.2669983 L11.3580017,54.1409988 L12.5880017,54.1409988 L12.5880017,19.2669983 L11.3580017,19.2669983 L11.3580017,19.2669983 Z M11.3580017,19.2669983" id="Rectangle" fill="#547EA8"></path>
                    <path d="M23.2689972,19.2669983 L23.2689972,54.1409988 L24.5009972,54.1409988 L24.5009972,19.2669983 L23.2689972,19.2669983 L23.2689972,19.2669983 Z M23.2689972,19.2669983" id="Rectangle" fill="#547EA8"></path>
                    <path d="M25.526001,19.2669983 L25.526001,54.1409988 L26.758001,54.1409988 L26.758001,19.2669983 L25.526001,19.2669983 L25.526001,19.2669983 Z M25.526001,19.2669983" id="Rectangle" fill="#547EA8"></path>
                    <path d="M9.10100174,60.0899963 L9.10100174,94.9649963 L10.3310018,94.9649963 L10.3310018,60.0899963 L9.10100174,60.0899963 L9.10100174,60.0899963 Z M9.10100174,60.0899963" id="Rectangle" fill="#547EA8"></path>
                    <path d="M11.3580017,60.0899963 L11.3580017,94.9649963 L12.5880017,94.9649963 L12.5880017,60.0899963 L11.3580017,60.0899963 L11.3580017,60.0899963 Z M11.3580017,60.0899963" id="Rectangle" fill="#547EA8"></path>
                    <path d="M23.2689972,60.0899963 L23.2689972,94.9649963 L24.5009972,94.9649963 L24.5009972,60.0899963 L23.2689972,60.0899963 L23.2689972,60.0899963 Z M23.2689972,60.0899963" id="Rectangle" fill="#547EA8"></path>
                    <path d="M25.526001,60.0899963 L25.526001,94.9649963 L26.758001,94.9649963 L26.758001,60.0899963 L25.526001,60.0899963 L25.526001,60.0899963 Z M25.526001,60.0899963" id="Rectangle" fill="#547EA8"></path>
                    <path d="M98.72,112.801 L0.858,112.801 L0.858,104.609 L98.72,104.604 L98.72,112.801 L98.72,112.801 Z M98.72,112.801" id="Shape" fill="#BDBEC0"></path>
                    <path d="M98.72,122.926 L0.858,122.926 L0.858,114.734 L98.72,114.729 L98.72,122.926 L98.72,122.926 Z M98.72,122.926" id="Shape" fill="#BDBEC0"></path>
                </g>
            </g>
            <g id="mx9600_external">
                <g id="Group">
                    <path d="M0.98500061,0.416999817 L0.98500061,174.254005 L118.581001,174.254005 L118.581001,0.416999817 L0.98500061,0.416999817 L0.98500061,0.416999817 Z M0.98500061,0.416999817" id="Rectangle" stroke="#547EA8" stroke-width="1.5" fill="#547EA8"></path>
                    <path d="M86.1230011,12.4300003 L86.1230011,16.1740003 L91.315001,16.1740003 L91.315001,12.4300003 L86.1230011,12.4300003 L86.1230011,12.4300003 Z M86.1230011,12.4300003" id="Rectangle" fill="#FFFFFF"></path>
                    <path d="M98.1589966,12.4300003 L98.1589966,16.1740003 L103.353997,16.1740003 L103.353997,12.4300003 L98.1589966,12.4300003 L98.1589966,12.4300003 Z M98.1589966,12.4300003" id="Rectangle" fill="#FFFFFF"></path>
                </g>
                <g id="Group" transform="translate(10.000000, 20.000000)">
                    <path d="M98.72,8.741 L0.858,8.741 L0.858,0.549 L98.72,0.543 L98.72,8.741 L98.72,8.741 Z M98.72,8.741" id="Shape" fill="#BDBEC0"></path>
                    <path d="M1.15200043,11.7130013 L1.15200043,102.515003 L6.56700039,102.515003 L6.56700039,11.7130013 L1.15200043,11.7130013 L1.15200043,11.7130013 Z M1.15200043,11.7130013" id="Rectangle" fill="#FFFFFF"></path>
                    <path d="M8.12599945,11.7130013 L8.12599945,102.515003 L13.5409994,102.515003 L13.5409994,11.7130013 L8.12599945,11.7130013 L8.12599945,11.7130013 Z M8.12599945,11.7130013" id="Rectangle" fill="#FFFFFF"></path>
                    <path d="M15.3079987,11.7130013 L15.3079987,102.515003 L20.7219987,102.515003 L20.7219987,11.7130013 L15.3079987,11.7130013 L15.3079987,11.7130013 Z M15.3079987,11.7130013" id="Rectangle" fill="#FFFFFF"></path>
                    <path d="M22.3010025,11.7130013 L22.3010025,102.515003 L27.7160025,102.515003 L27.7160025,11.7130013 L22.3010025,11.7130013 L22.3010025,11.7130013 Z M22.3010025,11.7130013" id="Rectangle" fill="#FFFFFF"></path>
                    <path d="M29.348999,11.7130013 L29.348999,102.515003 L34.763999,102.515003 L34.763999,11.7130013 L29.348999,11.7130013 L29.348999,11.7130013 Z M29.348999,11.7130013" id="Rectangle" fill="#FFFFFF"></path>
                    <path d="M36.401001,11.7130013 L36.401001,102.515003 L41.8130012,102.515003 L41.8130012,11.7130013 L36.401001,11.7130013 L36.401001,11.7130013 Z M36.401001,11.7130013" id="Rectangle" fill="#FFFFFF"></path>
                    <path d="M43.4459991,11.7130013 L43.4459991,102.515003 L48.8639994,102.515003 L48.8639994,11.7130013 L43.4459991,11.7130013 L43.4459991,11.7130013 Z M43.4459991,11.7130013" id="Rectangle" fill="#FFFFFF"></path>
                    <path d="M50.4970016,11.7130013 L50.4970016,102.515003 L55.9120016,102.515003 L55.9120016,11.7130013 L50.4970016,11.7130013 L50.4970016,11.7130013 Z M50.4970016,11.7130013" id="Rectangle" fill="#FFFFFF"></path>
                    <path d="M57.8170013,11.7130013 L57.8170013,102.515003 L63.2320013,102.515003 L63.2320013,11.7130013 L57.8170013,11.7130013 L57.8170013,11.7130013 Z M57.8170013,11.7130013" id="Rectangle" fill="#FFFFFF"></path>
                    <path d="M64.9830017,11.7130013 L64.9830017,102.515003 L70.3970017,102.515003 L70.3970017,11.7130013 L64.9830017,11.7130013 L64.9830017,11.7130013 Z M64.9830017,11.7130013" id="Rectangle" fill="#FFFFFF"></path>
                    <path d="M72.3040009,11.7130013 L72.3040009,102.515003 L77.7180009,102.515003 L77.7180009,11.7130013 L72.3040009,11.7130013 L72.3040009,11.7130013 Z M72.3040009,11.7130013" id="Rectangle" fill="#FFFFFF"></path>
                    <path d="M79.3099976,11.7130013 L79.3099976,102.515003 L84.7259974,102.515003 L84.7259974,11.7130013 L79.3099976,11.7130013 L79.3099976,11.7130013 Z M79.3099976,11.7130013" id="Rectangle" fill="#FFFFFF"></path>
                    <path d="M86.3190002,11.7130013 L86.3190002,102.515003 L91.7350001,102.515003 L91.7350001,11.7130013 L86.3190002,11.7130013 L86.3190002,11.7130013 Z M86.3190002,11.7130013" id="Rectangle" fill="#FFFFFF"></path>
                    <path d="M93.1710052,11.7130013 L93.1710052,102.515003 L98.5860052,102.515003 L98.5860052,11.7130013 L93.1710052,11.7130013 L93.1710052,11.7130013 Z M93.1710052,11.7130013" id="Rectangle" fill="#FFFFFF"></path>
                    <path d="M51.8410034,125.358994 L51.8410034,147.528994 L98.6950035,147.528994 L98.6950035,125.358994 L51.8410034,125.358994 L51.8410034,125.358994 Z M51.8410034,125.358994" id="Rectangle" fill="#BDBEC0"></path>
                    <path d="M0.85100174,125.358994 L0.85100174,147.528994 L47.7050018,147.528994 L47.7050018,125.358994 L0.85100174,125.358994 L0.85100174,125.358994 Z M0.85100174,125.358994" id="Rectangle" fill="#BDBEC0"></path>
                    <path d="M45.0080032,76.9909973 L45.0080032,79.7999973 L47.3660033,79.7999973 L47.3660033,76.9909973 L45.0080032,76.9909973 L45.0080032,76.9909973 Z M45.0080032,76.9909973" id="Rectangle" fill="#547EA8"></path>
                    <path d="M45.0080032,73.1360016 L45.0080032,75.9470017 L47.3660033,75.9470017 L47.3660033,73.1360016 L45.0080032,73.1360016 L45.0080032,73.1360016 Z M45.0080032,73.1360016" id="Rectangle" fill="#547EA8"></path>
                    <path d="M45.0080032,68.947998 L45.0080032,71.754998 L47.3660033,71.754998 L47.3660033,68.947998 L45.0080032,68.947998 L45.0080032,68.947998 Z M45.0080032,68.947998" id="Rectangle" fill="#547EA8"></path>
                    <path d="M45.3939972,65.0920029 L45.3939972,67.8990028 L47.0849972,67.8990028 L47.0849972,65.0920029 L45.3939972,65.0920029 L45.3939972,65.0920029 Z M45.3939972,65.0920029" id="Rectangle" fill="#547EA8"></path>
                    <path d="M52.1729965,76.9909973 L52.1729965,79.7999973 L54.5279965,79.7999973 L54.5279965,76.9909973 L52.1729965,76.9909973 L52.1729965,76.9909973 Z M52.1729965,76.9909973" id="Rectangle" fill="#547EA8"></path>
                    <path d="M52.1729965,73.1360016 L52.1729965,75.9470017 L54.5279965,75.9470017 L54.5279965,73.1360016 L52.1729965,73.1360016 L52.1729965,73.1360016 Z M52.1729965,73.1360016" id="Rectangle" fill="#547EA8"></path>
                    <path d="M52.1729965,68.947998 L52.1729965,71.754998 L54.5279965,71.754998 L54.5279965,68.947998 L52.1729965,68.947998 L52.1729965,68.947998 Z M52.1729965,68.947998" id="Rectangle" fill="#547EA8"></path>
                    <path d="M52.5279999,65.0920029 L52.5279999,67.8990028 L54.2189999,67.8990028 L54.2189999,65.0920029 L52.5279999,65.0920029 L52.5279999,65.0920029 Z M52.5279999,65.0920029" id="Rectangle" fill="#547EA8"></path>
                    <path d="M74.411,31.758 L74.411,28.77 L76.226,28.77 L76.226,31.758 L74.411,31.758 L74.411,31.758 Z M74.411,31.758" id="Shape" fill="#547EA8"></path>
                    <path d="M66.448,31.758 L66.448,28.77 L68.265,28.77 L68.265,31.758 L66.448,31.758 L66.448,31.758 Z M66.448,31.758" id="Shape" fill="#547EA8"></path>
                    <path d="M74.411,51.864 L74.411,48.874 L76.226,48.874 L76.226,51.864 L74.411,51.864 L74.411,51.864 Z M74.411,51.864" id="Shape" fill="#547EA8"></path>
                    <path d="M66.448,51.864 L66.448,48.874 L68.265,48.874 L68.265,51.864 L66.448,51.864 L66.448,51.864 Z M66.448,51.864" id="Shape" fill="#547EA8"></path>
                    <path d="M74.411,70.528 L74.411,67.542 L76.226,67.542 L76.226,70.528 L74.411,70.528 L74.411,70.528 Z M74.411,70.528" id="Shape" fill="#547EA8"></path>
                    <path d="M66.448,70.528 L66.448,67.542 L68.265,67.542 L68.265,70.528 L66.448,70.528 L66.448,70.528 Z M66.448,70.528" id="Shape" fill="#547EA8"></path>
                    <path d="M74.411,91.248 L74.411,88.26 L76.226,88.26 L76.226,91.248 L74.411,91.248 L74.411,91.248 Z M74.411,91.248" id="Shape" fill="#547EA8"></path>
                    <path d="M80.975,31.758 L80.975,28.77 L82.792,28.77 L82.792,31.758 L80.975,31.758 L80.975,31.758 Z M80.975,31.758" id="Shape" fill="#547EA8"></path>
                    <path d="M80.975,51.864 L80.975,48.874 L82.792,48.874 L82.792,51.864 L80.975,51.864 L80.975,51.864 Z M80.975,51.864" id="Shape" fill="#547EA8"></path>
                    <path d="M80.975,70.528 L80.975,67.542 L82.792,67.542 L82.792,70.528 L80.975,70.528 L80.975,70.528 Z M80.975,70.528" id="Shape" fill="#547EA8"></path>
                    <path d="M80.975,91.248 L80.975,88.26 L82.792,88.26 L82.792,91.248 L80.975,91.248 L80.975,91.248 Z M80.975,91.248" id="Shape" fill="#547EA8"></path>
                    <path d="M66.448,91.248 L66.448,88.26 L68.265,88.26 L68.265,91.248 L66.448,91.248 L66.448,91.248 Z M66.448,91.248" id="Shape" fill="#547EA8"></path>
                    <path d="M9.10100174,19.2669983 L9.10100174,54.1409988 L10.3310018,54.1409988 L10.3310018,19.2669983 L9.10100174,19.2669983 L9.10100174,19.2669983 Z M9.10100174,19.2669983" id="Rectangle" fill="#547EA8"></path>
                    <path d="M11.3580017,19.2669983 L11.3580017,54.1409988 L12.5880017,54.1409988 L12.5880017,19.2669983 L11.3580017,19.2669983 L11.3580017,19.2669983 Z M11.3580017,19.2669983" id="Rectangle" fill="#547EA8"></path>
                    <path d="M23.2689972,19.2669983 L23.2689972,54.1409988 L24.5009972,54.1409988 L24.5009972,19.2669983 L23.2689972,19.2669983 L23.2689972,19.2669983 Z M23.2689972,19.2669983" id="Rectangle" fill="#547EA8"></path>
                    <path d="M25.526001,19.2669983 L25.526001,54.1409988 L26.758001,54.1409988 L26.758001,19.2669983 L25.526001,19.2669983 L25.526001,19.2669983 Z M25.526001,19.2669983" id="Rectangle" fill="#547EA8"></path>
                    <path d="M9.10100174,60.0899963 L9.10100174,94.9649963 L10.3310018,94.9649963 L10.3310018,60.0899963 L9.10100174,60.0899963 L9.10100174,60.0899963 Z M9.10100174,60.0899963" id="Rectangle" fill="#547EA8"></path>
                    <path d="M11.3580017,60.0899963 L11.3580017,94.9649963 L12.5880017,94.9649963 L12.5880017,60.0899963 L11.3580017,60.0899963 L11.3580017,60.0899963 Z M11.3580017,60.0899963" id="Rectangle" fill="#547EA8"></path>
                    <path d="M23.2689972,60.0899963 L23.2689972,94.9649963 L24.5009972,94.9649963 L24.5009972,60.0899963 L23.2689972,60.0899963 L23.2689972,60.0899963 Z M23.2689972,60.0899963" id="Rectangle" fill="#547EA8"></path>
                    <path d="M25.526001,60.0899963 L25.526001,94.9649963 L26.758001,94.9649963 L26.758001,60.0899963 L25.526001,60.0899963 L25.526001,60.0899963 Z M25.526001,60.0899963" id="Rectangle" fill="#547EA8"></path>
                    <path d="M98.72,112.801 L0.858,112.801 L0.858,104.609 L98.72,104.604 L98.72,112.801 L98.72,112.801 Z M98.72,112.801" id="Shape" fill="#BDBEC0"></path>
                    <path d="M98.72,122.926 L0.858,122.926 L0.858,114.734 L98.72,114.729 L98.72,122.926 L98.72,122.926 Z M98.72,122.926" id="Shape" fill="#BDBEC0"></path>
                </g>
            </g>
            <path d="M0,0 L0,175 L119,175 L119,0 L0,0 Z M0,0" id="mx9600_external_active" stroke="#FBA617" stroke-width="5" fill="none"></path>
        </g>
        <g id="ex2020_icons">
            <g id="ex2020_external">
                <path d="M0.769001007,0.779998779 L0.769001007,21.947998 L118.363003,21.947998 L118.363003,0.779998779 L0.769001007,0.779998779 Z M0.769001007,0.779998779" id="Rectangle" stroke="#547EA8" stroke-width="1.5" fill="#547EA8"></path>
                <g id="Group" transform="translate(52.000000, 12.000000)">
                    <path d="M24.1090012,0.178001404 L24.1090012,6.42700148 L47.0740013,6.42700148 L47.0740013,0.178001404 L24.1090012,0.178001404 Z M24.1090012,0.178001404" id="Rectangle" fill="#FFFFFF"></path>
                    <path d="M25.9749985,0.913002014 L25.9749985,5.34100199 L28.2019985,5.34100199 L28.2019985,0.913002014 L25.9749985,0.913002014 Z M25.9749985,0.913002014" id="Rectangle" fill="#547EA8"></path>
                    <path d="M29.3550034,0.913002014 L29.3550034,5.34100199 L31.5800033,5.34100199 L31.5800033,0.913002014 L29.3550034,0.913002014 Z M29.3550034,0.913002014" id="Rectangle" fill="#547EA8"></path>
                    <path d="M32.7340012,0.913002014 L32.7340012,5.34100199 L34.9590011,5.34100199 L34.9590011,0.913002014 L32.7340012,0.913002014 Z M32.7340012,0.913002014" id="Rectangle" fill="#547EA8"></path>
                    <path d="M36.1130066,0.913002014 L36.1130066,5.34100199 L38.3400066,5.34100199 L38.3400066,0.913002014 L36.1130066,0.913002014 Z M36.1130066,0.913002014" id="Rectangle" fill="#547EA8"></path>
                    <path d="M39.4909973,0.913002014 L39.4909973,5.34100199 L41.7189972,5.34100199 L41.7189972,0.913002014 L39.4909973,0.913002014 Z M39.4909973,0.913002014" id="Rectangle" fill="#547EA8"></path>
                    <path d="M42.8739929,0.913002014 L42.8739929,5.34100199 L45.0979929,5.34100199 L45.0979929,0.913002014 L42.8739929,0.913002014 Z M42.8739929,0.913002014" id="Rectangle" fill="#547EA8"></path>
                    <path d="M0.11000061,0.178001404 L0.11000061,6.42700148 L23.0760002,6.42700148 L23.0760002,0.178001404 L0.11000061,0.178001404 Z M0.11000061,0.178001404" id="Rectangle" fill="#FFFFFF"></path>
                    <path d="M1.97399902,0.913002014 L1.97399902,5.34100199 L4.20099902,5.34100199 L4.20099902,0.913002014 L1.97399902,0.913002014 Z M1.97399902,0.913002014" id="Rectangle" fill="#547EA8"></path>
                    <path d="M5.35399628,0.913002014 L5.35399628,5.34100199 L7.58099627,5.34100199 L7.58099627,0.913002014 L5.35399628,0.913002014 Z M5.35399628,0.913002014" id="Rectangle" fill="#547EA8"></path>
                    <path d="M8.73000336,0.913002014 L8.73000336,5.34100199 L10.9590034,5.34100199 L10.9590034,0.913002014 L8.73000336,0.913002014 Z M8.73000336,0.913002014" id="Rectangle" fill="#547EA8"></path>
                    <path d="M12.112999,0.913002014 L12.112999,5.34100199 L14.339999,5.34100199 L14.339999,0.913002014 L12.112999,0.913002014 Z M12.112999,0.913002014" id="Rectangle" fill="#547EA8"></path>
                    <path d="M15.4919968,0.913002014 L15.4919968,5.34100199 L17.7189968,5.34100199 L17.7189968,0.913002014 L15.4919968,0.913002014 Z M15.4919968,0.913002014" id="Rectangle" fill="#547EA8"></path>
                    <path d="M18.8700027,0.913002014 L18.8700027,5.34100199 L21.0980027,5.34100199 L21.0980027,0.913002014 L18.8700027,0.913002014 Z M18.8700027,0.913002014" id="Rectangle" fill="#547EA8"></path>
                </g>
                <g id="Group" transform="translate(101.000000, 15.000000)" fill="#FFFFFF">
                    <path d="M0.229003906,0.334999084 L0.229003906,3.549999 L6.62500381,3.549999 L6.62500381,0.334999084 L0.229003906,0.334999084 Z M0.229003906,0.334999084" id="Rectangle"></path>
                    <path d="M8.3730011,0.334999084 L8.3730011,3.549999 L14.775001,3.549999 L14.775001,0.334999084 L8.3730011,0.334999084 Z M8.3730011,0.334999084" id="Rectangle"></path>
                </g>
                <g id="Group" transform="translate(52.000000, 4.000000)">
                    <path d="M24.1090012,0.249000549 L24.1090012,6.49900055 L47.0740013,6.49900055 L47.0740013,0.249000549 L24.1090012,0.249000549 Z M24.1090012,0.249000549" id="Rectangle" fill="#FFFFFF"></path>
                    <path d="M25.9749985,0.98400116 L25.9749985,5.41100121 L28.2019985,5.41100121 L28.2019985,0.98400116 L25.9749985,0.98400116 Z M25.9749985,0.98400116" id="Rectangle" fill="#547EA8"></path>
                    <path d="M29.3550034,0.98400116 L29.3550034,5.41100121 L31.5800033,5.41100121 L31.5800033,0.98400116 L29.3550034,0.98400116 Z M29.3550034,0.98400116" id="Rectangle" fill="#547EA8"></path>
                    <path d="M32.7340012,0.98400116 L32.7340012,5.41100121 L34.9590011,5.41100121 L34.9590011,0.98400116 L32.7340012,0.98400116 Z M32.7340012,0.98400116" id="Rectangle" fill="#547EA8"></path>
                    <path d="M36.1130066,0.98400116 L36.1130066,5.41100121 L38.3400066,5.41100121 L38.3400066,0.98400116 L36.1130066,0.98400116 Z M36.1130066,0.98400116" id="Rectangle" fill="#547EA8"></path>
                    <path d="M39.4909973,0.98400116 L39.4909973,5.41100121 L41.7189972,5.41100121 L41.7189972,0.98400116 L39.4909973,0.98400116 Z M39.4909973,0.98400116" id="Rectangle" fill="#547EA8"></path>
                    <path d="M42.8739929,0.98400116 L42.8739929,5.41100121 L45.0979929,5.41100121 L45.0979929,0.98400116 L42.8739929,0.98400116 Z M42.8739929,0.98400116" id="Rectangle" fill="#547EA8"></path>
                    <path d="M0.11000061,0.249000549 L0.11000061,6.49900055 L23.0760002,6.49900055 L23.0760002,0.249000549 L0.11000061,0.249000549 Z M0.11000061,0.249000549" id="Rectangle" fill="#FFFFFF"></path>
                    <path d="M1.97399902,0.98400116 L1.97399902,5.41100121 L4.20099902,5.41100121 L4.20099902,0.98400116 L1.97399902,0.98400116 Z M1.97399902,0.98400116" id="Rectangle" fill="#547EA8"></path>
                    <path d="M5.35399628,0.98400116 L5.35399628,5.41100121 L7.58099627,5.41100121 L7.58099627,0.98400116 L5.35399628,0.98400116 Z M5.35399628,0.98400116" id="Rectangle" fill="#547EA8"></path>
                    <path d="M8.73000336,0.98400116 L8.73000336,5.41100121 L10.9590034,5.41100121 L10.9590034,0.98400116 L8.73000336,0.98400116 Z M8.73000336,0.98400116" id="Rectangle" fill="#547EA8"></path>
                    <path d="M12.112999,0.98400116 L12.112999,5.41100121 L14.339999,5.41100121 L14.339999,0.98400116 L12.112999,0.98400116 Z M12.112999,0.98400116" id="Rectangle" fill="#547EA8"></path>
                    <path d="M15.4919968,0.98400116 L15.4919968,5.41100121 L17.7189968,5.41100121 L17.7189968,0.98400116 L15.4919968,0.98400116 Z M15.4919968,0.98400116" id="Rectangle" fill="#547EA8"></path>
                    <path d="M18.8700027,0.98400116 L18.8700027,5.41100121 L21.0980027,5.41100121 L21.0980027,0.98400116 L18.8700027,0.98400116 Z M18.8700027,0.98400116" id="Rectangle" fill="#547EA8"></path>
                </g>
            </g>
            <g id="ex2020_external_rollover">
                <path d="M0.769001007,0.779998779 L0.769001007,21.947998 L118.363003,21.947998 L118.363003,0.779998779 L0.769001007,0.779998779 Z M0.769001007,0.779998779" id="Rectangle" stroke="#36516C" stroke-width="1.5" fill="#36516C"></path>
                <g id="Group" transform="translate(52.000000, 12.000000)">
                    <path d="M24.1090012,0.178001404 L24.1090012,6.42700148 L47.0740013,6.42700148 L47.0740013,0.178001404 L24.1090012,0.178001404 Z M24.1090012,0.178001404" id="Rectangle" fill="#FFFFFF"></path>
                    <path d="M25.9749985,0.913002014 L25.9749985,5.34100199 L28.2019985,5.34100199 L28.2019985,0.913002014 L25.9749985,0.913002014 Z M25.9749985,0.913002014" id="Rectangle" fill="#36516C"></path>
                    <path d="M29.3550034,0.913002014 L29.3550034,5.34100199 L31.5800033,5.34100199 L31.5800033,0.913002014 L29.3550034,0.913002014 Z M29.3550034,0.913002014" id="Rectangle" fill="#36516C"></path>
                    <path d="M32.7340012,0.913002014 L32.7340012,5.34100199 L34.9590011,5.34100199 L34.9590011,0.913002014 L32.7340012,0.913002014 Z M32.7340012,0.913002014" id="Rectangle" fill="#36516C"></path>
                    <path d="M36.1130066,0.913002014 L36.1130066,5.34100199 L38.3400066,5.34100199 L38.3400066,0.913002014 L36.1130066,0.913002014 Z M36.1130066,0.913002014" id="Rectangle" fill="#36516C"></path>
                    <path d="M39.4909973,0.913002014 L39.4909973,5.34100199 L41.7189972,5.34100199 L41.7189972,0.913002014 L39.4909973,0.913002014 Z M39.4909973,0.913002014" id="Rectangle" fill="#36516C"></path>
                    <path d="M42.8739929,0.913002014 L42.8739929,5.34100199 L45.0979929,5.34100199 L45.0979929,0.913002014 L42.8739929,0.913002014 Z M42.8739929,0.913002014" id="Rectangle" fill="#36516C"></path>
                    <path d="M0.11000061,0.178001404 L0.11000061,6.42700148 L23.0760002,6.42700148 L23.0760002,0.178001404 L0.11000061,0.178001404 Z M0.11000061,0.178001404" id="Rectangle" fill="#FFFFFF"></path>
                    <path d="M1.97399902,0.913002014 L1.97399902,5.34100199 L4.20099902,5.34100199 L4.20099902,0.913002014 L1.97399902,0.913002014 Z M1.97399902,0.913002014" id="Rectangle" fill="#36516C"></path>
                    <path d="M5.35399628,0.913002014 L5.35399628,5.34100199 L7.58099627,5.34100199 L7.58099627,0.913002014 L5.35399628,0.913002014 Z M5.35399628,0.913002014" id="Rectangle" fill="#36516C"></path>
                    <path d="M8.73000336,0.913002014 L8.73000336,5.34100199 L10.9590034,5.34100199 L10.9590034,0.913002014 L8.73000336,0.913002014 Z M8.73000336,0.913002014" id="Rectangle" fill="#36516C"></path>
                    <path d="M12.112999,0.913002014 L12.112999,5.34100199 L14.339999,5.34100199 L14.339999,0.913002014 L12.112999,0.913002014 Z M12.112999,0.913002014" id="Rectangle" fill="#36516C"></path>
                    <path d="M15.4919968,0.913002014 L15.4919968,5.34100199 L17.7189968,5.34100199 L17.7189968,0.913002014 L15.4919968,0.913002014 Z M15.4919968,0.913002014" id="Rectangle" fill="#36516C"></path>
                    <path d="M18.8700027,0.913002014 L18.8700027,5.34100199 L21.0980027,5.34100199 L21.0980027,0.913002014 L18.8700027,0.913002014 Z M18.8700027,0.913002014" id="Rectangle" fill="#36516C"></path>
                </g>
                <g id="Group" transform="translate(101.000000, 15.000000)" fill="#FFFFFF">
                    <path d="M0.229003906,0.334999084 L0.229003906,3.549999 L6.62500381,3.549999 L6.62500381,0.334999084 L0.229003906,0.334999084 Z M0.229003906,0.334999084" id="Rectangle"></path>
                    <path d="M8.3730011,0.334999084 L8.3730011,3.549999 L14.775001,3.549999 L14.775001,0.334999084 L8.3730011,0.334999084 Z M8.3730011,0.334999084" id="Rectangle"></path>
                </g>
                <g id="Group" transform="translate(52.000000, 4.000000)">
                    <path d="M24.1090012,0.249000549 L24.1090012,6.49900055 L47.0740013,6.49900055 L47.0740013,0.249000549 L24.1090012,0.249000549 Z M24.1090012,0.249000549" id="Rectangle" fill="#FFFFFF"></path>
                    <path d="M25.9749985,0.98400116 L25.9749985,5.41100121 L28.2019985,5.41100121 L28.2019985,0.98400116 L25.9749985,0.98400116 Z M25.9749985,0.98400116" id="Rectangle" fill="#36516C"></path>
                    <path d="M29.3550034,0.98400116 L29.3550034,5.41100121 L31.5800033,5.41100121 L31.5800033,0.98400116 L29.3550034,0.98400116 Z M29.3550034,0.98400116" id="Rectangle" fill="#36516C"></path>
                    <path d="M32.7340012,0.98400116 L32.7340012,5.41100121 L34.9590011,5.41100121 L34.9590011,0.98400116 L32.7340012,0.98400116 Z M32.7340012,0.98400116" id="Rectangle" fill="#36516C"></path>
                    <path d="M36.1130066,0.98400116 L36.1130066,5.41100121 L38.3400066,5.41100121 L38.3400066,0.98400116 L36.1130066,0.98400116 Z M36.1130066,0.98400116" id="Rectangle" fill="#36516C"></path>
                    <path d="M39.4909973,0.98400116 L39.4909973,5.41100121 L41.7189972,5.41100121 L41.7189972,0.98400116 L39.4909973,0.98400116 Z M39.4909973,0.98400116" id="Rectangle" fill="#36516C"></path>
                    <path d="M42.8739929,0.98400116 L42.8739929,5.41100121 L45.0979929,5.41100121 L45.0979929,0.98400116 L42.8739929,0.98400116 Z M42.8739929,0.98400116" id="Rectangle" fill="#36516C"></path>
                    <path d="M0.11000061,0.249000549 L0.11000061,6.49900055 L23.0760002,6.49900055 L23.0760002,0.249000549 L0.11000061,0.249000549 Z M0.11000061,0.249000549" id="Rectangle" fill="#FFFFFF"></path>
                    <path d="M1.97399902,0.98400116 L1.97399902,5.41100121 L4.20099902,5.41100121 L4.20099902,0.98400116 L1.97399902,0.98400116 Z M1.97399902,0.98400116" id="Rectangle" fill="#36516C"></path>
                    <path d="M5.35399628,0.98400116 L5.35399628,5.41100121 L7.58099627,5.41100121 L7.58099627,0.98400116 L5.35399628,0.98400116 Z M5.35399628,0.98400116" id="Rectangle" fill="#36516C"></path>
                    <path d="M8.73000336,0.98400116 L8.73000336,5.41100121 L10.9590034,5.41100121 L10.9590034,0.98400116 L8.73000336,0.98400116 Z M8.73000336,0.98400116" id="Rectangle" fill="#36516C"></path>
                    <path d="M12.112999,0.98400116 L12.112999,5.41100121 L14.339999,5.41100121 L14.339999,0.98400116 L12.112999,0.98400116 Z M12.112999,0.98400116" id="Rectangle" fill="#36516C"></path>
                    <path d="M15.4919968,0.98400116 L15.4919968,5.41100121 L17.7189968,5.41100121 L17.7189968,0.98400116 L15.4919968,0.98400116 Z M15.4919968,0.98400116" id="Rectangle" fill="#36516C"></path>
                    <path d="M18.8700027,0.98400116 L18.8700027,5.41100121 L21.0980027,5.41100121 L21.0980027,0.98400116 L18.8700027,0.98400116 Z M18.8700027,0.98400116" id="Rectangle" fill="#36516C"></path>
                </g>
            </g>
            <path d="M0,0 L0,22 L119,22 L119,0 L0,0 Z M0,0" id="ex2020_external_active" stroke="#FBA617" stroke-width="5" fill="none"></path>
        </g>
    </g>
</svg>