<svg xmlns="http://www.w3.org/2000/svg" id="vmware-icons" viewBox="0 0 100.02 100.01">
    <title>VMware icons</title>
    <g id="vmware-datacenter_icon" data-name="vmware-datacenter icon">
        <g id="vmware-datacenter_active" data-name="vmware-datacenter active">
            <rect x="0.02" width="100" height="100" fill="#fff"/>
            <polygon points="29.3 10.35 10.93 22.62 10.93 55.35 25.33 60.26 44.47 46.35 44.47 13.62 29.3 10.35"
                     fill="#09a8d3"/>
            <path d="M45,13.62l-.64-.15-.09-.11-.09.07L29.24,10,11.11,22.34l-.06,0,0,.09-.52.35.12,32.83,14.45,5,.51-.36h.09v-.07L44.8,46.51ZM29.36,10.7,43.5,13.94,25.27,27.05,11.86,22.62ZM11.25,55.11l-.11-32,.05,0L25,27.65v32.2l-.05,0Zm32.89-8.94L25.65,59.38V27.59L44.33,14.14h0Z"
                  transform="translate(0 0.01)" fill="#fff"/>
            <polygon points="22.04 34 12.96 30.89 12.96 28.51 22.04 31.62 22.04 34" fill="#fff"/>
            <polygon points="22.04 37.39 12.96 34.28 12.96 31.91 22.04 35.02 22.04 37.39" fill="#fff"/>
            <polygon points="22.04 40.79 12.96 37.68 12.96 35.3 22.04 38.41 22.04 40.79" fill="#fff"/>
            <polygon points="51.66 10.35 33.29 22.62 33.29 55.35 47.69 60.26 66.84 46.35 66.84 13.62 51.66 10.35"
                     fill="#09a8d3"/>
            <path d="M67.36,13.62l-.64-.15-.09-.11-.09.07L51.6,10,33.47,22.34l-.06,0,0,.09-.52.35L33,55.58l14.45,5,.51-.36H48v-.07L67.16,46.51ZM51.73,10.7l14.14,3.24L47.64,27.05,34.23,22.62ZM33.62,55.11l-.11-32,.05,0,13.81,4.58v32.2l-.05,0Zm32.89-8.94L48,59.38V27.59L66.69,14.14h0Z"
                  transform="translate(0 0.01)" fill="#fff"/>
            <polygon points="44.4 34 35.32 30.89 35.32 28.51 44.4 31.62 44.4 34" fill="#fff"/>
            <polygon points="44.4 37.39 35.32 34.28 35.32 31.91 44.4 35.02 44.4 37.39" fill="#fff"/>
            <polygon points="44.4 40.79 35.32 37.68 35.32 35.3 44.4 38.41 44.4 40.79" fill="#fff"/>
            <polygon points="73.85 11.01 55.48 23.29 55.48 56.01 69.88 60.92 89.02 47.01 89.02 14.29 73.85 11.01"
                     fill="#09a8d3"/>
            <path d="M89.55,14.28l-.64-.15L88.82,14l-.09.07L73.79,10.66,55.66,23l-.06,0,0,.09-.52.35.12,32.83,14.45,5,.51-.36h.09v-.07L89.35,47.18ZM73.91,11.36,88,14.6,69.82,27.71,56.41,23.28ZM55.8,55.77l-.11-32,.05,0,13.81,4.58v32.2l-.05,0Zm32.89-8.94L70.2,60V28.25L88.88,14.8h0Z"
                  transform="translate(0 0.01)" fill="#fff"/>
            <polygon points="66.59 34.66 57.51 31.55 57.51 29.18 66.59 32.28 66.59 34.66" fill="#fff"/>
            <polygon points="66.59 38.05 57.51 34.94 57.51 32.57 66.59 35.68 66.59 38.05" fill="#fff"/>
            <polygon points="66.59 41.45 57.51 38.34 57.51 35.97 66.59 39.08 66.59 41.45" fill="#fff"/>
            <polygon points="29.3 39.07 10.93 51.34 10.93 84.06 25.33 88.97 44.47 75.06 44.47 42.34 29.3 39.07"
                     fill="#09a8d3"/>
            <path d="M45,42.34l-.64-.15-.09-.11-.09.07L29.24,38.71,11.11,51.05,11,51l0,.09-.52.35.12,32.83,14.45,5,.51-.36h.09V88.9L44.8,75.23ZM29.36,39.41,43.5,42.65,25.27,55.77,11.86,51.33ZM11.25,83.83l-.11-32,.05,0L25,56.36v32.2l-.05,0Zm32.89-8.94L25.65,88.1V56.3L44.33,42.85h0Z"
                  transform="translate(0 0.01)" fill="#fff"/>
            <polygon points="22.04 62.71 12.96 59.6 12.96 57.23 22.04 60.34 22.04 62.71" fill="#fff"/>
            <polygon points="22.04 66.11 12.96 63 12.96 60.62 22.04 63.73 22.04 66.11" fill="#fff"/>
            <polygon points="22.04 69.5 12.96 66.39 12.96 64.02 22.04 67.13 22.04 69.5" fill="#fff"/>
            <polygon points="51.66 39.07 33.29 51.34 33.29 84.06 47.69 88.97 66.84 75.06 66.84 42.34 51.66 39.07"
                     fill="#09a8d3"/>
            <path d="M67.36,42.34l-.64-.15-.09-.11-.09.07L51.6,38.71,33.47,51.05l-.06,0,0,.09-.52.35L33,84.29l14.45,5,.51-.36H48V88.9L67.16,75.23ZM51.73,39.41l14.14,3.24L47.64,55.77,34.23,51.33ZM33.62,83.83l-.11-32,.05,0,13.81,4.58v32.2l-.05,0Zm32.89-8.94L48,88.1V56.3L66.69,42.85h0Z"
                  transform="translate(0 0.01)" fill="#fff"/>
            <polygon points="44.4 62.71 35.32 59.6 35.32 57.23 44.4 60.34 44.4 62.71" fill="#fff"/>
            <polygon points="44.4 66.11 35.32 63 35.32 60.62 44.4 63.73 44.4 66.11" fill="#fff"/>
            <polygon points="44.4 69.5 35.32 66.39 35.32 64.02 44.4 67.13 44.4 69.5" fill="#fff"/>
            <polygon points="73.85 39.73 55.48 52 55.48 84.73 69.88 89.64 89.02 75.73 89.02 43 73.85 39.73"
                     fill="#09a8d3"/>
            <path d="M89.55,43l-.64-.15-.09-.11-.09.07L73.79,39.37,55.66,51.71l-.06,0,0,.09-.52.35L55.15,85,69.6,90l.51-.36h.09v-.07L89.35,75.89ZM73.91,40.07,88,43.32,69.82,56.43,56.41,52ZM55.8,84.49l-.11-32,.05,0L69.55,57v32.2l-.05,0Zm32.89-8.94L70.2,88.76V57L88.88,43.51h0Z"
                  transform="translate(0 0.01)" fill="#fff"/>
            <polygon points="66.59 63.37 57.51 60.26 57.51 57.89 66.59 61 66.59 63.37" fill="#fff"/>
            <polygon points="66.59 66.77 57.51 63.66 57.51 61.29 66.59 64.39 66.59 66.77" fill="#fff"/>
            <polygon points="66.59 70.16 57.51 67.05 57.51 64.68 66.59 67.79 66.59 70.16" fill="#fff"/>
        </g>
        <g id="vmware-datacenter_rollover" data-name="vmware-datacenter rollover">
            <rect x="0.02" width="100" height="100" fill="#fff"/>
            <polygon points="29.3 10.35 10.93 22.62 10.93 55.35 25.33 60.26 44.47 46.35 44.47 13.62 29.3 10.35"
                     fill="#09a8d3"/>
            <path d="M45,13.62l-.64-.15-.09-.11-.09.07L29.24,10,11.11,22.34l-.06,0,0,.09-.52.35.12,32.83,14.45,5,.51-.36h.09v-.07L44.8,46.51ZM29.36,10.7,43.5,13.94,25.27,27.05,11.86,22.62ZM11.25,55.11l-.11-32,.05,0L25,27.65v32.2l-.05,0Zm32.89-8.94L25.65,59.38V27.59L44.33,14.14h0Z"
                  transform="translate(0 0.01)" fill="#fff"/>
            <polygon points="22.04 34 12.96 30.89 12.96 28.51 22.04 31.62 22.04 34" fill="#fff"/>
            <polygon points="22.04 37.39 12.96 34.28 12.96 31.91 22.04 35.02 22.04 37.39" fill="#fff"/>
            <polygon points="22.04 40.79 12.96 37.68 12.96 35.3 22.04 38.41 22.04 40.79" fill="#fff"/>
            <polygon points="51.66 10.35 33.29 22.62 33.29 55.35 47.69 60.26 66.84 46.35 66.84 13.62 51.66 10.35"
                     fill="#09a8d3"/>
            <path d="M67.36,13.62l-.64-.15-.09-.11-.09.07L51.6,10,33.47,22.34l-.06,0,0,.09-.52.35L33,55.58l14.45,5,.51-.36H48v-.07L67.16,46.51ZM51.73,10.7l14.14,3.24L47.64,27.05,34.23,22.62ZM33.62,55.11l-.11-32,.05,0,13.81,4.58v32.2l-.05,0Zm32.89-8.94L48,59.38V27.59L66.69,14.14h0Z"
                  transform="translate(0 0.01)" fill="#fff"/>
            <polygon points="44.4 34 35.32 30.89 35.32 28.51 44.4 31.62 44.4 34" fill="#fff"/>
            <polygon points="44.4 37.39 35.32 34.28 35.32 31.91 44.4 35.02 44.4 37.39" fill="#fff"/>
            <polygon points="44.4 40.79 35.32 37.68 35.32 35.3 44.4 38.41 44.4 40.79" fill="#fff"/>
            <polygon points="73.85 11.01 55.48 23.29 55.48 56.01 69.88 60.92 89.02 47.01 89.02 14.29 73.85 11.01"
                     fill="#09a8d3"/>
            <path d="M89.55,14.28l-.64-.15L88.82,14l-.09.07L73.79,10.66,55.66,23l-.06,0,0,.09-.52.35.12,32.83,14.45,5,.51-.36h.09v-.07L89.35,47.18ZM73.91,11.36,88,14.6,69.82,27.71,56.41,23.28ZM55.8,55.77l-.11-32,.05,0,13.81,4.58v32.2l-.05,0Zm32.89-8.94L70.2,60V28.25L88.88,14.8h0Z"
                  transform="translate(0 0.01)" fill="#fff"/>
            <polygon points="66.59 34.66 57.51 31.55 57.51 29.18 66.59 32.28 66.59 34.66" fill="#fff"/>
            <polygon points="66.59 38.05 57.51 34.94 57.51 32.57 66.59 35.68 66.59 38.05" fill="#fff"/>
            <polygon points="66.59 41.45 57.51 38.34 57.51 35.97 66.59 39.08 66.59 41.45" fill="#fff"/>
            <polygon points="29.3 39.07 10.93 51.34 10.93 84.06 25.33 88.97 44.47 75.06 44.47 42.34 29.3 39.07"
                     fill="#09a8d3"/>
            <path d="M45,42.34l-.64-.15-.09-.11-.09.07L29.24,38.71,11.11,51.05,11,51l0,.09-.52.35.12,32.83,14.45,5,.51-.36h.09V88.9L44.8,75.23ZM29.36,39.41,43.5,42.65,25.27,55.77,11.86,51.33ZM11.25,83.83l-.11-32,.05,0L25,56.36v32.2l-.05,0Zm32.89-8.94L25.65,88.1V56.3L44.33,42.85h0Z"
                  transform="translate(0 0.01)" fill="#fff"/>
            <polygon points="22.04 62.71 12.96 59.6 12.96 57.23 22.04 60.34 22.04 62.71" fill="#fff"/>
            <polygon points="22.04 66.11 12.96 63 12.96 60.62 22.04 63.73 22.04 66.11" fill="#fff"/>
            <polygon points="22.04 69.5 12.96 66.39 12.96 64.02 22.04 67.13 22.04 69.5" fill="#fff"/>
            <polygon points="51.66 39.07 33.29 51.34 33.29 84.06 47.69 88.97 66.84 75.06 66.84 42.34 51.66 39.07"
                     fill="#09a8d3"/>
            <path d="M67.36,42.34l-.64-.15-.09-.11-.09.07L51.6,38.71,33.47,51.05l-.06,0,0,.09-.52.35L33,84.29l14.45,5,.51-.36H48V88.9L67.16,75.23ZM51.73,39.41l14.14,3.24L47.64,55.77,34.23,51.33ZM33.62,83.83l-.11-32,.05,0,13.81,4.58v32.2l-.05,0Zm32.89-8.94L48,88.1V56.3L66.69,42.85h0Z"
                  transform="translate(0 0.01)" fill="#fff"/>
            <polygon points="44.4 62.71 35.32 59.6 35.32 57.23 44.4 60.34 44.4 62.71" fill="#fff"/>
            <polygon points="44.4 66.11 35.32 63 35.32 60.62 44.4 63.73 44.4 66.11" fill="#fff"/>
            <polygon points="44.4 69.5 35.32 66.39 35.32 64.02 44.4 67.13 44.4 69.5" fill="#fff"/>
            <polygon points="73.85 39.73 55.48 52 55.48 84.73 69.88 89.64 89.02 75.73 89.02 43 73.85 39.73"
                     fill="#09a8d3"/>
            <path d="M89.55,43l-.64-.15-.09-.11-.09.07L73.79,39.37,55.66,51.71l-.06,0,0,.09-.52.35L55.15,85,69.6,90l.51-.36h.09v-.07L89.35,75.89ZM73.91,40.07,88,43.32,69.82,56.43,56.41,52ZM55.8,84.49l-.11-32,.05,0L69.55,57v32.2l-.05,0Zm32.89-8.94L70.2,88.76V57L88.88,43.51h0Z"
                  transform="translate(0 0.01)" fill="#fff"/>
            <polygon points="66.59 63.37 57.51 60.26 57.51 57.89 66.59 61 66.59 63.37" fill="#fff"/>
            <polygon points="66.59 66.77 57.51 63.66 57.51 61.29 66.59 64.39 66.59 66.77" fill="#fff"/>
            <polygon points="66.59 70.16 57.51 67.05 57.51 64.68 66.59 67.79 66.59 70.16" fill="#fff"/>
        </g>
        <g id="vmware-datacenter">
            <rect x="0.02" width="100" height="100" fill="#fff"/>
            <polygon points="29.3 10.35 10.93 22.62 10.93 55.35 25.33 60.26 44.47 46.35 44.47 13.62 29.3 10.35"
                     fill="#505154"/>
            <path d="M45,13.62l-.64-.15-.09-.11-.09.07L29.24,10,11.11,22.34l-.06,0,0,.09-.52.35.12,32.83,14.45,5,.51-.36h.09v-.07L44.8,46.51ZM29.36,10.7,43.5,13.94,25.27,27.05,11.86,22.62ZM11.25,55.11l-.11-32,.05,0L25,27.65v32.2l-.05,0Zm32.89-8.94L25.65,59.38V27.59L44.33,14.14h0Z"
                  transform="translate(0 0.01)" fill="#fff"/>
            <polygon points="22.04 34 12.96 30.89 12.96 28.51 22.04 31.62 22.04 34" fill="#fff"/>
            <polygon points="22.04 37.39 12.96 34.28 12.96 31.91 22.04 35.02 22.04 37.39" fill="#fff"/>
            <polygon points="22.04 40.79 12.96 37.68 12.96 35.3 22.04 38.41 22.04 40.79" fill="#fff"/>
            <polygon points="51.66 10.35 33.29 22.62 33.29 55.35 47.69 60.26 66.84 46.35 66.84 13.62 51.66 10.35"
                     fill="#505154"/>
            <path d="M67.36,13.62l-.64-.15-.09-.11-.09.07L51.6,10,33.47,22.34l-.06,0,0,.09-.52.35L33,55.58l14.45,5,.51-.36H48v-.07L67.16,46.51ZM51.73,10.7l14.14,3.24L47.64,27.05,34.23,22.62ZM33.62,55.11l-.11-32,.05,0,13.81,4.58v32.2l-.05,0Zm32.89-8.94L48,59.38V27.59L66.69,14.14h0Z"
                  transform="translate(0 0.01)" fill="#fff"/>
            <polygon points="44.4 34 35.32 30.89 35.32 28.51 44.4 31.62 44.4 34" fill="#fff"/>
            <polygon points="44.4 37.39 35.32 34.28 35.32 31.91 44.4 35.02 44.4 37.39" fill="#fff"/>
            <polygon points="44.4 40.79 35.32 37.68 35.32 35.3 44.4 38.41 44.4 40.79" fill="#fff"/>
            <polygon points="73.85 11.01 55.48 23.29 55.48 56.01 69.88 60.92 89.02 47.01 89.02 14.29 73.85 11.01"
                     fill="#505154"/>
            <path d="M89.55,14.28l-.64-.15L88.82,14l-.09.07L73.79,10.66,55.66,23l-.06,0,0,.09-.52.35.12,32.83,14.45,5,.51-.36h.09v-.07L89.35,47.18ZM73.91,11.36,88,14.6,69.82,27.71,56.41,23.28ZM55.8,55.77l-.11-32,.05,0,13.81,4.58v32.2l-.05,0Zm32.89-8.94L70.2,60V28.25L88.88,14.8h0Z"
                  transform="translate(0 0.01)" fill="#fff"/>
            <polygon points="66.59 34.66 57.51 31.55 57.51 29.18 66.59 32.28 66.59 34.66" fill="#fff"/>
            <polygon points="66.59 38.05 57.51 34.94 57.51 32.57 66.59 35.68 66.59 38.05" fill="#fff"/>
            <polygon points="66.59 41.45 57.51 38.34 57.51 35.97 66.59 39.08 66.59 41.45" fill="#fff"/>
            <polygon points="29.3 39.07 10.93 51.34 10.93 84.06 25.33 88.97 44.47 75.06 44.47 42.34 29.3 39.07"
                     fill="#505154"/>
            <path d="M45,42.34l-.64-.15-.09-.11-.09.07L29.24,38.71,11.11,51.05,11,51l0,.09-.52.35.12,32.83,14.45,5,.51-.36h.09V88.9L44.8,75.23ZM29.36,39.41,43.5,42.65,25.27,55.77,11.86,51.33ZM11.25,83.83l-.11-32,.05,0L25,56.36v32.2l-.05,0Zm32.89-8.94L25.65,88.1V56.3L44.33,42.85h0Z"
                  transform="translate(0 0.01)" fill="#fff"/>
            <polygon points="22.04 62.71 12.96 59.6 12.96 57.23 22.04 60.34 22.04 62.71" fill="#fff"/>
            <polygon points="22.04 66.11 12.96 63 12.96 60.62 22.04 63.73 22.04 66.11" fill="#fff"/>
            <polygon points="22.04 69.5 12.96 66.39 12.96 64.02 22.04 67.13 22.04 69.5" fill="#fff"/>
            <polygon points="51.66 39.07 33.29 51.34 33.29 84.06 47.69 88.97 66.84 75.06 66.84 42.34 51.66 39.07"
                     fill="#505154"/>
            <path d="M67.36,42.34l-.64-.15-.09-.11-.09.07L51.6,38.71,33.47,51.05l-.06,0,0,.09-.52.35L33,84.29l14.45,5,.51-.36H48V88.9L67.16,75.23ZM51.73,39.41l14.14,3.24L47.64,55.77,34.23,51.33ZM33.62,83.83l-.11-32,.05,0,13.81,4.58v32.2l-.05,0Zm32.89-8.94L48,88.1V56.3L66.69,42.85h0Z"
                  transform="translate(0 0.01)" fill="#fff"/>
            <polygon points="44.4 62.71 35.32 59.6 35.32 57.23 44.4 60.34 44.4 62.71" fill="#fff"/>
            <polygon points="44.4 66.11 35.32 63 35.32 60.62 44.4 63.73 44.4 66.11" fill="#fff"/>
            <polygon points="44.4 69.5 35.32 66.39 35.32 64.02 44.4 67.13 44.4 69.5" fill="#fff"/>
            <polygon points="73.85 39.73 55.48 52 55.48 84.73 69.88 89.64 89.02 75.73 89.02 43 73.85 39.73"
                     fill="#505154"/>
            <path d="M89.55,43l-.64-.15-.09-.11-.09.07L73.79,39.37,55.66,51.71l-.06,0,0,.09-.52.35L55.15,85,69.6,90l.51-.36h.09v-.07L89.35,75.89ZM73.91,40.07,88,43.32,69.82,56.43,56.41,52ZM55.8,84.49l-.11-32,.05,0L69.55,57v32.2l-.05,0Zm32.89-8.94L70.2,88.76V57L88.88,43.51h0Z"
                  transform="translate(0 0.01)" fill="#fff"/>
            <polygon points="66.59 63.37 57.51 60.26 57.51 57.89 66.59 61 66.59 63.37" fill="#fff"/>
            <polygon points="66.59 66.77 57.51 63.66 57.51 61.29 66.59 64.39 66.59 66.77" fill="#fff"/>
            <polygon points="66.59 70.16 57.51 67.05 57.51 64.68 66.59 67.79 66.59 70.16" fill="#fff"/>
        </g>
    </g>
    <g id="vmware-cluster_icon" data-name="vmware-cluster icon">
        <g id="vmware-cluster_active" data-name="vmware-cluster active">
            <rect x="0.02" width="100" height="100" fill="#fff"/>
            <polygon points="26.42 21.21 5.5 35.19 5.5 72.44 21.9 78.03 43.69 62.19 43.69 24.94 26.42 21.21"
                     fill="#09a8d3"/>
            <path d="M44.29,24.94l-.73-.17-.1-.13-.11.08-17-3.91-20.64,14-.07,0,0,.1-.6.4L5.13,72.7l16.45,5.74.58-.42h.1v-.07L44.06,62.38Zm-17.8-3.33L42.58,25.3,21.84,40.23l-15.27-5ZM5.88,72.17,5.75,35.73l.06,0,15.72,5.22V77.56l-.06,0ZM43.32,62l-21,15V40.83L43.53,25.52h0Z"
                  transform="translate(0 0.01)" fill="#fff"/>
            <polygon points="18.15 48.13 7.81 44.59 7.81 41.89 18.15 45.43 18.15 48.13" fill="#fff"/>
            <polygon points="18.15 52 7.81 48.46 7.81 45.76 18.15 49.3 18.15 52" fill="#fff"/>
            <polygon points="18.15 55.86 7.81 52.32 7.81 49.62 18.15 53.16 18.15 55.86" fill="#fff"/>
            <polygon points="51.88 21.21 30.96 35.19 30.96 72.44 47.35 78.03 69.15 62.19 69.15 24.94 51.88 21.21"
                     fill="#09a8d3"/>
            <path d="M69.75,24.94,69,24.77l-.1-.13-.11.08-17-3.91-20.64,14-.07,0,0,.1-.6.4.13,37.37L47,78.44l.58-.42h.1v-.07L69.52,62.38Zm-17.8-3.33L68,25.3,47.29,40.23,32,35.18ZM31.33,72.17,31.2,35.73l.06,0L47,40.91V77.56l-.06,0ZM68.78,62l-21,15V40.83L69,25.52h0Z"
                  transform="translate(0 0.01)" fill="#fff"/>
            <polygon points="43.61 48.13 33.27 44.59 33.27 41.89 43.61 45.43 43.61 48.13" fill="#fff"/>
            <polygon points="43.61 52 33.27 48.46 33.27 45.76 43.61 49.3 43.61 52" fill="#fff"/>
            <polygon points="43.61 55.86 33.27 52.32 33.27 49.62 43.61 53.16 43.61 55.86" fill="#fff"/>
            <polygon points="77.13 21.97 56.22 35.94 56.22 73.19 72.61 78.78 94.4 62.95 94.4 25.69 77.13 21.97"
                     fill="#09a8d3"/>
            <path d="M95,25.69l-.73-.17-.1-.13-.11.08-17-3.91-20.64,14-.07,0,0,.1-.6.4.13,37.37,16.45,5.74.58-.42H73V78.7L94.77,63.13ZM77.2,22.36,93.3,26.05,72.55,41l-15.27-5ZM56.59,72.92l-.13-36.44.06,0,15.72,5.22V78.32l-.06,0ZM94,62.75l-21,15V41.59L94.24,26.28h0Z"
                  transform="translate(0 0.01)" fill="#fff"/>
            <polygon points="68.86 48.88 58.53 45.34 58.53 42.64 68.86 46.18 68.86 48.88" fill="#fff"/>
            <polygon points="68.86 52.75 58.53 49.21 58.53 46.51 68.86 50.05 68.86 52.75" fill="#fff"/>
            <polygon points="68.86 56.61 58.53 53.08 58.53 50.37 68.86 53.91 68.86 56.61" fill="#fff"/>
        </g>
        <g id="vmware-cluster_rollover" data-name="vmware-cluster rollover">
            <rect x="0.02" width="100" height="100" fill="#fff"/>
            <polygon points="26.42 21.21 5.5 35.19 5.5 72.44 21.9 78.03 43.69 62.19 43.69 24.94 26.42 21.21"
                     fill="#09a8d3"/>
            <path d="M44.29,24.94l-.73-.17-.1-.13-.11.08-17-3.91-20.64,14-.07,0,0,.1-.6.4L5.13,72.7l16.45,5.74.58-.42h.1v-.07L44.06,62.38Zm-17.8-3.33L42.58,25.3,21.84,40.23l-15.27-5ZM5.88,72.17,5.75,35.73l.06,0,15.72,5.22V77.56l-.06,0ZM43.32,62l-21,15V40.83L43.53,25.52h0Z"
                  transform="translate(0 0.01)" fill="#fff"/>
            <polygon points="18.15 48.13 7.81 44.59 7.81 41.89 18.15 45.43 18.15 48.13" fill="#fff"/>
            <polygon points="18.15 52 7.81 48.46 7.81 45.76 18.15 49.3 18.15 52" fill="#fff"/>
            <polygon points="18.15 55.86 7.81 52.32 7.81 49.62 18.15 53.16 18.15 55.86" fill="#fff"/>
            <polygon points="51.88 21.21 30.96 35.19 30.96 72.44 47.35 78.03 69.15 62.19 69.15 24.94 51.88 21.21"
                     fill="#09a8d3"/>
            <path d="M69.75,24.94,69,24.77l-.1-.13-.11.08-17-3.91-20.64,14-.07,0,0,.1-.6.4.13,37.37L47,78.44l.58-.42h.1v-.07L69.52,62.38Zm-17.8-3.33L68,25.3,47.29,40.23,32,35.18ZM31.33,72.17,31.2,35.73l.06,0L47,40.91V77.56l-.06,0ZM68.78,62l-21,15V40.83L69,25.52h0Z"
                  transform="translate(0 0.01)" fill="#fff"/>
            <polygon points="43.61 48.13 33.27 44.59 33.27 41.89 43.61 45.43 43.61 48.13" fill="#fff"/>
            <polygon points="43.61 52 33.27 48.46 33.27 45.76 43.61 49.3 43.61 52" fill="#fff"/>
            <polygon points="43.61 55.86 33.27 52.32 33.27 49.62 43.61 53.16 43.61 55.86" fill="#fff"/>
            <polygon points="77.13 21.97 56.22 35.94 56.22 73.19 72.61 78.78 94.4 62.95 94.4 25.69 77.13 21.97"
                     fill="#09a8d3"/>
            <path d="M95,25.69l-.73-.17-.1-.13-.11.08-17-3.91-20.64,14-.07,0,0,.1-.6.4.13,37.37,16.45,5.74.58-.42H73V78.7L94.77,63.13ZM77.2,22.36,93.3,26.05,72.55,41l-15.27-5ZM56.59,72.92l-.13-36.44.06,0,15.72,5.22V78.32l-.06,0ZM94,62.75l-21,15V41.59L94.24,26.28h0Z"
                  transform="translate(0 0.01)" fill="#fff"/>
            <polygon points="68.86 48.88 58.53 45.34 58.53 42.64 68.86 46.18 68.86 48.88" fill="#fff"/>
            <polygon points="68.86 52.75 58.53 49.21 58.53 46.51 68.86 50.05 68.86 52.75" fill="#fff"/>
            <polygon points="68.86 56.61 58.53 53.08 58.53 50.37 68.86 53.91 68.86 56.61" fill="#fff"/>
        </g>
        <g id="vmware-cluster">
            <rect x="0.02" width="100" height="100" fill="#fff"/>
            <polygon points="26.42 21.21 5.5 35.19 5.5 72.44 21.9 78.03 43.69 62.19 43.69 24.94 26.42 21.21"
                     fill="#505154"/>
            <path d="M44.29,24.94l-.73-.17-.1-.13-.11.08-17-3.91-20.64,14-.07,0,0,.1-.6.4L5.13,72.7l16.45,5.74.58-.42h.1v-.07L44.06,62.38Zm-17.8-3.33L42.58,25.3,21.84,40.23l-15.27-5ZM5.88,72.17,5.75,35.73l.06,0,15.72,5.22V77.56l-.06,0ZM43.32,62l-21,15V40.83L43.53,25.52h0Z"
                  transform="translate(0 0.01)" fill="#fff"/>
            <polygon points="18.15 48.13 7.81 44.59 7.81 41.89 18.15 45.43 18.15 48.13" fill="#fff"/>
            <polygon points="18.15 52 7.81 48.46 7.81 45.76 18.15 49.3 18.15 52" fill="#fff"/>
            <polygon points="18.15 55.86 7.81 52.32 7.81 49.62 18.15 53.16 18.15 55.86" fill="#fff"/>
            <polygon points="51.88 21.21 30.96 35.19 30.96 72.44 47.35 78.03 69.15 62.19 69.15 24.94 51.88 21.21"
                     fill="#505154"/>
            <path d="M69.75,24.94,69,24.77l-.1-.13-.11.08-17-3.91-20.64,14-.07,0,0,.1-.6.4.13,37.37L47,78.44l.58-.42h.1v-.07L69.52,62.38Zm-17.8-3.33L68,25.3,47.29,40.23,32,35.18ZM31.33,72.17,31.2,35.73l.06,0L47,40.91V77.56l-.06,0ZM68.78,62l-21,15V40.83L69,25.52h0Z"
                  transform="translate(0 0.01)" fill="#fff"/>
            <polygon points="43.61 48.13 33.27 44.59 33.27 41.89 43.61 45.43 43.61 48.13" fill="#fff"/>
            <polygon points="43.61 52 33.27 48.46 33.27 45.76 43.61 49.3 43.61 52" fill="#fff"/>
            <polygon points="43.61 55.86 33.27 52.32 33.27 49.62 43.61 53.16 43.61 55.86" fill="#fff"/>
            <polygon points="77.13 21.97 56.22 35.94 56.22 73.19 72.61 78.78 94.4 62.95 94.4 25.69 77.13 21.97"
                     fill="#505154"/>
            <path d="M95,25.69l-.73-.17-.1-.13-.11.08-17-3.91-20.64,14-.07,0,0,.1-.6.4.13,37.37,16.45,5.74.58-.42H73V78.7L94.77,63.13ZM77.2,22.36,93.3,26.05,72.55,41l-15.27-5ZM56.59,72.92l-.13-36.44.06,0,15.72,5.22V78.32l-.06,0ZM94,62.75l-21,15V41.59L94.24,26.28h0Z"
                  transform="translate(0 0.01)" fill="#fff"/>
            <polygon points="68.86 48.88 58.53 45.34 58.53 42.64 68.86 46.18 68.86 48.88" fill="#fff"/>
            <polygon points="68.86 52.75 58.53 49.21 58.53 46.51 68.86 50.05 68.86 52.75" fill="#fff"/>
            <polygon points="68.86 56.61 58.53 53.08 58.53 50.37 68.86 53.91 68.86 56.61" fill="#fff"/>
        </g>
    </g>
    <g id="vmware-hostsystem-off_icon" data-name="vmware-hostsystem-off icon">
        <g id="vmware-hostsystem-off_rollover" data-name="vmware-hostsystem-off rollover">
            <rect x="0.02" width="100" height="100" fill="#fff"/>
            <polygon points="48.95 5.62 16.28 27.44 16.28 85.62 41.89 94.35 75.94 69.62 75.94 11.44 48.95 5.62"
                     fill="#09a8d3"/>
            <path d="M76.87,11.44l-1.13-.27-.15-.2-.17.13L48.84,5,16.6,26.94l-.11,0-.06.16-.93.62L15.7,86l25.7,9,.91-.65h.16v-.12l34-24.31Zm-27.8-5.2L74.21,12,41.79,35.32,17.94,27.44Zm-32.21,79-.2-56.91.09-.06L41.3,36.38V93.63l-.09.07Zm58.5-15.89L42.47,92.8V36.27L75.68,12.36h0Z"
                  transform="translate(0 0.01)" fill="#fff"/>
            <polygon points="36.04 47.66 19.89 42.13 19.89 37.91 36.04 43.44 36.04 47.66" fill="#fff"/>
            <polygon points="36.04 53.7 19.89 48.17 19.89 43.95 36.04 49.48 36.04 53.7" fill="#fff"/>
            <polygon points="36.04 59.73 19.89 54.21 19.89 49.99 36.04 55.52 36.04 59.73" fill="#fff"/>
            <path d="M68.64,89.67a17.79,17.79,0,1,1,17.8-17.79A17.81,17.81,0,0,1,68.64,89.67Z"
                  transform="translate(0 0.01)" fill="#09a8d3"/>
            <path d="M68.64,54.86a17,17,0,1,1-17,17,17,17,0,0,1,17-17m0-1.52A18.55,18.55,0,1,0,87.2,71.88,18.58,18.58,0,0,0,68.64,53.33Z"
                  transform="translate(0 0.01)" fill="#fff"/>
            <rect x="60.3" y="63.56" width="16.67" height="16.66" fill="#fff"/>
        </g>
        <g id="vmware-hostsystem-off_active" data-name="vmware-hostsystem-off active">
            <rect x="0.02" width="100" height="100" fill="#fff"/>
            <polygon points="48.95 5.62 16.28 27.44 16.28 85.62 41.89 94.35 75.94 69.62 75.94 11.44 48.95 5.62"
                     fill="#09a8d3"/>
            <path d="M76.87,11.44l-1.13-.27-.15-.2-.17.13L48.84,5,16.6,26.94l-.11,0-.06.16-.93.62L15.7,86l25.7,9,.91-.65h.16v-.12l34-24.31Zm-27.8-5.2L74.21,12,41.79,35.32,17.94,27.44Zm-32.21,79-.2-56.91.09-.06L41.3,36.38V93.63l-.09.07Zm58.5-15.89L42.47,92.8V36.27L75.68,12.36h0Z"
                  transform="translate(0 0.01)" fill="#fff"/>
            <polygon points="36.04 47.66 19.89 42.13 19.89 37.91 36.04 43.44 36.04 47.66" fill="#fff"/>
            <polygon points="36.04 53.7 19.89 48.17 19.89 43.95 36.04 49.48 36.04 53.7" fill="#fff"/>
            <polygon points="36.04 59.73 19.89 54.21 19.89 49.99 36.04 55.52 36.04 59.73" fill="#fff"/>
            <path d="M68.64,89.67a17.79,17.79,0,1,1,17.8-17.79A17.81,17.81,0,0,1,68.64,89.67Z"
                  transform="translate(0 0.01)" fill="#09a8d3"/>
            <path d="M68.64,54.86a17,17,0,1,1-17,17,17,17,0,0,1,17-17m0-1.52A18.55,18.55,0,1,0,87.2,71.88,18.58,18.58,0,0,0,68.64,53.33Z"
                  transform="translate(0 0.01)" fill="#fff"/>
            <rect x="60.3" y="63.56" width="16.67" height="16.66" fill="#fff"/>
        </g>
        <g id="vmware-hostsystem-off">
            <rect x="0.02" width="100" height="100" fill="#fff"/>
            <polygon points="48.95 5.62 16.28 27.44 16.28 85.62 41.89 94.35 75.94 69.62 75.94 11.44 48.95 5.62"
                     fill="#505154"/>
            <path d="M76.87,11.44l-1.13-.27-.15-.2-.17.13L48.84,5,16.6,26.94l-.11,0-.06.16-.93.62L15.7,86l25.7,9,.91-.65h.16v-.12l34-24.31Zm-27.8-5.2L74.21,12,41.79,35.32,17.94,27.44Zm-32.21,79-.2-56.91.09-.06L41.3,36.38V93.63l-.09.07Zm58.5-15.89L42.47,92.8V36.27L75.68,12.36h0Z"
                  transform="translate(0 0.01)" fill="#fff"/>
            <polygon points="36.04 47.66 19.89 42.13 19.89 37.91 36.04 43.44 36.04 47.66" fill="#fff"/>
            <polygon points="36.04 53.7 19.89 48.17 19.89 43.95 36.04 49.48 36.04 53.7" fill="#fff"/>
            <polygon points="36.04 59.73 19.89 54.21 19.89 49.99 36.04 55.52 36.04 59.73" fill="#fff"/>
            <path d="M68.64,89.67a17.79,17.79,0,1,1,17.8-17.79A17.81,17.81,0,0,1,68.64,89.67Z"
                  transform="translate(0 0.01)" fill="#505154"/>
            <path d="M68.64,54.86a17,17,0,1,1-17,17,17,17,0,0,1,17-17m0-1.52A18.55,18.55,0,1,0,87.2,71.88,18.58,18.58,0,0,0,68.64,53.33Z"
                  transform="translate(0 0.01)" fill="#fff"/>
            <rect x="60.3" y="63.56" width="16.67" height="16.66" fill="#fff"/>
        </g>
    </g>
    <g id="vmware-hostsystem-on_icon" data-name="vmware-hostsystem-on icon">
        <g id="vmware-hostsystem-on_rollover" data-name="vmware-hostsystem-on rollover">
            <rect x="0.02" width="100" height="100" fill="#fff"/>
            <polygon points="48.95 5.62 16.28 27.44 16.28 85.62 41.89 94.35 75.94 69.62 75.94 11.44 48.95 5.62"
                     fill="#09a8d3"/>
            <path d="M76.87,11.44l-1.13-.27-.15-.2-.17.13L48.84,5,16.6,26.94l-.11,0-.06.16-.93.62L15.7,86l25.7,9,.91-.65h.16v-.12l34-24.31Zm-27.8-5.2L74.21,12,41.79,35.32,17.94,27.44Zm-32.21,79-.2-56.91.09-.06L41.3,36.38V93.63l-.09.07Zm58.5-15.89L42.47,92.8V36.27L75.68,12.36h0Z"
                  transform="translate(0 0.01)" fill="#fff"/>
            <polygon points="36.04 47.66 19.89 42.13 19.89 37.91 36.04 43.44 36.04 47.66" fill="#fff"/>
            <polygon points="36.04 53.7 19.89 48.17 19.89 43.95 36.04 49.48 36.04 53.7" fill="#fff"/>
            <polygon points="36.04 59.73 19.89 54.21 19.89 49.99 36.04 55.52 36.04 59.73" fill="#fff"/>
            <path d="M68.64,89.67a17.79,17.79,0,1,1,17.8-17.79A17.81,17.81,0,0,1,68.64,89.67Z"
                  transform="translate(0 0.01)" fill="#09a8d3"/>
            <path d="M68.64,54.86a17,17,0,1,1-17,17,17,17,0,0,1,17-17m0-1.52A18.55,18.55,0,1,0,87.2,71.88,18.58,18.58,0,0,0,68.64,53.33Z"
                  transform="translate(0 0.01)" fill="#fff"/>
            <polygon points="79.2 71.89 61.83 81.92 61.83 61.86 79.2 71.89" fill="#fff"/>
        </g>
        <g id="vmware-hostsystem-on_active" data-name="vmware-hostsystem-on active">
            <rect x="0.02" width="100" height="100" fill="#fff"/>
            <polygon points="48.95 5.62 16.28 27.44 16.28 85.62 41.89 94.35 75.94 69.62 75.94 11.44 48.95 5.62"
                     fill="#09a8d3"/>
            <path d="M76.87,11.44l-1.13-.27-.15-.2-.17.13L48.84,5,16.6,26.94l-.11,0-.06.16-.93.62L15.7,86l25.7,9,.91-.65h.16v-.12l34-24.31Zm-27.8-5.2L74.21,12,41.79,35.32,17.94,27.44Zm-32.21,79-.2-56.91.09-.06L41.3,36.38V93.63l-.09.07Zm58.5-15.89L42.47,92.8V36.27L75.68,12.36h0Z"
                  transform="translate(0 0.01)" fill="#fff"/>
            <polygon points="36.04 47.66 19.89 42.13 19.89 37.91 36.04 43.44 36.04 47.66" fill="#fff"/>
            <polygon points="36.04 53.7 19.89 48.17 19.89 43.95 36.04 49.48 36.04 53.7" fill="#fff"/>
            <polygon points="36.04 59.73 19.89 54.21 19.89 49.99 36.04 55.52 36.04 59.73" fill="#fff"/>
            <path d="M68.64,89.67a17.79,17.79,0,1,1,17.8-17.79A17.81,17.81,0,0,1,68.64,89.67Z"
                  transform="translate(0 0.01)" fill="#09a8d3"/>
            <path d="M68.64,54.86a17,17,0,1,1-17,17,17,17,0,0,1,17-17m0-1.52A18.55,18.55,0,1,0,87.2,71.88,18.58,18.58,0,0,0,68.64,53.33Z"
                  transform="translate(0 0.01)" fill="#fff"/>
            <polygon points="79.2 71.89 61.83 81.92 61.83 61.86 79.2 71.89" fill="#fff"/>
        </g>
        <g id="vmware-hostsystem-on">
            <rect x="0.02" width="100" height="100" fill="#fff"/>
            <polygon points="48.95 5.63 16.28 27.45 16.28 85.63 41.89 94.36 75.94 69.63 75.94 11.45 48.95 5.63"
                     fill="#505154"/>
            <path d="M76.87,11.45l-1.13-.27-.15-.2-.17.13L48.84,5,16.6,26.94l-.11,0-.06.16-.93.62L15.7,86l25.7,9,.91-.65h.16v-.12l34-24.31Zm-27.8-5.2L74.21,12,41.79,35.32,17.94,27.44Zm-32.21,79-.2-56.91.09-.06L41.3,36.39V93.64l-.09.07Zm58.5-15.89L42.47,92.8V36.27L75.68,12.36h0Z"
                  transform="translate(0 0.01)" fill="#fff"/>
            <polygon points="36.04 47.67 19.89 42.14 19.89 37.92 36.04 43.45 36.04 47.67" fill="#fff"/>
            <polygon points="36.04 53.7 19.89 48.17 19.89 43.96 36.04 49.48 36.04 53.7" fill="#fff"/>
            <polygon points="36.04 59.74 19.89 54.21 19.89 49.99 36.04 55.52 36.04 59.74" fill="#fff"/>
            <path d="M68.64,89.67a17.79,17.79,0,1,1,17.8-17.79A17.81,17.81,0,0,1,68.64,89.67Z"
                  transform="translate(0 0.01)" fill="#505154"/>
            <path d="M68.64,54.86a17,17,0,1,1-17,17,17,17,0,0,1,17-17m0-1.52A18.55,18.55,0,1,0,87.2,71.88,18.58,18.58,0,0,0,68.64,53.33Z"
                  transform="translate(0 0.01)" fill="#fff"/>
            <polygon points="79.2 71.89 61.83 81.92 61.83 61.86 79.2 71.89" fill="#fff"/>
        </g>
    </g>
    <g id="vmware-hostsystem-standby_icon" data-name="vmware-hostsystem-standby icon">
        <g id="vmware-hostsystem-standby_rollover" data-name="vmware-hostsystem-standby rollover">
            <rect x="0.02" width="100" height="100" fill="#fff"/>
            <polygon points="48.95 5.62 16.28 27.44 16.28 85.62 41.89 94.35 75.94 69.62 75.94 11.44 48.95 5.62"
                     fill="#09a8d3"/>
            <path d="M76.87,11.44l-1.13-.27-.15-.2-.17.13L48.84,5,16.6,26.94l-.11,0-.06.16-.93.62L15.7,86l25.7,9,.91-.65h.16v-.12l34-24.31Zm-27.8-5.2L74.21,12,41.79,35.32,17.94,27.44Zm-32.21,79-.2-56.91.09-.06L41.3,36.38V93.63l-.09.07Zm58.5-15.89L42.47,92.8V36.27L75.68,12.36h0Z"
                  transform="translate(0 0.01)" fill="#fff"/>
            <polygon points="36.04 47.66 19.89 42.13 19.89 37.91 36.04 43.44 36.04 47.66" fill="#fff"/>
            <polygon points="36.04 53.7 19.89 48.17 19.89 43.95 36.04 49.48 36.04 53.7" fill="#fff"/>
            <polygon points="36.04 59.73 19.89 54.21 19.89 49.99 36.04 55.52 36.04 59.73" fill="#fff"/>
            <path d="M68.64,89.67a17.79,17.79,0,1,1,17.8-17.79A17.81,17.81,0,0,1,68.64,89.67Z"
                  transform="translate(0 0.01)" fill="#09a8d3"/>
            <path d="M68.64,54.86a17,17,0,1,1-17,17,17,17,0,0,1,17-17m0-1.52A18.55,18.55,0,1,0,87.2,71.88,18.58,18.58,0,0,0,68.64,53.33Z"
                  transform="translate(0 0.01)" fill="#fff"/>
            <path d="M66.3,60a11.83,11.83,0,0,0-5.49,1.35,10.61,10.61,0,0,1,0,21.06A11.88,11.88,0,1,0,66.3,60Z"
                  transform="translate(0 0.01)" fill="#fff"/>
        </g>
        <g id="vmware-hostsystem-standby_active" data-name="vmware-hostsystem-standby active">
            <rect x="0.02" width="100" height="100" fill="#fff"/>
            <polygon points="48.95 5.62 16.28 27.44 16.28 85.62 41.89 94.35 75.94 69.62 75.94 11.44 48.95 5.62"
                     fill="#09a8d3"/>
            <path d="M76.87,11.44l-1.13-.27-.15-.2-.17.13L48.84,5,16.6,26.94l-.11,0-.06.16-.93.62L15.7,86l25.7,9,.91-.65h.16v-.12l34-24.31Zm-27.8-5.2L74.21,12,41.79,35.32,17.94,27.44Zm-32.21,79-.2-56.91.09-.06L41.3,36.38V93.63l-.09.07Zm58.5-15.89L42.47,92.8V36.27L75.68,12.36h0Z"
                  transform="translate(0 0.01)" fill="#fff"/>
            <polygon points="36.04 47.66 19.89 42.13 19.89 37.91 36.04 43.44 36.04 47.66" fill="#fff"/>
            <polygon points="36.04 53.7 19.89 48.17 19.89 43.95 36.04 49.48 36.04 53.7" fill="#fff"/>
            <polygon points="36.04 59.73 19.89 54.21 19.89 49.99 36.04 55.52 36.04 59.73" fill="#fff"/>
            <path d="M68.64,89.67a17.79,17.79,0,1,1,17.8-17.79A17.81,17.81,0,0,1,68.64,89.67Z"
                  transform="translate(0 0.01)" fill="#09a8d3"/>
            <path d="M68.64,54.86a17,17,0,1,1-17,17,17,17,0,0,1,17-17m0-1.52A18.55,18.55,0,1,0,87.2,71.88,18.58,18.58,0,0,0,68.64,53.33Z"
                  transform="translate(0 0.01)" fill="#fff"/>
            <path d="M66.3,60a11.83,11.83,0,0,0-5.49,1.35,10.61,10.61,0,0,1,0,21.06A11.88,11.88,0,1,0,66.3,60Z"
                  transform="translate(0 0.01)" fill="#fff"/>
        </g>
        <g id="vmware-hostsystem-standby">
            <rect x="0.02" width="100" height="100" fill="#fff"/>
            <polygon points="48.95 5.62 16.28 27.44 16.28 85.62 41.89 94.35 75.94 69.62 75.94 11.44 48.95 5.62"
                     fill="#505154"/>
            <path d="M76.87,11.44l-1.13-.27-.15-.2-.17.13L48.84,5,16.6,26.94l-.11,0-.06.16-.93.62L15.7,86l25.7,9,.91-.65h.16v-.12l34-24.31Zm-27.8-5.2L74.21,12,41.79,35.32,17.94,27.44Zm-32.21,79-.2-56.91.09-.06L41.3,36.38V93.63l-.09.07Zm58.5-15.89L42.47,92.8V36.27L75.68,12.36h0Z"
                  transform="translate(0 0.01)" fill="#fff"/>
            <polygon points="36.04 47.66 19.89 42.13 19.89 37.91 36.04 43.44 36.04 47.66" fill="#fff"/>
            <polygon points="36.04 53.7 19.89 48.17 19.89 43.95 36.04 49.48 36.04 53.7" fill="#fff"/>
            <polygon points="36.04 59.73 19.89 54.21 19.89 49.99 36.04 55.52 36.04 59.73" fill="#fff"/>
            <path d="M68.64,89.67a17.79,17.79,0,1,1,17.8-17.79A17.81,17.81,0,0,1,68.64,89.67Z"
                  transform="translate(0 0.01)" fill="#505154"/>
            <path d="M68.64,54.86a17,17,0,1,1-17,17,17,17,0,0,1,17-17m0-1.52A18.55,18.55,0,1,0,87.2,71.88,18.58,18.58,0,0,0,68.64,53.33Z"
                  transform="translate(0 0.01)" fill="#fff"/>
            <path d="M66.3,60a11.83,11.83,0,0,0-5.49,1.35,10.61,10.61,0,0,1,0,21.06A11.88,11.88,0,1,0,66.3,60Z"
                  transform="translate(0 0.01)" fill="#fff"/>
        </g>
    </g>
    <g id="vmware-hostsystem-unknown_icon" data-name="vmware-hostsystem-unknown icon">
        <g id="vmware-hostsystem-unknown_active" data-name="vmware-hostsystem-unknown active">
            <rect x="0.02" width="100" height="100" fill="#fff"/>
            <polygon points="48.95 5.62 16.28 27.44 16.28 85.62 41.89 94.35 75.94 69.62 75.94 11.44 48.95 5.62"
                     fill="#09a8d3"/>
            <path d="M76.87,11.44l-1.13-.27-.15-.2-.17.13L48.84,5,16.6,26.94l-.11,0-.06.16-.93.62L15.7,86l25.7,9,.91-.65h.16v-.12l34-24.31Zm-27.8-5.2L74.21,12,41.79,35.32,17.94,27.44Zm-32.21,79-.2-56.91.09-.06L41.3,36.38V93.63l-.09.07Zm58.5-15.89L42.47,92.8V36.27L75.68,12.36h0Z"
                  transform="translate(0 0.01)" fill="#fff"/>
            <polygon points="36.04 47.66 19.89 42.13 19.89 37.91 36.04 43.44 36.04 47.66" fill="#fff"/>
            <polygon points="36.04 53.7 19.89 48.17 19.89 43.95 36.04 49.48 36.04 53.7" fill="#fff"/>
            <polygon points="36.04 59.73 19.89 54.21 19.89 49.99 36.04 55.52 36.04 59.73" fill="#fff"/>
            <path d="M68.64,89.67a17.79,17.79,0,1,1,17.8-17.79A17.81,17.81,0,0,1,68.64,89.67Z"
                  transform="translate(0 0.01)" fill="#09a8d3"/>
            <path d="M68.64,54.86a17,17,0,1,1-17,17,17,17,0,0,1,17-17m0-1.52A18.55,18.55,0,1,0,87.2,71.88,18.58,18.58,0,0,0,68.64,53.33Z"
                  transform="translate(0 0.01)" fill="#fff"/>
            <path d="M64.11,62.06a7.71,7.71,0,0,1,4.26-1.12,9.18,9.18,0,0,1,5.52,1.59,5.42,5.42,0,0,1,2.2,4.7,5.32,5.32,0,0,1-1,3.22,11,11,0,0,1-2.14,2l-1,.81a3.16,3.16,0,0,0-1.13,1.54,6.5,6.5,0,0,0-.19,1.73h-4a11.53,11.53,0,0,1,.47-3.43,6,6,0,0,1,2-2.18l1.07-.84a3.73,3.73,0,0,0,.85-.87,3,3,0,0,0,.59-1.78,3.43,3.43,0,0,0-.65-2,2.74,2.74,0,0,0-2.38-.92,2.62,2.62,0,0,0-2.41,1.13A4.35,4.35,0,0,0,65.43,68H61.19Q61.36,63.81,64.11,62.06Zm2.44,16.51h4.39v4.25H66.55Z"
                  transform="translate(0 0.01)" fill="#fff"/>
        </g>
        <g id="vmware-hostsystem-unknown_rollover" data-name="vmware-hostsystem-unknown rollover">
            <rect x="0.02" width="100" height="100" fill="#fff"/>
            <polygon points="48.95 5.62 16.28 27.44 16.28 85.62 41.89 94.35 75.94 69.62 75.94 11.44 48.95 5.62"
                     fill="#09a8d3"/>
            <path d="M76.87,11.44l-1.13-.27-.15-.2-.17.13L48.84,5,16.6,26.94l-.11,0-.06.16-.93.62L15.7,86l25.7,9,.91-.65h.16v-.12l34-24.31Zm-27.8-5.2L74.21,12,41.79,35.32,17.94,27.44Zm-32.21,79-.2-56.91.09-.06L41.3,36.38V93.63l-.09.07Zm58.5-15.89L42.47,92.8V36.27L75.68,12.36h0Z"
                  transform="translate(0 0.01)" fill="#fff"/>
            <polygon points="36.04 47.66 19.89 42.13 19.89 37.91 36.04 43.44 36.04 47.66" fill="#fff"/>
            <polygon points="36.04 53.7 19.89 48.17 19.89 43.95 36.04 49.48 36.04 53.7" fill="#fff"/>
            <polygon points="36.04 59.73 19.89 54.21 19.89 49.99 36.04 55.52 36.04 59.73" fill="#fff"/>
            <path d="M68.64,89.67a17.79,17.79,0,1,1,17.8-17.79A17.81,17.81,0,0,1,68.64,89.67Z"
                  transform="translate(0 0.01)" fill="#09a8d3"/>
            <path d="M68.64,54.86a17,17,0,1,1-17,17,17,17,0,0,1,17-17m0-1.52A18.55,18.55,0,1,0,87.2,71.88,18.58,18.58,0,0,0,68.64,53.33Z"
                  transform="translate(0 0.01)" fill="#fff"/>
            <path d="M64.11,62.06a7.71,7.71,0,0,1,4.26-1.12,9.18,9.18,0,0,1,5.52,1.59,5.42,5.42,0,0,1,2.2,4.7,5.32,5.32,0,0,1-1,3.22,11,11,0,0,1-2.14,2l-1,.81a3.16,3.16,0,0,0-1.13,1.54,6.5,6.5,0,0,0-.19,1.73h-4a11.53,11.53,0,0,1,.47-3.43,6,6,0,0,1,2-2.18l1.07-.84a3.73,3.73,0,0,0,.85-.87,3,3,0,0,0,.59-1.78,3.43,3.43,0,0,0-.65-2,2.74,2.74,0,0,0-2.38-.92,2.62,2.62,0,0,0-2.41,1.13A4.35,4.35,0,0,0,65.43,68H61.19Q61.36,63.81,64.11,62.06Zm2.44,16.51h4.39v4.25H66.55Z"
                  transform="translate(0 0.01)" fill="#fff"/>
        </g>
        <g id="vmware-hostsystem-unknown">
            <rect x="0.02" width="100" height="100" fill="#fff"/>
            <polygon points="48.95 5.62 16.28 27.44 16.28 85.62 41.89 94.35 75.94 69.62 75.94 11.44 48.95 5.62"
                     fill="#505154"/>
            <path d="M76.87,11.44l-1.13-.27-.15-.2-.17.13L48.84,5,16.6,26.94l-.11,0-.06.16-.93.62L15.7,86l25.7,9,.91-.65h.16v-.12l34-24.31Zm-27.8-5.2L74.21,12,41.79,35.32,17.94,27.44Zm-32.21,79-.2-56.91.09-.06L41.3,36.38V93.63l-.09.07Zm58.5-15.89L42.47,92.8V36.27L75.68,12.36h0Z"
                  transform="translate(0 0.01)" fill="#fff"/>
            <polygon points="36.04 47.66 19.89 42.13 19.89 37.91 36.04 43.44 36.04 47.66" fill="#fff"/>
            <polygon points="36.04 53.7 19.89 48.17 19.89 43.95 36.04 49.48 36.04 53.7" fill="#fff"/>
            <polygon points="36.04 59.73 19.89 54.21 19.89 49.99 36.04 55.52 36.04 59.73" fill="#fff"/>
            <path d="M68.64,89.67a17.79,17.79,0,1,1,17.8-17.79A17.81,17.81,0,0,1,68.64,89.67Z"
                  transform="translate(0 0.01)" fill="#505154"/>
            <path d="M68.64,54.86a17,17,0,1,1-17,17,17,17,0,0,1,17-17m0-1.52A18.55,18.55,0,1,0,87.2,71.88,18.58,18.58,0,0,0,68.64,53.33Z"
                  transform="translate(0 0.01)" fill="#fff"/>
            <path d="M64.11,62.06a7.71,7.71,0,0,1,4.26-1.12,9.18,9.18,0,0,1,5.52,1.59,5.42,5.42,0,0,1,2.2,4.7,5.32,5.32,0,0,1-1,3.22,11,11,0,0,1-2.14,2l-1,.81a3.16,3.16,0,0,0-1.13,1.54,6.5,6.5,0,0,0-.19,1.73h-4a11.53,11.53,0,0,1,.47-3.43,6,6,0,0,1,2-2.18l1.07-.84a3.73,3.73,0,0,0,.85-.87,3,3,0,0,0,.59-1.78,3.43,3.43,0,0,0-.65-2,2.74,2.74,0,0,0-2.38-.92,2.62,2.62,0,0,0-2.41,1.13A4.35,4.35,0,0,0,65.43,68H61.19Q61.36,63.81,64.11,62.06Zm2.44,16.51h4.39v4.25H66.55Z"
                  transform="translate(0 0.01)" fill="#fff"/>
        </g>
    </g>
    <g id="vmware-network_icon" data-name="vmware-network icon">
        <g id="vmware-network_active" data-name="vmware-network active">
            <rect x="0.02" width="100" height="100" fill="#fff"/>
            <circle cx="45.56" cy="52.09" r="15.78" transform="translate(-22.62 63.97) rotate(-58.7)" fill="#09a8d3"/>
            <circle cx="82.97" cy="74.06" r="8.83" transform="translate(-23.41 106.49) rotate(-58.7)" fill="#09a8d3"/>
            <circle cx="74.15" cy="22.73" r="10.37" transform="translate(16.21 74.28) rotate(-58.7)" fill="#09a8d3"/>
            <circle cx="34.63" cy="82.89" r="7.94" transform="translate(-54.18 69.43) rotate(-58.7)" fill="#09a8d3"/>
            <circle cx="17.46" cy="59.28" r="9.23" transform="translate(-42.27 43.41) rotate(-58.7)" fill="#09a8d3"/>
            <circle cx="26.69" cy="18.39" r="9.23" transform="translate(-2.89 31.65) rotate(-58.7)" fill="#09a8d3"/>
            <polyline points="82.97 74.06 45.56 52.1 74.15 22.73" fill="none" stroke="#09a8d3" stroke-miterlimit="10"
                      stroke-width="2.34"/>
            <line x1="45.56" y1="52.1" x2="34.63" y2="82.89" fill="none" stroke="#09a8d3" stroke-miterlimit="10"
                  stroke-width="2.34"/>
            <line x1="26.69" y1="18.4" x2="45.56" y2="52.1" fill="none" stroke="#09a8d3" stroke-miterlimit="10"
                  stroke-width="2.34"/>
            <line x1="17.46" y1="59.29" x2="45.56" y2="52.1" fill="none" stroke="#09a8d3" stroke-miterlimit="10"
                  stroke-width="2.34"/>
        </g>
        <g id="vmware-network_rollover" data-name="vmware-network rollover">
            <rect x="0.02" width="100" height="100" fill="#fff"/>
            <circle cx="45.56" cy="52.09" r="15.78" transform="translate(-22.62 63.97) rotate(-58.7)" fill="#09a8d3"/>
            <circle cx="82.97" cy="74.06" r="8.83" transform="translate(-23.41 106.49) rotate(-58.7)" fill="#09a8d3"/>
            <circle cx="74.15" cy="22.73" r="10.37" transform="translate(16.21 74.28) rotate(-58.7)" fill="#09a8d3"/>
            <circle cx="34.63" cy="82.89" r="7.94" transform="translate(-54.18 69.43) rotate(-58.7)" fill="#09a8d3"/>
            <circle cx="17.46" cy="59.28" r="9.23" transform="translate(-42.27 43.41) rotate(-58.7)" fill="#09a8d3"/>
            <circle cx="26.69" cy="18.39" r="9.23" transform="translate(-2.89 31.65) rotate(-58.7)" fill="#09a8d3"/>
            <polyline points="82.97 74.06 45.56 52.1 74.15 22.73" fill="none" stroke="#09a8d3" stroke-miterlimit="10"
                      stroke-width="2.34"/>
            <line x1="45.56" y1="52.1" x2="34.63" y2="82.89" fill="none" stroke="#09a8d3" stroke-miterlimit="10"
                  stroke-width="2.34"/>
            <line x1="26.69" y1="18.4" x2="45.56" y2="52.1" fill="none" stroke="#09a8d3" stroke-miterlimit="10"
                  stroke-width="2.34"/>
            <line x1="17.46" y1="59.29" x2="45.56" y2="52.1" fill="none" stroke="#09a8d3" stroke-miterlimit="10"
                  stroke-width="2.34"/>
        </g>
        <g id="vmware-network">
            <rect x="0.02" width="100" height="100" fill="#fff"/>
            <circle cx="45.56" cy="52.09" r="15.78" transform="translate(-22.62 63.97) rotate(-58.7)" fill="#505154"/>
            <circle cx="82.97" cy="74.06" r="8.83" transform="translate(-23.41 106.49) rotate(-58.7)" fill="#505154"/>
            <circle cx="74.15" cy="22.73" r="10.37" transform="translate(16.21 74.28) rotate(-58.7)" fill="#505154"/>
            <circle cx="34.63" cy="82.89" r="7.94" transform="translate(-54.18 69.43) rotate(-58.7)" fill="#505154"/>
            <circle cx="17.46" cy="59.28" r="9.23" transform="translate(-42.27 43.41) rotate(-58.7)" fill="#505154"/>
            <circle cx="26.69" cy="18.39" r="9.23" transform="translate(-2.89 31.65) rotate(-58.7)" fill="#505154"/>
            <polyline points="82.97 74.06 45.56 52.1 74.15 22.73" fill="none" stroke="#505154" stroke-miterlimit="10"
                      stroke-width="2.34"/>
            <line x1="45.56" y1="52.1" x2="34.63" y2="82.89" fill="none" stroke="#505154" stroke-miterlimit="10"
                  stroke-width="2.34"/>
            <line x1="26.69" y1="18.4" x2="45.56" y2="52.1" fill="none" stroke="#505154" stroke-miterlimit="10"
                  stroke-width="2.34"/>
            <line x1="17.46" y1="59.29" x2="45.56" y2="52.1" fill="none" stroke="#505154" stroke-miterlimit="10"
                  stroke-width="2.34"/>
        </g>
    </g>
    <g id="vmware-virtualmachine-off_icon" data-name="vmware-virtualmachine-off icon">
        <g id="vmware-virtualmachine-off_active" data-name="vmware-virtualmachine-off active">
            <rect y="0.01" width="100" height="100" fill="#fff"/>
            <rect x="19.57" y="8.54" width="57.41" height="50.22" fill="#09a8d3"/>
            <rect x="23.33" y="11.82" width="49.9" height="43.66" fill="#fff"/>
            <rect x="26.8" y="14.85" width="42.96" height="37.58" fill="#09a8d3"/>
            <rect x="35.65" y="24.77" width="57.41" height="50.22" fill="#09a8d3"/>
            <rect x="39.4" y="28.05" width="49.9" height="43.66" fill="#fff"/>
            <rect x="42.87" y="31.09" width="42.96" height="37.58" fill="#09a8d3"/>
            <rect x="6.94" y="41.26" width="57.41" height="50.22" fill="#09a8d3"/>
            <rect x="10.7" y="44.54" width="49.9" height="43.66" fill="#fff"/>
            <rect x="14.17" y="47.58" width="42.96" height="37.58" fill="#09a8d3"/>
            <path d="M75,95.77A20.78,20.78,0,1,1,95.85,75,20.86,20.86,0,0,1,75,95.77Z" transform="translate(0 0.01)"
                  fill="#09a8d3"/>
            <path d="M75,55.1A19.89,19.89,0,1,1,55,75,19.95,19.95,0,0,1,75,55.1m0-1.79A21.67,21.67,0,1,0,96.75,75,21.76,21.76,0,0,0,75,53.31Z"
                  transform="translate(0 0.01)" fill="#fff"/>
            <rect x="64.97" y="65.06" width="19.97" height="19.86" fill="#fff"/>
        </g>
        <g id="vmware-virtualmachine-off_rollover" data-name="vmware-virtualmachine-off rollover">
            <rect y="0.01" width="100" height="100" fill="#fff"/>
            <rect x="19.57" y="8.54" width="57.41" height="50.22" fill="#09a8d3"/>
            <rect x="23.33" y="11.82" width="49.9" height="43.66" fill="#fff"/>
            <rect x="26.8" y="14.85" width="42.96" height="37.58" fill="#09a8d3"/>
            <rect x="35.65" y="24.77" width="57.41" height="50.22" fill="#09a8d3"/>
            <rect x="39.4" y="28.05" width="49.9" height="43.66" fill="#fff"/>
            <rect x="42.87" y="31.09" width="42.96" height="37.58" fill="#09a8d3"/>
            <rect x="6.94" y="41.26" width="57.41" height="50.22" fill="#09a8d3"/>
            <rect x="10.7" y="44.54" width="49.9" height="43.66" fill="#fff"/>
            <rect x="14.17" y="47.58" width="42.96" height="37.58" fill="#09a8d3"/>
            <path d="M75,95.77A20.78,20.78,0,1,1,95.85,75,20.86,20.86,0,0,1,75,95.77Z" transform="translate(0 0.01)"
                  fill="#09a8d3"/>
            <path d="M75,55.1A19.89,19.89,0,1,1,55,75,19.95,19.95,0,0,1,75,55.1m0-1.79A21.67,21.67,0,1,0,96.75,75,21.76,21.76,0,0,0,75,53.31Z"
                  transform="translate(0 0.01)" fill="#fff"/>
            <rect x="64.97" y="65.06" width="19.97" height="19.86" fill="#fff"/>
        </g>
        <g id="vmware-virtualmachine-off">
            <rect y="0.01" width="100" height="100" fill="#fff"/>
            <rect x="19.57" y="8.54" width="57.41" height="50.22" fill="#505154"/>
            <rect x="23.33" y="11.82" width="49.9" height="43.66" fill="#fff"/>
            <rect x="26.8" y="14.85" width="42.96" height="37.58" fill="#505154"/>
            <rect x="35.65" y="24.77" width="57.41" height="50.22" fill="#505154"/>
            <rect x="39.4" y="28.05" width="49.9" height="43.66" fill="#fff"/>
            <rect x="42.87" y="31.09" width="42.96" height="37.58" fill="#505154"/>
            <rect x="6.94" y="41.26" width="57.41" height="50.22" fill="#505154"/>
            <rect x="10.7" y="44.54" width="49.9" height="43.66" fill="#fff"/>
            <rect x="14.17" y="47.58" width="42.96" height="37.58" fill="#505154"/>
            <path d="M75,95.77A20.78,20.78,0,1,1,95.85,75,20.86,20.86,0,0,1,75,95.77Z" transform="translate(0 0.01)"
                  fill="#505154"/>
            <path d="M75,55.1A19.89,19.89,0,1,1,55,75,19.95,19.95,0,0,1,75,55.1m0-1.79A21.67,21.67,0,1,0,96.75,75,21.76,21.76,0,0,0,75,53.31Z"
                  transform="translate(0 0.01)" fill="#fff"/>
            <rect x="64.97" y="65.06" width="19.97" height="19.86" fill="#fff"/>
        </g>
    </g>
    <g id="vmware-virtualmachine-on_icon" data-name="vmware-virtualmachine-on icon">
        <g id="vmware-virtualmachine-on_active" data-name="vmware-virtualmachine-on active">
            <rect x="0.02" width="100" height="100" fill="#fff"/>
            <rect x="19.57" y="8.54" width="57.41" height="50.22" fill="#09a8d3"/>
            <rect x="23.33" y="11.82" width="49.9" height="43.65" fill="#fff"/>
            <rect x="26.8" y="14.85" width="42.96" height="37.58" fill="#09a8d3"/>
            <rect x="35.65" y="24.77" width="57.41" height="50.22" fill="#09a8d3"/>
            <rect x="39.4" y="28.05" width="49.9" height="43.65" fill="#fff"/>
            <rect x="42.87" y="31.09" width="42.96" height="37.58" fill="#09a8d3"/>
            <rect x="6.94" y="41.25" width="57.41" height="50.22" fill="#09a8d3"/>
            <rect x="10.7" y="44.54" width="49.9" height="43.65" fill="#fff"/>
            <rect x="14.17" y="47.57" width="42.96" height="37.58" fill="#09a8d3"/>
            <path d="M75,95.76A20.78,20.78,0,1,1,95.85,75,20.86,20.86,0,0,1,75,95.76Z" transform="translate(0 0.01)"
                  fill="#09a8d3"/>
            <path d="M75,55.1A19.89,19.89,0,1,1,55,75,19.95,19.95,0,0,1,75,55.1m0-1.79A21.67,21.67,0,1,0,96.75,75,21.76,21.76,0,0,0,75,53.31Z"
                  transform="translate(0 0.01)" fill="#fff"/>
            <polygon points="87.37 74.99 66.96 86.7 66.96 63.27 87.37 74.99" fill="#fff"/>
        </g>
        <g id="vmware-virtualmachine-on_rollover" data-name="vmware-virtualmachine-on rollover">
            <rect x="0.02" width="100" height="100" fill="#fff"/>
            <rect x="19.57" y="8.54" width="57.41" height="50.22" fill="#09a8d3"/>
            <rect x="23.33" y="11.82" width="49.9" height="43.65" fill="#fff"/>
            <rect x="26.8" y="14.85" width="42.96" height="37.58" fill="#09a8d3"/>
            <rect x="35.65" y="24.77" width="57.41" height="50.22" fill="#09a8d3"/>
            <rect x="39.4" y="28.05" width="49.9" height="43.65" fill="#fff"/>
            <rect x="42.87" y="31.09" width="42.96" height="37.58" fill="#09a8d3"/>
            <rect x="6.94" y="41.25" width="57.41" height="50.22" fill="#09a8d3"/>
            <rect x="10.7" y="44.54" width="49.9" height="43.65" fill="#fff"/>
            <rect x="14.17" y="47.57" width="42.96" height="37.58" fill="#09a8d3"/>
            <path d="M75,95.76A20.78,20.78,0,1,1,95.85,75,20.86,20.86,0,0,1,75,95.76Z" transform="translate(0 0.01)"
                  fill="#09a8d3"/>
            <path d="M75,55.1A19.89,19.89,0,1,1,55,75,19.95,19.95,0,0,1,75,55.1m0-1.79A21.67,21.67,0,1,0,96.75,75,21.76,21.76,0,0,0,75,53.31Z"
                  transform="translate(0 0.01)" fill="#fff"/>
            <polygon points="87.37 74.99 66.96 86.7 66.96 63.27 87.37 74.99" fill="#fff"/>
        </g>
        <g id="vmware-virtualmachine-on">
            <rect x="0.02" width="100" height="100" fill="#fff"/>
            <rect x="19.57" y="8.54" width="57.41" height="50.22" fill="#505154"/>
            <rect x="23.33" y="11.82" width="49.9" height="43.65" fill="#fff"/>
            <rect x="26.8" y="14.85" width="42.96" height="37.58" fill="#505154"/>
            <rect x="35.65" y="24.77" width="57.41" height="50.22" fill="#505154"/>
            <rect x="39.4" y="28.05" width="49.9" height="43.65" fill="#fff"/>
            <rect x="42.87" y="31.09" width="42.96" height="37.58" fill="#505154"/>
            <rect x="6.94" y="41.25" width="57.41" height="50.22" fill="#505154"/>
            <rect x="10.7" y="44.54" width="49.9" height="43.65" fill="#fff"/>
            <rect x="14.17" y="47.57" width="42.96" height="37.58" fill="#505154"/>
            <path d="M75,95.76A20.78,20.78,0,1,1,95.85,75,20.86,20.86,0,0,1,75,95.76Z" transform="translate(0 0.01)"
                  fill="#505154"/>
            <path d="M75,55.1A19.89,19.89,0,1,1,55,75,19.95,19.95,0,0,1,75,55.1m0-1.79A21.67,21.67,0,1,0,96.75,75,21.76,21.76,0,0,0,75,53.31Z"
                  transform="translate(0 0.01)" fill="#fff"/>
            <polygon points="87.37 74.99 66.96 86.7 66.96 63.27 87.37 74.99" fill="#fff"/>
        </g>
    </g>
    <g id="vmware-virtualmachine-suspended_icon" data-name="vmware-virtualmachine-suspended icon">
        <g id="vmware-virtualmachine-suspended_active" data-name="vmware-virtualmachine-suspended active">
            <rect x="0.02" width="100" height="100" fill="#fff"/>
            <rect x="19.57" y="8.54" width="57.41" height="50.22" fill="#09a8d3"/>
            <rect x="23.33" y="11.82" width="49.9" height="43.65" fill="#fff"/>
            <rect x="26.8" y="14.85" width="42.96" height="37.58" fill="#09a8d3"/>
            <rect x="35.65" y="24.77" width="57.41" height="50.22" fill="#09a8d3"/>
            <rect x="39.4" y="28.05" width="49.9" height="43.65" fill="#fff"/>
            <rect x="42.87" y="31.09" width="42.96" height="37.58" fill="#09a8d3"/>
            <rect x="6.94" y="41.25" width="57.41" height="50.22" fill="#09a8d3"/>
            <rect x="10.7" y="44.54" width="49.9" height="43.65" fill="#fff"/>
            <rect x="14.17" y="47.57" width="42.96" height="37.58" fill="#09a8d3"/>
            <path d="M75,95.76A20.78,20.78,0,1,1,95.85,75,20.86,20.86,0,0,1,75,95.76Z" transform="translate(0 0.01)"
                  fill="#09a8d3"/>
            <path d="M75,55.1A19.89,19.89,0,1,1,55,75,19.95,19.95,0,0,1,75,55.1m0-1.79A21.67,21.67,0,1,0,96.75,75,21.76,21.76,0,0,0,75,53.31Z"
                  transform="translate(0 0.01)" fill="#fff"/>
            <rect x="67.33" y="65.99" width="4.33" height="18.5" fill="#fff"/>
            <rect x="78.24" y="65.99" width="4.33" height="18.5" fill="#fff"/>
        </g>
        <g id="vmware-virtualmachine-suspended_rollover" data-name="vmware-virtualmachine-suspended rollover">
            <rect x="0.02" width="100" height="100" fill="#fff"/>
            <rect x="19.57" y="8.54" width="57.41" height="50.22" fill="#09a8d3"/>
            <rect x="23.33" y="11.82" width="49.9" height="43.65" fill="#fff"/>
            <rect x="26.8" y="14.85" width="42.96" height="37.58" fill="#09a8d3"/>
            <rect x="35.65" y="24.77" width="57.41" height="50.22" fill="#09a8d3"/>
            <rect x="39.4" y="28.05" width="49.9" height="43.65" fill="#fff"/>
            <rect x="42.87" y="31.09" width="42.96" height="37.58" fill="#09a8d3"/>
            <rect x="6.94" y="41.25" width="57.41" height="50.22" fill="#09a8d3"/>
            <rect x="10.7" y="44.54" width="49.9" height="43.65" fill="#fff"/>
            <rect x="14.17" y="47.57" width="42.96" height="37.58" fill="#09a8d3"/>
            <path d="M75,95.76A20.78,20.78,0,1,1,95.85,75,20.86,20.86,0,0,1,75,95.76Z" transform="translate(0 0.01)"
                  fill="#09a8d3"/>
            <path d="M75,55.1A19.89,19.89,0,1,1,55,75,19.95,19.95,0,0,1,75,55.1m0-1.79A21.67,21.67,0,1,0,96.75,75,21.76,21.76,0,0,0,75,53.31Z"
                  transform="translate(0 0.01)" fill="#fff"/>
            <rect x="67.33" y="65.99" width="4.33" height="18.5" fill="#fff"/>
            <rect x="78.24" y="65.99" width="4.33" height="18.5" fill="#fff"/>
        </g>
        <g id="vmware-virtualmachine-suspended">
            <rect x="0.02" width="100" height="100" fill="#fff"/>
            <rect x="19.57" y="8.54" width="57.41" height="50.22" fill="#505154"/>
            <rect x="23.33" y="11.82" width="49.9" height="43.65" fill="#fff"/>
            <rect x="26.8" y="14.85" width="42.96" height="37.58" fill="#505154"/>
            <rect x="35.65" y="24.77" width="57.41" height="50.22" fill="#505154"/>
            <rect x="39.4" y="28.05" width="49.9" height="43.65" fill="#fff"/>
            <rect x="42.87" y="31.09" width="42.96" height="37.58" fill="#505154"/>
            <rect x="6.94" y="41.25" width="57.41" height="50.22" fill="#505154"/>
            <rect x="10.7" y="44.54" width="49.9" height="43.65" fill="#fff"/>
            <rect x="14.17" y="47.57" width="42.96" height="37.58" fill="#505154"/>
            <path d="M75,95.76A20.78,20.78,0,1,1,95.85,75,20.86,20.86,0,0,1,75,95.76Z" transform="translate(0 0.01)"
                  fill="#505154"/>
            <path d="M75,55.1A19.89,19.89,0,1,1,55,75,19.95,19.95,0,0,1,75,55.1m0-1.79A21.67,21.67,0,1,0,96.75,75,21.76,21.76,0,0,0,75,53.31Z"
                  transform="translate(0 0.01)" fill="#fff"/>
            <rect x="67.33" y="65.99" width="4.33" height="18.5" fill="#fff"/>
            <rect x="78.24" y="65.99" width="4.33" height="18.5" fill="#fff"/>
        </g>
    </g>
    <g id="vmware-virtualmachine-unknown_icon" data-name="vmware-virtualmachine-unknown icon">
        <g id="vmware-virtualmachine-unknown_active" data-name="vmware-virtualmachine-unknown active">
            <rect x="0.02" width="100" height="100" fill="#fff"/>
            <rect x="19.57" y="8.54" width="57.41" height="50.22" fill="#09a8d3"/>
            <rect x="23.33" y="11.82" width="49.9" height="43.65" fill="#fff"/>
            <rect x="26.8" y="14.85" width="42.96" height="37.58" fill="#09a8d3"/>
            <rect x="35.65" y="24.77" width="57.41" height="50.22" fill="#09a8d3"/>
            <rect x="39.4" y="28.05" width="49.9" height="43.65" fill="#fff"/>
            <rect x="42.87" y="31.09" width="42.96" height="37.58" fill="#09a8d3"/>
            <rect x="6.94" y="41.25" width="57.41" height="50.22" fill="#09a8d3"/>
            <rect x="10.7" y="44.54" width="49.9" height="43.65" fill="#fff"/>
            <rect x="14.17" y="47.57" width="42.96" height="37.58" fill="#09a8d3"/>
            <path d="M75,95.76A20.78,20.78,0,1,1,95.85,75,20.86,20.86,0,0,1,75,95.76Z" transform="translate(0 0.01)"
                  fill="#09a8d3"/>
            <path d="M75,55.1A19.89,19.89,0,1,1,55,75,19.95,19.95,0,0,1,75,55.1m0-1.79A21.67,21.67,0,1,0,96.75,75,21.76,21.76,0,0,0,75,53.31Z"
                  transform="translate(0 0.01)" fill="#fff"/>
            <path d="M70.08,62.8a9.91,9.91,0,0,1,5.46-1.43,11.78,11.78,0,0,1,7.07,2,6.94,6.94,0,0,1,2.82,6,6.8,6.8,0,0,1-1.22,4.12,14.07,14.07,0,0,1-2.74,2.59l-1.33,1a4,4,0,0,0-1.45,2,8.3,8.3,0,0,0-.24,2.22H73.34a14.72,14.72,0,0,1,.6-4.39,7.74,7.74,0,0,1,2.52-2.79l1.37-1.07A4.78,4.78,0,0,0,78.91,72a3.79,3.79,0,0,0,.75-2.28,4.39,4.39,0,0,0-.84-2.6,3.51,3.51,0,0,0-3.05-1.17,3.37,3.37,0,0,0-3.09,1.45,5.56,5.56,0,0,0-.91,3H66.33Q66.55,65,70.08,62.8ZM73.2,83.92h5.63v5.43H73.2Z"
                  transform="translate(0 0.01)" fill="#fff"/>
        </g>
        <g id="vmware-virtualmachine-unknown_rollover" data-name="vmware-virtualmachine-unknown rollover">
            <rect x="0.02" width="100" height="100" fill="#fff"/>
            <rect x="19.57" y="8.54" width="57.41" height="50.22" fill="#09a8d3"/>
            <rect x="23.33" y="11.82" width="49.9" height="43.65" fill="#fff"/>
            <rect x="26.8" y="14.85" width="42.96" height="37.58" fill="#09a8d3"/>
            <rect x="35.65" y="24.77" width="57.41" height="50.22" fill="#09a8d3"/>
            <rect x="39.4" y="28.05" width="49.9" height="43.65" fill="#fff"/>
            <rect x="42.87" y="31.09" width="42.96" height="37.58" fill="#09a8d3"/>
            <rect x="6.94" y="41.25" width="57.41" height="50.22" fill="#09a8d3"/>
            <rect x="10.7" y="44.54" width="49.9" height="43.65" fill="#fff"/>
            <rect x="14.17" y="47.57" width="42.96" height="37.58" fill="#09a8d3"/>
            <path d="M75,95.76A20.78,20.78,0,1,1,95.85,75,20.86,20.86,0,0,1,75,95.76Z" transform="translate(0 0.01)"
                  fill="#09a8d3"/>
            <path d="M75,55.1A19.89,19.89,0,1,1,55,75,19.95,19.95,0,0,1,75,55.1m0-1.79A21.67,21.67,0,1,0,96.75,75,21.76,21.76,0,0,0,75,53.31Z"
                  transform="translate(0 0.01)" fill="#fff"/>
            <path d="M70.08,62.8a9.91,9.91,0,0,1,5.46-1.43,11.78,11.78,0,0,1,7.07,2,6.94,6.94,0,0,1,2.82,6,6.8,6.8,0,0,1-1.22,4.12,14.07,14.07,0,0,1-2.74,2.59l-1.33,1a4,4,0,0,0-1.45,2,8.3,8.3,0,0,0-.24,2.22H73.34a14.72,14.72,0,0,1,.6-4.39,7.74,7.74,0,0,1,2.52-2.79l1.37-1.07A4.78,4.78,0,0,0,78.91,72a3.79,3.79,0,0,0,.75-2.28,4.39,4.39,0,0,0-.84-2.6,3.51,3.51,0,0,0-3.05-1.17,3.37,3.37,0,0,0-3.09,1.45,5.56,5.56,0,0,0-.91,3H66.33Q66.55,65,70.08,62.8ZM73.2,83.92h5.63v5.43H73.2Z"
                  transform="translate(0 0.01)" fill="#fff"/>
        </g>
        <g id="vmware-virtualmachine-unknown">
            <rect x="0.02" width="100" height="100" fill="#fff"/>
            <rect x="19.57" y="8.54" width="57.41" height="50.22" fill="#505154"/>
            <rect x="23.33" y="11.82" width="49.9" height="43.65" fill="#fff"/>
            <rect x="26.8" y="14.85" width="42.96" height="37.58" fill="#505154"/>
            <rect x="35.65" y="24.77" width="57.41" height="50.22" fill="#505154"/>
            <rect x="39.4" y="28.05" width="49.9" height="43.65" fill="#fff"/>
            <rect x="42.87" y="31.09" width="42.96" height="37.58" fill="#505154"/>
            <rect x="6.94" y="41.25" width="57.41" height="50.22" fill="#505154"/>
            <rect x="10.7" y="44.54" width="49.9" height="43.65" fill="#fff"/>
            <rect x="14.17" y="47.57" width="42.96" height="37.58" fill="#505154"/>
            <path d="M75,95.76A20.78,20.78,0,1,1,95.85,75,20.86,20.86,0,0,1,75,95.76Z" transform="translate(0 0.01)"
                  fill="#505154"/>
            <path d="M75,55.1A19.89,19.89,0,1,1,55,75,19.95,19.95,0,0,1,75,55.1m0-1.79A21.67,21.67,0,1,0,96.75,75,21.76,21.76,0,0,0,75,53.31Z"
                  transform="translate(0 0.01)" fill="#fff"/>
            <path d="M70.08,62.8a9.91,9.91,0,0,1,5.46-1.43,11.78,11.78,0,0,1,7.07,2,6.94,6.94,0,0,1,2.82,6,6.8,6.8,0,0,1-1.22,4.12,14.07,14.07,0,0,1-2.74,2.59l-1.33,1a4,4,0,0,0-1.45,2,8.3,8.3,0,0,0-.24,2.22H73.34a14.72,14.72,0,0,1,.6-4.39,7.74,7.74,0,0,1,2.52-2.79l1.37-1.07A4.78,4.78,0,0,0,78.91,72a3.79,3.79,0,0,0,.75-2.28,4.39,4.39,0,0,0-.84-2.6,3.51,3.51,0,0,0-3.05-1.17,3.37,3.37,0,0,0-3.09,1.45,5.56,5.56,0,0,0-.91,3H66.33Q66.55,65,70.08,62.8ZM73.2,83.92h5.63v5.43H73.2Z"
                  transform="translate(0 0.01)" fill="#fff"/>
        </g>
    </g>
    <g id="vmware-datastore_icon" data-name="vmware-datastore icon">
        <g id="vmware-datastore_active" data-name="vmware-datastore active">
            <rect x="0.02" width="100" height="100" fill="#fff"/>
            <g style="isolation:isolate">
                <path d="M49.5,42.59C27.26,42.59,9.75,36.45,9.75,24V39.67c0,12.44,17.51,19.51,39.75,19.51s40.79-7.07,40.79-19.51V24C90.29,36.45,71.74,42.59,49.5,42.59Z"
                      transform="translate(0 0.01)" fill="#09a8d3"/>
                <path d="M49.5,60.7c-22.24,0-39.75-6.14-39.75-18.58V57.78c0,12.44,17.51,19.51,39.75,19.51s40.79-7.07,40.79-19.51V42.11C90.29,54.56,71.74,60.7,49.5,60.7Z"
                      transform="translate(0 0.01)" fill="#09a8d3"/>
                <path d="M49.5,78.57C27.26,78.57,9.75,72.43,9.75,60V75.65c0,12.44,17.51,19.51,39.75,19.51S90.29,88.1,90.29,75.65V60C90.29,72.43,71.74,78.57,49.5,78.57Z"
                      transform="translate(0 0.01)" fill="#09a8d3"/>
                <path d="M50,41.53c-22.54,0-40.88-8.1-40.88-18S27.48,5.43,50,5.43s40.86,8.1,40.86,18.05S72.56,41.53,50,41.53Z"
                      transform="translate(0 0.01)" fill="#09a8d3"/>
                <path d="M50,6c22.24,0,40.26,7.81,40.26,17.45S72.26,40.92,50,40.92,9.75,33.12,9.75,23.48,27.79,6,50,6m0-1.21C26.76,4.82,8.54,13,8.54,23.48S26.76,42.13,50,42.13s41.47-8.19,41.47-18.65S73.28,4.82,50,4.82Z"
                      transform="translate(0 0.01)" fill="#fff"/>
            </g>
        </g>
        <g id="vmware-datastore_rollover" data-name="vmware-datastore rollover">
            <rect x="0.02" width="100" height="100" fill="#fff"/>
            <g style="isolation:isolate">
                <path d="M49.5,42.59C27.26,42.59,9.75,36.45,9.75,24V39.67c0,12.44,17.51,19.51,39.75,19.51s40.79-7.07,40.79-19.51V24C90.29,36.45,71.74,42.59,49.5,42.59Z"
                      transform="translate(0 0.01)" fill="#09a8d3"/>
                <path d="M49.5,60.7c-22.24,0-39.75-6.14-39.75-18.58V57.78c0,12.44,17.51,19.51,39.75,19.51s40.79-7.07,40.79-19.51V42.11C90.29,54.56,71.74,60.7,49.5,60.7Z"
                      transform="translate(0 0.01)" fill="#09a8d3"/>
                <path d="M49.5,78.57C27.26,78.57,9.75,72.43,9.75,60V75.65c0,12.44,17.51,19.51,39.75,19.51S90.29,88.1,90.29,75.65V60C90.29,72.43,71.74,78.57,49.5,78.57Z"
                      transform="translate(0 0.01)" fill="#09a8d3"/>
                <path d="M50,41.53c-22.54,0-40.88-8.1-40.88-18S27.48,5.43,50,5.43s40.86,8.1,40.86,18.05S72.56,41.53,50,41.53Z"
                      transform="translate(0 0.01)" fill="#09a8d3"/>
                <path d="M50,6c22.24,0,40.26,7.81,40.26,17.45S72.26,40.92,50,40.92,9.75,33.12,9.75,23.48,27.79,6,50,6m0-1.21C26.76,4.82,8.54,13,8.54,23.48S26.76,42.13,50,42.13s41.47-8.19,41.47-18.65S73.28,4.82,50,4.82Z"
                      transform="translate(0 0.01)" fill="#fff"/>
            </g>
        </g>
        <g id="vmware-datastore">
            <rect x="0.02" width="100" height="100" fill="#fff"/>
            <g style="isolation:isolate">
                <path d="M49.5,42.59C27.26,42.59,9.75,36.45,9.75,24V39.67c0,12.44,17.51,19.51,39.75,19.51s40.79-7.07,40.79-19.51V24C90.29,36.45,71.74,42.59,49.5,42.59Z"
                      transform="translate(0 0.01)" fill="#505154"/>
                <path d="M49.5,60.7c-22.24,0-39.75-6.14-39.75-18.58V57.78c0,12.44,17.51,19.51,39.75,19.51s40.79-7.07,40.79-19.51V42.11C90.29,54.56,71.74,60.7,49.5,60.7Z"
                      transform="translate(0 0.01)" fill="#505154"/>
                <path d="M49.5,78.57C27.26,78.57,9.75,72.43,9.75,60V75.65c0,12.44,17.51,19.51,39.75,19.51S90.29,88.1,90.29,75.65V60C90.29,72.43,71.74,78.57,49.5,78.57Z"
                      transform="translate(0 0.01)" fill="#505154"/>
                <path d="M50,41.53c-22.54,0-40.88-8.1-40.88-18S27.48,5.43,50,5.43s40.86,8.1,40.86,18.05S72.56,41.53,50,41.53Z"
                      transform="translate(0 0.01)" fill="#505154"/>
                <path d="M50,6c22.24,0,40.26,7.81,40.26,17.45S72.26,40.92,50,40.92,9.75,33.12,9.75,23.48,27.79,6,50,6m0-1.21C26.76,4.82,8.54,13,8.54,23.48S26.76,42.13,50,42.13s41.47-8.19,41.47-18.65S73.28,4.82,50,4.82Z"
                      transform="translate(0 0.01)" fill="#fff"/>
            </g>
        </g>
    </g>
</svg>