<svg width="18" height="18" viewBox="0 0 24 24" xmlns="http://www.w3.org/2000/svg">
<g clip-path="url(#clip0_4_41)">
<path d="M20.824 9.35499C20.4724 7.67744 19.591 6.1573 18.3098 5.01881C17.0285 3.88032 15.4153 3.18379 13.708 3.03195C12.0008 2.88012 10.2899 3.28103 8.8279 4.17555C7.36585 5.07006 6.23001 6.41081 5.58796 7.99999C4.17306 7.98065 2.80485 8.5059 1.76638 9.46709C0.727908 10.4283 0.0986266 11.7519 0.00871202 13.164C-0.0812026 14.5762 0.37513 15.9689 1.28331 17.0541C2.19149 18.1392 3.48203 18.8337 4.88796 18.994H9.99996V20.96C9.9999 21.0542 10.0264 21.1464 10.0765 21.2262C10.1266 21.3059 10.1982 21.3699 10.283 21.4108C10.3679 21.4516 10.4625 21.4677 10.5561 21.4571C10.6497 21.4465 10.7384 21.4098 10.812 21.351L15 18L10.812 14.65C10.7384 14.5912 10.6497 14.5544 10.5561 14.5439C10.4625 14.5333 10.3679 14.5494 10.283 14.5902C10.1982 14.6311 10.1266 14.6951 10.0765 14.7748C10.0264 14.8546 9.9999 14.9468 9.99996 15.041V17H5.05796C4.17442 16.8839 3.36797 16.4365 2.80174 15.7484C2.23551 15.0603 1.95177 14.1828 2.00793 13.2935C2.06408 12.4041 2.45594 11.5693 3.10423 10.9578C3.75252 10.3464 4.60884 10.004 5.49996 9.99999C5.70138 10.0039 5.90211 10.025 6.09996 10.063L6.98696 10.217L7.18696 9.51699C7.48608 8.40963 8.08927 7.40813 8.92822 6.62591C9.76718 5.84368 10.8084 5.31197 11.934 5.09099C12.7354 4.94711 13.5577 4.96785 14.3508 5.15194C15.1439 5.33603 15.8913 5.67963 16.5474 6.1618C17.2035 6.64398 17.7546 7.25465 18.1671 7.95662C18.5796 8.6586 18.845 9.43719 18.947 10.245L19.033 10.93L19.574 11.061C20.1949 11.1978 20.759 11.5219 21.1898 11.9896C21.6206 12.4572 21.8975 13.0459 21.983 13.676C22.0285 14.0949 21.9852 14.5186 21.8561 14.9197C21.7269 15.3208 21.5147 15.6901 21.2333 16.0037C20.9518 16.3173 20.6075 16.5681 20.2227 16.7397C19.8379 16.9114 19.4213 17.0001 19 17H18C17.7347 17 17.4804 17.1054 17.2929 17.2929C17.1053 17.4804 17 17.7348 17 18C17 18.2652 17.1053 18.5196 17.2929 18.7071C17.4804 18.8946 17.7347 19 18 19H18.767C20.0369 19.0227 21.2706 18.5761 22.2317 17.7458C23.1929 16.9155 23.8139 15.7597 23.976 14.5C24.0867 13.4154 23.8384 12.3245 23.2691 11.3947C22.6999 10.4649 21.8412 9.74762 20.825 9.35299"/>
</g>
<defs>
<clipPath id="clip0_4_41">
<rect width="24" height="24"/>
</clipPath>
</defs>
</svg>
