<svg width="18" height="18" viewBox="0 0 24 24" xmlns="http://www.w3.org/2000/svg">
<path d="M4.00001 5.00001V19C4.00001 19.5304 4.21073 20.0392 4.5858 20.4142C4.96087 20.7893 5.46958 21 6.00001 21H9.00001V19H6.00001V5.00001H9.00001V3.00001H6.00001C5.73711 2.99909 5.47662 3.05019 5.23355 3.15037C4.99048 3.25055 4.76964 3.39783 4.58374 3.58374C4.39783 3.76964 4.25055 3.99048 4.15037 4.23355C4.05019 4.47662 3.99909 4.73711 4.00001 5.00001Z"/>
<path d="M18 3H15V5H18V19H15V21H18C18.2629 21.0009 18.5234 20.9498 18.7665 20.8496C19.0095 20.7495 19.2304 20.6022 19.4163 20.4163C19.6022 20.2304 19.7495 20.0095 19.8496 19.7665C19.9498 19.5234 20.0009 19.2629 20 19V5C20 4.46957 19.7893 3.96086 19.4142 3.58579C19.0391 3.21071 18.5304 3 18 3Z"/>
<path d="M13 21H11V23H13V21Z" />
<path d="M13 17H11V19H13V17Z" />
<path d="M13 13H11V15H13V13Z" />
<path d="M13 1H11V3H13V1Z" />
<path d="M13 9H11V11H13V9Z" />
<path d="M13 5H11V7H13V5Z" />
</svg>
