<svg width="18" height="18" viewBox="0 0 24 24" xmlns="http://www.w3.org/2000/svg">
<path d="M5 7.12L7.71 4.41L6.29 3L3 6.29V10.71H2V12.71H3V17.12L6.29 20.41L7.71 19L5 16.29V7.12Z" />
<path d="M12 12.71C12.5523 12.71 13 12.2623 13 11.71C13 11.1577 12.5523 10.71 12 10.71C11.4477 10.71 11 11.1577 11 11.71C11 12.2623 11.4477 12.71 12 12.71Z"/>
<path d="M8 12.71C8.55228 12.71 9 12.2623 9 11.71C9 11.1577 8.55228 10.71 8 10.71C7.44772 10.71 7 11.1577 7 11.71C7 12.2623 7.44772 12.71 8 12.71Z"/>
<path d="M16 12.71C16.5523 12.71 17 12.2623 17 11.71C17 11.1577 16.5523 10.71 16 10.71C15.4477 10.71 15 11.1577 15 11.71C15 12.2623 15.4477 12.71 16 12.71Z"/>
<path d="M22 10.71H21V6.29L17.71 3L16.29 4.41L19 7.12V16.29L16.29 19L17.71 20.41L21 17.12V12.71H22V10.71Z"/>
</svg>
