<svg width="18" height="18" viewBox="0 0 24 24" xmlns="http://www.w3.org/2000/svg">
<path d="M16 20H4V4.01102H13L15 2.01102H4C3.47005 2.0126 2.96227 2.22382 2.58753 2.59855C2.2128 2.97328 2.00158 3.48107 2 4.01102V20C2.00158 20.53 2.2128 21.0378 2.58753 21.4125C2.96227 21.7872 3.47005 21.9984 4 22H16C16.5299 21.9984 17.0377 21.7872 17.4125 21.4125C17.7872 21.0378 17.9984 20.53 18 20V9.01102L16 11.011V20Z"/>
<path d="M9.29996 10.587C9.11241 10.7745 9.00701 11.0288 9.00696 11.294V13H10.718C10.9832 12.9999 11.2375 12.8946 11.425 12.707L19.278 4.853L17.158 2.733L9.29996 10.587Z"/>
<path d="M20.708 2.01101L20 1.30401C19.8126 1.11776 19.5592 1.01321 19.295 1.01321C19.0308 1.01321 18.7773 1.11776 18.59 1.30401L17.871 2.02401L19.99 4.14401L20.711 3.42401C20.8972 3.23664 21.0018 2.98319 21.0018 2.71901C21.0018 2.45482 20.8972 2.20137 20.711 2.01401"/>
</svg>
