<svg width="18" height="18" viewBox="0 0 24 24" xmlns="http://www.w3.org/2000/svg">
<path d="M21 2H3C2.47005 2.00158 1.96227 2.2128 1.58753 2.58753C1.2128 2.96227 1.00158 3.47005 1 4L1 20C1.00158 20.5299 1.2128 21.0377 1.58753 21.4125C1.96227 21.7872 2.47005 21.9984 3 22H21C21.5304 22 22.0391 21.7893 22.4142 21.4142C22.7893 21.0391 23 20.5304 23 20V4C23 3.46957 22.7893 2.96086 22.4142 2.58579C22.0391 2.21071 21.5304 2 21 2V2ZM21 19V20H3V6H21V19Z"/>
<path d="M6.29296 9.293C6.10549 9.48053 6.00017 9.73484 6.00017 10C6.00017 10.2652 6.10549 10.5195 6.29296 10.707L8.58596 13L6.29296 15.293C6.19745 15.3852 6.12127 15.4956 6.06886 15.6176C6.01645 15.7396 5.98886 15.8708 5.98771 16.0036C5.98655 16.1364 6.01186 16.2681 6.06214 16.391C6.11242 16.5139 6.18667 16.6255 6.28056 16.7194C6.37446 16.8133 6.48611 16.8875 6.60901 16.9378C6.7319 16.9881 6.86358 17.0134 6.99636 17.0123C7.12914 17.0111 7.26036 16.9835 7.38236 16.9311C7.50437 16.8787 7.61471 16.8025 7.70696 16.707L11.414 13L7.70696 9.293C7.51943 9.10553 7.26512 9.00021 6.99996 9.00021C6.73479 9.00021 6.48049 9.10553 6.29296 9.293Z"/>
<path d="M17 15H13C12.7348 15 12.4804 15.1054 12.2929 15.2929C12.1054 15.4804 12 15.7348 12 16C12 16.2652 12.1054 16.5196 12.2929 16.7071C12.4804 16.8946 12.7348 17 13 17H17C17.2652 17 17.5196 16.8946 17.7071 16.7071C17.8946 16.5196 18 16.2652 18 16C18 15.7348 17.8946 15.4804 17.7071 15.2929C17.5196 15.1054 17.2652 15 17 15Z"/>
</svg>
