<svg width="18" height="18" viewBox="0 0 24 24" xmlns="http://www.w3.org/2000/svg">
<path d="M21.618 8.66601L20.273 10.455C20.8647 11.8326 21.1015 13.3367 20.9617 14.8294C20.8219 16.3222 20.3101 17.7561 19.473 19H4.52901C3.44921 17.3884 2.91941 15.4709 3.01867 13.5335C3.11793 11.5962 3.84092 9.74282 5.07977 8.25001C6.31862 6.75721 8.00692 5.70496 9.89279 5.25026C11.7786 4.79557 13.761 4.9628 15.544 5.72701L17.333 4.38201C15.6586 3.45387 13.771 2.97879 11.8568 3.00371C9.94255 3.02863 8.06796 3.55271 6.41832 4.52413C4.76869 5.49555 3.40114 6.88067 2.45086 8.54257C1.50059 10.2045 1.00049 12.0856 1.00001 14C0.997039 16.383 1.77507 18.7013 3.21501 20.6L3.51501 21H20.485L20.785 20.6C22.0653 18.9053 22.8256 16.875 22.9735 14.7562C23.1214 12.6374 22.6505 10.5212 21.618 8.66501" />
<path d="M19.175 6.12502L10.99 12.282C10.7227 12.4344 10.4941 12.6464 10.3221 12.9016C10.1501 13.1567 10.0393 13.4481 9.9983 13.753C9.9573 14.058 9.98722 14.3683 10.0857 14.6598C10.1842 14.9513 10.3487 15.2162 10.5663 15.4337C10.7838 15.6513 11.0487 15.8158 11.3402 15.9143C11.6317 16.0128 11.942 16.0427 12.247 16.0017C12.5519 15.9607 12.8433 15.8499 13.0984 15.6779C13.3536 15.5059 13.5656 15.2773 13.718 15.01L19.875 6.82503C19.9472 6.72874 19.9822 6.60964 19.9737 6.48958C19.9652 6.36953 19.9136 6.25658 19.8285 6.17147C19.7434 6.08637 19.6305 6.03482 19.5104 6.02628C19.3904 6.01775 19.2713 6.05281 19.175 6.12502Z" />
</svg>
  