<?xml version="1.0" encoding="iso-8859-1"?>
<!-- Generator: Adobe Illustrator 10.0, SVG Export Plug-In . SVG Version: 3.0.0 Build 76)  -->
<!DOCTYPE svg PUBLIC "-//W3C//DTD SVG 1.0//EN"    "http://www.w3.org/TR/2001/REC-SVG-20010904/DTD/svg10.dtd" [
	<!ENTITY ns_flows "http://ns.adobe.com/Flows/1.0/">
	<!ENTITY ns_svg "http://www.w3.org/2000/svg">
	<!ENTITY ns_xlink "http://www.w3.org/1999/xlink">
]>
<svg  xmlns="&ns_svg;" xmlns:xlink="&ns_xlink;" xmlns:a="http://ns.adobe.com/AdobeSVGViewerExtensions/3.0/"
	 width="116.869" height="155.703" viewBox="0 0 116.869 155.703" overflow="visible" enable-background="new 0 0 116.869 155.703"
	 xml:space="preserve">
	<g id="other">
	</g>
	<g id="opennms">
	</g>
	<g id="unspecified">
	</g>
	<g id="infrastructure">
	</g>
	<g id="printer">
	</g>
	<g id="server">
	</g>
	<g id="telephony">
	</g>
	<g id="workstation">
		<g>
			<path fill="#003399" d="M110.766,123.299c3.89,3.889,2.571,7.071-2.929,7.071H57.046c-5.5,0-7.164-3.494-3.698-7.765l6.455-7.954
				c3.466-4.271,10.802-7.765,16.302-7.765h8.248c5.5,0,13.182,3.182,17.071,7.071L110.766,123.299z"/>
		</g>
		<g>
			<path fill="#003399" d="M64.047,110.225c0,5.5-4.5,10-10,10H10c-5.5,0-10-4.5-10-10V10C0,4.5,4.5,0,10,0h44.047
				c5.5,0,10,4.5,10,10V110.225z"/>
		</g>
		<g>
			<linearGradient id="XMLID_1_" gradientUnits="userSpaceOnUse" x1="-9.9727" y1="101.1177" x2="72.7769" y2="18.3682">
				<stop  offset="0" style="stop-color:#FFFFFF"/>
				<stop  offset="0.2767" style="stop-color:#BCCAE4"/>
				<stop  offset="0.916" style="stop-color:#1645A2"/>
				<stop  offset="1" style="stop-color:#003399"/>
				<a:midPointStop  offset="0" style="stop-color:#FFFFFF"/>
				<a:midPointStop  offset="0.5141" style="stop-color:#FFFFFF"/>
				<a:midPointStop  offset="1" style="stop-color:#003399"/>
			</linearGradient>
			<path fill="url(#XMLID_1_)" d="M61.391,108.377c0,5.5-4.5,10-10,10H11.412c-5.5,0-10-4.5-10-10v-97.27c0-5.5,4.5-10,10-10h39.979
				c5.5,0,10,4.5,10,10V108.377z"/>
		</g>
		<g>
			<path fill="#003399" d="M58.307,47.052c0,2.75-2.25,5-5,5H9.328c-2.75,0-5-2.25-5-5V35.918c0-2.75,2.25-5,5-5h43.979
				c2.75,0,5,2.25,5,5V47.052z"/>
		</g>
		<g>
			<linearGradient id="XMLID_2_" gradientUnits="userSpaceOnUse" x1="14.8198" y1="57.0078" x2="46.3479" y2="25.4797">
				<stop  offset="0" style="stop-color:#FFFFFF"/>
				<stop  offset="0.2767" style="stop-color:#BCCAE4"/>
				<stop  offset="0.916" style="stop-color:#1645A2"/>
				<stop  offset="1" style="stop-color:#003399"/>
				<a:midPointStop  offset="0" style="stop-color:#FFFFFF"/>
				<a:midPointStop  offset="0.5141" style="stop-color:#FFFFFF"/>
				<a:midPointStop  offset="1" style="stop-color:#003399"/>
			</linearGradient>
			<path fill="url(#XMLID_2_)" d="M55.924,45.37c0,2.75-2.25,5-5,5h-40.68c-2.75,0-5-2.25-5-5v-8.251c0-2.75,2.25-5,5-5h40.68
				c2.75,0,5,2.25,5,5V45.37z"/>
		</g>
		<g>
			<path fill="#003399" d="M57.786,21.778c0,2.75-2.25,5-5,5H8.809c-2.75,0-5-2.25-5-5V10.644c0-2.75,2.25-5,5-5h43.977
				c2.75,0,5,2.25,5,5V21.778z"/>
		</g>
		<g>
			<linearGradient id="XMLID_3_" gradientUnits="userSpaceOnUse" x1="14.3013" y1="31.7344" x2="45.8291" y2="0.2065">
				<stop  offset="0" style="stop-color:#FFFFFF"/>
				<stop  offset="0.2767" style="stop-color:#BCCAE4"/>
				<stop  offset="0.916" style="stop-color:#1645A2"/>
				<stop  offset="1" style="stop-color:#003399"/>
				<a:midPointStop  offset="0" style="stop-color:#FFFFFF"/>
				<a:midPointStop  offset="0.5141" style="stop-color:#FFFFFF"/>
				<a:midPointStop  offset="1" style="stop-color:#003399"/>
			</linearGradient>
			<path fill="url(#XMLID_3_)" d="M55.405,20.095c0,2.75-2.25,5-5,5H9.724c-2.75,0-5-2.25-5-5v-8.25c0-2.75,2.25-5,5-5h40.681
				c2.75,0,5,2.25,5,5V20.095z"/>
		</g>
		<g>
			<path fill="#003399" d="M116.869,106.976c0,5.5-4.5,10-10,10H56.08c-5.5,0-10-4.5-10-10V56.189c0-5.5,4.5-10,10-10h50.789
				c5.5,0,10,4.5,10,10V106.976z"/>
		</g>
		<g>
			<path fill="#003399" d="M7.068,115.218c-0.989,0-1.798-2.066-1.798-4.592c0-2.525,0.809-4.592,1.798-4.592
				s1.798,2.066,1.798,4.592C8.866,113.151,8.057,115.218,7.068,115.218z"/>
		</g>
		<g>
			<path fill="#003399" d="M13.166,115.344c-0.989,0-1.798-2.066-1.798-4.592c0-2.526,0.809-4.592,1.798-4.592
				s1.798,2.066,1.798,4.592C14.963,113.278,14.154,115.344,13.166,115.344z"/>
		</g>
		<g>
			<path fill="#003399" d="M19.115,115.324c-0.989,0-1.798-2.066-1.798-4.592c0-2.526,0.809-4.592,1.798-4.592
				s1.798,2.066,1.798,4.592C20.913,113.257,20.104,115.324,19.115,115.324z"/>
		</g>
		<g>
			<path fill="#003399" d="M25.091,115.261c-0.989,0-1.798-2.066-1.798-4.592c0-2.525,0.809-4.592,1.798-4.592
				s1.798,2.066,1.798,4.592C26.889,113.194,26.081,115.261,25.091,115.261z"/>
		</g>
		<g>
			<path fill="#003399" d="M31.189,115.387c-0.989,0-1.798-2.066-1.798-4.592c0-2.526,0.809-4.592,1.798-4.592
				s1.798,2.066,1.798,4.592C32.987,113.321,32.178,115.387,31.189,115.387z"/>
		</g>
		<g>
			<path fill="#003399" d="M37.138,115.367c-0.989,0-1.798-2.066-1.798-4.592c0-2.526,0.809-4.592,1.798-4.592
				s1.798,2.066,1.798,4.592C38.936,113.3,38.127,115.367,37.138,115.367z"/>
		</g>
		<g>
			<path fill="#003399" d="M43.091,115.261c-0.989,0-1.798-2.066-1.798-4.592c0-2.525,0.809-4.592,1.798-4.592
				s1.798,2.066,1.798,4.592C44.889,113.194,44.081,115.261,43.091,115.261z"/>
		</g>
		<g>
			<linearGradient id="XMLID_4_" gradientUnits="userSpaceOnUse" x1="51.8281" y1="110.4126" x2="109.7456" y2="52.4951">
				<stop  offset="0" style="stop-color:#FFFFFF"/>
				<stop  offset="0.2767" style="stop-color:#BCCAE4"/>
				<stop  offset="0.916" style="stop-color:#1645A2"/>
				<stop  offset="1" style="stop-color:#003399"/>
				<a:midPointStop  offset="0" style="stop-color:#FFFFFF"/>
				<a:midPointStop  offset="0.5141" style="stop-color:#FFFFFF"/>
				<a:midPointStop  offset="1" style="stop-color:#003399"/>
			</linearGradient>
			<path fill="url(#XMLID_4_)" d="M112.933,103.101c0,5.5-4.5,10-10,10H58.641c-5.5,0-10-4.5-10-10V59.808c0-5.5,4.5-10,10-10
				h44.292c5.5,0,10,4.5,10,10V103.101z"/>
		</g>
		<g>
			<path fill="#003399" d="M105.853,147.056c2.763,4.755,0.523,8.646-4.977,8.646H10.708c-5.5,0-8.076-4.068-5.725-9.04l2.555-5.404
				c2.352-4.972,8.775-9.04,14.275-9.04h65.42c5.5,0,12.261,3.891,15.023,8.646L105.853,147.056z"/>
		</g>
		<g>
			<path fill="#003399" d="M10.592,11.96c0,0.862-0.67,1.567-1.489,1.567s-1.489-0.705-1.489-1.567c0-0.862,0.67-1.567,1.489-1.567
				S10.592,11.098,10.592,11.96z"/>
		</g>
		<g>
			<path fill="#003399" d="M11.592,36.96c0,0.862-0.67,1.567-1.489,1.567s-1.489-0.705-1.489-1.567c0-0.862,0.67-1.567,1.489-1.567
				S11.592,36.098,11.592,36.96z"/>
		</g>
		<g>
			<path fill="#003399" d="M93.425,106.923c2.62,1.767-1.013,1.803-5.452,1.847c-4.44,0.044-12.573,0.081-18.073,0.081h-4.002
				c-5.5,0-10.993-0.257-12.208-0.572c-1.214-0.314-1.853-8.26-1.624-13.755l0.723-17.43c0.229-5.495,0.729-7.246,1.112-3.89
				s1.153,23.342,1.361,25.771c0.208,2.429,1.341,5.283,2.516,6.343s10.363,1.108,13.561,1.284c3.198,0.176,5.814,0.321,5.814,0.321
				"/>
		</g>
		<g>
			<path fill="#003399" d="M105.429,108.96c0,1.347-1.047,2.448-2.326,2.448s-2.326-1.102-2.326-2.448s1.047-2.449,2.326-2.449
				S105.429,107.614,105.429,108.96z"/>
		</g>
	</g>
	<g id="laptop">
	</g>
</svg>
