<?xml version="1.0" encoding="iso-8859-1"?>
<!-- Generator: Adobe Illustrator 10.0, SVG Export Plug-In . SVG Version: 3.0.0 Build 76)  -->
<!DOCTYPE svg PUBLIC "-//W3C//DTD SVG 1.0//EN"    "http://www.w3.org/TR/2001/REC-SVG-20010904/DTD/svg10.dtd" [
	<!ENTITY ns_flows "http://ns.adobe.com/Flows/1.0/">
	<!ENTITY ns_svg "http://www.w3.org/2000/svg">
	<!ENTITY ns_xlink "http://www.w3.org/1999/xlink">
]>
<svg  xmlns="&ns_svg;" xmlns:xlink="&ns_xlink;" xmlns:a="http://ns.adobe.com/AdobeSVGViewerExtensions/3.0/"
	 width="120.981" height="119.133" viewBox="0 0 120.981 119.133" overflow="visible" enable-background="new 0 0 120.981 119.133"
	 xml:space="preserve">
	<g id="other">
	</g>
	<g id="opennms">
	</g>
	<g id="unspecified">
	</g>
	<g id="infrastructure">
	</g>
	<g id="printer">
	</g>
	<g id="server">
	</g>
	<g id="telephony">
	</g>
	<g id="workstation">
	</g>
	<g id="laptop">
		<g>
			<path fill="#003399" d="M120.981,79.134c0,2.75-2.25,5-5,5H36.005c-2.75,0-5-2.25-5-5V5c0-2.75,2.25-5,5-5h79.977
				c2.75,0,5,2.25,5,5V79.134z"/>
		</g>
		<g>
			<linearGradient id="XMLID_1_" gradientUnits="userSpaceOnUse" x1="38.2388" y1="79.0488" x2="114.1252" y2="3.1623">
				<stop  offset="0" style="stop-color:#FFFFFF"/>
				<stop  offset="0.2767" style="stop-color:#BCCAE4"/>
				<stop  offset="0.916" style="stop-color:#1645A2"/>
				<stop  offset="1" style="stop-color:#003399"/>
				<a:midPointStop  offset="0" style="stop-color:#FFFFFF"/>
				<a:midPointStop  offset="0.5141" style="stop-color:#FFFFFF"/>
				<a:midPointStop  offset="1" style="stop-color:#003399"/>
			</linearGradient>
			<path fill="url(#XMLID_1_)" d="M118.68,72.432c0,2.75-2.25,5-5,5H38.685c-2.75,0-5-2.25-5-5V9.779c0-2.75,2.25-5,5-5h74.995
				c2.75,0,5,2.25,5,5V72.432z"/>
		</g>
		<g>
			<path fill="#003399" d="M92.079,110.729c-1.874,2.013-5.657,3.66-8.407,3.66H4.42c-2.75,0-3.467-1.647-1.593-3.66l26.089-28.022
				c1.874-2.013,5.657-3.66,8.407-3.66h79.251c2.75,0,3.467,1.647,1.593,3.66L92.079,110.729z"/>
		</g>
		<g>
			<path fill="#003399" d="M90.244,115.699c0,1.889-2.25,3.435-5,3.435H5c-2.75,0-5-1.545-5-3.435s2.25-3.435,5-3.435h80.244
				C87.994,112.264,90.244,113.81,90.244,115.699z"/>
		</g>
		<g>
			<linearGradient id="XMLID_2_" gradientUnits="userSpaceOnUse" x1="22.4009" y1="137.1172" x2="65.3935" y2="94.1246">
				<stop  offset="0" style="stop-color:#FFFFFF"/>
				<stop  offset="0.2767" style="stop-color:#BCCAE4"/>
				<stop  offset="0.916" style="stop-color:#1645A2"/>
				<stop  offset="1" style="stop-color:#003399"/>
				<a:midPointStop  offset="0" style="stop-color:#FFFFFF"/>
				<a:midPointStop  offset="0.5141" style="stop-color:#FFFFFF"/>
				<a:midPointStop  offset="1" style="stop-color:#003399"/>
			</linearGradient>
			<path fill="url(#XMLID_2_)" d="M86.264,115.621c0,1.631-2.25,2.966-5,2.966H6.53c-2.75,0-5-1.334-5-2.966s2.25-2.966,5-2.966
				h74.733C84.014,112.655,86.264,113.989,86.264,115.621z"/>
		</g>
		<g>
			<path fill="#003399" d="M118.259,78.822c2.365,0.979,2.808,3.463,0.984,5.521l-26.885,30.35c-1.824,2.059-5.25,2.942-7.615,1.964
				s-2.808-3.463-0.984-5.521l26.886-30.35C112.468,78.728,115.895,77.844,118.259,78.822z"/>
		</g>
		<g>
			
				<linearGradient id="XMLID_3_" gradientUnits="userSpaceOnUse" x1="78.3823" y1="101.4116" x2="91.862" y2="72.3669" gradientTransform="matrix(1 0 -0.5359 1 27.8898 0)">
				<stop  offset="0" style="stop-color:#FFFFFF"/>
				<stop  offset="0.2767" style="stop-color:#BCCAE4"/>
				<stop  offset="0.916" style="stop-color:#1645A2"/>
				<stop  offset="1" style="stop-color:#003399"/>
				<a:midPointStop  offset="0" style="stop-color:#FFFFFF"/>
				<a:midPointStop  offset="0.5141" style="stop-color:#FFFFFF"/>
				<a:midPointStop  offset="1" style="stop-color:#003399"/>
			</linearGradient>
			<path fill="url(#XMLID_3_)" d="M104.479,86.889c-1.06,0.633-4.178,1.152-6.928,1.152H31.49c-2.75,0-4.133-0.519-3.073-1.152
				s4.177-1.152,6.927-1.152h66.063C104.157,85.737,105.54,86.256,104.479,86.889z"/>
		</g>
		<g>
			
				<linearGradient id="XMLID_4_" gradientUnits="userSpaceOnUse" x1="75.9658" y1="106.1572" x2="89.4457" y2="77.1121" gradientTransform="matrix(1 0 -0.5359 1 27.8898 0)">
				<stop  offset="0" style="stop-color:#FFFFFF"/>
				<stop  offset="0.2767" style="stop-color:#BCCAE4"/>
				<stop  offset="0.916" style="stop-color:#1645A2"/>
				<stop  offset="1" style="stop-color:#003399"/>
				<a:midPointStop  offset="0" style="stop-color:#FFFFFF"/>
				<a:midPointStop  offset="0.5141" style="stop-color:#FFFFFF"/>
				<a:midPointStop  offset="1" style="stop-color:#003399"/>
			</linearGradient>
			<path fill="url(#XMLID_4_)" d="M99.521,91.634c-1.06,0.633-4.178,1.152-6.928,1.152H26.53c-2.75,0-4.133-0.519-3.073-1.152
				s4.177-1.152,6.927-1.152h66.064C99.198,90.482,100.581,91.001,99.521,91.634z"/>
		</g>
		<g>
			
				<linearGradient id="XMLID_5_" gradientUnits="userSpaceOnUse" x1="73.5493" y1="110.9019" x2="87.029" y2="81.8571" gradientTransform="matrix(1 0 -0.5359 1 27.8898 0)">
				<stop  offset="0" style="stop-color:#FFFFFF"/>
				<stop  offset="0.2767" style="stop-color:#BCCAE4"/>
				<stop  offset="0.916" style="stop-color:#1645A2"/>
				<stop  offset="1" style="stop-color:#003399"/>
				<a:midPointStop  offset="0" style="stop-color:#FFFFFF"/>
				<a:midPointStop  offset="0.5141" style="stop-color:#FFFFFF"/>
				<a:midPointStop  offset="1" style="stop-color:#003399"/>
			</linearGradient>
			<path fill="url(#XMLID_5_)" d="M94.561,96.379c-1.06,0.633-4.178,1.152-6.928,1.152H21.571c-2.75,0-4.133-0.519-3.073-1.152
				s4.177-1.152,6.927-1.152h66.063C94.238,95.228,95.621,95.746,94.561,96.379z"/>
		</g>
		<g>
			
				<linearGradient id="XMLID_6_" gradientUnits="userSpaceOnUse" x1="73.1162" y1="115.6475" x2="86.5961" y2="86.6023" gradientTransform="matrix(1 0 -0.5359 1 27.8898 0)">
				<stop  offset="0" style="stop-color:#FFFFFF"/>
				<stop  offset="0.2767" style="stop-color:#BCCAE4"/>
				<stop  offset="0.916" style="stop-color:#1645A2"/>
				<stop  offset="1" style="stop-color:#003399"/>
				<a:midPointStop  offset="0" style="stop-color:#FFFFFF"/>
				<a:midPointStop  offset="0.5141" style="stop-color:#FFFFFF"/>
				<a:midPointStop  offset="1" style="stop-color:#003399"/>
			</linearGradient>
			<path fill="url(#XMLID_6_)" d="M91.585,101.125c-1.06,0.633-4.178,1.152-6.928,1.152H18.595c-2.75,0-4.133-0.519-3.073-1.152
				s4.177-1.152,6.927-1.152h66.064C91.263,99.973,92.645,100.491,91.585,101.125z"/>
		</g>
		<g>
			
				<linearGradient id="XMLID_7_" gradientUnits="userSpaceOnUse" x1="71.6909" y1="120.3926" x2="85.1708" y2="91.3474" gradientTransform="matrix(1 0 -0.5359 1 27.8898 0)">
				<stop  offset="0" style="stop-color:#FFFFFF"/>
				<stop  offset="0.2767" style="stop-color:#BCCAE4"/>
				<stop  offset="0.916" style="stop-color:#1645A2"/>
				<stop  offset="1" style="stop-color:#003399"/>
				<a:midPointStop  offset="0" style="stop-color:#FFFFFF"/>
				<a:midPointStop  offset="0.5141" style="stop-color:#FFFFFF"/>
				<a:midPointStop  offset="1" style="stop-color:#003399"/>
			</linearGradient>
			<path fill="url(#XMLID_7_)" d="M87.617,105.87c-1.06,0.633-4.178,1.152-6.928,1.152H14.627c-2.75,0-4.133-0.519-3.073-1.152
				s4.177-1.152,6.927-1.152h66.064C87.295,104.718,88.677,105.237,87.617,105.87z"/>
		</g>
		<g>
			<path fill="#003399" d="M42.093,81.576c0.318,0.143-0.981,1.881-2.887,3.863L19.773,105.65c-1.906,1.982-3.726,3.487-4.043,3.345
				s0.981-1.881,2.887-3.864l19.433-20.21C39.955,82.938,41.775,81.433,42.093,81.576z"/>
		</g>
		<g>
			<path fill="#003399" d="M49.872,83.348c0.318,0.143-0.981,1.881-2.887,3.863l-19.433,20.21c-1.906,1.982-3.726,3.488-4.043,3.345
				s0.981-1.881,2.887-3.863l19.433-20.211C47.734,84.71,49.554,83.205,49.872,83.348z"/>
		</g>
		<g>
			<path fill="#FFFFFF" d="M94.48,80.734c0,0.783-0.74,1.418-1.654,1.418c-0.913,0-1.653-0.635-1.653-1.418s0.74-1.418,1.653-1.418
				C93.74,79.316,94.48,79.951,94.48,80.734z"/>
		</g>
		<g>
			<path fill="#FFFFFF" d="M100.316,80.901c0,0.783-0.74,1.418-1.654,1.418c-0.913,0-1.653-0.635-1.653-1.418
				s0.74-1.418,1.653-1.418C99.576,79.483,100.316,80.118,100.316,80.901z"/>
		</g>
		<g>
			<path fill="#003399" d="M109.981,54.634c0,2.75-2.25,5-5,5H76.005c-2.75,0-5-2.25-5-5V43.5c0-2.75,2.25-5,5-5h28.977
				c2.75,0,5,2.25,5,5V54.634z"/>
		</g>
		<g>
			<path fill="#003399" d="M76.654,72.88c2.62,1.767-3.526,1.828-3.526,1.828c-5.5,0.055-14.5,0.1-20,0.1h-4.002
				c-5.5,0-10.993-0.257-12.208-0.571c-1.214-0.314-1.853-8.26-1.625-13.755l0.724-17.43c0.228-5.495,0.729-7.246,1.112-3.89
				s1.153,23.342,1.361,25.771c0.208,2.428,1.34,5.283,2.516,6.342s10.363,1.108,13.561,1.284s5.814,0.321,5.814,0.321"/>
		</g>
	</g>
</svg>
