<?xml version="1.0" encoding="iso-8859-1"?>
<!-- Generator: Adobe Illustrator 10.0, SVG Export Plug-In . SVG Version: 3.0.0 Build 76)  -->
<!DOCTYPE svg PUBLIC "-//W3C//DTD SVG 1.0//EN"    "http://www.w3.org/TR/2001/REC-SVG-20010904/DTD/svg10.dtd" [
	<!ENTITY ns_flows "http://ns.adobe.com/Flows/1.0/">
	<!ENTITY ns_svg "http://www.w3.org/2000/svg">
	<!ENTITY ns_xlink "http://www.w3.org/1999/xlink">
]>
<svg  xmlns="&ns_svg;" xmlns:xlink="&ns_xlink;" xmlns:a="http://ns.adobe.com/AdobeSVGViewerExtensions/3.0/"
	 width="64.047" height="144.855" viewBox="0 0 64.047 144.855" overflow="visible" enable-background="new 0 0 64.047 144.855"
	 xml:space="preserve">
	<g id="other">
	</g>
	<g id="opennms">
	</g>
	<g id="unspecified">
	</g>
	<g id="infrastructure">
	</g>
	<g id="printer">
	</g>
	<g id="server">
		<g>
			<path fill="#003399" d="M58.288,140.778c5.022,2.242,4.631,4.077-0.869,4.077H6.628c-5.5,0-6.057-2.169-1.238-4.82l1.535-0.845
				c4.819-2.651,13.262-4.82,18.762-4.82h8.248c5.5,0,14.109,1.834,19.131,4.077L58.288,140.778z"/>
		</g>
		<g>
			<path fill="#003399" d="M64.047,128.225c0,5.5-4.5,10-10,10H10c-5.5,0-10-4.5-10-10V10C0,4.5,4.5,0,10,0h44.047
				c5.5,0,10,4.5,10,10V128.225z"/>
		</g>
		<g>
			<linearGradient id="XMLID_1_" gradientUnits="userSpaceOnUse" x1="-14.3623" y1="114.4517" x2="77.1663" y2="22.9231">
				<stop  offset="0" style="stop-color:#FFFFFF"/>
				<stop  offset="0.2767" style="stop-color:#BCCAE4"/>
				<stop  offset="0.916" style="stop-color:#1645A2"/>
				<stop  offset="1" style="stop-color:#003399"/>
				<a:midPointStop  offset="0" style="stop-color:#FFFFFF"/>
				<a:midPointStop  offset="0.5141" style="stop-color:#FFFFFF"/>
				<a:midPointStop  offset="1" style="stop-color:#003399"/>
			</linearGradient>
			<path fill="url(#XMLID_1_)" d="M61.392,126.101c0,5.5-4.5,10-10,10H11.412c-5.5,0-10-4.5-10-10V11.273c0-5.5,4.5-10,10-10h39.979
				c5.5,0,10,4.5,10,10V126.101z"/>
		</g>
		<g>
			<path fill="#003399" d="M58.307,47.052c0,2.75-2.25,5-5,5H9.328c-2.75,0-5-2.25-5-5V35.918c0-2.75,2.25-5,5-5h43.979
				c2.75,0,5,2.25,5,5V47.052z"/>
		</g>
		<g>
			<linearGradient id="XMLID_2_" gradientUnits="userSpaceOnUse" x1="14.8208" y1="57.0088" x2="46.3491" y2="25.4805">
				<stop  offset="0" style="stop-color:#FFFFFF"/>
				<stop  offset="0.2767" style="stop-color:#BCCAE4"/>
				<stop  offset="0.916" style="stop-color:#1645A2"/>
				<stop  offset="1" style="stop-color:#003399"/>
				<a:midPointStop  offset="0" style="stop-color:#FFFFFF"/>
				<a:midPointStop  offset="0.5141" style="stop-color:#FFFFFF"/>
				<a:midPointStop  offset="1" style="stop-color:#003399"/>
			</linearGradient>
			<path fill="url(#XMLID_2_)" d="M55.925,45.37c0,2.75-2.25,5-5,5H10.244c-2.75,0-5-2.25-5-5v-8.251c0-2.75,2.25-5,5-5h40.681
				c2.75,0,5,2.25,5,5V45.37z"/>
		</g>
		<g>
			<path fill="#003399" d="M57.786,21.778c0,2.75-2.25,5-5,5H8.809c-2.75,0-5-2.25-5-5V10.644c0-2.75,2.25-5,5-5h43.978
				c2.75,0,5,2.25,5,5V21.778z"/>
		</g>
		<g>
			<linearGradient id="XMLID_3_" gradientUnits="userSpaceOnUse" x1="14.3013" y1="31.7339" x2="45.8286" y2="0.2065">
				<stop  offset="0" style="stop-color:#FFFFFF"/>
				<stop  offset="0.2767" style="stop-color:#BCCAE4"/>
				<stop  offset="0.916" style="stop-color:#1645A2"/>
				<stop  offset="1" style="stop-color:#003399"/>
				<a:midPointStop  offset="0" style="stop-color:#FFFFFF"/>
				<a:midPointStop  offset="0.5141" style="stop-color:#FFFFFF"/>
				<a:midPointStop  offset="1" style="stop-color:#003399"/>
			</linearGradient>
			<path fill="url(#XMLID_3_)" d="M55.404,20.095c0,2.75-2.25,5-5,5H9.725c-2.75,0-5-2.25-5-5v-8.25c0-2.75,2.25-5,5-5h40.68
				c2.75,0,5,2.25,5,5V20.095z"/>
		</g>
		<g>
			<path fill="#003399" d="M40.013,91.113c0,0.862-2.25,1.567-5,1.567H9.035c-2.75,0-5-0.705-5-1.567c0-0.862,2.25-1.567,5-1.567
				h25.978C37.763,89.545,40.013,90.25,40.013,91.113z"/>
		</g>
		<g>
			<path fill="#003399" d="M32.463,43.999c0,2.75-2.25,5-5,5H11.584c-2.75,0-5-2.25-5-5v-3.773c0-2.75,2.25-5,5-5h15.879
				c2.75,0,5,2.25,5,5V43.999z"/>
		</g>
		<g>
			<path fill="#003399" d="M31.963,17.999c0,2.75-2.25,5-5,5H11.084c-2.75,0-5-2.25-5-5v-3.773c0-2.75,2.25-5,5-5h15.879
				c2.75,0,5,2.25,5,5V17.999z"/>
		</g>
		<g>
			<path fill="#003399" d="M52.012,16.113c0,0.862-2.25,1.567-5,1.567h-8.977c-2.75,0-5-0.705-5-1.567c0-0.862,2.25-1.567,5-1.567
				h8.977C49.762,14.545,52.012,15.25,52.012,16.113z"/>
		</g>
		<g>
			<path fill="#003399" d="M53.512,41.113c0,0.862-2.25,1.567-5,1.567h-8.977c-2.75,0-5-0.705-5-1.567c0-0.862,2.25-1.567,5-1.567
				h8.977C51.262,39.545,53.512,40.25,53.512,41.113z"/>
		</g>
		<g>
			<path fill="#003399" d="M40.013,97.113c0,0.862-2.25,1.567-5,1.567H9.035c-2.75,0-5-0.705-5-1.567c0-0.862,2.25-1.567,5-1.567
				h25.978C37.763,95.545,40.013,96.25,40.013,97.113z"/>
		</g>
		<g>
			<path fill="#003399" d="M40.013,103.113c0,0.862-2.25,1.567-5,1.567H9.035c-2.75,0-5-0.705-5-1.567c0-0.862,2.25-1.567,5-1.567
				h25.978C37.763,101.545,40.013,102.25,40.013,103.113z"/>
		</g>
		<g>
			<path fill="#003399" d="M58.013,71.68c0,2.75-2.25,5-5,5H9.035c-2.75,0-5-2.25-5-5V60.545c0-2.75,2.25-5,5-5h43.978
				c2.75,0,5,2.25,5,5V71.68z"/>
		</g>
		<g>
			<linearGradient id="XMLID_4_" gradientUnits="userSpaceOnUse" x1="14.5273" y1="81.6348" x2="46.0547" y2="50.1074">
				<stop  offset="0" style="stop-color:#FFFFFF"/>
				<stop  offset="0.2767" style="stop-color:#BCCAE4"/>
				<stop  offset="0.916" style="stop-color:#1645A2"/>
				<stop  offset="1" style="stop-color:#003399"/>
				<a:midPointStop  offset="0" style="stop-color:#FFFFFF"/>
				<a:midPointStop  offset="0.5141" style="stop-color:#FFFFFF"/>
				<a:midPointStop  offset="1" style="stop-color:#003399"/>
			</linearGradient>
			<path fill="url(#XMLID_4_)" d="M55.631,69.996c0,2.75-2.25,5-5,5H9.951c-2.75,0-5-2.25-5-5v-8.25c0-2.75,2.25-5,5-5h40.68
				c2.75,0,5,2.25,5,5V69.996z"/>
		</g>
		<g>
			<path fill="#003399" d="M32.189,67.9c0,2.75-2.25,5-5,5H11.311c-2.75,0-5-2.25-5-5v-3.773c0-2.75,2.25-5,5-5h15.879
				c2.75,0,5,2.25,5,5V67.9z"/>
		</g>
		<g>
			<path fill="#003399" d="M52.238,66.014c0,0.862-2.25,1.567-5,1.567h-8.977c-2.75,0-5-0.705-5-1.567c0-0.862,2.25-1.567,5-1.567
				h8.977C49.988,64.447,52.238,65.152,52.238,66.014z"/>
		</g>
		<g>
			<path fill="#003399" d="M53.403,118.792c0,1.347-1.374,2.448-3.053,2.448s-3.053-1.102-3.053-2.448s1.374-2.449,3.053-2.449
				S53.403,117.445,53.403,118.792z"/>
		</g>
		<g>
			<path fill="#003399" d="M55.845,108.327c0,2.75-2.25,5-5,5h-0.977c-2.75,0-5-2.25-5-5v-1.135c0-2.75,2.25-5,5-5h0.977
				c2.75,0,5,2.25,5,5V108.327z"/>
		</g>
		<g>
			<linearGradient id="XMLID_5_" gradientUnits="userSpaceOnUse" x1="46.854" y1="110.9868" x2="53.5621" y2="104.2788">
				<stop  offset="0" style="stop-color:#FFFFFF"/>
				<stop  offset="0.2767" style="stop-color:#BCCAE4"/>
				<stop  offset="0.916" style="stop-color:#1645A2"/>
				<stop  offset="1" style="stop-color:#003399"/>
				<a:midPointStop  offset="0" style="stop-color:#FFFFFF"/>
				<a:midPointStop  offset="0.5141" style="stop-color:#FFFFFF"/>
				<a:midPointStop  offset="1" style="stop-color:#003399"/>
			</linearGradient>
			<path fill="url(#XMLID_5_)" d="M54.898,107.632c0,2.644-2.111,4.807-4.691,4.807s-4.691-2.163-4.691-4.807
				s2.111-4.807,4.691-4.807S54.898,104.988,54.898,107.632z"/>
		</g>
		<g>
			<path fill="#003399" d="M53.237,107.938c0,1.347-1.374,2.448-3.053,2.448s-3.053-1.102-3.053-2.448s1.374-2.448,3.053-2.448
				S53.237,106.592,53.237,107.938z"/>
		</g>
	</g>
	<g id="telephony">
	</g>
	<g id="workstation">
	</g>
	<g id="laptop">
	</g>
</svg>
