<?xml version="1.0" encoding="iso-8859-1"?>
<!-- Generator: Adobe Illustrator 10.0, SVG Export Plug-In . SVG Version: 3.0.0 Build 76)  -->
<!DOCTYPE svg PUBLIC "-//W3C//DTD SVG 1.0//EN"    "http://www.w3.org/TR/2001/REC-SVG-20010904/DTD/svg10.dtd" [
	<!ENTITY ns_flows "http://ns.adobe.com/Flows/1.0/">
	<!ENTITY ns_svg "http://www.w3.org/2000/svg">
	<!ENTITY ns_xlink "http://www.w3.org/1999/xlink">
]>
<svg  xmlns="&ns_svg;" xmlns:xlink="&ns_xlink;" xmlns:a="http://ns.adobe.com/AdobeSVGViewerExtensions/3.0/"
	 width="128.787" height="147.301" viewBox="0 0 128.787 147.301" overflow="visible" enable-background="new 0 0 128.787 147.301"
	 xml:space="preserve">
	<g id="other">
	</g>
	<g id="opennms">
	</g>
	<g id="unspecified">
	</g>
	<g id="infrastructure">
	</g>
	<g id="printer">
	</g>
	<g id="server">
	</g>
	<g id="telephony">
		<g>
			<path fill="#003399" d="M64.047,110.225c0,5.5-4.5,10-10,10H10c-5.5,0-10-4.5-10-10V10C0,4.5,4.5,0,10,0h44.047
				c5.5,0,10,4.5,10,10V110.225z"/>
		</g>
		<g>
			<linearGradient id="XMLID_1_" gradientUnits="userSpaceOnUse" x1="-9.9731" y1="101.1172" x2="72.7764" y2="18.3677">
				<stop  offset="0" style="stop-color:#FFFFFF"/>
				<stop  offset="0.2767" style="stop-color:#BCCAE4"/>
				<stop  offset="0.916" style="stop-color:#1645A2"/>
				<stop  offset="1" style="stop-color:#003399"/>
				<a:midPointStop  offset="0" style="stop-color:#FFFFFF"/>
				<a:midPointStop  offset="0.5141" style="stop-color:#FFFFFF"/>
				<a:midPointStop  offset="1" style="stop-color:#003399"/>
			</linearGradient>
			<path fill="url(#XMLID_1_)" d="M61.391,108.377c0,5.5-4.5,10-10,10H11.412c-5.5,0-10-4.5-10-10v-97.27c0-5.5,4.5-10,10-10h39.979
				c5.5,0,10,4.5,10,10V108.377z"/>
		</g>
		<g>
			<path fill="#003399" d="M58.307,47.052c0,2.75-2.25,5-5,5H9.328c-2.75,0-5-2.25-5-5V35.918c0-2.75,2.25-5,5-5h43.979
				c2.75,0,5,2.25,5,5V47.052z"/>
		</g>
		<g>
			<linearGradient id="XMLID_2_" gradientUnits="userSpaceOnUse" x1="15.0703" y1="56.9248" x2="46.4316" y2="25.5635">
				<stop  offset="0" style="stop-color:#FFFFFF"/>
				<stop  offset="0.2767" style="stop-color:#BCCAE4"/>
				<stop  offset="0.916" style="stop-color:#1645A2"/>
				<stop  offset="1" style="stop-color:#003399"/>
				<a:midPointStop  offset="0" style="stop-color:#FFFFFF"/>
				<a:midPointStop  offset="0.5141" style="stop-color:#FFFFFF"/>
				<a:midPointStop  offset="1" style="stop-color:#003399"/>
			</linearGradient>
			<path fill="url(#XMLID_2_)" d="M55.924,45.37c0,2.75-2.25,5-5,5H10.578c-2.75,0-5-2.25-5-5v-8.251c0-2.75,2.25-5,5-5h40.347
				c2.75,0,5,2.25,5,5V45.37z"/>
		</g>
		<g>
			<path fill="#003399" d="M57.786,21.778c0,2.75-2.25,5-5,5H8.809c-2.75,0-5-2.25-5-5V10.644c0-2.75,2.25-5,5-5h43.977
				c2.75,0,5,2.25,5,5V21.778z"/>
		</g>
		<g>
			<linearGradient id="XMLID_3_" gradientUnits="userSpaceOnUse" x1="14.5513" y1="31.6509" x2="45.9124" y2="0.2898">
				<stop  offset="0" style="stop-color:#FFFFFF"/>
				<stop  offset="0.2767" style="stop-color:#BCCAE4"/>
				<stop  offset="0.916" style="stop-color:#1645A2"/>
				<stop  offset="1" style="stop-color:#003399"/>
				<a:midPointStop  offset="0" style="stop-color:#FFFFFF"/>
				<a:midPointStop  offset="0.5141" style="stop-color:#FFFFFF"/>
				<a:midPointStop  offset="1" style="stop-color:#003399"/>
			</linearGradient>
			<path fill="url(#XMLID_3_)" d="M55.405,20.095c0,2.75-2.25,5-5,5H10.058c-2.75,0-5-2.25-5-5v-8.25c0-2.75,2.25-5,5-5h40.347
				c2.75,0,5,2.25,5,5V20.095z"/>
		</g>
		<g>
			<path fill="#003399" d="M10.592,11.96c0,0.862-0.67,1.567-1.489,1.567s-1.489-0.705-1.489-1.567c0-0.862,0.67-1.567,1.489-1.567
				S10.592,11.098,10.592,11.96z"/>
		</g>
		<g>
			<path fill="#003399" d="M11.592,36.96c0,0.862-0.67,1.567-1.489,1.567s-1.489-0.705-1.489-1.567c0-0.862,0.67-1.567,1.489-1.567
				S11.592,36.098,11.592,36.96z"/>
		</g>
		<g>
			<path fill="none" stroke="#003399" stroke-width="2" d="M79.687,92.939c0,3.199-6.892,5.792-15.394,5.792
				c-12.752,0-23.089-3.89-23.089-8.689c0-7.199,15.506-13.034,34.634-13.034c28.691,0,51.95,8.753,51.95,19.551
				c0,16.197-34.888,29.327-77.925,29.327"/>
		</g>
		<g>
			<path fill="#003399" d="M82.493,138.599c2.709,4.786,0.426,8.702-5.074,8.702H15.628c-5.5,0-8.122-4.089-5.825-9.087
				l13.67-29.757c2.296-4.998,8.675-9.087,14.175-9.087h12.638c5.5,0,12.217,3.916,14.926,8.702L82.493,138.599z"/>
		</g>
		<g>
			<linearGradient id="XMLID_4_" gradientUnits="userSpaceOnUse" x1="24.6997" y1="152.3276" x2="63.7908" y2="113.2365">
				<stop  offset="0" style="stop-color:#FFFFFF"/>
				<stop  offset="0.2767" style="stop-color:#BCCAE4"/>
				<stop  offset="0.916" style="stop-color:#1645A2"/>
				<stop  offset="1" style="stop-color:#003399"/>
				<a:midPointStop  offset="0" style="stop-color:#FFFFFF"/>
				<a:midPointStop  offset="0.5141" style="stop-color:#FFFFFF"/>
				<a:midPointStop  offset="1" style="stop-color:#003399"/>
			</linearGradient>
			<path fill="url(#XMLID_4_)" d="M75.696,135.59c2.709,4.786,0.426,8.702-5.074,8.702H19.832c-5.5,0-8.122-4.089-5.825-9.087
				l10.709-23.311c2.296-4.998,8.675-9.087,14.175-9.087h8.248c5.5,0,12.217,3.916,14.926,8.702L75.696,135.59z"/>
		</g>
		<path fill="#003399" d="M96.56,27.717c0,6.996-6.566,12.667-14.667,12.667c-8.1,0-14.666-5.671-14.666-12.667
			c0-6.996,6.566-12.667,14.666-12.667C89.994,15.05,96.56,20.721,96.56,27.717z"/>
		<path fill="#003399" d="M85.226,20.384c2.536,21.253,6.623,30.856,6.001,37.667s-5.639,24.817-5.639,24.817l9.783,0.85
			c0,0,5.688-12.89,6.521-22.528s-1.449-17.852-1.449-17.852l-4.348-18.703L85.226,20.384z"/>
		<path fill="#003399" d="M95.893,81.05c0,6.996-6.566,12.667-14.667,12.667c-8.1,0-14.666-5.671-14.666-12.667
			c0-6.996,6.566-12.667,14.666-12.667C89.327,68.383,95.893,74.054,95.893,81.05z"/>
		<g>
			<linearGradient id="XMLID_5_" gradientUnits="userSpaceOnUse" x1="72.3564" y1="34.2729" x2="86.0989" y2="20.5305">
				<stop  offset="0" style="stop-color:#FFFFFF"/>
				<stop  offset="0.2767" style="stop-color:#BCCAE4"/>
				<stop  offset="0.916" style="stop-color:#1645A2"/>
				<stop  offset="1" style="stop-color:#003399"/>
				<a:midPointStop  offset="0" style="stop-color:#FFFFFF"/>
				<a:midPointStop  offset="0.5141" style="stop-color:#FFFFFF"/>
				<a:midPointStop  offset="1" style="stop-color:#003399"/>
			</linearGradient>
			<path fill="url(#XMLID_5_)" d="M88.894,27.402c0,5.395-4.328,9.768-9.667,9.768c-5.338,0-9.666-4.374-9.666-9.768
				c0-5.396,4.328-9.769,9.666-9.769C84.566,17.633,88.894,22.006,88.894,27.402z"/>
		</g>
		<g>
			<linearGradient id="XMLID_6_" gradientUnits="userSpaceOnUse" x1="71.8564" y1="88.1714" x2="85.5989" y2="74.429">
				<stop  offset="0" style="stop-color:#FFFFFF"/>
				<stop  offset="0.2767" style="stop-color:#BCCAE4"/>
				<stop  offset="0.916" style="stop-color:#1645A2"/>
				<stop  offset="1" style="stop-color:#003399"/>
				<a:midPointStop  offset="0" style="stop-color:#FFFFFF"/>
				<a:midPointStop  offset="0.5141" style="stop-color:#FFFFFF"/>
				<a:midPointStop  offset="1" style="stop-color:#003399"/>
			</linearGradient>
			<path fill="url(#XMLID_6_)" d="M88.394,81.3c0,5.395-4.328,9.768-9.667,9.768c-5.338,0-9.666-4.374-9.666-9.768
				c0-5.396,4.328-9.769,9.666-9.769C84.066,71.532,88.394,75.905,88.394,81.3z"/>
		</g>
		<g>
			<path fill="#003399" d="M76.283,27.466c0,0.7-0.532,1.273-1.181,1.273s-1.181-0.573-1.181-1.273s0.532-1.273,1.181-1.273
				S76.283,26.766,76.283,27.466z"/>
		</g>
		<g>
			<path fill="#003399" d="M78.2,23.883c0,0.7-0.532,1.273-1.181,1.273s-1.181-0.573-1.181-1.273s0.532-1.273,1.181-1.273
				S78.2,23.183,78.2,23.883z"/>
		</g>
		<g>
			<path fill="#003399" d="M81.701,23.883c0,0.7-0.532,1.273-1.181,1.273s-1.181-0.573-1.181-1.273s0.532-1.273,1.181-1.273
				S81.701,23.183,81.701,23.883z"/>
		</g>
		<g>
			<path fill="#003399" d="M83.533,27.383c0,0.7-0.532,1.273-1.181,1.273s-1.181-0.573-1.181-1.273s0.532-1.273,1.181-1.273
				S83.533,26.683,83.533,27.383z"/>
		</g>
		<g>
			<path fill="#003399" d="M77.948,30.383c0,0.7-0.532,1.273-1.181,1.273s-1.181-0.573-1.181-1.273s0.532-1.273,1.181-1.273
				S77.948,29.683,77.948,30.383z"/>
		</g>
		<g>
			<path fill="#003399" d="M81.449,30.384c0,0.7-0.532,1.273-1.181,1.273s-1.181-0.573-1.181-1.273s0.532-1.273,1.181-1.273
				S81.449,29.684,81.449,30.384z"/>
		</g>
		<g>
			<path fill="#003399" d="M77.534,81.716c0,0.7-0.532,1.273-1.181,1.273s-1.181-0.573-1.181-1.273s0.532-1.273,1.181-1.273
				S77.534,81.016,77.534,81.716z"/>
		</g>
		<g>
			<path fill="#003399" d="M79.451,79.133c0,0.7-0.532,1.273-1.181,1.273s-1.181-0.573-1.181-1.273s0.532-1.273,1.181-1.273
				S79.451,78.433,79.451,79.133z"/>
		</g>
		<g>
			<path fill="#003399" d="M80.952,82.133c0,0.7-0.532,1.273-1.181,1.273s-1.181-0.573-1.181-1.273s0.532-1.273,1.181-1.273
				S80.952,81.433,80.952,82.133z"/>
		</g>
		<g>
			<path fill="#003399" d="M56.323,130.568c0,2.75-2.25,5-5,5H34.345c-2.75,0-5-2.25-5-5v-16.172c0-2.75,2.25-5,5-5h16.978
				c2.75,0,5,2.25,5,5V130.568z"/>
		</g>
		<g>
			<path fill="#003399" d="M44.304,113.73c0,1.175-0.948,2.136-2.106,2.136s-2.106-0.961-2.106-2.136s0.948-2.136,2.106-2.136
				S44.304,112.555,44.304,113.73z"/>
		</g>
		<g>
			<linearGradient id="XMLID_7_" gradientUnits="userSpaceOnUse" x1="41.1772" y1="114.6465" x2="43.1055" y2="112.7183">
				<stop  offset="0" style="stop-color:#FFFFFF"/>
				<stop  offset="0.2767" style="stop-color:#BCCAE4"/>
				<stop  offset="0.916" style="stop-color:#1645A2"/>
				<stop  offset="1" style="stop-color:#003399"/>
				<a:midPointStop  offset="0" style="stop-color:#FFFFFF"/>
				<a:midPointStop  offset="0.5141" style="stop-color:#FFFFFF"/>
				<a:midPointStop  offset="1" style="stop-color:#003399"/>
			</linearGradient>
			<path fill="url(#XMLID_7_)" d="M44.069,113.682c0,1.014-0.868,1.844-1.928,1.844s-1.928-0.83-1.928-1.844
				s0.868-1.844,1.928-1.844S44.069,112.667,44.069,113.682z"/>
		</g>
		<g>
			<path fill="#003399" d="M38.915,113.855c0,1.175-0.948,2.136-2.106,2.136s-2.106-0.961-2.106-2.136s0.948-2.136,2.106-2.136
				S38.915,112.681,38.915,113.855z"/>
		</g>
		<g>
			<linearGradient id="XMLID_8_" gradientUnits="userSpaceOnUse" x1="35.7876" y1="114.771" x2="37.7156" y2="112.843">
				<stop  offset="0" style="stop-color:#FFFFFF"/>
				<stop  offset="0.2767" style="stop-color:#BCCAE4"/>
				<stop  offset="0.916" style="stop-color:#1645A2"/>
				<stop  offset="1" style="stop-color:#003399"/>
				<a:midPointStop  offset="0" style="stop-color:#FFFFFF"/>
				<a:midPointStop  offset="0.5141" style="stop-color:#FFFFFF"/>
				<a:midPointStop  offset="1" style="stop-color:#003399"/>
			</linearGradient>
			<path fill="url(#XMLID_8_)" d="M38.679,113.807c0,1.014-0.868,1.844-1.928,1.844c-1.061,0-1.928-0.83-1.928-1.844
				s0.868-1.844,1.928-1.844C37.812,111.962,38.679,112.792,38.679,113.807z"/>
		</g>
		<g>
			<path fill="#003399" d="M49.905,113.856c0,1.175-0.948,2.136-2.106,2.136s-2.106-0.961-2.106-2.136s0.948-2.136,2.106-2.136
				S49.905,112.682,49.905,113.856z"/>
		</g>
		<g>
			<linearGradient id="XMLID_9_" gradientUnits="userSpaceOnUse" x1="46.7778" y1="114.7725" x2="48.7058" y2="112.8445">
				<stop  offset="0" style="stop-color:#FFFFFF"/>
				<stop  offset="0.2767" style="stop-color:#BCCAE4"/>
				<stop  offset="0.916" style="stop-color:#1645A2"/>
				<stop  offset="1" style="stop-color:#003399"/>
				<a:midPointStop  offset="0" style="stop-color:#FFFFFF"/>
				<a:midPointStop  offset="0.5141" style="stop-color:#FFFFFF"/>
				<a:midPointStop  offset="1" style="stop-color:#003399"/>
			</linearGradient>
			<path fill="url(#XMLID_9_)" d="M49.669,113.808c0,1.015-0.868,1.845-1.928,1.845c-1.061,0-1.928-0.83-1.928-1.845
				s0.868-1.845,1.928-1.845C48.802,111.963,49.669,112.793,49.669,113.808z"/>
		</g>
		<g>
			<path fill="#003399" d="M38.915,119.563c0,1.175-0.948,2.136-2.106,2.136s-2.106-0.961-2.106-2.136s0.948-2.136,2.106-2.136
				S38.915,118.388,38.915,119.563z"/>
		</g>
		<g>
			<linearGradient id="XMLID_10_" gradientUnits="userSpaceOnUse" x1="35.7876" y1="120.4775" x2="37.7156" y2="118.5496">
				<stop  offset="0" style="stop-color:#FFFFFF"/>
				<stop  offset="0.2767" style="stop-color:#BCCAE4"/>
				<stop  offset="0.916" style="stop-color:#1645A2"/>
				<stop  offset="1" style="stop-color:#003399"/>
				<a:midPointStop  offset="0" style="stop-color:#FFFFFF"/>
				<a:midPointStop  offset="0.5141" style="stop-color:#FFFFFF"/>
				<a:midPointStop  offset="1" style="stop-color:#003399"/>
			</linearGradient>
			<path fill="url(#XMLID_10_)" d="M38.679,119.513c0,1.015-0.868,1.845-1.928,1.845c-1.061,0-1.928-0.83-1.928-1.845
				s0.868-1.845,1.928-1.845C37.812,117.668,38.679,118.499,38.679,119.513z"/>
		</g>
		<g>
			<path fill="#003399" d="M44.41,119.563c0,1.175-0.948,2.136-2.106,2.136s-2.106-0.961-2.106-2.136s0.948-2.136,2.106-2.136
				S44.41,118.389,44.41,119.563z"/>
		</g>
		<g>
			<linearGradient id="XMLID_11_" gradientUnits="userSpaceOnUse" x1="41.2832" y1="120.4785" x2="43.2112" y2="118.5505">
				<stop  offset="0" style="stop-color:#FFFFFF"/>
				<stop  offset="0.2767" style="stop-color:#BCCAE4"/>
				<stop  offset="0.916" style="stop-color:#1645A2"/>
				<stop  offset="1" style="stop-color:#003399"/>
				<a:midPointStop  offset="0" style="stop-color:#FFFFFF"/>
				<a:midPointStop  offset="0.5141" style="stop-color:#FFFFFF"/>
				<a:midPointStop  offset="1" style="stop-color:#003399"/>
			</linearGradient>
			<path fill="url(#XMLID_11_)" d="M44.175,119.514c0,1.015-0.868,1.845-1.928,1.845c-1.06,0-1.928-0.83-1.928-1.845
				s0.868-1.845,1.928-1.845C43.307,117.669,44.175,118.5,44.175,119.514z"/>
		</g>
		<g>
			<path fill="#003399" d="M49.904,119.563c0,1.175-0.948,2.136-2.106,2.136s-2.106-0.961-2.106-2.136s0.948-2.136,2.106-2.136
				S49.904,118.389,49.904,119.563z"/>
		</g>
		<g>
			<linearGradient id="XMLID_12_" gradientUnits="userSpaceOnUse" x1="46.7778" y1="120.4785" x2="48.7056" y2="118.5508">
				<stop  offset="0" style="stop-color:#FFFFFF"/>
				<stop  offset="0.2767" style="stop-color:#BCCAE4"/>
				<stop  offset="0.916" style="stop-color:#1645A2"/>
				<stop  offset="1" style="stop-color:#003399"/>
				<a:midPointStop  offset="0" style="stop-color:#FFFFFF"/>
				<a:midPointStop  offset="0.5141" style="stop-color:#FFFFFF"/>
				<a:midPointStop  offset="1" style="stop-color:#003399"/>
			</linearGradient>
			<path fill="url(#XMLID_12_)" d="M49.669,119.514c0,1.015-0.868,1.845-1.928,1.845s-1.928-0.83-1.928-1.845
				s0.868-1.845,1.928-1.845S49.669,118.5,49.669,119.514z"/>
		</g>
		<g>
			<path fill="#003399" d="M44.304,124.995c0,1.175-0.948,2.136-2.106,2.136s-2.106-0.961-2.106-2.136s0.948-2.136,2.106-2.136
				S44.304,123.82,44.304,124.995z"/>
		</g>
		<g>
			<linearGradient id="XMLID_13_" gradientUnits="userSpaceOnUse" x1="41.1768" y1="125.9106" x2="43.105" y2="123.9824">
				<stop  offset="0" style="stop-color:#FFFFFF"/>
				<stop  offset="0.2767" style="stop-color:#BCCAE4"/>
				<stop  offset="0.916" style="stop-color:#1645A2"/>
				<stop  offset="1" style="stop-color:#003399"/>
				<a:midPointStop  offset="0" style="stop-color:#FFFFFF"/>
				<a:midPointStop  offset="0.5141" style="stop-color:#FFFFFF"/>
				<a:midPointStop  offset="1" style="stop-color:#003399"/>
			</linearGradient>
			<path fill="url(#XMLID_13_)" d="M44.069,124.946c0,1.014-0.868,1.844-1.928,1.844s-1.928-0.83-1.928-1.844
				s0.868-1.844,1.928-1.844S44.069,123.932,44.069,124.946z"/>
		</g>
		<g>
			<path fill="#003399" d="M38.915,125.12c0,1.175-0.948,2.136-2.106,2.136s-2.106-0.961-2.106-2.136s0.948-2.136,2.106-2.136
				S38.915,123.945,38.915,125.12z"/>
		</g>
		<g>
			<linearGradient id="XMLID_14_" gradientUnits="userSpaceOnUse" x1="35.7876" y1="126.0356" x2="37.7156" y2="124.1077">
				<stop  offset="0" style="stop-color:#FFFFFF"/>
				<stop  offset="0.2767" style="stop-color:#BCCAE4"/>
				<stop  offset="0.916" style="stop-color:#1645A2"/>
				<stop  offset="1" style="stop-color:#003399"/>
				<a:midPointStop  offset="0" style="stop-color:#FFFFFF"/>
				<a:midPointStop  offset="0.5141" style="stop-color:#FFFFFF"/>
				<a:midPointStop  offset="1" style="stop-color:#003399"/>
			</linearGradient>
			<path fill="url(#XMLID_14_)" d="M38.679,125.071c0,1.014-0.868,1.844-1.928,1.844c-1.061,0-1.928-0.83-1.928-1.844
				s0.868-1.844,1.928-1.844C37.812,123.227,38.679,124.057,38.679,125.071z"/>
		</g>
		<g>
			<path fill="#003399" d="M49.905,125.121c0,1.175-0.948,2.136-2.106,2.136s-2.106-0.961-2.106-2.136s0.948-2.136,2.106-2.136
				S49.905,123.946,49.905,125.121z"/>
		</g>
		<g>
			<linearGradient id="XMLID_15_" gradientUnits="userSpaceOnUse" x1="46.7778" y1="126.0371" x2="48.7058" y2="124.1091">
				<stop  offset="0" style="stop-color:#FFFFFF"/>
				<stop  offset="0.2767" style="stop-color:#BCCAE4"/>
				<stop  offset="0.916" style="stop-color:#1645A2"/>
				<stop  offset="1" style="stop-color:#003399"/>
				<a:midPointStop  offset="0" style="stop-color:#FFFFFF"/>
				<a:midPointStop  offset="0.5141" style="stop-color:#FFFFFF"/>
				<a:midPointStop  offset="1" style="stop-color:#003399"/>
			</linearGradient>
			<path fill="url(#XMLID_15_)" d="M49.669,125.073c0,1.015-0.868,1.845-1.928,1.845c-1.061,0-1.928-0.83-1.928-1.845
				s0.868-1.845,1.928-1.845C48.802,123.228,49.669,124.058,49.669,125.073z"/>
		</g>
		<g>
			<path fill="#003399" d="M44.304,130.701c0,1.174-0.948,2.135-2.106,2.135s-2.106-0.961-2.106-2.135s0.948-2.135,2.106-2.135
				S44.304,129.527,44.304,130.701z"/>
		</g>
		<g>
			<linearGradient id="XMLID_16_" gradientUnits="userSpaceOnUse" x1="41.1768" y1="131.6172" x2="43.105" y2="129.689">
				<stop  offset="0" style="stop-color:#FFFFFF"/>
				<stop  offset="0.2767" style="stop-color:#BCCAE4"/>
				<stop  offset="0.916" style="stop-color:#1645A2"/>
				<stop  offset="1" style="stop-color:#003399"/>
				<a:midPointStop  offset="0" style="stop-color:#FFFFFF"/>
				<a:midPointStop  offset="0.5141" style="stop-color:#FFFFFF"/>
				<a:midPointStop  offset="1" style="stop-color:#003399"/>
			</linearGradient>
			<path fill="url(#XMLID_16_)" d="M44.069,130.653c0,1.015-0.868,1.845-1.928,1.845s-1.928-0.83-1.928-1.845
				s0.868-1.845,1.928-1.845S44.069,129.638,44.069,130.653z"/>
		</g>
		<g>
			<path fill="#003399" d="M38.915,130.827c0,1.175-0.948,2.136-2.106,2.136s-2.106-0.961-2.106-2.136s0.948-2.136,2.106-2.136
				S38.915,129.652,38.915,130.827z"/>
		</g>
		<g>
			<linearGradient id="XMLID_17_" gradientUnits="userSpaceOnUse" x1="35.7871" y1="131.7422" x2="37.7153" y2="129.814">
				<stop  offset="0" style="stop-color:#FFFFFF"/>
				<stop  offset="0.2767" style="stop-color:#BCCAE4"/>
				<stop  offset="0.916" style="stop-color:#1645A2"/>
				<stop  offset="1" style="stop-color:#003399"/>
				<a:midPointStop  offset="0" style="stop-color:#FFFFFF"/>
				<a:midPointStop  offset="0.5141" style="stop-color:#FFFFFF"/>
				<a:midPointStop  offset="1" style="stop-color:#003399"/>
			</linearGradient>
			<path fill="url(#XMLID_17_)" d="M38.679,130.778c0,1.015-0.868,1.845-1.928,1.845s-1.928-0.83-1.928-1.845
				s0.868-1.845,1.928-1.845S38.679,129.763,38.679,130.778z"/>
		</g>
		<g>
			<path fill="#003399" d="M49.904,130.828c0,1.175-0.948,2.136-2.106,2.136s-2.106-0.961-2.106-2.136s0.948-2.136,2.106-2.136
				S49.904,129.653,49.904,130.828z"/>
		</g>
		<g>
			<linearGradient id="XMLID_18_" gradientUnits="userSpaceOnUse" x1="46.7773" y1="131.7427" x2="48.7051" y2="129.8149">
				<stop  offset="0" style="stop-color:#FFFFFF"/>
				<stop  offset="0.2767" style="stop-color:#BCCAE4"/>
				<stop  offset="0.916" style="stop-color:#1645A2"/>
				<stop  offset="1" style="stop-color:#003399"/>
				<a:midPointStop  offset="0" style="stop-color:#FFFFFF"/>
				<a:midPointStop  offset="0.5141" style="stop-color:#FFFFFF"/>
				<a:midPointStop  offset="1" style="stop-color:#003399"/>
			</linearGradient>
			<path fill="url(#XMLID_18_)" d="M49.669,130.779c0,1.015-0.868,1.845-1.928,1.845s-1.928-0.83-1.928-1.845
				s0.868-1.845,1.928-1.845S49.669,129.764,49.669,130.779z"/>
		</g>
		<g>
			<path fill="#003399" d="M17.512,85.68c0,2.75-2.25,5-5,5h-0.977c-2.75,0-5-2.25-5-5v-1.134c0-2.75,2.25-5,5-5h0.977
				c2.75,0,5,2.25,5,5V85.68z"/>
		</g>
		<g>
			<linearGradient id="XMLID_19_" gradientUnits="userSpaceOnUse" x1="8.5205" y1="88.3394" x2="15.2287" y2="81.6312">
				<stop  offset="0" style="stop-color:#FFFFFF"/>
				<stop  offset="0.2767" style="stop-color:#BCCAE4"/>
				<stop  offset="0.916" style="stop-color:#1645A2"/>
				<stop  offset="1" style="stop-color:#003399"/>
				<a:midPointStop  offset="0" style="stop-color:#FFFFFF"/>
				<a:midPointStop  offset="0.5141" style="stop-color:#FFFFFF"/>
				<a:midPointStop  offset="1" style="stop-color:#003399"/>
			</linearGradient>
			<path fill="url(#XMLID_19_)" d="M16.565,84.985c0,2.645-2.111,4.808-4.691,4.808s-4.691-2.163-4.691-4.808
				c0-2.644,2.111-4.807,4.691-4.807S16.565,82.341,16.565,84.985z"/>
		</g>
		<g>
			<path fill="#003399" d="M14.904,85.292c0,1.347-1.374,2.448-3.053,2.448s-3.053-1.102-3.053-2.448s1.374-2.449,3.053-2.449
				S14.904,83.945,14.904,85.292z"/>
		</g>
		<g>
			<path fill="#003399" d="M42.013,65.113c0,0.862-2.25,1.567-5,1.567H11.035c-2.75,0-5-0.705-5-1.567c0-0.862,2.25-1.567,5-1.567
				h25.978C39.763,63.545,42.013,64.25,42.013,65.113z"/>
		</g>
		<g>
			<path fill="#003399" d="M42.013,71.113c0,0.862-2.25,1.567-5,1.567H11.035c-2.75,0-5-0.705-5-1.567c0-0.862,2.25-1.567,5-1.567
				h25.978C39.763,69.545,42.013,70.25,42.013,71.113z"/>
		</g>
	</g>
	<g id="workstation">
	</g>
	<g id="laptop">
	</g>
</svg>
