<svg xmlns="http://www.w3.org/2000/svg" viewBox="0 0 800 390" font-family="Helvetica, Arial, sans-serif">
  <rect x="0" y="0" width="800" height="390" fill="#ffffff"/>
  <!-- Single host boundary (top) -->
  <rect x="200" y="30" width="400" height="150" rx="12" fill="none" stroke="#bbbbbb" stroke-width="2"/>
  <text x="220" y="62" font-size="16" font-weight="bold" fill="#666666">Single host</text>
  <!-- OpenNMS Core -->
  <rect x="230" y="80" width="180" height="80" rx="10" fill="#4c9a41" stroke="#2e6b28" stroke-width="2"/>
  <text x="320" y="126" text-anchor="middle" font-size="17" font-weight="bold" fill="#ffffff">OpenNMS Core</text>
  <!-- PostgreSQL -->
  <rect x="425" y="80" width="150" height="80" rx="10" fill="#f2f2f2" stroke="#8c8c8c" stroke-width="2"/>
  <text x="500" y="126" text-anchor="middle" font-size="16" font-weight="bold" fill="#222222">PostgreSQL</text>
  <!-- Core-PostgreSQL connection -->
  <line x1="410" y1="120" x2="425" y2="120" stroke="#555555" stroke-width="2"/>
  <!-- connections: each Minion to the host/core -->
  <line x1="140" y1="290" x2="400" y2="180" stroke="#555555" stroke-width="2"/>
  <line x1="400" y1="290" x2="400" y2="180" stroke="#555555" stroke-width="2"/>
  <line x1="660" y1="290" x2="400" y2="180" stroke="#555555" stroke-width="2"/>
  <!-- Minions (bottom, in remote networks) -->
  <rect x="60" y="290" width="160" height="75" rx="10" fill="#1f6db3" stroke="#134a7c" stroke-width="2"/>
  <text x="140" y="333" text-anchor="middle" font-size="15" font-weight="bold" fill="#ffffff">OpenNMS Minion</text>
  <rect x="320" y="290" width="160" height="75" rx="10" fill="#1f6db3" stroke="#134a7c" stroke-width="2"/>
  <text x="400" y="333" text-anchor="middle" font-size="15" font-weight="bold" fill="#ffffff">OpenNMS Minion</text>
  <rect x="580" y="290" width="160" height="75" rx="10" fill="#1f6db3" stroke="#134a7c" stroke-width="2"/>
  <text x="660" y="333" text-anchor="middle" font-size="15" font-weight="bold" fill="#ffffff">OpenNMS Minion</text>
</svg>
